<svg id="_레이어_2" xmlns="http://www.w3.org/2000/svg" viewBox="0 0 223.26 51.84"><defs><style>.cls-3{fill:#cdccbf}</style></defs><g id="_레이어_1-2"><g id="GnBSoftec-2"><path d="M24.65 31.62v-2.49c-1.04.92-2.32 1.71-3.83 2.37s-3.23.99-5.16.99c-4.86 0-8.68-1.48-11.47-4.43S0 21.18 0 16.28 1.4 7.57 4.19 4.67 10.8.33 15.66.33c4.54 0 7.99 1.18 10.36 3.55 2.37 2.37 3.88 4.78 4.54 7.25h-6.48c-.54-1.52-1.43-2.85-2.67-4-1.25-1.15-3.16-1.72-5.75-1.72-3.06 0-5.38 1-6.98 3.01-1.59 2.01-2.39 4.63-2.39 7.87s.8 5.95 2.39 8.04c1.59 2.09 3.92 3.14 6.98 3.14 2.52 0 4.56-.71 6.13-2.13s2.47-3.13 2.72-5.14h-8.04v-4.95h14.14v16.38h-5.96z" style="fill:#0081ae"/><path class="cls-3" d="M51.52 31.62v-13.2c0-1.58-.37-2.78-1.11-3.61s-1.9-1.25-3.48-1.25c-1.67 0-3.04.52-4.09 1.55-1.06 1.03-1.58 2.28-1.58 3.74v12.77h-5.91V9h5.91v2.32c.88-.77 2.04-1.47 3.48-2.09 1.43-.62 3.07-.82 4.9-.62 2.81.29 4.82 1.29 6.03 3.01s1.82 3.38 1.82 4.99v15.01h-5.97z"/><path d="M87.54 18.14c1.09 1.28 1.55 2.92 1.4 4.92-.16 2.67-1.42 4.77-3.78 6.32-2.37 1.55-5.17 2.32-8.42 2.32H62.55V.91h14.52c3.15 0 5.61.7 7.38 2.11s2.79 3.04 3.07 4.9c.25 1.63.04 3.07-.64 4.3s-1.57 2.25-2.67 3.05c1.14.63 2.25 1.58 3.33 2.86zm-7.59-6.01c.88-.67 1.32-1.6 1.32-2.77 0-1.09-.43-1.91-1.28-2.47s-2.08-.84-3.69-.84h-7.85v7.09h7.8c1.58 0 2.81-.34 3.69-1.01zm1.11 13.35c.93-.77 1.43-1.85 1.49-3.22.06-1.29-.43-2.28-1.47-2.97s-2.49-1.03-4.35-1.03h-8.28v8.38h8.18c2.02 0 3.49-.39 4.42-1.16h.01z" style="fill:#ff9700"/><path class="cls-3" d="M115.89 18.61c1.1 1.56 1.51 3.28 1.23 5.14-.38 2.44-1.66 4.55-3.83 6.34-2.18 1.79-5.34 2.69-9.51 2.69-4.57 0-7.98-1.27-10.22-3.81s-3.39-5.4-3.45-8.58h6.24c.13 2.52.88 4.37 2.27 5.55s3.14 1.76 5.25 1.76 3.74-.41 4.8-1.23c1.06-.82 1.73-1.84 2.01-3.07.22-.95.05-1.7-.5-2.26-.55-.56-1.35-1.07-2.39-1.53-1.45-.63-2.98-.98-4.59-1.05s-3.25-.41-4.92-1.01c-2.4-.89-4.18-1.95-5.34-3.18-1.17-1.23-1.73-2.95-1.7-5.16.06-2.18 1.13-4.26 3.19-6.24C96.49.99 99.55 0 103.58 0c4.82 0 8.13 1.29 9.91 3.87s2.67 4.96 2.67 7.14h-6.2c0-1.81-.51-3.26-1.54-4.36s-2.64-1.66-4.85-1.66c-1.96 0-3.42.44-4.4 1.31-.98.88-1.47 1.84-1.47 2.9s.35 1.83 1.06 2.3 1.47.82 2.29 1.05c1.14.4 2.65.72 4.54.97 1.89.24 3.74.74 5.53 1.48 2.05.83 3.63 2.03 4.73 3.59l.04.02zM139.94 11.6c2.25 2.28 3.38 5.18 3.38 8.71s-1.13 6.39-3.38 8.69c-2.25 2.29-5.35 3.44-9.29 3.44s-7-1.15-9.27-3.44c-2.27-2.29-3.41-5.19-3.41-8.69s1.13-6.43 3.41-8.71c2.27-2.28 5.36-3.42 9.27-3.42s7.04 1.14 9.29 3.42zm-4.66 13.87c1.14-1.35 1.7-3.07 1.7-5.16s-.57-3.84-1.7-5.16c-1.14-1.32-2.68-1.98-4.64-1.98s-3.5.66-4.64 1.98-1.7 3.04-1.7 5.16.57 3.81 1.7 5.16 2.68 2.02 4.64 2.02 3.5-.67 4.64-2.02zM152.74 13.9v17.72h-5.96V13.9h-2.98V9.13h2.98V7.67c0-1.35.15-2.46.45-3.35s.7-1.59 1.21-2.11c.5-.49 1.1-.82 1.77-1.01.68-.19 1.41-.28 2.2-.28h3.74v4.82c-.69 0-1.27.04-1.73.11-.46.07-.81.18-1.06.32-.22.17-.38.4-.47.69s-.14.65-.14 1.08v1.2h3.41v4.77h-3.42zM166.55 31.66c-.88 0-1.67-.14-2.37-.41-.69-.27-1.29-.67-1.8-1.18-.5-.57-.9-1.28-1.18-2.11s-.43-1.79-.43-2.88V13.9h-2.98V9.13h2.98V2.55h5.96v6.58h3.41v4.77h-3.41v10.45c0 .46.04.85.12 1.16.08.32.23.57.45.77.25.2.6.35 1.04.45.44.1 1.04.15 1.8.15v4.77h-3.59zM177.99 22.33c.25 1.55.96 2.79 2.13 3.74s2.51 1.42 4.02 1.42c1.36 0 2.43-.24 3.22-.73s1.37-1.08 1.75-1.76h6.81c-.76 1.98-2.04 3.71-3.85 5.2-1.81 1.49-4.42 2.24-7.83 2.24-3.72 0-6.78-1.15-9.18-3.44s-3.59-5.19-3.59-8.69 1.16-6.43 3.48-8.71c2.32-2.28 5.38-3.42 9.2-3.42 3.41 0 6.39 1.1 8.96 3.29s3.79 5.81 3.67 10.86h-18.79zm12.2-4.69c-.25-1.35-.91-2.43-1.96-3.25-1.06-.82-2.42-1.23-4.09-1.23-1.55 0-2.85.37-3.93 1.12-1.07.75-1.77 1.86-2.08 3.35h12.06zM223.26 23.4c-.76 2.61-2.11 4.77-4.07 6.47-1.96 1.71-4.65 2.56-8.09 2.56-3.91 0-7-1.14-9.27-3.42s-3.41-5.17-3.41-8.67 1.14-6.43 3.41-8.73c2.27-2.29 5.36-3.44 9.27-3.44 3.47 0 6.22.92 8.25 2.75s3.3 3.94 3.81 6.32h-6.43c-.32-1.03-.89-1.97-1.73-2.82s-2.14-1.27-3.9-1.27c-1.92 0-3.45.67-4.59 2s-1.7 3.06-1.7 5.18.57 3.81 1.7 5.14 2.66 2 4.59 2c1.48 0 2.7-.37 3.64-1.12.95-.75 1.59-1.73 1.94-2.97h6.57v.02z"/></g><g id="Galaxy_Brand_Softec_Co.LTD-2"><path class="cls-3" d="M9.19 49.85v-1.32c-.26.38-.67.74-1.22 1.08-.56.34-1.18.5-1.87.5-1.42 0-2.53-.48-3.35-1.45s-1.22-2.24-1.22-3.83.41-2.81 1.22-3.75 1.93-1.41 3.35-1.41c1.33 0 2.34.36 3.03 1.09.69.73 1.1 1.41 1.25 2.06H8.94c-.17-.47-.46-.91-.88-1.34-.42-.43-1.07-.64-1.96-.64-1.03 0-1.81.37-2.35 1.11-.54.74-.81 1.7-.81 2.9s.27 2.2.81 2.97 1.33 1.15 2.35 1.15c.91 0 1.65-.31 2.19-.92s.84-1.33.88-2.15H6.22v-1.11h4.26v5.07H9.19zM18.22 49.85c-.08-.13-.14-.3-.17-.5s-.05-.38-.06-.54c-.29.31-.66.59-1.12.85-.46.26-.98.4-1.55.43-.73.04-1.36-.09-1.9-.38-.54-.29-.85-.76-.94-1.41-.09-.66.03-1.18.37-1.55s.78-.63 1.32-.78c.43-.13.88-.21 1.35-.24.47-.03.94-.08 1.39-.17.23-.05.47-.11.71-.17.24-.07.36-.27.36-.61 0-.31-.14-.61-.42-.9s-.77-.43-1.46-.43-1.19.13-1.5.39-.45.58-.4.95h-1.29c-.07-.78.22-1.37.87-1.79s1.42-.62 2.32-.62c.83 0 1.57.21 2.23.62s.98.99.98 1.73v3.96c0 .34.04.61.13.82.09.21.14.32.15.34h-1.37zm-.24-3.75c-.09.07-.21.13-.35.2-.14.07-.28.11-.42.14-.28.07-.66.12-1.13.16s-.82.1-1.04.17c-.42.13-.74.29-.97.48s-.31.48-.25.86c.05.38.24.64.57.76.33.13.68.18 1.06.16.83-.06 1.46-.3 1.89-.73s.64-.83.64-1.2v-1.01zM21.95 49.82v-9.91h1.26v9.91h-1.26zM31.1 49.85c-.08-.13-.14-.3-.17-.5s-.05-.38-.06-.54c-.29.31-.66.59-1.12.85s-.98.4-1.55.43c-.73.04-1.36-.09-1.9-.38-.54-.29-.85-.76-.94-1.41-.09-.66.03-1.18.37-1.55s.78-.63 1.32-.78c.43-.13.88-.21 1.35-.24s.94-.08 1.39-.17c.23-.05.47-.11.71-.17.24-.07.36-.27.36-.61 0-.31-.14-.61-.42-.9s-.77-.43-1.46-.43-1.19.13-1.5.39-.45.58-.4.95h-1.29c-.07-.78.22-1.37.87-1.79s1.42-.62 2.32-.62c.83 0 1.57.21 2.23.62s.98.99.98 1.73v3.96c0 .34.04.61.13.82s.14.32.15.34H31.1zm-.24-3.75c-.09.07-.21.13-.35.2s-.28.11-.42.14c-.28.07-.66.12-1.13.16s-.82.1-1.04.17c-.42.13-.74.29-.97.48s-.31.48-.25.86c.05.38.24.64.57.76.33.13.68.18 1.06.16.83-.06 1.46-.3 1.89-.73s.64-.83.64-1.2v-1.01zM39.46 49.85l-2.03-2.7-2.02 2.69H33.9l2.77-3.7-2.62-3.5h1.51l1.86 2.46 1.88-2.46h1.51l-2.6 3.5 2.77 3.71h-1.53zM46.11 50.6c-.09.23-.22.44-.38.61-.16.17-.34.31-.53.41-.21.11-.42.18-.63.2-.21.02-.42.03-.63.02h-.43v-1.06h.66c.21 0 .38-.07.51-.19.14-.12.24-.25.3-.4l.32-.69-2.97-6.87h1.32l2.24 5.26 2.24-5.26h1.32l-3.33 7.97zM64.21 49.92l-.88-1.11c-.49.48-1.01.82-1.56 1.04-.55.21-1.09.32-1.65.32-.79 0-1.51-.27-2.16-.81s-.97-1.26-.97-2.17c0-.71.23-1.31.69-1.8s1.06-.94 1.79-1.34c-.17-.2-.4-.5-.69-.9-.29-.41-.47-.81-.55-1.22-.13-.76.07-1.39.59-1.9.53-.51 1.2-.77 2.02-.77.77 0 1.43.23 1.96.7s.77 1.05.71 1.75c-.06.65-.33 1.19-.81 1.62-.49.42-.98.76-1.47 1.02l2.06 2.52c.16-.28.3-.62.43-1.01s.19-.71.19-.95h1.2c-.07.49-.18.99-.36 1.51-.17.52-.39 1-.67 1.44l1.68 2.07h-1.57.02zm-4.03-5.01c-.46.26-.9.56-1.32.9-.42.34-.65.78-.67 1.32 0 .46.17.88.52 1.27.36.39.84.6 1.45.62.4 0 .82-.08 1.25-.27.43-.19.82-.47 1.17-.84l-2.41-3h.01zm1.47-2.13c.36-.28.58-.62.64-1.01.07-.38-.03-.72-.31-1.02-.28-.3-.65-.45-1.12-.45-.44 0-.8.13-1.08.4s-.39.59-.33.97c.05.32.19.64.44.98.25.34.46.61.65.83.37-.19.74-.42 1.11-.7zM80.97 45.42c.41.43.59 1.01.55 1.75-.06.83-.42 1.48-1.11 1.94-.68.46-1.48.69-2.39.69H73.9v-9.91h4.23c.89 0 1.58.21 2.06.63.49.42.78.92.88 1.51.07.58-.02 1.08-.28 1.49-.26.42-.59.75-.98.99.36.18.75.48 1.16.91zm-1.75-1.79c.33-.28.49-.66.49-1.15 0-.45-.15-.79-.46-1.04s-.76-.37-1.36-.37h-2.72v2.98h2.7c.57 0 1.02-.14 1.34-.42h.01zm.36 4.57c.34-.31.52-.74.54-1.29.02-.53-.16-.94-.53-1.23-.37-.29-.9-.43-1.57-.43h-2.84v3.43h2.81c.72 0 1.25-.16 1.59-.47zM87.52 43.7c-.25 0-.47 0-.64.03-.18.02-.35.08-.53.17-.43.21-.75.52-.97.92s-.33.94-.33 1.62v3.39h-1.27v-7.17h1.27v1.01l.08.03c.17-.28.36-.51.57-.68s.46-.32.75-.44c.21-.1.45-.16.69-.17.25 0 .38-.01.38-.01v1.32-.02zM94.34 49.85c-.08-.13-.14-.3-.17-.5s-.05-.38-.06-.54c-.29.31-.66.59-1.12.85s-.98.4-1.55.43c-.73.04-1.36-.09-1.9-.38s-.85-.76-.94-1.41c-.09-.66.03-1.18.37-1.55.34-.37.78-.63 1.32-.78.43-.13.88-.21 1.35-.24s.94-.08 1.39-.17c.23-.05.47-.11.71-.17.24-.07.36-.27.36-.61 0-.31-.14-.61-.42-.9s-.77-.43-1.46-.43-1.19.13-1.5.39-.45.58-.4.95h-1.29c-.07-.78.22-1.37.87-1.79s1.42-.62 2.32-.62c.83 0 1.57.21 2.23.62s.98.99.98 1.73v3.96c0 .34.04.61.13.82s.14.32.15.34h-1.37zm-.24-3.75c-.09.07-.21.13-.35.2s-.28.11-.42.14c-.28.07-.66.12-1.13.16s-.82.1-1.04.17c-.42.13-.74.29-.97.48s-.31.48-.25.86c.05.38.24.64.57.76.33.13.68.18 1.06.16.83-.06 1.46-.3 1.89-.73s.64-.83.64-1.2v-1.01zM103.09 49.83v-4.34c0-.65-.14-1.12-.41-1.41s-.7-.43-1.27-.43c-.6 0-1.09.2-1.48.6-.39.4-.59.9-.59 1.48v4.1h-1.27v-7.18h1.27v.81c.33-.3.72-.57 1.19-.81s1.03-.33 1.68-.25c.77.09 1.33.42 1.67.97s.5 1.07.5 1.57v4.9h-1.29zM112.55 49.82v-.77c-.33.34-.7.59-1.11.78-.41.18-.85.27-1.32.27-1.04 0-1.87-.36-2.51-1.08s-.96-1.64-.96-2.77.32-2.09.96-2.79c.64-.7 1.48-1.05 2.51-1.05.47 0 .91.09 1.32.27.41.18.78.43 1.11.77v-3.54h1.32v9.91h-1.32zm-.58-1.6c.39-.47.58-1.12.58-1.97s-.19-1.5-.58-1.96-.94-.69-1.66-.69-1.24.24-1.63.73-.58 1.12-.58 1.92.19 1.44.58 1.93c.39.5.93.74 1.63.74s1.27-.23 1.66-.7zM129.41 45.78c.32.48.44 1.01.36 1.6-.11.77-.48 1.43-1.11 1.99s-1.54.84-2.74.84c-1.33 0-2.32-.4-2.95-1.19s-.97-1.62-.99-2.48h1.36c.04.81.3 1.43.78 1.86.48.43 1.09.64 1.84.64s1.32-.17 1.7-.5.62-.74.72-1.22c.07-.38 0-.7-.18-.94-.2-.24-.5-.46-.9-.66-.45-.21-.93-.33-1.44-.36s-1.02-.14-1.55-.36c-.65-.27-1.15-.6-1.5-.99s-.51-.92-.49-1.6c.02-.66.32-1.3.92-1.92s1.47-.92 2.64-.92c1.39 0 2.34.39 2.86 1.17s.77 1.45.77 2.02h-1.36c0-.56-.18-1.04-.55-1.45-.37-.41-.94-.61-1.71-.61-.73 0-1.26.18-1.6.54s-.51.75-.51 1.17c0 .45.13.77.4.98.27.21.54.36.83.46.37.13.85.24 1.42.31.57.08 1.14.25 1.69.5s.98.62 1.3 1.1v.02zM137.82 43.46c.65.73.97 1.65.97 2.76s-.32 2.04-.97 2.77c-.65.74-1.54 1.11-2.68 1.11s-2.03-.37-2.68-1.11-.97-1.66-.97-2.77.32-2.03.97-2.76 1.54-1.09 2.68-1.09 2.03.36 2.68 1.09zm-1 4.8c.43-.52.64-1.2.64-2.04s-.21-1.51-.64-2.02c-.43-.51-.99-.76-1.68-.76s-1.28.25-1.7.76-.64 1.18-.64 2.02.21 1.52.64 2.04c.42.52.99.78 1.7.78s1.25-.26 1.68-.78zM142.35 43.76v6.08h-1.27v-6.08h-.92v-1.04h.92v-.88c0-.37.02-.65.06-.84s.12-.36.25-.53c.12-.16.28-.3.47-.41.19-.12.42-.17.68-.16h.9v1.09c-.09 0-.22 0-.39-.02a.607.607 0 0 0-.44.15c-.13.12-.21.25-.22.4-.02.14-.03.32-.03.51v.69h1.08v1.05h-1.09zM147.29 49.83c-.26 0-.49-.06-.68-.18-.19-.12-.35-.26-.47-.42-.12-.16-.2-.33-.25-.52s-.06-.47-.06-.84v-4.12h-.92v-1.04h.92v-2.28h1.27v2.27h1.08v1.05h-1.08v4.39c0 .14.08.28.23.41.11.1.25.17.42.19s.31.04.42.04v1.05h-.9.02zM151.17 46.6c.02.73.25 1.32.7 1.77s.98.68 1.58.68 1.05-.13 1.34-.39c.3-.26.48-.51.56-.74h1.37c-.15.48-.48.95-.99 1.41-.51.47-1.27.7-2.27.7-1.05 0-1.92-.36-2.59-1.08s-1.01-1.63-1.01-2.73.32-2 .97-2.71c.65-.7 1.52-1.06 2.61-1.06.97 0 1.81.33 2.53.98.71.65 1.06 1.71 1.04 3.16h-5.85.01zm4.52-.96c-.04-.67-.25-1.21-.64-1.6-.39-.4-.92-.6-1.6-.6-.63 0-1.14.18-1.55.54s-.64.91-.71 1.66h4.5zM165.67 47.58c-.17.65-.53 1.24-1.08 1.75-.56.51-1.32.77-2.29.77-1.13 0-2.02-.37-2.67-1.1s-.98-1.65-.98-2.77.33-2.03.98-2.76 1.54-1.1 2.67-1.1c.98 0 1.76.28 2.34.83s.92 1.12 1.04 1.69h-1.41c-.07-.3-.26-.6-.56-.92-.3-.31-.77-.47-1.4-.47-.69 0-1.24.25-1.64.76s-.6 1.17-.6 1.97.2 1.46.6 1.97.95.77 1.64.77c.54 0 .98-.14 1.31-.43.33-.28.55-.61.65-.97h1.41zM180.8 42.8c-.17-.46-.46-.9-.88-1.33s-1.07-.64-1.96-.64c-.99 0-1.76.36-2.32 1.08s-.84 1.7-.84 2.92.28 2.25.84 3 1.33 1.12 2.32 1.12c.86 0 1.51-.24 1.96-.72.45-.48.75-.99.9-1.53h1.4c-.18.73-.6 1.49-1.28 2.25s-1.67 1.15-2.98 1.15c-1.42 0-2.53-.48-3.35-1.43-.81-.96-1.22-2.23-1.22-3.83s.41-2.81 1.22-3.75 1.93-1.41 3.35-1.41c1.33 0 2.34.36 3.02 1.09.68.73 1.1 1.41 1.25 2.04h-1.43zM190.4 43.46c.65.73.97 1.65.97 2.76s-.32 2.04-.97 2.77c-.65.74-1.54 1.11-2.68 1.11s-2.03-.37-2.68-1.11-.97-1.66-.97-2.77.32-2.03.97-2.76 1.54-1.09 2.68-1.09 2.03.36 2.68 1.09zm-1 4.8c.43-.52.64-1.2.64-2.04s-.21-1.51-.64-2.02c-.43-.51-.99-.76-1.68-.76s-1.28.25-1.7.76-.64 1.18-.64 2.02.21 1.52.64 2.04c.42.52.99.78 1.7.78s1.25-.26 1.68-.78zM195.55 49.05v1.76h-1.88v-1.76h1.88zM198.58 49.8v-9.9h1.27v8.76h5.31v1.13h-6.58zM208.41 41.07v8.76h-1.3v-8.76h-3.29v-1.16h7.9v1.16h-3.31zM220.39 41.29c.82.94 1.23 2.12 1.23 3.54s-.41 2.65-1.23 3.58-1.94 1.39-3.36 1.39h-3.33v-9.91h3.33c1.42 0 2.54.46 3.36 1.4zm-1.02 6.26c.56-.74.84-1.65.84-2.72s-.28-1.93-.84-2.67-1.42-1.1-2.59-1.1h-1.81v7.6h1.81c1.17 0 2.03-.37 2.59-1.11z"/></g></g></svg>