<?xml version="1.0" encoding="UTF-8"?>
<svg width="223px" height="97px" viewBox="0 0 223 97" version="1.1" xmlns="http://www.w3.org/2000/svg" xmlns:xlink="http://www.w3.org/1999/xlink">
    <!-- Generator: sketchtool 63.1 (101010) - https://sketch.com -->
    <title>388FD414-3B56-4A62-8363-39E77DD9FBF8</title>
    <desc>Created with sketchtool.</desc>
    <g id="로그인및팝업" stroke="none" stroke-width="1" fill="none" fill-rule="evenodd">
        <g id="로그인화면" transform="translate(-733.000000, -209.000000)" fill="#1D79D3" fill-rule="nonzero">
            <path d="M943.043478,272 C947.391304,272 950.695652,273.761658 953.043478,277.284974 C954.956522,280.279793 956,284.243523 956,289 C956,293.756477 955.043478,297.632124 953.043478,300.715026 C950.782609,304.238342 947.391304,306 943.043478,306 C938.695652,306 935.391304,304.238342 933.043478,300.715026 C931.043478,297.720207 930,293.756477 930,289 C930,284.243523 931.043478,280.367876 933.043478,277.284974 C935.391304,273.761658 938.695652,272 943.043478,272 Z M903.085246,272 C906.44918,272 909.333754,272.557909 911.663068,273.598011 L912.02623,273.766234 L913,274.170056 L913,279.32987 C909.695082,277.387013 906.242623,276.415584 902.642623,276.415584 C899.278689,276.415584 896.445902,277.651948 894.321311,279.948052 C892.108197,282.244156 891.045902,285.335065 891.045902,289.044156 C891.045902,292.92987 892.019672,295.932468 894.055738,298.14026 C896.003279,300.348052 898.747541,301.407792 902.2,301.407792 C904.265574,301.407792 906.099803,301.023146 907.702689,300.325653 L908.042623,300.171429 L908.042623,292.223377 L901.04918,292.223377 L901.04918,287.719481 L913,287.719481 L913,303.085714 L912.734426,303.262338 C909.459016,305.028571 905.740984,306 901.757377,306 C897.065574,306 893.259016,304.41039 890.337705,301.407792 C887.504918,298.405195 886,294.342857 886,289.397403 C886,284.275325 887.681967,280.124675 890.868852,276.857143 C894.055738,273.677922 898.127869,272 903.085246,272 Z M773.578935,281 C776.584154,281 779.324208,282.11828 781.710706,284.268817 C784.097203,286.505376 785.157869,289.860215 784.981092,294.505376 L767.21494,294.505376 L767.21494,294.677419 C767.391718,296.397849 768.098828,297.860215 769.247883,299.064516 C770.485326,300.268817 771.899547,300.870968 773.578935,300.870968 C775.258322,300.870968 776.495765,300.526882 777.379654,299.752688 C778.263542,299.064516 778.882263,298.376344 779.059041,297.688172 L784.273981,297.688172 C783.743648,299.236559 782.682982,300.870968 781.091984,302.505376 C779.412596,304.139785 777.026098,305 773.667323,305 C770.308549,305 767.480106,303.795699 765.270386,301.473118 C763.060666,299.150538 762,296.311828 762,292.956989 C762,289.602151 763.060666,286.677419 765.181997,284.44086 C767.303329,282.11828 770.131771,281 773.578935,281 Z M794,272 L794,305 L789,305 L789,272 L794,272 Z M810,272 L810,276.492228 C809.548872,276.492228 809.097744,276.492228 808.556391,276.404145 C808.015038,276.404145 807.56391,276.492228 807.203008,276.84456 C806.75188,277.196891 806.571429,277.549223 806.481203,277.901554 C806.390977,278.341969 806.390977,278.870466 806.390977,279.398964 L806.390977,281.336788 L810,281.336788 L810,285.740933 L806.390977,285.740933 L806.390977,305 L800.977444,305 L800.977444,285.740933 L798,285.740933 L798,281.336788 L801.067669,281.336788 L801.067669,278.606218 C801.067669,277.373057 801.157895,276.492228 801.338346,275.787565 C801.518797,275.082902 801.879699,274.466321 802.421053,273.937824 C802.781955,273.321244 803.413534,272.880829 804.135338,272.528497 C804.766917,272.176166 805.669173,272 806.661654,272 L810,272 Z M819,280.9375 L819,305 L814,305 L814,280.9375 L819,280.9375 Z M828.276423,281 L828.276423,283.485714 C829.349593,282.542857 831.04878,281 835.073171,281 C840.528455,281 845,285.542857 845,291.8 L845,305 L839.813008,305 L839.723577,292.314286 C839.723577,287.685714 836.95122,285.628571 834.357724,285.628571 C831.674797,285.628571 828.276423,287.428571 828.276423,292.314286 L828.276423,305 L823,305 L823,281 L828.276423,281 Z M859.412879,281 C862.984848,281 865.772727,282.204301 867.863636,284.44086 C869.954545,286.677419 871,289.516129 871,292.956989 C871,296.397849 869.954545,299.236559 867.863636,301.55914 C865.772727,303.88172 862.897727,305 859.412879,305 C855.840909,305 853.140152,303.88172 851.049242,301.55914 C849.045455,299.236559 848,296.311828 848,292.956989 C848,289.602151 848.958333,286.677419 851.049242,284.44086 C853.140152,282.11828 855.92803,281 859.412879,281 Z M927,272 L927,305 L922.019417,305 L922.019417,277.5 L918,279.21875 L918,273.804688 L922.019417,272 L927,272 Z M744.583871,272 C749.287097,272 753.032258,273.636915 755.819355,276.738439 C758.606452,279.926116 760,283.803021 760,288.455307 C760,293.107592 758.606452,297.07065 755.819355,300.258327 C753.032258,303.446005 749.287097,305.08292 744.583871,304.996767 L733,304.996767 L733,272 L744.583871,272 Z M942.956522,276.756477 C940.347826,276.756477 938.26087,278.07772 936.695652,280.632124 C935.304348,282.92228 934.608696,285.740933 934.608696,289 C934.608696,292.259067 935.304348,294.989637 936.695652,297.367876 C938.26087,300.010363 940.347826,301.243523 942.956522,301.243523 C945.565217,301.243523 947.652174,299.92228 949.217391,297.367876 C950.608696,294.989637 951.304348,292.170984 951.304348,289 C951.304348,285.740933 950.608696,283.010363 949.217391,280.632124 C947.652174,277.989637 945.565217,276.756477 942.956522,276.756477 Z M743.712903,276.652286 L738.13871,276.652286 L738.13871,300.430634 L743.8,300.430634 C747.283871,300.430634 749.983871,299.224486 751.725806,296.984497 C753.467742,294.658354 754.33871,291.901444 754.33871,288.54146 C754.33871,285.181476 753.467742,282.338412 751.725806,280.098423 C749.983871,277.858434 747.283871,276.652286 743.712903,276.652286 Z M859.5,285.817204 C857.409091,285.817204 855.753788,286.505376 854.534091,287.88172 C853.314394,289.172043 852.704545,290.892473 852.704545,292.956989 C852.704545,295.021505 853.314394,296.741935 854.534091,298.11828 C855.753788,299.494624 857.409091,300.182796 859.5,300.182796 C861.590909,300.182796 863.333333,299.494624 864.55303,298.11828 C865.772727,296.741935 866.382576,295.021505 866.382576,292.956989 C866.382576,290.978495 865.772727,289.258065 864.55303,287.88172 C863.333333,286.505376 861.590909,285.817204 859.5,285.817204 Z M773.667323,285.215054 C771.987936,285.215054 770.573715,285.731183 769.42466,286.677419 C768.275606,287.709677 767.568495,289.086022 767.21494,290.806452 L779.942929,290.806452 C779.766152,289.172043 779.059041,287.795699 777.998375,286.763441 C776.849321,285.731183 775.4351,285.215054 773.667323,285.215054 Z M819,272 L819,276.898438 L814,276.898438 L814,272 L819,272 Z M836,245 C839.051282,247.869045 847.397436,251.007064 851.076923,246.344865 C851.974359,247.510415 851.076923,249.841514 850.717949,250.827748 C851.794872,251.455352 856.551282,252.620902 857,253.965767 C847.038462,257.283101 838.423077,252.172613 836,245 Z M837.197012,212.314516 C840.120406,210.467691 844.195441,209.852083 849.067765,209.940027 C856.509133,210.907411 862.267334,215.040782 865.013553,221.988363 C861.735808,218.646489 853.49715,217.063496 846.587309,218.822377 C839.636581,220.547433 836.00917,224.979502 834.86933,229.463628 L834.805143,229.72744 L834.893731,229.72744 C837.994301,224.186964 844.461204,220.317426 851.902572,220.317426 C853.851501,220.317426 855.623256,220.581258 857.39501,221.020978 C857.39501,221.020978 857.926536,221.108922 857.837948,221.108922 C861.64722,222.252195 864.836378,224.362852 867.139658,227.089118 C867.405421,227.35295 867.671184,227.704727 867.84836,227.968559 C868.202711,228.496223 868.645649,229.111832 869,229.72744 C868.468474,229.28772 867.84836,228.935943 867.228246,228.584167 C867.139658,228.496223 867.05107,228.496223 866.962483,228.408279 C866.342369,228.056503 865.633667,227.792671 865.013553,227.440894 C861.204281,225.857901 856.509133,225.242293 851.636809,226.033789 C850.396581,226.297622 849.156353,226.561454 848.004712,226.91323 C848.802002,231.310433 846.587309,235.004083 843.0438,235.883524 C843.220976,233.245202 842.866625,231.222489 842.069336,229.639496 C839.500292,231.222489 837.462775,233.333146 836.045371,235.619692 C835.070906,237.290629 834.362205,240.280727 834.185029,242.127552 C833.919266,246.348867 836.931248,252.417007 842.68945,254 C836.222547,253.296448 830.641521,248.723357 827.806714,243.270825 C821.428399,231.486321 827.452363,221.020978 830.818696,216.623775 C830.641521,213.106013 828.692591,211.435076 826.743662,209.588251 C831.173047,207.917313 835.248082,210.115915 837.197012,212.314516 Z" id="delfino10_logo"></path>
        </g>
    </g>
</svg>