<?xml version="1.0" encoding="UTF-8"?>
<svg width="48px" height="24px" viewBox="0 0 48 24" version="1.1" xmlns="http://www.w3.org/2000/svg" xmlns:xlink="http://www.w3.org/1999/xlink">
    <!-- Generator: Sketch 63.1 (92452) - https://sketch.com -->
    <title>logo/kakao-b</title>
    <desc>Created with Sketch.</desc>
    <g id="logo/kakao-b" stroke="none" stroke-width="1" fill="none" fill-rule="evenodd">
        <path d="M22.3483482,18.6153606 L22.3483482,15.381637 C22.9107944,15.381637 23.4933267,15.381637 24.0959451,15.381637 C25.0977206,15.381637 26.225099,14.6103357 26.8331534,13.7704391 C27.4412078,12.9305424 27.7636528,11.7599843 27.7636528,10.3803421 C27.7636528,9.10075031 27.3666571,7.9017006 26.8331534,7.16975302 C26.2996497,6.43780545 25.3969841,6.03695119 24.4697593,6.03695119 C23.426049,6.03695119 22.3145953,6.53473389 21.7499809,7.16975302 L21.7499809,6.31740036 L20,6.31740036 L20,18.6153606 L22.3483482,18.6153606 Z M23.5479034,13.6333484 C23.1579681,13.6333484 22.7581164,13.6333484 22.3483482,13.6333484 C22.3483482,12.4654155 22.3483482,11.6612861 22.3483482,11.2209602 L22.3483482,10.325824 C22.3483482,9.57842865 22.3483482,8.23615953 22.3483482,8.11779949 C22.3483482,7.99943944 23.0595472,7.74041752 23.7069155,7.74041752 C24.7901408,7.74041752 25.5704145,9.19032807 25.5704145,10.325824 C25.5704145,11.3223511 25.5271381,12.0953197 25.1353099,12.6457271 C24.7434817,13.1961345 24.2407011,13.6333484 23.5479034,13.6333484 Z M31.7057845,15.389449 C32.8284404,15.389449 33.4999055,15.1925842 34.2233396,14.5401791 L34.6943866,14.5401791 L34.81454,15.1925842 L36.4351524,15.1925842 L36.4351524,9.59580994 C36.4351524,7.6412159 35.3588967,6 33.0706123,6 C32.5871719,6 32.1355092,6.04888072 31.528523,6.19662165 C30.9215368,6.34436259 30.2000664,6.76359662 29.8186857,7.00114087 L30.3740509,8.49305004 C31.2603582,7.81517987 32.1891626,7.93006857 32.7076386,7.93006857 C33.2261146,7.93006857 34.2233396,7.96869807 34.2233396,8.84129453 C34.2233396,9.42302551 34.2233396,9.76217098 34.2233396,9.85873093 L31.7057845,9.85873093 C29.7827661,10.1368315 29.1494909,11.6826718 29.1494909,12.7966407 C29.1494909,13.9106096 29.3406169,14.0448125 29.8186857,14.5401791 C30.2967545,15.0355458 30.8893074,15.389449 31.7057845,15.389449 Z M32.4556807,13.636959 C32.0411378,13.636959 31.711775,13.5239807 31.4675922,13.298024 C31.2234094,13.0720672 31.101318,12.7794822 31.101318,12.420269 C31.101318,11.9007175 31.6123983,11.3158955 32.6345588,11.182639 L34.2319336,11.182639 L34.2319336,11.9007175 C34.2319336,12.3140059 34.2319336,12.6940694 34.2319336,13.040908 C33.4263429,13.4382754 32.8342586,13.636959 32.4556807,13.636959 Z M40.1696305,19 C41.2094412,18.2428065 42.004762,17.3053316 42.5555929,16.1875754 L42.974919,15.4730892 L46,6.63463876 L43.9505305,6.05871813 L42.0084256,12.0639526 C41.8834949,12.4637222 41.7983148,12.8142448 41.7528855,13.1155205 L41.7188135,13.1155205 C41.6222761,12.5940819 41.5456141,12.2377655 41.4888274,12.0465713 L39.6063485,6.05871813 L37.5275613,6.63463876 L40.5688829,15.1752029 L40.5688829,15.5967514 C40.3027146,16.0955835 39.716251,16.7904043 38.8094921,17.6812137 L40.1696305,19 Z" id="pay" fill="#9F9F9F" fill-rule="nonzero"></path>
        <path d="M10,5 C13.8659932,5 17,7.48267459 17,10.5452089 C17,13.6077432 13.8659932,16.0904178 10,16.0904178 C9.53296963,16.0904178 9.07662172,16.0541862 8.63519102,15.9850776 L5.77648081,17.7807246 C5.54796074,17.9446268 5.40474884,18.0166448 5.34684511,17.9967785 C5.28894137,17.9769123 5.27284655,17.845044 5.29856065,17.6011737 L5.61198115,14.8659072 C4.01913538,13.8494725 3,12.2916218 3,10.5452089 C3,7.48267459 6.13400675,5 10,5 Z" id="Combined-Shape" fill="#9F9F9F"></path>
        <rect id="Rectangle" fill-opacity="0" fill="#FFFFFF" x="0" y="0" width="48" height="24"></rect>
    </g>
</svg>