<?xml version="1.0" encoding="UTF-8"?>
<svg width="48px" height="24px" viewBox="0 0 48 24" version="1.1" xmlns="http://www.w3.org/2000/svg" xmlns:xlink="http://www.w3.org/1999/xlink">
    <!-- Generator: Sketch 63.1 (92452) - https://sketch.com -->
    <title>logo/kb-b</title>
    <desc>Created with Sketch.</desc>
    <g id="logo/kb-b" stroke="none" stroke-width="1" fill="none" fill-rule="evenodd">
        <path d="M37.5397981,12.2785411 C37.5397981,12.2785411 37.2965485,12.123595 37.2965485,12.123595 C36.4714722,11.296117 35.3209674,10.936774 33.7825781,11.0257856 C32.5038741,11.104907 31.4881428,11.6126026 30.7123738,12.0873311 C30.7123738,12.0741441 30.7123738,12.064254 30.7123738,12.0510671 C30.7123738,11.6488666 30.758394,11.2136989 30.801127,10.7884213 C30.8471472,10.3565504 30.8931674,9.92138264 30.8931674,9.50599527 C30.8931674,9.08401445 30.8438601,8.68181399 30.6992252,8.33895457 C30.6630664,8.24994299 30.5808875,8.19719539 30.4789857,8.19719539 C30.0648039,8.20708557 29.2561634,8.49060393 29.0622212,8.66203363 L28.9570322,8.89610112 C28.9504579,9.35434591 28.848556,10.636772 28.7499413,10.7917181 C28.7532285,10.7851246 28.6940596,10.9466642 28.6940596,10.9466642 C28.5198403,12.7796433 28.5165532,14.3884452 28.6776239,15.769773 C28.6940596,15.9082355 28.9603193,16.1159292 29.164123,16.1917538 C29.3876497,16.274172 30.0911012,16.0862586 30.4954215,15.9313126 C30.4921343,15.9313126 30.6499178,15.9082355 30.6499178,15.9082355 C30.7781169,15.8950486 30.8537215,15.7862567 30.8471472,15.6412007 C30.8471472,15.637904 30.8570087,15.242297 30.8570087,15.242297 C31.1495656,14.0488825 32.3362292,12.627994 33.7365579,12.4104101 C34.5287626,12.2851346 35.1533224,12.4862348 35.649683,13.0301944 C35.7154262,13.1257995 35.860061,13.9862447 35.3374031,14.9719655 C34.9495187,15.7038385 34.1704625,16.3170294 33.1481568,16.7027462 C32.1817328,17.0686827 31.1134069,17.2203321 29.7985443,17.1741779 C29.7459498,17.137914 28.5658605,16.3401065 28.5658605,16.3401065 C27.5238319,15.6049368 26.2286922,14.6917439 25.0518901,14.2433893 C24.8480864,14.1642679 24.4766377,13.8576724 24.2531111,13.6730558 L24.1314863,13.5741541 C23.454332,13.0301944 22.1657666,12.1664525 21.1303123,11.4741402 C21.1303123,11.4741402 20.663536,11.1609513 20.5714957,11.0983135 C20.5714957,11.0587528 20.5747828,10.9796314 20.5747828,10.9796314 C20.6043672,10.9466642 21.2552242,10.5543539 21.2552242,10.5543539 C22.1657666,10.0202844 22.5865227,9.75654638 22.678563,9.62138065 C22.6588401,9.641161 22.8001878,9.5488527 22.8001878,9.5488527 C22.8067622,9.54555597 25.0584644,8.26642662 25.0584644,8.26642662 C27.2247006,7.06971539 29.6834938,5.71476136 30.9720592,4.37629096 C30.9753463,4.37629096 31.0345151,4.171894 31.0345151,4.171894 L31.0608124,3.99057412 C31.1462785,3.70375903 31.1528528,3.48287845 31.0805353,3.22903061 C31.0608124,3.15650266 30.9950693,3.07408453 30.906316,3.05430418 C29.9004461,2.95540243 28.5987321,3.55870313 27.4186429,4.67299622 C27.1523832,4.92684406 26.9288565,5.04882289 26.6921813,5.17739517 L26.5113876,5.27959365 C25.2063865,6.0213568 22.2709556,7.85103925 20.7325663,8.83676007 C20.8344682,7.17850732 21.1401737,4.82134885 21.5149096,2.85320395 L21.4721766,2.61913646 C21.4688894,2.61254301 21.3143931,2.3224312 21.3143931,2.3224312 L21.1927683,2.10814407 L21.1566095,2.09825389 C20.850904,1.94330781 20.6010801,2.00594559 20.4169993,2.05539646 C20.4169993,2.05539646 20.1080066,2.16748512 20.1080066,2.16748512 L19.7003992,2.31583775 C19.6182202,2.33232138 19.5623386,2.38177225 19.529467,2.46089366 C18.7964311,4.24112523 18.1817328,7.16861715 18.0403851,9.50929199 C16.5710261,8.57302206 15.2167175,7.90049013 14.5527119,7.57411434 L14.532989,7.56422416 L14.4540972,7.54774054 C14.2174219,7.51477329 13.924865,7.34004686 13.6421695,7.16861715 C13.6158723,7.15213352 13.0866401,6.80597738 13.0866401,6.80597738 L12.2319793,6.25872101 C12.2418408,6.26201774 12.0084527,6.20597341 12.0084527,6.20597341 C11.6402911,6.26861119 10.9401268,6.74333961 10.7297488,7.06641867 C10.7001644,7.1092761 10.6903029,7.15543025 10.6903029,7.20488112 C10.6903029,7.27081563 10.7100258,7.34004686 10.7297488,7.40598136 L10.7691946,7.58070779 L10.8086405,7.68620299 C11.2162479,8.10488709 12.2484151,8.80708954 13.2608594,9.35104919 L14.4343743,9.97413024 L16.2291618,10.9565543 C16.2291618,10.9631478 16.5381545,11.200512 16.5381545,11.200512 C16.5381545,11.200512 16.7485325,11.3224908 16.7485325,11.3224908 C16.7485325,11.3224908 16.7715426,11.3356777 16.7846912,11.3455679 C16.3080535,11.6653502 13.5238319,13.5312967 13.5238319,13.5312967 L11.8079361,14.6719636 C11.6468655,14.7840522 10.966424,15.0873509 10.818502,15.1499887 C10.4437661,15.3016381 10.1643578,15.5357055 10.0460202,15.7895534 L10,15.8884551 L10.0460202,15.9543896 L10.1775065,16.0532914 C10.1709321,16.0532914 10.3550129,16.1686768 10.3550129,16.1686768 L10.5423808,16.297249 C10.545668,16.3005458 10.7231745,16.3236228 10.7231745,16.3236228 C11.0255929,16.3368097 11.4726462,16.1620833 12.3075839,15.7961468 C13.0734914,15.4532874 15.1575487,14.1939384 16.0483682,13.6565722 L16.4296783,13.4258015 C16.5874618,13.4389884 16.7616811,13.3071194 16.9128903,13.1884372 C17.093684,13.0466781 17.4815684,12.8060171 17.7182437,12.7005219 C17.724818,12.6972252 17.8595915,12.6214005 17.9877906,12.5521693 C17.9877906,12.59173 17.9845034,12.6543678 17.9845034,12.6543678 C18.0239493,15.3873529 18.1817328,17.3752782 18.4775769,18.9049586 L18.4841512,18.9313324 L18.5137356,18.9939702 C18.6616577,19.2115541 18.8260155,19.8577122 18.9739375,20.4313424 L19.3125147,21.5720093 C19.319089,21.5851962 19.4078422,21.6808012 19.4078422,21.6808012 C19.6017845,21.8093735 20.1901855,22.0401442 20.5879314,21.9939901 L20.6865461,21.9808032 L20.7490021,21.8423407 C20.7818737,21.670911 20.7950223,21.502778 20.7950223,21.3214582 C20.7950223,21.1137645 20.7785865,20.8829937 20.7621507,20.6027721 L20.7358535,20.1906814 C20.6109415,18.2818776 20.4860296,15.5258154 20.4860296,13.6961329 C20.4860296,13.6433853 20.4860296,13.6005279 20.4860296,13.551077 C20.8081709,13.755474 22.2249354,14.6488865 22.2249354,14.6488865 C24.6311341,16.2148309 28.2667293,18.5818796 30.4625499,19.2049606 C30.5776004,19.2379279 30.695938,19.2115541 30.7814041,19.1324327 C30.7846912,19.1291359 31.1199812,18.9148488 31.1199812,18.9148488 L31.1824372,18.888475 C31.3106363,18.829134 31.3961024,18.6148468 31.409251,18.3840761 C33.2599202,18.2917678 35.8436253,17.5763784 37.224231,15.8324108 C37.7600376,15.1565822 38,14.3291041 38,13.6203082 C37.9934257,13.0565682 37.832355,12.555466 37.5397981,12.2785411" id="Path" fill="#9F9F9F" fill-rule="nonzero"></path>
        <rect id="Rectangle" fill-opacity="0" fill="#FFFFFF" x="0" y="0" width="48" height="24"></rect>
    </g>
</svg>