<?xml version="1.0" encoding="UTF-8"?>
<svg width="79px" height="15px" viewBox="0 0 79 15" version="1.1" xmlns="http://www.w3.org/2000/svg" xmlns:xlink="http://www.w3.org/1999/xlink">
    <!-- Generator: sketchtool 63.1 (101010) - https://sketch.com -->
    <title>B6948059-FDA7-46A5-A5FF-76C2D587D93F</title>
    <desc>Created with sketchtool.</desc>
    <g id="로고" stroke="none" stroke-width="1" fill="none" fill-rule="evenodd">
        <g id="provider" transform="translate(-484.000000, -457.000000)" fill="#1EC802" fill-rule="nonzero">
            <g id="mlogo/naver" transform="translate(484.000000, 457.000000)">
                <g id="logo_naver">
                    <polygon id="Path" points="10.5946549 0 10.5946549 7.59493671 5.51417712 0 0 0 0 15 5.45222008 15 5.45222008 7.40506329 10.5326979 15 16.046875 15 16.046875 0"></polygon>
                    <path d="M74.2246931,9.3907563 C76.1300354,8.82352941 77.4207512,7.43697479 77.4207512,5.10504202 C77.4207512,1.2605042 74.4705437,0 70.5369338,0 C68.6315915,0 63.7760417,0 63.7760417,0 L63.7760417,15 L69.1847554,15 L69.1847554,10.3361345 L72.4422761,15 L78.5885417,15 L74.2246931,9.3907563 Z M71.5203363,6.36554622 C71.213023,6.61764706 70.5983964,6.74369748 70.1066952,6.74369748 L68.9389047,6.74369748 L68.9389047,3.78151261 L70.1066952,3.78151261 C70.6598591,3.78151261 71.2744857,3.90756303 71.5817989,4.15966387 C71.8891122,4.41176471 72.0120375,4.78991597 72.0120375,5.23109244 C72.0120375,5.73529412 71.8276496,6.11344538 71.5203363,6.36554622 Z" id="Shape"></path>
                    <polygon id="Path" points="50.609375 0 61.5959945 0 61.5959945 3.92405063 55.9492403 3.92405063 55.9492403 5.69620253 61.1049724 5.69620253 61.1049724 9.36708861 55.9492403 9.36708861 55.9492403 11.0759494 61.71875 11.0759494 61.71875 15 50.609375 15"></polygon>
                    <path d="M28.9430726,0 L22.8402535,0 L17.28125,15 L23.2027972,15 L23.7466128,13.0379747 L28.1575612,13.0379747 L28.6409528,15 L34.5625,15 L28.9430726,0 Z M24.5925481,9.55696203 L25.861451,4.62025316 L25.982299,4.62025316 L27.2512019,9.55696203 L24.5925481,9.55696203 Z" id="Shape"></path>
                    <polygon id="Path" points="43.0805629 0 40.3841977 9.05063291 40.2616356 9.05063291 37.6265514 0 31.6822917 0 37.8103945 15 42.8967199 15 48.9635417 0"></polygon>
                </g>
            </g>
        </g>
    </g>
</svg>