<?xml version="1.0" encoding="UTF-8"?>
<svg width="48px" height="24px" viewBox="0 0 48 24" version="1.1" xmlns="http://www.w3.org/2000/svg" xmlns:xlink="http://www.w3.org/1999/xlink">
    <!-- Generator: Sketch 63.1 (92452) - https://sketch.com -->
    <title>logo/pass</title>
    <desc>Created with Sketch.</desc>
    <g id="logo/pass" stroke="none" stroke-width="1" fill="none" fill-rule="evenodd">
        <g id="Group-3" transform="translate(6.000000, 6.000000)" fill="#000000" fill-rule="nonzero">
            <path d="M13.4638783,0 C14.0028526,0 14.1883321,0.33490038 14.3404006,0.847597016 C14.4617897,1.25685835 16.792919,10.1572414 17.1821004,11.6772414 C17.1974997,11.7365517 17.2436975,12 17.2436975,12 L17.2436975,12 L15.0038047,12 C15.0038047,12 14.1652448,8.58896552 14.0028526,7.90896552 C12.8171093,8.57793103 11.820357,9.22068966 10.8054055,9.79172414 C10.7529881,9.82134808 10.6769511,9.91030957 10.6227532,10.058889 C10.38622,10.707328 9.96544574,11.9986207 9.96544574,11.9986207 L9.96544574,11.9986207 L7.86554622,11.9986207 C9.58482607,5.27552719 10.5531131,1.50173408 10.7704072,0.677241379 C10.8342217,0.43510621 11.0585573,0 11.5392231,0 L11.5392231,0 Z M12.6611507,2.40196668 L12.4317506,2.40196668 C12.1197665,3.75362168 11.8077824,5.12435245 11.4957983,6.47600745 L11.4957983,6.47600745 L11.7160224,6.6 C12.1813768,6.32612636 12.6572181,6.06860338 13.1055314,5.76747862 C13.2208868,5.69117552 13.3323097,5.45954109 13.3074034,5.32737322 C13.1120857,4.34769585 12.8813747,3.37619382 12.6611507,2.40196668 L12.6611507,2.40196668 Z" id="Combined-Shape"></path>
            <path d="M5.81436613,0 C6.64498884,0 8.12626602,1.37655172 8.16502841,2.43724138 C8.20379081,3.49931034 7.8770792,4.4937931 6.87617883,5.08275862 C5.61086356,5.82758621 4.34554829,6.57793103 3.03593314,7.23862069 C2.46418784,7.52827586 2.35343814,7.86206897 2.35343814,8.4137931 C2.35343814,9.55586207 2.35343814,10.7806897 2.35343814,12 C1.6875556,12 1.14626646,12 0.553755591,12 C0.199356565,12 -0.00137725775,11.777931 0,11.4482759 L0,7.86206897 C0,7.86206897 0,1.37931034 0,0.689655172 C0,0.369655172 0,0 0.415318472,0 C5.39905477,0 4.00360861,0 5.81436613,0 Z M2.42016807,5.1 C3.52265348,4.52896552 4.46904721,4.07793103 5.36622284,3.54689655 C5.58559494,3.41724138 5.81340442,2.94413793 5.73043677,2.76482759 C5.60387594,2.49034483 5.26356795,2.1 4.95419704,2.1 C4.25108134,2.1 3.82921192,2.1 2.98547309,2.1 C2.70422681,2.1 2.42298053,2.37586207 2.42298053,2.65172414 C2.42298053,3.06551724 2.42016807,4.12068966 2.42016807,5.1 Z" id="Shape"></path>
            <path d="M26.1894785,3.53114823 C26.1894785,3.07947614 26.1894785,2.82541059 26.1894785,2.401968 C26.1894785,1.27278776 25.5250374,0.0109288483 23.9792794,0.00245999658 C23.0026476,-0.0031859046 21.7690802,0.00245999658 20.7302866,0.00387147187 C19.5809831,0.00669442246 18.4537815,1.01589926 18.4537815,2.11967294 C18.4537815,3.10770564 18.4537815,3.53114823 18.4537815,4.51918094 C18.4537815,5.36747759 19.1928169,6.32445784 20.1321515,6.53476766 C21.0203753,6.73378568 21.8961667,7.00196598 22.7912973,7.15017089 C23.8881087,7.3322512 24.1989179,7.68935445 24.1339933,8.91310353 C24.0870266,9.79386411 23.9903304,10.0239346 22.8741798,10.0239346 C22.6669736,10.0239346 21.9072177,10.0239346 21.6309428,10.0239346 C20.7150915,10.0239346 20.561759,9.54544446 20.5258432,9.03590188 C20.5147922,8.8862855 20.5258432,8.58846421 20.5258432,8.47131176 C20.5258432,8.28923145 20.3946126,8.1890167 20.2495683,8.1890167 C19.835156,8.1890167 19.1444687,8.1890167 18.7300564,8.1890167 C18.6002072,8.1890167 18.4537815,8.34145604 18.4537815,8.47131176 C18.4537815,8.95827074 18.4537815,9.45934447 18.4537815,9.88278706 C18.4537815,11.0387853 19.7923334,12 21.2165304,12 C22.0453551,12 22.8368827,12 23.7030045,12 C24.2555543,12 24.9876827,11.6245476 25.4366294,11.2349804 C25.9767469,10.7649591 26.3193277,10.0239346 26.3193277,9.03590188 C26.3193277,8.33016423 26.3193277,7.80227247 26.3193277,7.53691512 C26.3193277,6.63639388 25.5402325,5.61730872 24.4738114,5.29972678 C23.6684701,5.05977598 22.8313572,4.90169074 21.997007,4.80571042 C20.9665017,4.6871465 20.506504,4.23123998 20.5410383,3.19380564 C20.5700472,2.2989303 20.8007367,1.8359664 21.7690802,1.8359664 C21.9334638,1.8359664 22.8576033,1.8359664 23.2885921,1.8359664 C23.9792794,1.8359664 24.1174168,2.2819926 24.1174168,2.96514664 L24.1174168,3.52973676 C24.4503281,3.53114823 25.9132036,3.53114823 26.1894785,3.53114823 Z" id="Path"></path>
            <path d="M35.8651566,3.53114823 C35.8651566,3.07947614 35.8651566,2.82541059 35.8651566,2.401968 C35.8651566,1.27278776 35.1751601,0.0109288483 33.5699498,0.00245999658 C32.5557553,-0.0031859046 31.274743,0.00245999658 30.1959958,0.00387147187 C29.0024882,0.00669442246 27.8319328,1.01589926 27.8319328,2.11967294 C27.8319328,3.10770564 27.8319328,3.53114823 27.8319328,4.51918094 C27.8319328,5.36747759 28.5993925,6.32445784 29.5748554,6.53476766 C30.4972417,6.73378568 31.4067174,7.00196598 32.3362761,7.15017089 C33.4752725,7.3322512 33.798036,7.68935445 33.7306143,8.91310353 C33.6818411,9.79386411 33.5814258,10.0239346 32.4223464,10.0239346 C32.2071708,10.0239346 31.4181934,10.0239346 31.1312926,10.0239346 C30.1802162,10.0239346 30.0209863,9.54544446 29.9836892,9.03590188 C29.9722131,8.8862855 29.9836892,8.58846421 29.9836892,8.47131176 C29.9836892,8.28923145 29.8474113,8.1890167 29.6967883,8.1890167 C29.266437,8.1890167 28.5491849,8.1890167 28.1188336,8.1890167 C27.9839902,8.1890167 27.8319328,8.34145604 27.8319328,8.47131176 C27.8319328,8.95827074 27.8319328,9.45934447 27.8319328,9.88278706 C27.8319328,11.0387853 29.2219674,12 30.7009413,12 C31.5616438,12 32.3836148,12 33.2830489,12 C33.8568506,12 34.6171379,11.6245476 35.0833518,11.2349804 C35.6442429,10.7649591 36,10.0239346 36,9.03590188 C36,8.33016423 36,7.80227247 36,7.53691512 C36,6.63639388 35.1909396,5.61730872 34.0835023,5.29972678 C33.2471863,5.05977598 32.3778768,4.90169074 31.5114362,4.80571042 C30.441296,4.6871465 29.9636061,4.23123998 29.9994687,3.19380564 C30.0295933,2.2989303 30.2691555,1.8359664 31.274743,1.8359664 C31.445449,1.8359664 32.4051323,1.8359664 32.8526977,1.8359664 C33.5699498,1.8359664 33.7134002,2.2819926 33.7134002,2.96514664 L33.7134002,3.52973676 C34.0591157,3.53114823 35.5782557,3.53114823 35.8651566,3.53114823 Z" id="Path"></path>
        </g>
        <rect id="Rectangle" fill-opacity="0" fill="#FFFFFF" x="0" y="0" width="48" height="24"></rect>
    </g>
</svg>