<?xml version="1.0" encoding="UTF-8"?>
<svg width="72px" height="16px" viewBox="0 0 72 16" version="1.1" xmlns="http://www.w3.org/2000/svg" xmlns:xlink="http://www.w3.org/1999/xlink">
    <!-- Generator: sketchtool 63.1 (101010) - https://sketch.com -->
    <title>D430F338-7E2C-489B-BE8F-1999470C339A</title>
    <desc>Created with sketchtool.</desc>
    <g id="로고" stroke="none" stroke-width="1" fill="none" fill-rule="evenodd">
        <g id="provider" transform="translate(-33.000000, -457.000000)" fill="#E7241F" fill-rule="nonzero">
            <g id="mlogo/payco" transform="translate(33.000000, 457.000000)">
                <g id="Group">
                    <path d="M5.28093698e-13,1.728 C5.28093698e-13,0.768 0.802454598,0 1.80552285,0 L6.72055726,0 C10.6325234,0 13.0064516,2.208 13.0064516,5.44 L13.0064516,5.472 C13.0064516,9.12 10.0641181,11.008 6.35276557,11.008 L3.61104569,11.008 L3.61104569,14.272 C3.61104569,15.232 2.80859109,16 1.80552285,16 C0.802454598,16 5.28093698e-13,15.232 5.28093698e-13,14.272 L5.28093698e-13,1.728 Z M6.45307239,7.936 C8.25859524,7.936 9.3285347,6.912 9.3285347,5.568 L9.3285347,5.536 C9.3285347,4 8.19172402,3.168 6.38620118,3.168 L3.61104569,3.168 L3.61104569,7.968 L6.45307239,7.968 L6.45307239,7.936 Z" id="Shape"></path>
                    <path d="M11.5612903,13.6237624 L16.7096774,1.36237624 C17.0709677,0.506930693 17.7333333,0 18.6064516,0 L18.7870968,0 C19.6602151,0 20.3225806,0.506930693 20.6537634,1.36237624 L25.8322581,13.6237624 C25.9526882,13.8772277 26.0129032,14.0990099 26.0129032,14.3207921 C26.0129032,15.239604 25.3505376,15.9683168 24.4774194,15.9683168 C23.7247312,15.9683168 23.2129032,15.4930693 22.911828,14.7960396 L21.9182796,12.3564356 L15.4150538,12.3564356 L14.3913978,14.9227723 C14.1204301,15.5881188 13.5784946,16 12.8860215,16 C12.0430108,16 11.3806452,15.3029703 11.3806452,14.3841584 C11.3806452,14.1306931 11.4408602,13.8772277 11.5612903,13.6237624 Z M20.7139785,9.31485149 L18.6666667,4.18217822 L16.6193548,9.31485149 L20.7139785,9.31485149 Z" id="Shape"></path>
                    <path d="M29.9551242,9.77245509 L24.8079361,2.90618762 C24.548958,2.55489022 24.3870968,2.17165669 24.3870968,1.66067864 C24.3870968,0.734530938 25.1640308,0 26.1351984,0 C26.9445047,0 27.4300885,0.415169661 27.8509278,1.05389222 L31.7032258,6.54690619 L35.6202683,1.02195609 C36.0411076,0.383233533 36.5590637,0 37.3036255,0 C38.3719098,0 39.0193548,0.734530938 39.0193548,1.69261477 C39.0193548,2.17165669 38.7927491,2.58682635 38.5661433,2.90618762 L33.4189552,9.74051896 L33.4189552,14.2754491 C33.4189552,15.2335329 32.6420211,16 31.6708536,16 C30.699686,16 29.9227519,15.2335329 29.9227519,14.2754491 L29.9227519,9.77245509 L29.9551242,9.77245509 Z" id="Path"></path>
                    <path d="M39.0193548,8.03149606 L39.0193548,8 C39.0193548,3.59055118 42.464169,0 47.4181397,0 C49.8459135,0 51.4534934,0.62992126 52.7986113,1.57480315 C53.1594966,1.82677165 53.4875741,2.33070866 53.4875741,2.92913386 C53.4875741,3.84251969 52.7001881,4.5984252 51.7487632,4.5984252 C51.2566469,4.5984252 50.9285694,4.40944882 50.6989151,4.2519685 C49.7146825,3.55905512 48.6648344,3.1496063 47.4181397,3.1496063 C44.6950962,3.1496063 42.7594387,5.32283465 42.7594387,7.96850394 L42.7594387,8 C42.7594387,10.6456693 44.6622884,12.8503937 47.4181397,12.8503937 C48.9272964,12.8503937 49.911529,12.4094488 50.9285694,11.6220472 C51.1910314,11.4015748 51.5847244,11.2440945 51.9784175,11.2440945 C52.8642268,11.2440945 53.6516129,11.9370079 53.6516129,12.8188976 C53.6516129,13.3543307 53.3891509,13.7637795 53.0610733,14.0472441 C51.6175322,15.2755906 49.911529,16 47.3197165,16 C42.5297845,16 39.0193548,12.4724409 39.0193548,8.03149606 Z" id="Path"></path>
                    <path d="M55.2774194,8.03149606 L55.2774194,8 C55.2774194,3.59055118 58.7034483,0 63.4375973,0 C68.1717464,0 71.5354839,3.55905512 71.5354839,7.96850394 L71.5354839,8 C71.5354839,12.4094488 68.1094549,16 63.3753059,16 C58.6411568,16 55.2774194,12.4409449 55.2774194,8.03149606 Z M68.0160178,8.03149606 L68.0160178,8 C68.0160178,5.35433071 66.0849833,3.1496063 63.3753059,3.1496063 C60.6656285,3.1496063 58.7968854,5.32283465 58.7968854,7.96850394 L58.7968854,8 C58.7968854,10.6456693 60.7279199,12.8503937 63.4375973,12.8503937 C66.1472747,12.8503937 68.0160178,10.7086614 68.0160178,8.03149606 Z" id="Shape"></path>
                </g>
            </g>
        </g>
    </g>
</svg>