<?xml version="1.0" encoding="UTF-8"?>
<svg width="48px" height="24px" viewBox="0 0 48 24" version="1.1" xmlns="http://www.w3.org/2000/svg" xmlns:xlink="http://www.w3.org/1999/xlink">
    <!-- Generator: Sketch 63.1 (92452) - https://sketch.com -->
    <title>logo/payco-b@2x</title>
    <desc>Created with Sketch.</desc>
    <g id="logo/payco-b" stroke="none" stroke-width="1" fill="none" fill-rule="evenodd">
        <path d="M17,4.16 C17,2.96 17.9254499,2 19.0822622,2 L24.7506427,2 C29.2622108,2 32,4.76 32,8.8 L32,8.84 C32,13.4 28.6066838,15.76 24.3264781,15.76 L21.1645244,15.76 L21.1645244,19.84 C21.1645244,21.04 20.2390746,22 19.0822622,22 C17.9254499,22 17,21.04 17,19.84 L17,4.16 Z M24.4795322,11.96 C26.6900585,11.96 28,10.68 28,9 L28,8.96 C28,7.04 26.6081871,6 24.3976608,6 L21,6 L21,12 L24.4795322,12 L24.4795322,11.96 Z" id="Shape" fill="#9F9F9F" fill-rule="nonzero"></path>
        <rect id="Rectangle" fill-opacity="0" fill="#FFFFFF" x="0" y="0" width="48" height="24"></rect>
    </g>
</svg>