<?xml version="1.0" encoding="UTF-8"?>
<svg width="76px" height="20px" viewBox="0 0 76 20" version="1.1" xmlns="http://www.w3.org/2000/svg" xmlns:xlink="http://www.w3.org/1999/xlink">
    <!-- Generator: sketchtool 63.1 (101010) - https://sketch.com -->
    <title>27973733-CB34-4959-A16C-E63FE16A7C35</title>
    <desc>Created with sketchtool.</desc>
    <g id="로고" stroke="none" stroke-width="1" fill="none" fill-rule="evenodd">
        <g id="provider" transform="translate(-129.000000, -454.000000)" fill="#0550FF" fill-rule="nonzero">
            <g id="mlogo/toss" transform="translate(129.000000, 454.000000)">
                <path d="M12.6972677,1 C17.7641149,1 21.871345,5.25532914 21.871345,10.5008921 C21.871345,15.7464551 17.7641149,20 12.6989905,20 C9.02419104,20 5.85590404,17.7608226 4.39149732,14.5296272 C2.93742759,14.7026951 0,16.6189314 0,16.6189314 C1.93646253,6.37580994 6.82758097,3.1392619 7.14802761,2.93764673 C8.68823891,1.72260306 10.6109188,1 12.6972677,1 Z M30.2246388,0 L30.2246388,4.91802358 L34.0255419,4.91802358 L34.0255419,8.15225529 L30.2246388,8.15225529 L30.2246388,8.15225529 L30.2246388,14.3060079 C30.2246388,15.2945911 30.831971,15.7657683 31.8343462,15.7657683 C32.8367213,15.7657683 33.0933145,15.159461 33.0933145,15.159461 L33.0933145,15.159461 L34.7953216,17.9438518 C34.7953216,17.9438518 33.8409424,19 31.204862,19 C28.0094452,19 26.5640313,16.7312371 26.5640313,14.2828935 L26.5640313,14.2828935 L26.5640313,8.15225529 L23.8596491,8.15225529 L23.8596491,4.91802358 L26.5640313,4.91802358 L26.5640313,4.91802358 L26.5640313,2.0429534 L30.2246388,0 Z M42.748538,5 C46.5925271,5 49.7076023,8.13512846 49.7076023,12 C49.7076023,15.8648715 46.5925271,19 42.748538,19 C38.9062681,19 35.7894737,15.8648715 35.7894737,12 C35.7894737,8.13512846 38.9045489,5 42.748538,5 Z M56.9442443,5 C60.8200194,5 62.3720481,7.85239444 62.3720481,7.85239444 L62.3720481,7.85239444 L59.4192404,9.08297427 C59.4192404,9.08297427 58.5168981,7.72313185 56.878932,7.72313185 C55.5658091,7.72313185 54.6978417,8.26603472 54.6978417,8.88821864 C54.6978417,10.3359596 57.3189312,10.3411301 58.8004914,10.6944479 C61.3064248,11.2925028 62.6315789,13.153884 62.6315789,14.3517173 C62.6315789,16.0890065 61.2961123,19 57.0404942,19 C51.8206588,19 50.7017544,15.6908778 50.7017544,15.6908778 L50.7017544,15.6908778 L53.9794054,14.3620584 C53.9794054,14.3620584 54.7408104,16.2458451 57.1281503,16.2458451 C58.6698666,16.2458451 59.1579908,15.1359104 59.1579908,14.7222701 C59.1579908,14.2862243 58.84346,13.5778653 56.2704954,13.2521236 C51.87394,12.7178382 51.2775347,10.6065493 51.2775347,9.01748123 C51.2775347,7.42668965 53.0684693,5 56.9442443,5 Z M69.868221,5 C73.743996,5 75.2960247,7.85239444 75.2960247,7.85239444 L75.2960247,7.85239444 L72.343217,9.08297427 C72.343217,9.08297427 71.4425934,7.72313185 69.8029086,7.72313185 C68.4897857,7.72313185 67.6218183,8.26603472 67.6218183,8.88821864 C67.6218183,10.3359596 70.2429079,10.3411301 71.724468,10.6944479 C74.2304014,11.2925028 75.5555556,13.153884 75.5555556,14.3517173 C75.5555556,16.0890065 74.220089,19 69.9644708,19 C64.7446354,19 63.625731,15.6908778 63.625731,15.6908778 L63.625731,15.6908778 L66.903382,14.3620584 C66.903382,14.3620584 67.664787,16.2458451 70.0521269,16.2458451 C71.5938432,16.2458451 72.0819674,15.1359104 72.0819674,14.7222701 C72.0819674,14.2862243 71.7674366,13.5778653 69.194472,13.2521236 C64.7979166,12.7178382 64.2015113,10.6065493 64.2015113,9.01748123 C64.2015113,7.42668965 65.9924459,5 69.868221,5 Z M42.748538,8.2423419 C40.6855743,8.2423419 39.0128545,9.92490119 39.0128545,12 C39.0128545,14.0750988 40.6855743,15.7576581 42.748538,15.7576581 C44.8115017,15.7576581 46.4842215,14.0750988 46.4842215,12 C46.4842215,9.92490119 44.8115017,8.2423419 42.748538,8.2423419 Z" id="Combined-Shape"></path>
            </g>
        </g>
    </g>
</svg>