<?xml version="1.0" encoding="UTF-8"?>
<svg width="52px" height="60px" viewBox="0 0 52 60" version="1.1" xmlns="http://www.w3.org/2000/svg" xmlns:xlink="http://www.w3.org/1999/xlink">
    <!-- Generator: Sketch 61 (89581) - https://sketch.com -->
    <title>cert_renewal1x</title>
    <desc>Created with Sketch.</desc>
    <g id="cert_renewal" stroke="none" stroke-width="1" fill="none" fill-rule="evenodd">
        <rect id="Rectangle" fill-opacity="0" fill="#D8D8D8" x="0" y="0" width="52" height="60"></rect>
        <g id="메달" transform="translate(30.000000, 29.000000)">
            <path d="M5.40940202,24 C5.16774736,24 4.93119597,23.9389503 4.71865994,23.8165486 C4.26867195,23.5572383 4,23.0649115 4,22.4994459 L4,15 L6.28146013,15 L11.7185399,15.9084926 L14,15.9084926 L14,22.4994459 C14,23.0649115 13.731328,23.5572383 13.2813401,23.8165486 C12.8313521,24.0755566 12.2735951,24.0592364 11.7893852,23.7727257 L9,22.1216629 L6.21061479,23.7727257 C5.9548511,23.9241412 5.67897454,24 5.40940202,24 Z" id="Path" fill="#E95454" fill-rule="nonzero"></path>
            <circle id="Oval" fill="#FDC60F" fill-rule="nonzero" cx="9" cy="9" r="9"></circle>
            <circle id="Oval" fill="#FDD13F" transform="translate(9.000000, 9.000000) scale(-1, 1) translate(-9.000000, -9.000000) " cx="9" cy="9" r="7"></circle>
            <path d="M8.38623418,4 C8.66053479,4 8.92163824,4.08420355 9.14147965,4.24349412 L9.32757641,4.37825294 C9.39022119,4.42366982 9.54207214,4.47190453 9.70027109,4.47190453 C9.78780673,4.47190453 9.83591793,4.45715233 9.84861393,4.45267694 L10.0652813,4.37526935 C10.2037681,4.32587436 10.3486028,4.30084535 10.4959433,4.30084535 C11.0255005,4.30084535 11.5087841,4.6282115 11.6985561,5.11519973 L11.7815813,5.32852644 C11.8318642,5.45731808 12.043687,5.6396486 12.1793339,5.67047903 L12.4040198,5.72186309 C13.0782447,5.87568374 13.5135842,6.54798608 13.3745963,7.22045417 L13.3283227,7.44438919 C13.3004249,7.57981104 13.3792738,7.84667661 13.4764985,7.9454666 L13.6375373,8.10923255 C14.1208209,8.60036466 14.1208209,9.39946958 13.6375373,9.89060169 L13.4766655,10.0542019 C13.3794408,10.1531576 13.3004249,10.420189 13.3283227,10.5552793 L13.3745963,10.7793801 C13.5135842,11.4518482 13.0780776,12.1241505 12.4038528,12.2779712 L12.1793339,12.3291895 C12.043687,12.3601856 11.8316971,12.5423504 11.7815813,12.6713078 L11.6985561,12.8844688 C11.5087841,13.3716227 11.0253335,13.6989889 10.4959433,13.6989889 C10.3486028,13.6989889 10.2037681,13.6739599 10.0654484,13.6245649 L9.84861393,13.5471573 C9.83591793,13.5426819 9.78780673,13.5279297 9.70027109,13.5279297 C9.5422392,13.5279297 9.39038825,13.5761644 9.32757641,13.6215813 L9.14147965,13.7563401 C8.92180529,13.9157965 8.66070185,14 8.38640123,14 C7.98714517,14 7.60509553,13.8141886 7.36453958,13.5030665 L7.22421527,13.3215647 C7.1502109,13.2257583 6.91500063,13.1044257 6.75630052,13.1044257 L6.51524341,13.1181833 C5.82715314,13.1586275 5.21574009,12.6318581 5.15844099,11.9515995 L5.13922993,11.7238521 C5.12753624,11.5861097 4.97601939,11.3520636 4.8547391,11.2844356 L4.65377464,11.172551 C4.05071423,10.836234 3.82385659,10.0696171 4.14777187,9.46328526 L4.255855,9.2612299 C4.32117262,9.13923421 4.32117262,8.86093154 4.255855,8.73893585 L4.14777187,8.53704625 C3.82368954,7.93054865 4.05054717,7.16376595 4.65344054,6.82761479 L4.85457205,6.7155644 C4.97585234,6.64793635 5.12753624,6.41389027 5.13906288,6.27614785 L5.15844099,6.04823471 C5.21557303,5.36814189 5.82063809,4.84220123 6.51524341,4.88165092 L6.74510799,4.89524283 C6.91533474,4.89524283 7.15004385,4.77391016 7.22404822,4.67826952 L7.36437253,4.49693353 C7.60509553,4.18581137 7.98714517,4 8.38623418,4 Z" id="Shape" fill="#FDC60F" fill-rule="nonzero" transform="translate(9.000000, 9.000000) scale(-1, 1) translate(-9.000000, -9.000000) "></path>
            <circle id="Oval" stroke="#C02F2F" stroke-width="2" fill="#FFFFFF" cx="12.5" cy="10.5" r="5.5"></circle>
            <polygon id="Line" fill="#000000" fill-rule="nonzero" points="12.0008632 7 14 7.0002044 13.9991368 12 12 11.9997956"></polygon>
            <polygon id="Line" fill="#000000" fill-rule="nonzero" points="9 11.9991368 9.00016352 10 13 10.0008632 12.9998365 12"></polygon>
        </g>
        <g id="Group" transform="translate(5.000000, 8.000000)" fill="#838383" fill-rule="nonzero">
            <g id="iconfinder_1282_3043607" transform="translate(18.500000, 21.000000) scale(-1, 1) translate(-18.500000, -21.000000) ">
                <polygon id="Shape" transform="translate(18.500000, 21.000000) rotate(-180.000000) translate(-18.500000, -21.000000) " points="1.03924402 41.9997432 6.76490114e-14 41.9997432 -8.33777491e-14 1.74860126e-15 25 9.32587341e-15 25 2 2 2 2 40 35 40 35 24 36.9998415 24 36.9998415 42"></polygon>
                <rect id="Rectangle" x="18" y="9" width="14" height="2"></rect>
                <rect id="Rectangle" x="8" y="14" width="24" height="2"></rect>
                <rect id="Rectangle" x="13" y="19" width="19" height="2"></rect>
                <rect id="Rectangle" x="18" y="24" width="14" height="2"></rect>
                <rect id="Rectangle" x="14" y="32" width="10" height="2"></rect>
            </g>
        </g>
    </g>
</svg>