<?xml version="1.0" encoding="UTF-8"?>
<svg width="102px" height="76px" viewBox="0 0 102 76" version="1.1" xmlns="http://www.w3.org/2000/svg" xmlns:xlink="http://www.w3.org/1999/xlink">
    <!-- Generator: Sketch 63.1 (92452) - https://sketch.com -->
    <title>certgate/nomal@1x</title>
    <desc>Created with Sketch.</desc>
    <g id="certgate/nomal" stroke="none" stroke-width="1" fill="none" fill-rule="evenodd">
        <rect id="Rectangle" stroke="#E4E4E4" fill="#FFFFFF" x="0.5" y="0.5" width="101" height="75"></rect>
        <g id="Group" transform="translate(32.000000, 13.500000)" fill="#9F9F9F" fill-rule="nonzero">
            <g transform="translate(0.000000, 5.000000)">
                <path d="M7.1,6.8 L6.6,6.8 L6.6,6.3 C6.6,3 9.3,0.6 11.7,0.6 L12.2,0.6 L12.2,1.1 C12.2,4.3 10,6.8 7.1,6.8 Z M11.2,1.6 C9.6,1.9 7.9,3.5 7.7,5.7 C9.6,5.5 11,3.8 11.2,1.6 Z" id="Shape"></path>
                <path d="M3.6,25.8984331 C3.5,25.8984331 3.4,25.8984331 3.3,25.8984331 C2.3,25.8984331 1.1,24.476496 0.9,24.1717952 C0.809145754,24.0711284 0.520414262,23.8068333 0.633044196,23.8686912 C1,24.0702283 0.301668609,8.0551222 0.691543564,7.81411484 C1.46863845,7.33374136 2.33431923,7.10855028 3.2,7.10855028 C4.5,7.10855028 5.4,7.51481801 6.3,7.81951881 C6.7,7.92108575 7,8.12421962 7.4,8.22578655 C7.9,8.12421962 8.3,7.92108575 8.7,7.71795188 C9.4,7.41325108 10.3,7.00698334 11.4,7.00698334 C13.9,6.90541641 15.2,7.92108575 16.4,9.44458976 L16.8,9.85085749 L16.3,10.1555583 C15.4,10.7649599 14.2,11.8821962 14.1,13.6088341 C14,15.0307711 14.4,16.5542751 15,17.2652437 C15.5,17.8746453 16.1,18.280913 16.8,18.6871808 L17.3,18.9918816 L17.2,19.3981493 C16.7,20.9216533 15.7,22.4451573 15.4,23.0545589 C14.5,24.476496 13.5,25.3905984 12.5,25.8984331 C12.4,25.8984331 12.1,26 11.7,26 C10.8,26 10.2,25.6952992 9.6,25.4921653 C9.1,25.2890315 8.5,25.0858976 7.8,25.0858976 C7,25.0858976 6.5,25.2890315 5.9,25.4921653 C5.2,25.5937323 4.5,25.8984331 3.6,25.8984331 Z M3.22653011,8.20335095 C2.39415,8.20335095 1.49248422,8.55558359 0.752220821,9.1427723 C0.652840848,9.22160207 0.695306295,13.7171627 0.879617164,22.6294541 C1.24081471,23.0886505 1.52311903,23.4315068 1.72653011,23.6580231 C2.12653011,24.2680759 3.02653011,24.9798042 3.42653011,24.9798042 C4.32653011,25.0814797 4.92653011,24.7764533 5.52653011,24.5731023 C6.12653011,24.2680759 6.82653011,24.0647249 7.72653011,24.0647249 C8.72653011,24.0647249 9.32653011,24.3697514 9.92653011,24.5731023 C10.4265301,24.7764533 10.9265301,24.9798042 11.7265301,24.9798042 C11.9265301,24.9798042 12.1265301,24.9798042 12.1265301,24.9798042 C12.9265301,24.5731023 13.7265301,23.7596985 14.5265301,22.5395928 C14.8265301,22.0312155 15.6265301,20.8111098 16.1265301,19.4893286 C15.4265301,19.0826267 14.8265301,18.5742493 14.3265301,17.9641965 C13.5265301,17.1507927 13.1265301,15.3206342 13.2265301,13.5921511 C13.3265301,12.067019 14.1265301,10.6435623 15.4265301,9.62680759 C14.4265301,8.50837737 13.5265301,8 11.5265301,8 C10.6265301,8 9.92653011,8.30502642 9.22653011,8.61005285 C8.72653011,8.81340379 8.22653011,9.01675474 7.52653011,9.11843022 L7.42653011,9.11843022 L7.32653011,9.11843022 C6.92653011,9.01675474 6.42653011,8.81340379 6.02653011,8.71172832 C5.12653011,8.50837737 4.32653011,8.20335095 3.22653011,8.20335095 Z" id="Shape"></path>
                <path d="M33,27.2 C31.9,27.2 31,26.3 31,25.3 L31,22 L30,22 L30,25.3 C30,26.3 29.1,27.2 28,27.2 C26.9,27.2 26,26.3 26,25.3 L26,22 L25.1,22 C23.7,22 23,21.2 23,19.8 L23,9 L38,9 L38,19.9 C38,21.2 37.2,22 36,22 L35,22 L35,25.3 C35,26.3 34.1,27.2 33,27.2 Z M29,21 L32,21 L32,25.3 C32,25.8 32.5,26.2 33,26.2 C33.5,26.2 34,25.8 34,25.3 L34,21 L36,21 C36.4,21 37,20.9 37,19.9 L37,10 L24,10 L24,19.8 C24,20.7 24.3,21 25.1,21 L27,21 L27,25.3 C27,25.8 27.5,26.2 28,26.2 C28.5,26.2 29,25.8 29,25.3 L29,21 Z" id="Shape"></path>
                <path d="M24,19 L21.8,19 C20.8,19 20,18.1 20,17 L20,11.5 C20,10.4 20.4,9 22.5,9 L24,9 L24,10 L22.5,10 C21.6,10 21,10.3 21,11.5 L21,17 C21,17.5 21.3,18 21.8,18 L23,18 L23,17 L24,17 L24,19 Z" id="Path"></path>
                <path d="M38,8 L23,8 L23,7.47761194 C23,3.29850746 26.8541667,1 30.5,1 C34.1458333,1 38,3.29850746 38,7.47761194 L38,8 L38,8 Z M24,7 L37,7 C36.6854839,3.70212766 33.5403226,2 30.5,2 C27.4596774,2 24.3145161,3.70212766 24,7 Z" id="Shape"></path>
                <path d="M27.5,5.95980762 C26.9615385,5.95980762 26.5,5.49826916 26.5,4.95980762 C26.5,4.42134608 26.9615385,3.95980762 27.5,3.95980762 C28.0384615,3.95980762 28.5,4.42134608 28.5,4.95980762 C28.5,5.49826916 28.0384615,5.95980762 27.5,5.95980762 Z" id="Path"></path>
                <path d="M34,6 C33.4615385,6 33,5.53846154 33,5 C33,4.46153846 33.4615385,4 34,4 C34.5384615,4 35,4.46153846 35,5 C35,5.53846154 34.5384615,6 34,6 Z" id="Path"></path>
                <path d="M26.6598076,2.85980762 C26.4598076,2.85980762 26.3598076,2.75980762 26.2598076,2.65980762 L25.0598076,0.759807621 C24.9598076,0.559807621 24.9598076,0.259807621 25.2598076,0.0598076211 C25.4598076,-0.0401923789 25.7598076,-0.0401923789 25.9598076,0.259807621 L27.1598076,2.15980762 C27.2598076,2.35980762 27.2598076,2.65980762 26.9598076,2.85980762 C26.8598076,2.85980762 26.7598076,2.85980762 26.6598076,2.85980762 Z" id="Path"></path>
                <path d="M34.509017,2.80901699 C34.409017,2.80901699 34.309017,2.80901699 34.209017,2.70901699 C34.009017,2.50901699 33.909017,2.20901699 34.109017,2.00901699 L35.309017,0.209016994 C35.509017,0.00901699437 35.809017,-0.0909830056 36.009017,0.109016994 C36.209017,0.309016994 36.309017,0.609016994 36.109017,0.809016994 L34.909017,2.60901699 C34.909017,2.70901699 34.709017,2.80901699 34.509017,2.80901699 Z" id="Path"></path>
            </g>
            <path d="M32.5,35.5 L5.5,35.5 C2.5,35.5 -2.77555756e-17,33 -2.77555756e-17,30 L-2.77555756e-17,6 C-2.77555756e-17,3 2.5,0.5 5.5,0.5 L32.5,0.5 C35.5,0.5 38,3 38,6 L38,30 C38,33 35.6,35.5 32.5,35.5 Z M5.5,1.5 C3,1.5 1,3.5 1,6 L1,30 C1,32.5 3,34.5 5.5,34.5 L32.5,34.5 C35,34.5 37,32.5 37,30 L37,6 C37,3.5 35,1.5 32.5,1.5 L5.5,1.5 Z" id="Shape"></path>
        </g>
    </g>
</svg>