<?xml version="1.0" encoding="UTF-8"?>
<svg width="20px" height="20px" viewBox="0 0 20 20" version="1.1" xmlns="http://www.w3.org/2000/svg" xmlns:xlink="http://www.w3.org/1999/xlink">
    <!-- Generator: sketchtool 63.1 (101010) - https://sketch.com -->
    <title>86FEDD6E-6130-44B0-A674-B6D9C9F0C85F</title>
    <desc>Created with sketchtool.</desc>
    <g id="4차-화면" stroke="none" stroke-width="1" fill="none" fill-rule="evenodd">
        <g id="크롬브라우저-인증서선택" transform="translate(-311.000000, -270.000000)" fill="#555555" fill-rule="nonzero">
            <g id="Accepted-Copy-34" transform="translate(305.000000, 264.000000)">
                <path d="M16,6 C16.5909638,6 17.175826,6.05136174 17.7498714,6.15274034 C18.0153797,6.19963012 18.2463772,6.36195454 18.3804643,6.59586476 L19.4859526,8.52435049 L21.67217,8.13189897 C21.9373052,8.08430412 22.2098952,8.15674257 22.4164262,8.32967867 C23.0938034,8.89687189 23.6940652,9.55146505 24.2003472,10.2754861 C24.3547868,10.4963462 24.4032726,10.7743457 24.3327173,11.0344471 L23.7510232,13.1788583 L25.5747811,14.4474952 C25.7960847,14.6014378 25.9376519,14.8456597 25.9612503,15.1142053 C25.9870348,15.4076275 26,15.703086 26,16 C26,16.5909638 25.9486383,17.175826 25.8472597,17.7498714 C25.8003699,18.0153797 25.6380455,18.2463772 25.4041352,18.3804643 L23.4756495,19.4859526 L23.868101,21.67217 C23.9156959,21.9373052 23.8432574,22.2098952 23.6703213,22.4164262 C23.1031281,23.0938034 22.4485349,23.6940652 21.7245139,24.2003472 C21.5036538,24.3547868 21.2256543,24.4032726 20.9655529,24.3327173 L18.8211417,23.7510232 L17.5525048,25.5747811 C17.3985622,25.7960847 17.1543403,25.9376519 16.8857947,25.9612503 C16.5923725,25.9870348 16.296914,26 16,26 C15.4090362,26 14.824174,25.9486383 14.2501286,25.8472597 C13.9846203,25.8003699 13.7536228,25.6380455 13.6195357,25.4041352 L12.5140474,23.4756495 L10.32783,23.868101 C10.0626948,23.9156959 9.7901048,23.8432574 9.58357383,23.6703213 C8.90619662,23.1031281 8.30593477,22.4485349 7.79965281,21.7245139 C7.64521323,21.5036538 7.59672744,21.2256543 7.66728269,20.9655529 L8.24897681,18.8211417 L6.42521894,17.5525048 C6.20391529,17.3985622 6.06234812,17.1543403 6.03874968,16.8857947 C6.0129652,16.5923725 6,16.296914 6,16 C6,15.4090362 6.05136174,14.824174 6.15274034,14.2501286 C6.19963012,13.9846203 6.36195454,13.7536228 6.59586476,13.6195357 L8.52435049,12.5140474 L8.13189897,10.32783 C8.08430412,10.0626948 8.15674257,9.7901048 8.32967867,9.58357383 C8.89687189,8.90619662 9.55146505,8.30593477 10.2754861,7.79965281 C10.4963462,7.64521323 10.7743457,7.59672744 11.0344471,7.66728269 L13.1788583,8.24897681 L14.4474952,6.42521894 C14.6014378,6.20391529 14.8456597,6.06234812 15.1142053,6.03874968 C15.4076275,6.0129652 15.703086,6 16,6 Z M16,7.81818182 C15.8961731,7.81818182 15.7926024,7.82011114 15.689321,7.82395937 L14.3055444,9.81323893 C14.086127,10.1286673 13.6920918,10.2720844 13.321255,10.171491 L10.9821765,9.53699129 C10.630691,9.81031927 10.3018,10.1118966 9.99900117,10.4384507 L10.4271382,12.8234604 C10.4950283,13.2016534 10.3178145,13.5816895 9.98446296,13.7727805 L7.88124076,14.978435 C7.8393415,15.315215 7.81818182,15.6561543 7.81818182,16 C7.81818182,16.1038269 7.82011114,16.2073976 7.82395937,16.310679 L9.81323893,17.6944556 C10.1286673,17.913873 10.2720844,18.3079082 10.171491,18.678745 L9.53699129,21.0178235 C9.81031927,21.369309 10.1118966,21.6982 10.4384507,22.0009988 L12.8234604,21.5728618 C13.2016534,21.5049717 13.5816895,21.6821855 13.7727805,22.015537 L14.978435,24.1187592 C15.315215,24.1606585 15.6561543,24.1818182 16,24.1818182 C16.1038269,24.1818182 16.2073976,24.1798889 16.310679,24.1760406 L17.6944556,22.1867611 C17.913873,21.8713327 18.3079082,21.7279156 18.678745,21.828509 L21.0178235,22.4630087 C21.369309,22.1896807 21.6982,21.8881034 22.0009988,21.5615493 L21.5728618,19.1765396 C21.5049717,18.7983466 21.6821855,18.4183105 22.015537,18.2272195 L24.1187592,17.021565 C24.1606585,16.684785 24.1818182,16.3438457 24.1818182,16 C24.1818182,15.8961731 24.1798889,15.7926024 24.1760406,15.689321 L22.1867611,14.3055444 C21.8713327,14.086127 21.7279156,13.6920918 21.828509,13.321255 L22.4630087,10.9821765 C22.1896807,10.630691 21.8881034,10.3018 21.5615493,9.99900117 L19.1765396,10.4271382 C18.7983466,10.4950283 18.4183105,10.3178145 18.2272195,9.98446296 L17.021565,7.88124076 C16.684785,7.8393415 16.3438457,7.81818182 16,7.81818182 Z M16,12 C18.209139,12 20,13.790861 20,16 C20,18.209139 18.209139,20 16,20 C13.790861,20 12,18.209139 12,16 C12,13.790861 13.790861,12 16,12 Z M16,14 C14.8954305,14 14,14.8954305 14,16 C14,17.1045695 14.8954305,18 16,18 C17.1045695,18 18,17.1045695 18,16 C18,14.8954305 17.1045695,14 16,14 Z" id="Combined-Shape"></path>
            </g>
        </g>
    </g>
</svg>