<?xml version="1.0" encoding="UTF-8"?>
<svg width="102px" height="76px" viewBox="0 0 102 76" version="1.1" xmlns="http://www.w3.org/2000/svg" xmlns:xlink="http://www.w3.org/1999/xlink">
    <!-- Generator: Sketch 63.1 (92452) - https://sketch.com -->
    <title>cloud/hover@1x</title>
    <desc>Created with Sketch.</desc>
    <g id="cloud/hover" stroke="none" stroke-width="1" fill="none" fill-rule="evenodd">
        <rect id="Rectangle" stroke="#E4E4E4" fill="#FFFFFF" x="0.5" y="0.5" width="101" height="75"></rect>
        <path d="M54.6834244,18.0045145 C50.7887311,18.115675 47.2616231,20.272361 45.3785896,23.6646897 L45.2295392,23.9424351 C44.2665875,23.3262553 43.1534346,23 42,23 C38.686282,23 36,25.6862913 36,29 C36,29.4749276 36.055184,29.9436121 36.1641598,30.3982329 L36.2559539,30.7364393 C33.739836,31.9469844 32.0929842,34.4582738 32.0040329,37.2497699 L32,37.4835545 L32.0036536,37.7346413 C32.1323595,41.7834972 35.4509514,45.000066 39.4964981,45.000066 L63.4953607,45.000066 L63.742756,44.9961788 C67.6915964,44.8677548 70.870535,41.6868546 70.9959485,37.7502267 L71,37.517539 L70.9953306,37.2353883 C70.8833545,34.1128263 68.8508428,31.3931748 65.9121364,30.3968775 C65.9706355,29.9352839 66,29.4690347 66,29 C66,22.9248675 61.0751232,18 55,18 L54.6834244,18.0045145 Z M54.9999907,19 C60.5228385,19 64.9999907,23.4771522 64.9999907,29 C64.9999907,29.4270515 64.9732793,29.8513082 64.9200716,30.2711504 L64.8173578,31.0816257 L65.5910608,31.343931 C68.13708,32.2070973 69.8989227,34.5645735 69.9957298,37.2621243 L70.0001484,37.5177604 L69.9962758,37.7257229 C69.887833,41.1279571 67.1320581,43.8854326 63.7185109,43.996507 L63.4873766,44.0001297 L39.4964981,44.0001297 C35.9909874,44.0001297 33.1146954,41.2121995 33.00334,37.7109427 L32.9998667,37.4842563 L33.0037069,37.2742006 C33.0805631,34.8640052 34.5081691,32.6870443 36.6895023,31.6375696 L37.4618636,31.265974 L37.2128035,30.4458556 C37.0717671,29.9814434 36.9999907,29.4954649 36.9999907,29 C36.9999907,26.2385761 39.2385668,24 41.9999907,24 C42.9622287,24 43.8883707,24.271444 44.6905533,24.7847499 L45.6131365,25.3750984 L46.117302,24.4027363 C47.8360332,21.0878946 51.2493608,19 54.9999907,19 Z" id="Path" fill="#0266CC" fill-rule="nonzero"></path>
    </g>
</svg>