<?xml version="1.0" encoding="UTF-8"?>
<svg width="102px" height="76px" viewBox="0 0 102 76" version="1.1" xmlns="http://www.w3.org/2000/svg" xmlns:xlink="http://www.w3.org/1999/xlink">
    <!-- Generator: Sketch 63.1 (92452) - https://sketch.com -->
    <title>cloud/nomal@1x</title>
    <desc>Created with Sketch.</desc>
    <g id="cloud/nomal" stroke="none" stroke-width="1" fill="none" fill-rule="evenodd">
        <rect id="Rectangle" stroke="#E4E4E4" fill="#FFFFFF" x="0.5" y="0.5" width="101" height="75"></rect>
        <g id="Group" transform="translate(32.000000, 18.000000)" fill="#9F9F9F" fill-rule="nonzero">
            <path d="M22.6834244,0.00451450232 C18.7887311,0.115675031 15.2616231,2.27236097 13.3785896,5.66468968 L13.2295392,5.94243513 C12.2665875,5.32625529 11.1534346,5 10,5 C6.68628201,5 4,7.68629134 4,11 C4,11.4749276 4.05518401,11.9436121 4.16415984,12.3982329 L4.25595389,12.7364393 C1.73983603,13.9469844 0.0929841574,16.4582738 0.00403291181,19.2497699 L0,19.4835545 L0.00365357984,19.7346413 C0.132359525,23.7834972 3.45095141,27.000066 7.49649813,27.000066 L31.4953607,27.000066 L31.742756,26.9961788 C35.6915964,26.8677548 38.870535,23.6868546 38.9959485,19.7502267 L39,19.517539 L38.9953306,19.2353883 C38.8833545,16.1128263 36.8508428,13.3931748 33.9121364,12.3968775 C33.9706355,11.9352839 34,11.4690347 34,11 C34,4.92486745 29.0751232,0 23,0 L22.6834244,0.00451450232 Z M22.9999907,1 C28.5228385,1 32.9999907,5.4771522 32.9999907,11 C32.9999907,11.4270515 32.9732793,11.8513082 32.9200716,12.2711504 L32.8173578,13.0816257 L33.5910608,13.343931 C36.13708,14.2070973 37.8989227,16.5645735 37.9957298,19.2621243 L38.0001484,19.5177604 L37.9962758,19.7257229 C37.887833,23.1279571 35.1320581,25.8854326 31.7185109,25.996507 L31.4873766,26.0001297 L7.49649813,26.0001297 C3.99098738,26.0001297 1.11469537,23.2121995 1.00333998,19.7109427 L0.999866726,19.4842563 L1.0037069,19.2742006 C1.08056306,16.8640052 2.50816912,14.6870443 4.68950229,13.6375696 L5.46186356,13.265974 L5.21280346,12.4458556 C5.07176708,11.9814434 4.99999067,11.4954649 4.99999067,11 C4.99999067,8.23857609 7.23856676,6 9.99999067,6 C10.9622287,6 11.8883707,6.27144404 12.6905533,6.78474992 L13.6131365,7.37509845 L14.117302,6.40273632 C15.8360332,3.08789456 19.2493608,1 22.9999907,1 Z" id="Path"></path>
        </g>
    </g>
</svg>