<?xml version="1.0" encoding="UTF-8"?>
<svg width="102px" height="76px" viewBox="0 0 102 76" version="1.1" xmlns="http://www.w3.org/2000/svg" xmlns:xlink="http://www.w3.org/1999/xlink">
    <!-- Generator: Sketch 63.1 (92452) - https://sketch.com -->
    <title>media/nomal@1x</title>
    <desc>Created with Sketch.</desc>
    <g id="media/nomal" stroke="none" stroke-width="1" fill="none" fill-rule="evenodd">
        <rect id="Rectangle" stroke="#E4E4E4" fill="#FFFFFF" x="0.5" y="0.5" width="101" height="75"></rect>
        <g id="Group-2" transform="translate(38.000000, 18.000000)" fill="#9F9F9F" fill-rule="nonzero">
            <path d="M7,7 L0,7 L0,0 L7,0 L7,7 Z M1,6 L6,6 L6,1 L1,1 L1,6 Z" id="Shape"></path>
            <path d="M7,17 L0,17 L0,10 L7,10 L7,17 Z M1,16 L6,16 L6,11 L1,11 L1,16 Z" id="Shape"></path>
            <path d="M7,27 L0,27 L0,20 L7,20 L7,27 Z M1,26 L6,26 L6,21 L1,21 L1,26 Z" id="Shape"></path>
            <path d="M17,7 L10,7 L10,0 L17,0 L17,7 Z M11,6 L16,6 L16,1 L11,1 L11,6 Z" id="Shape"></path>
            <path d="M17,17 L10,17 L10,10 L17,10 L17,17 Z M11,16 L16,16 L16,11 L11,11 L11,16 Z" id="Shape"></path>
            <path d="M17,27 L10,27 L10,20 L17,20 L17,27 Z M11,26 L16,26 L16,21 L11,21 L11,26 Z" id="Shape"></path>
            <path d="M27,7 L20,7 L20,0 L27,0 L27,7 Z M21,6 L26,6 L26,1 L21,1 L21,6 Z" id="Shape"></path>
            <path d="M27,17 L20,17 L20,10 L27,10 L27,17 Z M21,16 L26,16 L26,11 L21,11 L21,16 Z" id="Shape"></path>
            <path d="M27,27 L20,27 L20,20 L27,20 L27,27 Z M21,26 L26,26 L26,21 L21,21 L21,26 Z" id="Shape"></path>
        </g>
    </g>
</svg>