<?xml version="1.0" encoding="UTF-8"?>
<svg width="102px" height="76px" viewBox="0 0 102 76" version="1.1" xmlns="http://www.w3.org/2000/svg" xmlns:xlink="http://www.w3.org/1999/xlink">
    <!-- Generator: Sketch 63.1 (92452) - https://sketch.com -->
    <title>ex/disable@1x</title>
    <desc>Created with Sketch.</desc>
    <g id="ex/disable" stroke="none" stroke-width="1" fill="none" fill-rule="evenodd">
        <rect id="Rectangle" stroke="#E4E4E4" fill="#F6F6F6" x="0.5" y="0.5" width="101" height="75"></rect>
        <path d="M58.8797999,34.1968704 L60.3797999,34.1968704 L60.9797999,34.1968704 L67.9797999,34.1968704 C68.0797999,34.1968704 68.1797999,32.6968704 68.1797999,31.8968704 C68.1797999,29.1968704 67.4797999,26.6968704 66.2797999,24.4968704 C66.2797999,24.4968704 66.2797999,24.4968704 66.2797999,24.4968704 C64.3797999,21.0968704 61.3797999,18.5968704 57.5797999,17.2968704 C60.9797999,15.7968704 63.8797999,15.5968704 65.4797999,17.1968704 C66.8797999,18.5968704 67.0797999,21.2968704 66.1797999,24.4968704 C67.4797999,20.7968704 67.3797999,17.6968704 65.6797999,15.9968704 C63.4797999,13.7968704 58.8797999,14.1968704 53.7797999,16.6968704 C53.3797999,16.6968704 52.9797999,16.5968704 52.5797999,16.5968704 C44.0797999,16.5968704 37.0797999,23.4968704 37.0797999,32.0968704 C37.0797999,32.0968704 37.0797999,32.0968704 37.0797999,32.0968704 C33.2797999,38.2968704 32.2797999,44.1968704 34.8797999,46.7968704 C37.0797999,48.9968704 41.2797999,48.4968704 46.1797999,46.0968704 C48.1797999,46.9968704 50.2797999,46.9968704 52.5797999,46.9968704 C59.3797999,46.9968704 65.0797999,43.1968704 67.1797999,36.1968704 L58.5797999,36.1968704 L58.1797999,36.1968704 C57.9797999,37.1968704 57.7797999,37.3968704 57.4797999,37.7968704 C57.0797999,38.3968704 56.4797999,39.0968704 55.8797999,39.4968704 C55.4797999,39.7968704 54.9797999,40.0968704 54.4797999,40.2968704 C53.8797999,40.4968704 53.1797999,40.5968704 52.4797999,40.5968704 C48.9797999,40.5968704 46.1797999,37.1968704 46.1797999,34.1968704 L57.8797999,34.1968704 L58.8797999,34.1968704 Z M36.9797999,46.9968704 C34.3797999,45.8968704 35.1797999,41.3968704 37.7797999,36.3968704 C39.0797999,40.5968704 42.0797999,44.0968704 45.9797999,45.9968704 C42.2797999,47.4968704 38.9797999,47.8968704 36.9797999,46.9968704 Z M45.9797999,30.1968704 C45.9797999,27.1968704 48.7797999,23.8968704 52.2797999,23.8968704 C55.7797999,23.8968704 58.5797999,27.1968704 58.5797999,30.1968704 L45.9797999,30.1968704 Z" id="Shape" fill="#FFFFFF" fill-rule="nonzero"></path>
        <g id="Group" transform="translate(33.000000, 14.000000)" fill="#9F9F9F" fill-rule="nonzero">
            <path d="M33.0797999,1.59687045 C34.8797999,3.39687045 35.0797999,6.49687045 33.7797999,10.4968704 C34.9797999,12.7968704 35.6797999,15.2968704 35.6797999,17.8968704 C35.6797999,20.5271735 35.4150616,20.6865858 35.0513807,20.6962471 L13.7797999,20.6968704 C14.0797999,23.1968704 16.5797999,26.0968704 19.5797999,26.0968704 C20.2797999,26.0968704 20.8797999,25.9968704 21.3797999,25.7968704 C21.7797999,25.6968704 22.0797999,25.3968704 22.4797999,25.1968704 L22.6797999,25.0968704 C23.1797999,24.7968704 23.5797999,24.1968704 23.9797999,23.6968704 L24.1797999,23.3968704 C24.3797999,23.0968704 24.5797999,22.8968704 24.6797999,22.0968704 L24.7797999,21.6968704 L34.8797999,21.6968704 L34.6797999,22.2968704 C32.5797999,29.1968704 26.7797999,33.4968704 19.5797999,33.4968704 C17.1797999,33.4968704 15.0797999,33.3968704 13.1797999,32.5968704 C10.4797999,33.9968704 7.97979986,34.6968704 5.87979986,34.6968704 C4.07979986,34.6968704 2.57979986,34.1968704 1.57979986,33.1968704 C-1.12020014,30.4968704 -0.320200136,24.4968704 3.67979986,17.9968704 C3.77979986,9.19687045 10.8797999,2.09687045 19.6797999,2.09687045 L20.7797999,2.09687045 L20.7797999,2.09687045 C26.1797999,-0.50312955 30.7797999,-0.70312955 33.0797999,1.59687045 Z M4.67979986,23.6968704 C3.07979986,26.9968704 2.47979986,29.7968704 3.07979986,31.2968704 C3.25979986,31.8368704 3.60179986,32.2148704 4.03289986,32.4308704 L4.17979986,32.4968704 C5.87979986,33.1968704 8.67979986,32.9968704 11.7797999,31.8968704 C8.57979986,30.0968704 6.07979986,27.1968704 4.67979986,23.6968704 Z M21.0797999,3.09687045 L20.9797999,3.19687045 L20.8797999,3.19687045 C20.3797999,3.09687045 19.9797999,2.99687045 19.6797999,2.99687045 C12.0405927,2.99687045 5.7567633,8.6725151 4.80462663,16.0474895 C6.44647461,14.2311532 8.27169793,12.4268529 10.2797999,10.8968704 C10.3797999,10.7968704 10.4797999,10.7968704 10.5797999,10.6968704 C8.07979986,13.1968704 6.07979986,15.7968704 4.47979986,18.3968704 L4.679,18.077 L4.67979986,18.0968704 L4.57979986,18.2968704 C0.879799864,24.3968704 -0.0202001365,29.9968704 2.27979986,32.3968704 C2.47979986,32.5968704 2.67979986,32.7968704 2.97979986,32.8968704 C2.57979986,32.5968704 2.37979986,32.1968704 2.17979986,31.6968704 C1.47979986,29.6968704 2.27979986,26.2968704 4.37979986,22.1968704 L4.97979986,21.0968704 L5.37979986,22.2968704 C6.57979986,26.3968704 9.47979986,29.6968704 13.3797999,31.5968704 L13.5797999,31.6968704 C15.3797999,32.4968704 17.3797999,32.5968704 19.7797999,32.5968704 C26.3797999,32.5968704 31.5797999,28.8968704 33.6797999,22.7968704 L25.7797999,22.7968704 C25.5797999,23.4968704 25.3797999,23.7968704 25.1797999,24.0968704 L24.9797999,24.2968704 C24.5797999,24.8968704 23.9797999,25.5968704 23.3797999,25.9968704 L23.1797999,26.0968704 C22.7797999,26.3968704 22.3797999,26.5968704 21.8797999,26.7968704 C21.2797999,26.9968704 20.5797999,27.0968704 19.7797999,27.0968704 C15.9797999,27.0968704 12.9797999,23.3968704 12.9797999,20.1968704 L12.9797999,19.6968704 L34.4797999,19.6968704 C34.4797999,19.2968704 34.5797999,18.4968704 34.5797999,17.8968704 C34.5797999,15.7406204 34.1403467,13.5843704 33.179043,11.5929154 L32.9797999,11.1968704 L32.6797999,10.6968704 C30.8797999,7.39687045 27.8797999,4.89687045 24.2797999,3.79687045 L23.0797999,3.39687045 L24.2797999,2.89687045 C28.065094,1.24687045 30.9083466,1.19834104 32.6266908,2.65984877 L32.778,2.795 L32.7093999,2.67767045 C32.6037999,2.52087045 32.4597999,2.37687045 32.3797999,2.29687045 C30.3797999,0.29687045 26.1797999,0.59687045 21.0797999,3.09687045 Z M19.2797999,9.39687045 C23.0797999,9.39687045 26.0797999,13.0968704 26.0797999,16.1968704 L26.0797999,16.6968704 L12.4797999,16.6968704 L12.4797999,16.1968704 C12.4797999,12.9968704 15.4797999,9.39687045 19.2797999,9.39687045 Z M19.3797999,10.3968704 C16.2797999,10.3968704 13.8797999,13.0968704 13.5797999,15.6968704 L25.1797999,15.6968704 C24.8797999,13.0968704 22.4797999,10.3968704 19.3797999,10.3968704 Z M25.8797999,3.39687045 C28.6797999,4.59687045 31.0797999,6.49687045 32.7797999,8.99687045 L32.7797999,8.79687045 L32.9797999,9.19687045 C33.4797999,6.69687045 33.1797999,4.69687045 32.0797999,3.59687045 C30.8797999,2.39687045 28.6797999,2.29687045 25.8797999,3.39687045 Z" id="Combined-Shape"></path>
        </g>
    </g>
</svg>