<?xml version="1.0" encoding="UTF-8"?>
<svg width="19px" height="19px" viewBox="0 0 19 19" version="1.1" xmlns="http://www.w3.org/2000/svg" xmlns:xlink="http://www.w3.org/1999/xlink">
    <!-- Generator: Sketch 61.2 (89653) - https://sketch.com -->
    <title>img_plus@1.5x</title>
    <desc>Created with Sketch.</desc>
    <g id="최종정리" stroke="none" stroke-width="1" fill="none" fill-rule="evenodd">
        <g id="정리_인증서선택_리스트3-1" transform="translate(-297.000000, -406.000000)" fill="#505050" fill-rule="nonzero">
            <g id="Group-2" transform="translate(64.000000, 404.000000)">
                <path d="M242.5,2.5 C242.74546,2.5 242.949608,2.67687516 242.991944,2.91012437 L243,3 L243,11 L251,11 C251.276142,11 251.5,11.2238576 251.5,11.5 C251.5,11.7454599 251.323125,11.9496084 251.089876,11.9919443 L251,12 L243,12 L243,20 C243,20.2761424 242.776142,20.5 242.5,20.5 C242.25454,20.5 242.050392,20.3231248 242.008056,20.0898756 L242,20 L242,12 L234,12 C233.723858,12 233.5,11.7761424 233.5,11.5 C233.5,11.2545401 233.676875,11.0503916 233.910124,11.0080557 L234,11 L242,11 L242,3 C242,2.72385763 242.223858,2.5 242.5,2.5 Z" id="img_plus"></path>
            </g>
        </g>
    </g>
</svg>