<?xml version="1.0" encoding="UTF-8"?>
<svg width="41px" height="23px" viewBox="0 0 41 23" version="1.1" xmlns="http://www.w3.org/2000/svg" xmlns:xlink="http://www.w3.org/1999/xlink">
    <!-- Generator: Sketch 61.2 (89653) - https://sketch.com -->
    <title>esc@1.5x</title>
    <desc>Created with Sketch.</desc>
    <g id="최종정리" stroke="none" stroke-width="1" fill="none" fill-rule="evenodd">
        <g id="리스트-간편비밀번호_입력" transform="translate(-275.000000, -661.000000)">
            <g id="간편비번_키보드" transform="translate(0.000000, 392.000000)">
                <g id="delete" transform="translate(274.000000, 269.000000)">
                    <g id="esc" transform="translate(0.000000, 0.000000)">
                        <path d="M15.8153024,0 L39.8632076,0 C40.9677771,-2.02906125e-16 41.8632076,0.8954305 41.8632076,2 L41.8632076,21 C41.8632076,22.1045695 40.9677771,23 39.8632076,23 L15.8153024,23 C15.3784281,23 14.9535697,22.8569534 14.6056599,22.5927225 L2.09711931,13.0927225 C1.21748298,12.4246553 1.04597228,11.1699937 1.71403944,10.2903574 C1.82376697,10.1458804 1.95264232,10.0170051 2.09711931,9.90727755 L14.6056599,0.407277546 C14.9535697,0.14304662 15.3784281,8.02525211e-17 15.8153024,0 Z" id="Rectangle" fill="#555555"></path>
                        <path d="M32.3137085,4.58578644 L33.7279221,6 L28.0707864,11.6567864 L33.7279221,17.3137085 L32.3137085,18.7279221 L26.6567864,13.0707864 L21,18.7279221 L19.5857864,17.3137085 L25.2417864,11.6567864 L19.5857864,6 L21,4.58578644 L26.6567864,10.2417864 L32.3137085,4.58578644 Z" id="Combined-Shape" fill="#FFFFFF" fill-rule="nonzero"></path>
                    </g>
                </g>
            </g>
        </g>
    </g>
</svg>