<?xml version="1.0" encoding="UTF-8"?>
<svg width="102px" height="76px" viewBox="0 0 102 76" version="1.1" xmlns="http://www.w3.org/2000/svg" xmlns:xlink="http://www.w3.org/1999/xlink">
    <!-- Generator: Sketch 63.1 (92452) - https://sketch.com -->
    <title>opera/disable@1x</title>
    <desc>Created with Sketch.</desc>
    <g id="opera/disable" stroke="none" stroke-width="1" fill="none" fill-rule="evenodd">
        <rect id="Rectangle" stroke="#E4E4E4" fill="#F6F6F6" x="0.5" y="0.5" width="101" height="75"></rect>
        <path d="M51.5,14 C60.6126984,14 68,21.8350169 68,31.5 C68,41.1649831 60.6126984,49 51.5,49 C42.3873016,49 35,41.1649831 35,31.5 C35,21.8350169 42.3873016,14 51.5,14 Z M51.5,18 C46.2532949,18 42,24.2680135 42,32 C42,39.7319865 46.2532949,46 51.5,46 C56.7467051,46 61,39.7319865 61,32 C61,24.2680135 56.7467051,18 51.5,18 Z" id="bg" fill="#FFFFFF"></path>
        <path d="M51.5,14 C61.1649831,14 69,21.8350169 69,31.5 C69,41.1649831 61.1649831,49 51.5,49 C41.8350169,49 34,41.1649831 34,31.5 C34,21.8350169 41.8350169,14 51.5,14 Z M51.5,14.9722222 C42.3719604,14.9722222 34.9722222,22.3719604 34.9722222,31.5 C34.9722222,40.6280396 42.3719604,48.0277778 51.5,48.0277778 C52.9997727,48.0277778 54.4528885,47.8280161 55.8341918,47.4536484 C47.1787108,46.7756519 41.5,40.1902954 41.5,31.5369281 C41.5,22.6684878 47.4885957,16.43368 56.0116814,15.596206 C54.5774762,15.1894906 53.064111,14.9722222 51.5,14.9722222 Z M58.4475184,16.4989791 L58,16.5 C55.8078095,16.5 53.7662532,16.8574448 51.9314509,17.5272736 C57.2943528,17.9815618 61.2738903,24.2053365 61.2738903,31.5291115 C61.2738903,39.4194942 57.3216188,45.338674 51.3111776,45.4588273 L51.429296,45.4541242 C53.278096,46.1730054 55.365456,46.5469397 57.6443818,46.5085645 L57.9827784,46.499876 L58.4824818,46.4826544 C64.1207071,43.8529959 68.0277778,38.1327706 68.0277778,31.5 C68.0277778,24.8535213 64.1045407,19.1233637 58.4475184,16.4989791 Z M51.3011842,18.5 C50.5440602,18.5 49.8459635,18.6145074 49.2040989,18.8433912 C45.0595516,21.4009479 42.5,25.8926608 42.5,31.5369281 C42.5,36.625628 44.5657761,40.9334129 48.0997919,43.6037593 L48.1630411,43.5118717 L48.3979362,43.664032 C49.2669427,44.1990318 50.2217886,44.4804053 51.2911908,44.4590271 C56.6586322,44.3517278 60.2738903,38.9372813 60.2738903,31.5291115 C60.2738903,24.4083376 56.3222757,18.5 51.3011842,18.5 Z" id="Combined-Shape" fill="#9F9F9F" fill-rule="nonzero"></path>
    </g>
</svg>