<?xml version="1.0" encoding="UTF-8"?>
<svg width="102px" height="76px" viewBox="0 0 102 76" version="1.1" xmlns="http://www.w3.org/2000/svg" xmlns:xlink="http://www.w3.org/1999/xlink">
    <!-- Generator: Sketch 63.1 (92452) - https://sketch.com -->
    <title>phone/install@1x</title>
    <desc>Created with Sketch.</desc>
    <g id="phone/install" stroke="none" stroke-width="1" fill="none" fill-rule="evenodd">
        <rect id="Rectangle" stroke="#B3B3B3" fill="#FFFFFF" x="0.5" y="0.5" width="101" height="75"></rect>
        <path d="M85,14 L85,16 L93,16 L93,14 L95,14 L95,18 L83,18 L83,14 L85,14 Z M90,7 L90,11 L93,11 L89,14 L85,11 L88,11 L88,7 L90,7 Z" id="img_install" fill="#999999"></path>
        <g id="Group" transform="translate(40.000000, 14.000000)" fill-rule="nonzero">
            <path d="M21.5,31.5 C21.5,33.2 20.2,34.5 18.5,34.5 L3.5,34.5 C1.8,34.5 0.5,33.2 0.5,31.5 L0.5,3.5 C0.5,1.8 1.8,0.5 3.5,0.5 L18.5,0.5 C20.2,0.5 21.5,1.8 21.5,3.5 L21.5,31.5 Z" id="Path" fill="#FFFFFF"></path>
            <path d="M18.5,0 C20.4,0 22,1.6 22,3.5 L22,31.5 C22,33.4 20.4,35 18.5,35 L3.5,35 C1.6,35 0,33.4 0,31.5 L0,3.5 C0,1.6 1.6,0 3.5,0 L18.5,0 Z M21,30 L1,30 L1,31.5 C1,32.9 2.1,34 3.5,34 L18.5,34 C19.9,34 21,32.9 21,31.5 L21,30 Z M21,6 L1,6 L1,29 L21,29 L21,6 Z M18.5,1 L3.5,1 C2.1,1 1,2.1 1,3.5 L1,5 L21,5 L21,3.5 C21,2.1 19.9,1 18.5,1 Z" id="Combined-Shape" fill="#C7C7C7"></path>
        </g>
    </g>
</svg>