<?xml version="1.0" encoding="UTF-8"?>
<svg width="70px" height="50px" viewBox="0 0 70 50" version="1.1" xmlns="http://www.w3.org/2000/svg" xmlns:xlink="http://www.w3.org/1999/xlink">
    <!-- Generator: Sketch 63.1 (92452) - https://sketch.com -->
    <title>cloud_img</title>
    <desc>Created with Sketch.</desc>
    <g id="4차-화면-추가화면" stroke="none" stroke-width="1" fill="none" fill-rule="evenodd">
        <g id="클라우드연결중/간편비번등록-확인창2" transform="translate(-153.000000, -289.000000)" fill="#197FD5" fill-rule="nonzero">
            <g id="cloud_img" transform="translate(153.000000, 289.000000)">
                <path d="M54,18 L35,18 L35,20 L54,20 C61.72,20 68,26.28 68,34 C68,41.72 61.72,48 54,48 L16,48 C8.28,48 2,41.72 2,34 C2,26.28 8.28,20 16,20 L17,20 L17,18 L16,18 C7.178,18 0,25.178 0,34 C0,42.822 7.178,50 16,50 L54,50 C62.822,50 70,42.822 70,34 C70,25.178 62.822,18 54,18 Z" id="Path"></path>
                <path d="M17.5,19.5 C17.5,9.851 25.351,2 35,2 C44.48,2 52.207,9.583 52.475,19 L54.475,19 C54.206,8.48 45.583,0 35,0 C24.248,0 15.5,8.748 15.5,19.5 C15.5,30.252 24.248,39 35,39 L35,37 C25.351,37 17.5,29.149 17.5,19.5 Z" id="Path"></path>
                <path d="M32,23 C29.794,23 28,21.206 28,19 C28,16.794 29.794,15 32,15 C34.206,15 36,16.794 36,19 C36,21.206 34.206,23 32,23 Z M32,17 C30.897,17 30,17.897 30,19 C30,20.103 30.897,21 32,21 C33.103,21 34,20.103 34,19 C34,17.897 33.103,17 32,17 Z" id="Shape"></path>
                <path d="M38,42 C35.794,42 34,40.206 34,38 C34,35.794 35.794,34 38,34 C40.206,34 42,35.794 42,38 C42,40.206 40.206,42 38,42 Z M38,36 C36.897,36 36,36.897 36,38 C36,39.103 36.897,40 38,40 C39.103,40 40,39.103 40,38 C40,36.897 39.103,36 38,36 Z" id="Shape"></path>
            </g>
        </g>
    </g>
</svg>