<?xml version="1.0" encoding="UTF-8"?>
<svg width="58px" height="58px" viewBox="0 0 58 58" version="1.1" xmlns="http://www.w3.org/2000/svg" xmlns:xlink="http://www.w3.org/1999/xlink">
    <!-- Generator: Sketch 63.1 (92452) - https://sketch.com -->
    <title>img-느낌표</title>
    <desc>Created with Sketch.</desc>
    <g id="4차-화면-추가화면" stroke="none" stroke-width="1" fill="none" fill-rule="evenodd">
        <g id="클라우드연결중/간편비번등록-확인창1" transform="translate(-159.000000, -285.000000)" fill="#0B80C7" fill-rule="nonzero">
            <g id="img-느낌표" transform="translate(159.000000, 285.000000)">
                <path d="M29,0 C12.9837423,0 0,12.9837423 0,29 C0,45.0162577 12.9837423,58 29,58 C45.0162577,58 58,45.0162577 58,29 C58,12.9837423 45.0162577,0 29,0 Z M29,2 C43.9116882,2 56,14.0883118 56,29 C56,43.9116882 43.9116882,56 29,56 C14.0883118,56 2,43.9116882 2,29 C2,14.0883118 14.0883118,2 29,2 Z" id="Oval"></path>
                <polygon id="Line-3" points="30 14.5 30 37.5 27 37.5 27 14.5"></polygon>
                <polygon id="Line-3" points="30 43 30 46 27 46 27 43"></polygon>
            </g>
        </g>
    </g>
</svg>