<?xml version="1.0" encoding="UTF-8"?>
<svg width="26px" height="25px" viewBox="0 0 26 25" version="1.1" xmlns="http://www.w3.org/2000/svg" xmlns:xlink="http://www.w3.org/1999/xlink">
    <!-- Generator: Sketch 61.2 (89653) - https://sketch.com -->
    <title>img_fingerprint@1.5x</title>
    <desc>Created with Sketch.</desc>
    <g id="최종정리" stroke="none" stroke-width="1" fill="none" fill-rule="evenodd">
        <g id="정리_인증서선택_리스트3" transform="translate(-64.000000, -346.000000)" fill="#0B80C7" fill-rule="nonzero">
            <g id="Group" transform="translate(64.000000, 346.000000)">
                <g id="menu/생체인증">
                    <g id="img_fingerprint">
                        <path d="M2.65191277,18.6985744 C1.01710898,13.4906875 1.60531713,9.14273221 3.97586325,6.02963759 C6.05531249,3.29882288 9.4199368,1.71853202 12.8957979,1.71853202 C19.4481752,1.71853202 24.2713275,6.96203464 24.2713275,12.8523282 C24.2713275,14.6198067 22.8300185,16.0525212 21.051963,16.0525212 C19.2718739,16.0525212 17.8239552,14.6175025 17.8239552,12.8523286 L16.9596189,12.8523286 L16.0952827,12.8523286 L16.0952827,12.9717661 L16.9596189,12.9717661 L17.8239552,12.9717661 C17.8239552,10.2553279 15.6085654,8.05304107 12.8759182,8.05304107 C10.1864226,8.05304107 8.06676868,10.2022442 7.92925379,12.928736 C7.84037131,14.6922187 8.41990316,17.0526617 9.6346776,19.1196731 C11.2282226,21.8311853 13.7644774,23.8926215 17.2689758,24.9619498 C17.7253238,25.1011954 18.2088139,24.8463032 18.3488811,24.3926322 C18.4889483,23.9389611 18.2325521,23.4583073 17.7762041,23.3190617 C14.6959367,22.3791791 12.5065612,20.5996821 11.1272735,18.2527416 C10.0819211,16.4740118 9.58368787,14.4446995 9.65575888,13.0147666 C9.74842147,11.1775561 11.1350737,9.77157309 12.8759182,9.77157309 C14.6538648,9.77157309 16.0952827,11.2044657 16.0952827,12.9717661 C16.0952827,14.1174542 17.8239551,14.1174542 17.8239552,12.9717662 L17.8239552,12.8523287 C17.8239553,11.7066407 16.0952827,11.7066406 16.0952827,12.8523286 C16.0952827,15.5678031 18.3183388,17.7710532 21.051963,17.7710532 C23.7847003,17.7710532 26,15.5689633 26,12.8523282 C26,6.04552557 20.4391197,0 12.8957979,0 C8.89082612,0 5.01184034,1.82187525 2.59757599,4.99238237 C-0.126166396,8.56930823 -0.792501677,13.4947688 1.00172655,19.2105236 C1.14393159,19.6635368 1.62861833,19.9161729 2.08430467,19.774802 C2.53999101,19.6334312 2.79411781,19.1515876 2.65191277,18.6985744 L2.65191277,18.6985744 Z" id="Stroke-5"></path>
                        <path d="M10.0339254,23.4632422 C8.11163512,21.8159596 6.37322912,18.4701396 5.88474915,15.2437756 C5.32364836,11.537758 6.39419394,8.52569038 9.239661,6.83538859 C14.3200708,3.81748077 20.2588065,7.46966393 20.2588065,13.2451668 C20.2588065,13.72733 20.6485859,14.1182005 21.1294033,14.1182005 C21.6102206,14.1182005 22,13.72733 22,13.2451668 C22,6.14733771 14.620892,1.60935938 8.35224028,5.33311669 C4.82857979,7.42628786 3.50418433,11.1525829 4.16328359,15.5058712 C4.71225012,19.1317431 6.64902349,22.8593505 8.90275501,24.7906575 C9.26828745,25.103896 9.81783116,25.0606739 10.1301952,24.6941182 C10.4425593,24.3275626 10.3994579,23.7764806 10.0339254,23.4632422 L10.0339254,23.4632422 Z" id="Stroke-7"></path>
                        <path d="M12.0030316,12.7843856 C11.9343816,14.9861198 13.0352932,17.7049769 14.9369338,19.2777436 C16.6587333,20.7016324 19.1626927,21.2545552 22.2703242,20.8919325 C22.7242342,20.8389667 23.0482719,20.4363717 22.9940824,19.9927114 C22.939893,19.549051 22.527997,19.2323305 22.074087,19.2852962 C19.3892209,19.5985873 17.3408962,19.1462775 16.0062212,18.0425319 C14.5110433,16.8059332 13.6037028,14.5651274 13.6576894,12.8336741 C13.6716145,12.3870707 13.3124952,12.0139934 12.855574,12.0003828 C12.3986529,11.9867722 12.0169566,12.3377822 12.0030316,12.7843856 L12.0030316,12.7843856 Z" id="Stroke-9"></path>
                    </g>
                </g>
            </g>
        </g>
    </g>
</svg>