<?xml version="1.0" encoding="UTF-8"?>
<svg width="48px" height="24px" viewBox="0 0 48 24" version="1.1" xmlns="http://www.w3.org/2000/svg" xmlns:xlink="http://www.w3.org/1999/xlink">
    <!-- Generator: Sketch 63.1 (92452) - https://sketch.com -->
    <title>logo/delfino-b</title>
    <desc>Created with Sketch.</desc>
    <g id="logo/delfino-b" stroke="none" stroke-width="1" fill="none" fill-rule="evenodd">
        <path d="M25.3449258,21.3387673 C25.5054714,20.9334481 25.8791785,20.0095217 25.4919802,19.550076 C23.9121571,21.4117751 20.3275371,20.1656074 19,19 C20.0590616,21.8812908 23.7340729,23.9192155 28,22.5786412 C27.8435017,22.0487052 25.8211662,21.5880008 25.3449258,21.3387673 Z" id="Path" fill="#9F9F9F" fill-rule="nonzero"></path>
        <path d="M33.4445905,10.8722679 C33.344504,10.7315649 33.2373692,10.5951692 33.1288247,10.461645 C32.0828505,9.17665385 30.6182046,8.19316901 28.9153247,7.68204404 C28.9505665,7.68922276 28.7222001,7.62748575 28.7222001,7.62748575 C27.9356049,7.40925262 27.0982617,7.29152159 26.2313154,7.29152159 C22.845291,7.29152159 19.917409,9.08045899 18.5161982,11.6805919 C18.5091498,11.6863349 18.4950532,11.6963851 18.4950532,11.6963851 C18.4950532,11.6963851 18.4936435,11.6935136 18.4922338,11.6906421 C18.9912566,9.56143333 20.6292917,7.40638113 23.8433365,6.58513539 C26.9911269,5.78255432 30.7436651,6.50329796 32.2069013,8.06395202 C30.9494768,4.83927032 28.3303122,2.91537295 24.9696618,2.43296287 C22.7635302,2.38414756 20.8858514,2.66842493 19.5748594,3.532743 C18.6599844,2.54495092 16.797812,1.48537163 14.797492,2.27646674 C15.6728963,3.13217034 16.5666263,3.92757268 16.6469774,5.57293566 C15.1203061,7.6289215 12.384139,12.5118879 15.261273,17.9763307 C16.5511199,20.5333913 19.0842947,22.6640358 22.0431895,23 C19.4099282,22.2778206 18.0355011,19.4135107 18.1581423,17.4494125 C18.2582288,16.5865302 18.5514399,15.1967297 19.0138113,14.4142491 C19.6481622,13.3417481 20.59405,12.3754922 21.7711234,11.607369 C22.1404566,12.3467773 22.2997492,13.3015472 22.198253,14.5219299 C23.8151431,14.1213572 24.7976822,12.4085143 24.436807,10.3496569 C24.9682522,10.1788034 25.522252,10.0438434 26.0973969,9.94764855 C28.3119865,9.57579077 30.4434057,9.84714644 32.1899853,10.596605 C32.4846061,10.7430509 32.7735882,10.893804 33.0667993,11.0416857 C33.110499,11.0632219 33.1541987,11.0861938 33.1978985,11.1077299 C33.4798322,11.275712 33.749079,11.4566158 34,11.651877 C33.8280204,11.3790856 33.6447635,11.1206516 33.4445905,10.8722679 Z" id="Path" fill="#9F9F9F" fill-rule="nonzero"></path>
        <rect id="Rectangle" fill-opacity="0" fill="#FFFFFF" x="0" y="0" width="48" height="24"></rect>
    </g>
</svg>