<?xml version="1.0" encoding="UTF-8"?>
<svg width="48px" height="24px" viewBox="0 0 48 24" version="1.1" xmlns="http://www.w3.org/2000/svg" xmlns:xlink="http://www.w3.org/1999/xlink">
    <!-- Generator: Sketch 63.1 (92452) - https://sketch.com -->
    <title>logo/delfino</title>
    <desc>Created with Sketch.</desc>
    <g id="logo/delfino" stroke="none" stroke-width="1" fill="none" fill-rule="evenodd">
        <g id="Untitled-1" transform="translate(14.000000, 2.000000)" fill="#0056A2" fill-rule="nonzero">
            <path d="M11.3449258,19.3387673 C11.5054714,18.9334481 11.8791785,18.0095217 11.4919802,17.550076 C9.9121571,19.4117751 6.3275371,18.1656074 5,17 C6.05906161,19.8812908 9.73407285,21.9192155 14,20.5786412 C13.8435017,20.0487052 11.8211662,19.5880008 11.3449258,19.3387673 Z" id="Path"></path>
            <path d="M19.4445905,8.87226788 C19.344504,8.73156493 19.2373692,8.59516923 19.1288247,8.46164501 C18.0828505,7.17665385 16.6182046,6.19316901 14.9153247,5.68204404 C14.9505665,5.68922276 14.7222001,5.62748575 14.7222001,5.62748575 C13.9356049,5.40925262 13.0982617,5.29152159 12.2313154,5.29152159 C8.84529099,5.29152159 5.91740895,7.08045899 4.51619819,9.68059192 C4.50914985,9.6863349 4.49505316,9.69638511 4.49505316,9.69638511 C4.49505316,9.69638511 4.49364349,9.69351362 4.49223382,9.69064213 C4.99125657,7.56143333 6.62929168,5.40638113 9.84333649,4.58513539 C12.9911269,3.78255432 16.7436651,4.50329796 18.2069013,6.06395202 C16.9494768,2.83927032 14.3303122,0.915372951 10.9696618,0.432962865 C8.76353021,0.384147559 6.8858514,0.668424931 5.57485944,1.532743 C4.65998441,0.544950921 2.79781196,-0.514628374 0.797491966,0.276466736 C1.67289627,1.13217034 2.56662628,1.92757268 2.6469774,3.57293566 C1.12030611,5.6289215 -1.61586097,10.5118879 1.26127299,15.9763307 C2.55111992,18.5333913 5.08429471,20.6640358 8.04318946,21 C5.40992819,20.2778206 4.03550114,17.4135107 4.15814232,15.4494125 C4.2582288,14.5865302 4.55143991,13.1967297 5.01381127,12.4142491 C5.64816222,11.3417481 6.59404996,10.3754922 7.77112339,9.60736896 C8.14045661,10.3467773 8.29974918,11.3015472 8.19825303,12.5219299 C9.81514311,12.1213572 10.7976822,10.4085143 10.436807,8.34965695 C10.9682522,8.17880338 11.522252,8.04384341 12.0973969,7.94764855 C14.3119865,7.57579077 16.4434057,7.84714644 18.1899853,8.59660497 C18.4846061,8.74305089 18.7735882,8.89380404 19.0667993,9.0416857 C19.110499,9.06322187 19.1541987,9.08619378 19.1978985,9.10772994 C19.4798322,9.27571202 19.749079,9.45661581 20,9.65187703 C19.8280204,9.37908561 19.6447635,9.12065164 19.4445905,8.87226788 Z" id="Path"></path>
        </g>
        <rect id="Rectangle" fill-opacity="0" fill="#FFFFFF" x="0" y="0" width="48" height="24"></rect>
    </g>
</svg>