<?xml version="1.0" encoding="UTF-8"?>
<svg width="91.3792578px" height="25px" viewBox="0 0 91.3792578 25" version="1.1" xmlns="http://www.w3.org/2000/svg" xmlns:xlink="http://www.w3.org/1999/xlink">
    <title>AF1A6C7E-4732-41CC-8C7E-45462C9E780A</title>
    <g id="메인화면(체크박스추가)" stroke="none" stroke-width="1" fill="none" fill-rule="evenodd">
        <g id="메인/드림인증" transform="translate(-465.000000, -174.000000)" fill="#005BBD" fill-rule="nonzero">
            <g id="mlogo/dreamsign" transform="translate(465.000000, 174.000000)">
                <g id="Group">
                    <path d="M12.2078344,6.17900791 C12.1702327,6.16930266 12.1232305,6.16930266 12.0856289,6.15959741 C11.2583916,6.04313444 9.84832817,6.01401869 8.72027741,6.00431344 C7.75203384,5.9946082 7,6.00431344 7,6.00431344 C7,6.02372394 7,6.54780733 7,6.82925953 C7,9.51761323 7,17.6214953 7,17.9902948 C7.89304019,17.9902948 8.78608037,18 9.66031971,18 C10.1961438,18 10.7131671,17.9902948 11.2207899,17.9902948 C14.2571266,17.9514738 16.7482387,15.5445723 16.9832492,12.4485981 C17.2088594,9.46908699 15.1313659,6.63515457 12.2078344,6.17900791 Z M13.4580906,13.1376707 C12.7154572,14.3799425 11.512203,14.205248 10.2807476,14.1373113 C10.2807476,12.7009346 10.2807476,11.3519051 10.2807476,9.93493889 C11.3899975,9.93493889 12.5838513,9.66319195 13.3828872,10.8181165 C13.8999105,11.5654206 13.9187113,12.3806614 13.4580906,13.1376707 Z" id="Shape"></path>
                    <path d="M21.9570272,6.04282519 C21.9379524,4.54668096 21.0223585,3.55229241 19.4772938,3.22387051 C17.3504455,2.76772897 15.4238834,1.91930572 13.6022331,0.797197545 C11.8568823,-0.279296476 10.0924565,-0.261050815 8.34710571,0.824566037 C6.53499282,1.95579704 4.59889326,2.79509747 2.47204497,3.24211617 C1.00327979,3.55229241 0.0686110335,4.68352342 0.0304612885,6.10668501 C0.0018489797,7.21054752 0.0209238522,9.92915106 0.0209238522,10.1754675 C-0.0649130741,12.520035 0.0686110335,14.8189883 1.27986544,16.9446079 C3.41625116,20.6849684 6.76389129,23.1207642 10.6837776,24.9453304 C10.9031386,25.0456815 11.3132484,25.000014 11.5326094,24.8723477 C13.2684228,23.8140994 15.0805357,22.8470793 16.682825,21.62462 C19.3151574,19.6084744 21.3561688,17.0723275 21.775816,13.7972313 C22.1000888,11.2428387 21.9856396,8.64283194 21.9570272,6.04282519 Z M19.6203554,10.257573 C19.6203554,10.8870483 19.5917431,11.5074008 19.5440559,12.1368761 C19.4391441,13.3593354 19.1434836,14.6365317 18.6093871,15.7403942 C17.8940794,17.2182928 16.8926486,18.4407521 15.7195439,19.4807548 C15.5287952,19.6358429 15.3189716,19.8000539 15.109148,19.9642648 C14.0695675,20.7853196 12.9155377,21.4786547 11.7805828,22.1811127 C11.6089089,22.272341 11.4276976,22.3726921 11.2560238,22.4639204 C11.1606494,22.4912889 11.0462002,22.5186574 10.9508258,22.5186574 C10.845914,22.5095346 10.7410022,22.4912889 10.6456278,22.4639204 C10.473954,22.3726921 10.2927427,22.2814638 10.1210689,22.1811127 C8.98611394,21.4695319 7.83208415,20.7853196 6.7925036,19.9642648 C6.58268,19.8000539 6.38239384,19.6449657 6.18210768,19.4807548 C5.00900302,18.4316293 4.00757221,17.2182928 3.29226449,15.7403942 C2.75816806,14.6365317 2.46250753,13.3593354 2.35759574,12.1368761 C2.30990855,11.5165236 2.29083368,10.8870483 2.28129625,10.257573 C2.28129625,9.84704559 2.31944599,7.30177583 2.30990855,6.54458088 C2.30990855,5.86036858 2.54834446,5.47720969 3.31133936,5.32212157 C5.54309945,4.88422569 7.58411081,3.96281979 9.48206062,2.76772897 C9.97800731,2.45755273 10.4644166,2.29334178 10.9508258,2.28421895 C10.9603632,2.28421895 10.9603632,2.28421895 10.9699007,2.28421895 C10.9794381,2.28421895 10.9794381,2.28421895 10.9889756,2.28421895 C11.4753848,2.29334178 11.961794,2.45755273 12.4577407,2.76772897 C14.3556906,3.95369696 16.3967019,4.88422569 18.628462,5.32212157 C19.3914569,5.47720969 19.6394302,5.86036858 19.6298928,6.54458088 C19.6203554,7.30177583 19.6394302,8.05897077 19.6489677,8.81616572 C19.6489677,9.05335932 19.6489677,9.29967575 19.6489677,9.53686934 C19.6585051,9.52774651 19.6585051,9.84704559 19.6203554,10.257573 Z" id="Shape"></path>
                </g>
                <g id="드림인증" transform="translate(25.633789, 5.127930)">
                    <path d="M2.50488281,9.25488281 L2.50488281,1.49414062 L13.2275391,1.49414062 L13.2275391,3.33105469 L4.71972656,3.33105469 L4.71972656,7.41796875 L13.4824219,7.41796875 L13.4824219,9.25488281 L2.50488281,9.25488281 Z M0,14.4580078 L0,12.6210938 L15.7324219,12.6210938 L15.7324219,14.4580078 L0,14.4580078 Z" id="Shape"></path>
                    <path d="M29.0899609,9.59765625 L29.0899609,0 L31.2520703,0 L31.2520703,9.59765625 L29.0899609,9.59765625 Z M27.6485547,8.78027344 C26.6934766,8.92675781 25.8511914,9.02636719 25.1216992,9.07910156 C24.392207,9.13183594 23.4151563,9.15527344 22.1905469,9.14941406 L18.1124219,9.140625 L18.1124219,3.91992188 L24.0889844,3.91992188 L24.0889844,2.390625 L18.1124219,2.390625 L18.1124219,0.59765625 L26.2686719,0.59765625 L26.2686719,5.65136719 L20.2745313,5.65136719 L20.2745313,7.34765625 C22.6592969,7.34765625 24.2838086,7.32714844 25.1480664,7.28613281 C26.0123242,7.24511719 26.7579297,7.14550781 27.3848828,6.98730469 L27.6485547,8.78027344 Z M20.3096875,16.59375 L20.3096875,10.3095703 L31.2520703,10.3095703 L31.2520703,16.59375 L20.3096875,16.59375 Z M29.1075391,12.1464844 L22.4717969,12.1464844 L22.4717969,14.7568359 L29.1075391,14.7568359 L29.1075391,12.1464844 Z" id="Shape"></path>
                    <path d="M45.1457422,12.0761719 L45.1457422,0 L47.3078516,0 L47.3078516,12.0761719 L45.1457422,12.0761719 Z M38.1848047,9.65039062 C36.8723047,9.65039062 35.7853906,9.22998047 34.9240625,8.38916016 C34.0627344,7.54833984 33.6320703,6.47460938 33.6320703,5.16796875 C33.6320703,3.84960938 34.0627344,2.77001953 34.9240625,1.92919922 C35.7853906,1.08837891 36.8723047,0.66796875 38.1848047,0.66796875 C39.4973047,0.66796875 40.5842188,1.08691406 41.4455469,1.92480469 C42.306875,2.76269531 42.7375391,3.84375 42.7375391,5.16796875 C42.7375391,6.48046875 42.306875,7.55566406 41.4455469,8.39355469 C40.5842188,9.23144531 39.4973047,9.65039062 38.1848047,9.65039062 Z M38.1848047,2.52246094 C37.4816797,2.52246094 36.9059961,2.765625 36.4577539,3.25195312 C36.0095117,3.73828125 35.7853906,4.37695312 35.7853906,5.16796875 C35.7853906,5.953125 36.0095117,6.58740234 36.4577539,7.07080078 C36.9059961,7.55419922 37.4816797,7.79589844 38.1848047,7.79589844 C38.8996484,7.79589844 39.4767969,7.55419922 39.91625,7.07080078 C40.3557031,6.58740234 40.5754297,5.953125 40.5754297,5.16796875 C40.5754297,4.39453125 40.3527734,3.76025391 39.9074609,3.26513672 C39.4621484,2.77001953 38.8879297,2.52246094 38.1848047,2.52246094 Z M36.3654688,16.3652344 L36.3654688,10.7666016 L38.5803125,10.7666016 L38.5803125,14.5107422 L47.6330469,14.5107422 L47.6330469,16.3652344 L36.3654688,16.3652344 Z" id="Shape"></path>
                    <path d="M64.0140234,6.47753906 C61.2894141,6.02636719 59.2444922,5.11523438 57.8792578,3.74414062 C57.3753516,4.32421875 56.5316016,4.87939453 55.3480078,5.40966797 C54.1644141,5.93994141 52.9925391,6.29003906 51.8323828,6.45996094 L50.593125,4.82519531 C51.999375,4.73144531 53.2591406,4.43701172 54.3724219,3.94189453 C55.4857031,3.44677734 56.2093359,2.8828125 56.5433203,2.25 L51.8148047,2.25 L51.8148047,0.395507812 L63.9437109,0.395507812 L63.9437109,2.25 L59.2327734,2.25 C59.6077734,2.88867188 60.3563086,3.46435547 61.4783789,3.97705078 C62.6004492,4.48974609 63.8001563,4.77246094 65.0775,4.82519531 L64.0140234,6.47753906 Z M50.0130469,9.34277344 L50.0130469,7.48828125 L65.7454688,7.48828125 L65.7454688,9.34277344 L50.0130469,9.34277344 Z M57.8792578,16.9541016 C56.0276953,16.9541016 54.605332,16.668457 53.612168,16.097168 C52.6190039,15.5258789 52.1224219,14.71875 52.1224219,13.6757812 C52.1224219,12.6503906 52.6204688,11.8520508 53.6165625,11.2807617 C54.6126563,10.7094727 56.0335547,10.4238281 57.8792578,10.4238281 C59.7425391,10.4238281 61.167832,10.7124023 62.1551367,11.2895508 C63.1424414,11.8666992 63.6360938,12.6621094 63.6360938,13.6757812 C63.6360938,14.71875 63.1395117,15.5258789 62.1463477,16.097168 C61.1531836,16.668457 59.7308203,16.9541016 57.8792578,16.9541016 Z M57.8792578,12.2431641 C55.5413672,12.2431641 54.3724219,12.7207031 54.3724219,13.6757812 C54.3724219,14.1269531 54.6683203,14.4858398 55.2601172,14.7524414 C55.8519141,15.019043 56.7249609,15.1523438 57.8792578,15.1523438 C59.0335547,15.1523438 59.9066016,15.019043 60.4983984,14.7524414 C61.0901953,14.4858398 61.3860938,14.1269531 61.3860938,13.6757812 C61.3860938,12.7207031 60.2171484,12.2431641 57.8792578,12.2431641 Z" id="Shape"></path>
                </g>
            </g>
        </g>
    </g>
</svg>