<?xml version="1.0" encoding="UTF-8"?>
<svg width="48px" height="24px" viewBox="0 0 48 24" version="1.1" xmlns="http://www.w3.org/2000/svg" xmlns:xlink="http://www.w3.org/1999/xlink">
    <title>logo/dreamsign-b</title>
    <g id="logo/dreamsign-b" stroke="none" stroke-width="1" fill="none" fill-rule="evenodd">
        <rect id="Rectangle" fill-opacity="0" fill="#FFFFFF" x="0" y="0" width="48" height="24"></rect>
        <g id="Group" transform="translate(13.000000, 0.000000)" fill="#9F9F9F" fill-rule="nonzero">
            <path d="M11.6870509,7.14917326 C11.6532094,7.14108555 11.6109075,7.14108555 11.577066,7.13299784 C10.8325525,7.03594536 9.56349536,7.01168224 8.54824967,7.00359454 C7.67683046,6.99550683 7,7.00359454 7,7.00359454 C7,7.01976995 7,7.45650611 7,7.6910496 C7,9.93134436 7,16.6845794 7,16.9919123 C7.80373617,16.9919123 8.60747234,17 9.39428774,17 C9.87652944,17 10.3418504,16.9919123 10.7987109,16.9919123 C13.5314139,16.9595615 15.7734148,14.9538102 15.9849243,12.3738318 C16.1879735,9.89090582 14.3182293,7.52929547 11.6870509,7.14917326 Z M12.7178416,13.0198603 C12.0826065,14.1811106 11.0533647,14.0178098 10,13.9543039 C10,12.6116083 10,11.3505631 10,10.026012 C10.9488323,10.026012 11.9700331,9.77198851 12.653514,10.8515884 C13.0957663,11.550153 13.1118483,12.3122235 12.7178416,13.0198603 Z" id="Shape"></path>
            <path d="M20.9589806,5.80111218 C20.9407727,4.36481372 20.0667967,3.41020072 18.5919623,3.09491569 C16.5617889,2.65701981 14.7227978,1.84253349 12.9839498,0.765309643 C11.3179331,-0.268124617 9.63370852,-0.250608782 7.96769181,0.791583396 C6.23794769,1.87756516 4.38985265,2.68329357 2.35967929,3.11243152 C0.95767616,3.41020072 0.0654923502,4.49618248 0.0290766845,5.8624176 C0.00176493517,6.92212562 0.019972768,9.53198502 0.019972768,9.76844879 C-0.0619624798,12.0192336 0.0654923502,14.2262288 1.22168974,16.2668235 C3.26096702,19.8575697 6.45644168,22.1959337 10.1981513,23.9475172 C10.4075414,24.0438543 10.7990098,24.0000135 11.0083999,23.8774538 C12.6653127,22.8615354 14.3950568,21.9331961 15.9245148,20.7596352 C18.4371957,18.8241354 20.3854338,16.3894344 20.7860061,13.245342 C21.0955393,10.7931251 20.9862923,8.29711866 20.9589806,5.80111218 Z M18.728521,9.84727005 C18.728521,10.4515664 18.7012093,11.0471047 18.6556897,11.651401 C18.5555466,12.824962 18.2733252,14.0510704 17.7635059,15.1107784 C17.0807122,16.5295611 16.1248009,17.703122 15.0050192,18.7015246 C14.8229409,18.8504092 14.6226547,19.0080517 14.4223686,19.1656942 C13.4300417,19.9539068 12.3284678,20.6195085 11.2451017,21.2938682 C11.0812312,21.3814473 10.9082568,21.4777844 10.7443863,21.5653636 C10.6533472,21.5916374 10.5441002,21.6179111 10.453061,21.6179111 C10.3529179,21.6091532 10.2527748,21.5916374 10.1617357,21.5653636 C9.99786517,21.4777844 9.82489076,21.3902053 9.66102027,21.2938682 C8.57765421,20.6107506 7.47608032,19.9539068 6.48375343,19.1656942 C6.28346727,19.0080517 6.09228503,18.8591671 5.90110278,18.7015246 C4.78132106,17.6943641 3.82540984,16.5295611 3.1426161,15.1107784 C2.63279678,14.0510704 2.35057537,12.824962 2.25043229,11.651401 C2.20491271,11.0558627 2.18670488,10.4515664 2.17760096,9.84727005 C2.17760096,9.45316376 2.21401663,7.00970479 2.20491271,6.28279764 C2.20491271,5.62595383 2.43251062,5.2581213 3.16082394,5.1092367 C5.29114038,4.68885667 7.2393785,3.804307 9.05105787,2.65701981 C9.52446152,2.35925062 9.98876126,2.20160811 10.453061,2.19285019 C10.4621649,2.19285019 10.4621649,2.19285019 10.4712688,2.19285019 C10.4803727,2.19285019 10.4803727,2.19285019 10.4894767,2.19285019 C10.9537764,2.20160811 11.4180761,2.35925062 11.8914798,2.65701981 C13.7031592,3.79554908 15.6513973,4.68885667 17.7817137,5.1092367 C18.510027,5.2581213 18.7467289,5.62595383 18.7376249,6.28279764 C18.728521,7.00970479 18.7467289,7.73661194 18.7558328,8.46351909 C18.7558328,8.69122494 18.7558328,8.92768872 18.7558328,9.15539457 C18.7649367,9.14663665 18.7649367,9.45316376 18.728521,9.84727005 Z" id="Shape"></path>
        </g>
    </g>
</svg>