<?xml version="1.0" encoding="UTF-8"?>
<svg width="48px" height="24px" viewBox="0 0 48 24" version="1.1" xmlns="http://www.w3.org/2000/svg" xmlns:xlink="http://www.w3.org/1999/xlink">
    <!-- Generator: Sketch 63.1 (92452) - https://sketch.com -->
    <title>logo/kumyoong</title>
    <desc>Created with Sketch.</desc>
    <g id="logo/kumyoong" stroke="none" stroke-width="1" fill="none" fill-rule="evenodd">
        <rect id="Rectangle" fill-opacity="0" fill="#FFFFFF" x="0" y="0" width="48" height="24"></rect>
        <g id="yeskey" transform="translate(14.000000, 1.000000)" fill-rule="nonzero">
            <path d="M20.6135593,1.71057348 C20.6135593,1.71057348 17.6949153,0 10.5152542,0 C10.5050847,0 10.5050847,0 10.4949153,0 C10.4847458,0 10.4847458,0 10.4745763,0 C3.28474576,0 0.376271186,1.71057348 0.376271186,1.71057348 C0.244067797,1.78270609 0,1.92697133 0,2.18458781 C0,2.4422043 0,11.7473118 0,11.7473118 C0,12.8499104 0.305084746,14.6429211 1.33220339,16.4256272 C2.26779661,18.0537634 3.62033898,19.2800179 4.56610169,19.8261649 C6.32542373,20.8360215 9.52881356,22.6599462 9.52881356,22.6599462 C9.52881356,22.6599462 9.98644068,23 10.4237288,23 C10.4440678,23 10.5457627,23 10.5762712,23 C11.0135593,23 11.4711864,22.6599462 11.4711864,22.6599462 C11.4711864,22.6599462 14.6745763,20.8257168 16.4338983,19.8261649 C17.379661,19.2800179 18.7322034,18.0537634 19.6677966,16.4256272 C20.6949153,14.6429211 21,12.8499104 21,11.7473118 C21,11.7473118 21,2.4422043 21,2.18458781 C21,1.92697133 20.7457627,1.78270609 20.6135593,1.71057348 Z" id="Path" fill="#0669B3"></path>
            <path d="M17.424785,6.30071151 L17.4149349,6.29057641 C17.2573334,6.01692853 16.9125801,5.91557747 16.6466275,6.07773917 L10.500169,9.73651263 L4.35371045,6.07773917 C4.08775792,5.91557747 3.74300464,6.01692853 3.58540313,6.29057641 L3.57555304,6.30071151 C3.41795154,6.57435939 3.51645248,6.92908812 3.78240501,7.09124982 L9.93871365,10.7500233 L9.93871365,18.4222989 C9.93871365,18.7364872 10.1948161,19 10.500169,19 L10.5100191,19 C10.815372,19 11.0714744,18.7364872 11.0714744,18.4222989 L11.0714744,17.6824362 L11.9284326,17.6824362 C12.2337855,17.6824362 12.489888,17.4189234 12.489888,17.1047351 L12.489888,17.0946 C12.489888,16.7804117 12.2337855,16.5168989 11.9284326,16.5168989 L11.0714744,16.5168989 L11.0714744,16.0405489 L11.9284326,16.0405489 C12.2337855,16.0405489 12.489888,15.7770361 12.489888,15.4628478 L12.489888,15.4527127 C12.489888,15.1385244 12.2337855,14.8750116 11.9284326,14.8750116 L11.0714744,14.8750116 L11.0714744,10.7398882 L17.2080829,7.09124982 C17.4838855,6.92908812 17.5823865,6.57435939 17.424785,6.30071151 Z" id="Path" fill="#F59D24"></path>
            <path d="M8.92378919,11.31452 L8.91324246,11.3039195 C8.74449465,11.0177059 8.37535883,10.9117008 8.09059691,11.0813089 L3.81746152,13.7276838 C3.5326996,13.8972918 3.42723222,14.2683095 3.59598003,14.5545231 L3.60652676,14.5651236 C3.77527457,14.8513371 4.14441039,14.9573422 4.42917231,14.7877341 L8.7023077,12.1413592 C8.98706962,11.9717512 9.08199026,11.6007336 8.92378919,11.31452 Z" id="Path" fill="#FFFFFF"></path>
            <path d="M17.4087057,11.31452 L17.3981589,11.3039195 C17.2294111,11.0177059 16.8602753,10.9117008 16.5755134,11.0813089 L12.302378,13.7276838 C12.0176161,13.8972918 11.9121487,14.2683095 12.0808965,14.5545231 L12.0914432,14.5651236 C12.260191,14.8513371 12.6293269,14.9573422 12.9140888,14.7877341 L17.1872242,12.1413592 C17.4719861,11.9717512 17.5669067,11.6007336 17.4087057,11.31452 Z" id="Path" fill="#FFFFFF" transform="translate(14.742458, 12.934522) scale(-1, 1) translate(-14.742458, -12.934522) "></path>
            <path d="M12.5,3.82006173 C12.5,2.70740741 11.6016043,1.8 10.5,1.8 C9.39839572,1.8 8.5,2.70740741 8.5,3.82006173 C8.5,4.71666667 9.07754011,5.48364198 9.87967914,5.74290123 L9.87967914,8.18425926 C9.87967914,8.5191358 10.157754,8.8 10.4893048,8.8 L10.5,8.8 C10.8315508,8.8 11.1096257,8.5191358 11.1096257,8.18425926 L11.1096257,5.74290123 C11.9117647,5.48364198 12.5,4.71666667 12.5,3.82006173 Z M10.4893048,4.57623457 C10.0828877,4.57623457 9.74064171,4.24135802 9.74064171,3.82006173 C9.74064171,3.39876543 10.0721925,3.06388889 10.4893048,3.06388889 C10.8957219,3.06388889 11.2379679,3.39876543 11.2379679,3.82006173 C11.2379679,4.24135802 10.9064171,4.57623457 10.4893048,4.57623457 Z" id="Shape" fill="#FFFFFF"></path>
        </g>
        <rect id="Rectangle" fill-opacity="0" fill="#FFFFFF" x="0" y="0" width="48" height="24"></rect>
    </g>
</svg>