<?xml version="1.0" encoding="UTF-8"?>
<svg width="48px" height="24px" viewBox="0 0 48 24" version="1.1" xmlns="http://www.w3.org/2000/svg" xmlns:xlink="http://www.w3.org/1999/xlink">
    <!-- Generator: Sketch 63.1 (92452) - https://sketch.com -->
    <title>logo/kumyoong-b</title>
    <desc>Created with Sketch.</desc>
    <g id="logo/kumyoong-b" stroke="none" stroke-width="1" fill="none" fill-rule="evenodd">
        <rect id="Rectangle" fill-opacity="0" fill="#FFFFFF" x="0" y="0" width="48" height="24"></rect>
        <path d="M24,1 C28.9864857,1 32.2364541,4.02617336 32.881714,8.01025102 C36.8465557,8.20837937 40,11.4859265 40,15.5 C40,19.6421356 36.6421356,23 32.5,23 L15.5,23 C11.3578644,23 8,19.6421356 8,15.5 C8,11.4859265 11.1534443,8.20837937 15.1181386,8.00955286 C15.7635459,4.02617336 19.0135143,1 24,1 Z M24,3 C20.2824475,3 17.740155,5.02616122 17.1351011,8.09159557 L17.0923923,8.32943143 L16.8337031,9.92603193 L15.2183113,10.0070426 C12.3024537,10.1532708 10,12.5669989 10,15.5 C10,18.4634791 12.34378,20.8795391 15.2787929,20.9956328 L15.5,21 L32.5,21 C35.5375661,21 38,18.5375661 38,15.5 C38,12.642168 35.814138,10.27757 33.0049411,10.0234098 L32.7818959,10.0077586 L31.1660912,9.92701467 L30.9074399,8.3300038 C30.3894049,5.13146062 27.8129691,3 24,3 Z" id="Combined-Shape" fill="#9F9F9F" fill-rule="nonzero"></path>
        <path d="M23.9658203,7.00637146 C24.065169,7.00620324 24.1643501,7.01475399 24.2635605,7.01412729 C26.5,7 29.0000735,9 29.0000735,11.6923077 L29.0000735,11.6923077 L29.0000735,18.1538462 C29.0029297,18.5885743 28.4907227,19.0834135 27.9545898,19.0834135 L27.9545898,19.0834135 L19.9726563,19.0834135 C19.4365234,19.0834135 19,18.5885743 19,18.1538462 L19,18.1538462 L19.001,13.013369 L19.0009944,13.0406968 L19.0009944,13.0406968 L19,11.6923077 C19,9 21.4316406,7.01298077 23.9658203,7.00637146 Z M24,14 C23.4477153,14 23,14.4477153 23,15 L23,15 L23,16 C23,16.5522847 23.4477153,17 24,17 C24.5522847,17 25,16.5522847 25,16 L25,16 L25,15 C25,14.4477153 24.5522847,14 24,14 Z M24,9 C22.6208762,9 21,10.0769231 21,11 L21,11 L21,12 L27,12 L27,12 L27,11 C27,10.0769231 25.5007629,9 24,9 Z" id="Shape" fill="#9F9F9F" fill-rule="nonzero"></path>
        <rect id="Rectangle" fill-opacity="0" fill="#FFFFFF" x="0" y="0" width="48" height="24"></rect>
    </g>
</svg>