<?xml version="1.0" encoding="UTF-8"?>
<svg width="48px" height="24px" viewBox="0 0 48 24" version="1.1" xmlns="http://www.w3.org/2000/svg" xmlns:xlink="http://www.w3.org/1999/xlink">
    <!-- Generator: Sketch 63.1 (92452) - https://sketch.com -->
    <title>logo/gongdong-b</title>
    <desc>Created with Sketch.</desc>
    <g id="logo/gongdong-b" stroke="none" stroke-width="1" fill="none" fill-rule="evenodd">
        <rect id="Rectangle" fill-opacity="0" fill="#FFFFFF" x="0" y="0" width="48" height="24"></rect>
        <g id="Group" transform="translate(11.000000, 2.000000)" fill="#9F9F9F">
            <path d="M7.24185156e-11,18 L7.24185156e-11,2 C7.24183804e-11,0.8954305 0.8954305,-1.57345071e-15 2,-1.77635684e-15 L18,-1.77635684e-15 L18,-1.77635684e-15 L18,1.88295658 L2.99268498,1.9927383 C2.44326949,1.99675739 2,2.44328135 2,2.99271154 L2,17 C2,17.5522847 2.44771525,18 3,18 L22,18 C22.5522847,18 23,17.5522847 23,17 L23,16 L23,16 L25,16 L25,18 C25,19.1045695 24.1045695,20 23,20 L2,20 C0.8954305,20 7.24186509e-11,19.1045695 7.24185156e-11,18 Z" id="Shape" fill-rule="nonzero" transform="translate(12.500000, 10.000000) scale(-1, 1) rotate(-180.000000) translate(-12.500000, -10.000000) "></path>
            <g id="Group-2" transform="translate(18.000000, 5.000000)">
                <path d="M3.64820136,16 C3.48522496,16 3.3256903,15.9593002 3.18235205,15.877699 C2.87887178,15.7048255 2.69767442,15.3766077 2.69767442,14.9996306 L2.69767442,10 L4.23633358,10 L7.9032013,10.6056617 L9.44186047,10.6056617 L9.44186047,14.9996306 C9.44186047,15.3766077 9.2606631,15.7048255 8.95718283,15.877699 C8.65370256,16.0503711 8.27754088,16.0394909 7.95098072,15.8484838 L6.06976744,14.7477753 L4.18855416,15.8484838 C4.01606237,15.9494274 3.83000609,16 3.64820136,16 Z" id="Path" fill-rule="nonzero" transform="translate(6.069767, 13.000000) scale(-1, 1) translate(-6.069767, -13.000000) "></path>
                <ellipse id="Oval" fill-rule="nonzero" transform="translate(6.069767, 6.000000) scale(-1, 1) translate(-6.069767, -6.000000) " cx="6.06976744" cy="6" rx="6.06976744" ry="6"></ellipse>
                <ellipse id="Oval" cx="6.06976744" cy="6" rx="4.72093023" ry="4.66666667"></ellipse>
                <path d="M5.65583236,2.66666667 C5.84082579,2.66666667 6.01691881,2.72280236 6.16518395,2.82899608 L6.29069107,2.91883529 C6.33293988,2.94911321 6.43535098,2.98126968 6.5420433,2.98126968 C6.60107896,2.98126968 6.63352604,2.97143489 6.64208847,2.9684513 L6.788213,2.91684623 C6.88161103,2.88391624 6.97929027,2.86723023 7.07865946,2.86723023 C7.43580269,2.86723023 7.76173814,3.08547434 7.88972385,3.41013316 L7.9457176,3.55235096 C7.97962931,3.63821206 8.12248661,3.75976573 8.21396935,3.78031935 L8.36550173,3.81457539 C8.82021154,3.91712249 9.11381257,4.36532405 9.02007656,4.81363611 L8.98886877,4.96292613 C8.97005397,5.05320736 9.02323114,5.23111774 9.08880128,5.29697773 L9.19740888,5.40615504 C9.52334433,5.73357644 9.52334433,6.26631306 9.19740888,6.59373446 L9.08891395,6.70280126 C9.0233438,6.76877176 8.97005397,6.94679264 8.98886877,7.03685286 L9.02007656,7.18625338 C9.11381257,7.63456545 8.82009888,8.082767 8.36538907,8.18531411 L8.21396935,8.21945964 C8.12248661,8.24012376 7.97951665,8.36156694 7.9457176,8.44753854 L7.88972385,8.58964584 C7.76173814,8.91441516 7.43569003,9.13265926 7.07865946,9.13265926 C6.97929027,9.13265926 6.88161103,9.11597326 6.78832567,9.08304326 L6.64208847,9.0314382 C6.63352604,9.02845461 6.60107896,9.01861981 6.5420433,9.01861981 C6.43546364,9.01861981 6.33305254,9.05077629 6.29069107,9.0810542 L6.16518395,9.17089342 C6.01703148,9.27719764 5.84093845,9.33333333 5.65594502,9.33333333 C5.3866793,9.33333333 5.12901792,9.20945909 4.96678251,9.00204431 L4.87214518,8.88104315 C4.82223526,8.81717222 4.66360508,8.73628377 4.55657477,8.73628377 L4.39400137,8.74545555 C3.92994049,8.77241837 3.51759215,8.42123874 3.47894858,7.96773302 L3.46599228,7.81590143 C3.45810583,7.72407315 3.35592006,7.56804243 3.27412637,7.52295707 L3.1385922,7.44836731 C2.73187704,7.22415603 2.57888003,6.71307807 2.79733452,6.30885684 L2.87022779,6.17415327 C2.91427921,6.09282281 2.91427921,5.9072877 2.87022779,5.82595724 L2.79733452,5.69136416 C2.57876736,5.28703243 2.73176437,4.77584397 3.13836687,4.55174319 L3.27401371,4.47704293 C3.35580739,4.43195757 3.45810583,4.27592685 3.46587961,4.18409857 L3.47894858,4.03215647 C3.51747949,3.57876126 3.92554662,3.22813415 4.39400137,3.25443395 L4.54902632,3.26349522 C4.66383041,3.26349522 4.8221226,3.18260677 4.87203252,3.11884635 L4.96666984,2.99795569 C5.12901792,2.79054091 5.3866793,2.66666667 5.65583236,2.66666667 Z" id="Shape" fill-rule="nonzero"></path>
            </g>
        </g>
        <rect id="Rectangle" fill-opacity="0" fill="#FFFFFF" x="0" y="0" width="48" height="24"></rect>
    </g>
</svg>