<?xml version="1.0" encoding="UTF-8"?>
<svg width="48px" height="24px" viewBox="0 0 48 24" version="1.1" xmlns="http://www.w3.org/2000/svg" xmlns:xlink="http://www.w3.org/1999/xlink">
    <!-- Generator: Sketch 63.1 (92452) - https://sketch.com -->
    <title>logo/hana</title>
    <desc>Created with Sketch.</desc>
    <g id="logo/hana" stroke="none" stroke-width="1" fill="none" fill-rule="evenodd">
        <g id="Group" transform="translate(12.000000, 0.000000)" fill-rule="nonzero">
            <path d="M16.5828364,15.1329536 C16.5226802,14.8063622 16.4264302,14.485214 16.2760397,14.1912818 C15.8188524,13.2931555 15.1691652,12.531109 14.2126812,12.0248924 C12.7147912,11.2356299 10.9040889,11.2410731 9.42424583,12.0521083 C8.75049613,12.416802 8.2030745,12.9447914 7.84815278,13.5762014 C7.72784034,13.7884858 7.63159038,14.0170997 7.54737167,14.2457137 C7.15635622,15.3670107 7.17440308,16.8747743 7.87823089,17.8980939 C8.10682454,18.2355716 8.43768377,18.5186175 8.84674609,18.6601404 C9.24979278,18.8016634 9.73705819,18.7853338 10.0979955,18.5730494 C10.5672141,18.2954467 10.6514328,17.7729005 10.5672141,17.3047862 C10.4589329,16.7060354 10.3686985,16.1236141 10.6153391,15.5357496 C10.6935421,15.3506812 10.8018233,15.1656127 10.9582295,15.0349762 C11.0544795,14.9478852 11.1687763,14.8825669 11.2890888,14.828135 C11.5417449,14.713828 11.8365104,14.6648393 12.113229,14.7083848 C12.6004944,14.7791463 13.0035411,15.1220672 13.2201035,15.5303064 C13.4366659,15.9331025 13.4968221,16.3903304 13.5208846,16.8421151 C13.6231502,18.8016634 13.1118223,20.8265299 12.5583851,22.7044303 C12.5042445,22.9003851 12.4440882,23.0908967 12.383932,23.2814083 C12.335807,23.4283745 12.2576039,23.6188861 12.3598695,23.7658522 C12.4079945,23.8257273 12.4741663,23.8692728 12.5523694,23.901932 C12.8711974,24.0162389 13.1358848,23.8420569 13.3464316,23.646102 C14.6157279,22.4867027 15.4278369,21.0061551 15.9812742,19.4711757 C16.1858053,18.8996408 16.366274,18.3226627 16.4865864,17.729355 C16.6490082,16.9183198 16.7452582,15.9929775 16.5828364,15.1329536" id="Path" fill="#009591"></path>
            <path d="M24.4329883,5.18873327 C24.1351639,5.19899776 23.8602492,5.33756832 23.5853344,5.4299487 C18.2817703,7.23649829 12.2909192,7.58035858 6.70098551,6.8567123 C5.7445112,6.73353846 4.77658211,6.5590422 3.81438041,6.42560387 C3.21300435,6.33835574 2.61735567,6.22031415 2.01025222,6.17412396 C1.49478702,6.1433305 0.84759183,6.12280153 0.429492282,6.44613285 C-0.126064653,6.87210903 -0.085972915,7.68300345 0.229033594,8.21675674 C0.607041405,8.85315489 1.26569138,9.34071799 1.94725092,9.70510725 C2.61162828,10.059232 3.40773564,10.439018 4.19811561,10.3928278 C6.33443248,10.269654 8.46502196,10.0900255 10.5898841,9.83854557 C14.2153226,9.41770164 18.0125829,9.02251891 21.4146532,7.7599871 C22.5257671,7.34940764 23.6254261,6.83618333 24.5761731,6.16899172 C24.7537222,6.06121461 25,5.86618937 25,5.64037067 C25,5.36322954 24.7250852,5.17846879 24.4329883,5.18873327 Z" id="Path" fill="#009591"></path>
            <path d="M10.4280822,3.12757643 C10.4280822,4.26804617 11.3584475,5.18832621 12.5057078,5.18832621 C13.652968,5.18832621 14.5833333,4.26804617 14.5833333,3.12757643 C14.5833333,2.95819974 14.543379,2.78882304 14.4691781,2.63638402 C14.2922374,2.26375529 14.0924658,2.08308682 14.109589,1.63141564 C14.1381279,1.02730543 13.3504566,1.02165954 12.9280822,1.02165954 C12.4657534,1.02165954 11.9805936,1.08376433 11.5639269,1.29266225 C11.2328767,1.45639305 10.9474886,1.71045809 10.7477169,2.02098203 C10.5422374,2.33715186 10.4280822,2.70978059 10.4166667,3.0880552 L10.4166667,3.12757643" id="Path" fill="#ED1651"></path>
        </g>
        <rect id="Rectangle" fill-opacity="0" fill="#FFFFFF" x="0" y="0" width="48" height="24"></rect>
    </g>
</svg>