<?xml version="1.0" encoding="UTF-8"?>
<svg width="103.493377px" height="23px" viewBox="0 0 103.493377 23" version="1.1" xmlns="http://www.w3.org/2000/svg" xmlns:xlink="http://www.w3.org/1999/xlink">
    <title>mlogo/hana</title>
    <g id="업체-로고들" stroke="none" stroke-width="1" fill="none" fill-rule="evenodd">
        <g id="메인화면로고" transform="translate(-1578.500000, -110.000000)" fill-rule="nonzero">
            <g id="mlogo/hana" transform="translate(1578.500000, 110.000000)">
                <g id="hana">
                    <path d="M15.9313049,13.8816342 C15.8267228,13.5751894 15.7221408,13.1665963 15.6175588,12.8601515 C15.1992307,11.9408171 14.5717385,11.1236309 13.6305003,10.6128896 C12.166352,9.79570347 10.3884576,9.79570347 9.02889127,10.6128896 C8.40139912,11.0214827 7.878489,11.532224 7.56474293,12.2472619 C7.46016091,12.4515584 7.35557888,12.7580032 7.25099686,12.9622998 C6.83266876,14.0859307 6.93725079,15.720303 7.56474293,16.7417856 C7.77390698,17.0482304 8.08765305,17.3546753 8.50598115,17.5589718 C8.92430924,17.6611201 9.34263734,17.6611201 9.76096543,17.4568235 C10.1792935,17.1503787 10.2838756,16.6396374 10.1792935,16.128896 C10.0747115,15.5160064 9.97012948,14.9031168 10.1792935,14.2902272 C10.2838756,14.0859307 10.3884576,13.8816342 10.4930396,13.7794859 C10.5976216,13.6773376 10.7022037,13.5751894 10.8067857,13.5751894 C11.0159497,13.4730411 11.3296958,13.3708928 11.6434419,13.4730411 C12.06177,13.5751894 12.4800981,13.8816342 12.6892621,14.2902272 C12.8984262,14.6988203 13.0030082,15.2095616 13.0030082,15.6181547 C13.1075902,17.6611201 12.5846801,19.7040854 12.06177,21.7470507 C11.9571879,21.9513473 11.9571879,22.1556438 11.8526059,22.3599404 C11.8526059,22.5642369 11.7480239,22.6663852 11.8526059,22.8706817 C11.8526059,22.97283 11.9571879,22.97283 12.06177,22.97283 C12.375516,23.0749782 12.5846801,22.8706817 12.7938441,22.6663852 C14.0488284,21.4406059 14.7809026,19.9083819 15.3038127,18.2740097 C15.5129768,17.6611201 15.7221408,17.0482304 15.8267228,16.4353408 C16.0358869,15.720303 16.0358869,14.8009686 15.9313049,13.8816342" id="Path" fill="#008077"></path>
                    <path d="M25,3.54391756 C25,3.21756702 24.6901433,3 24.3802866,3 C24.0704299,3 23.7605732,3.21756702 23.5540021,3.32635053 C18.2864382,5.50202077 12.2958755,5.8283713 6.71845492,4.95810321 C5.78888483,4.8493197 4.75602917,4.63175267 3.82645908,4.41418565 C3.20674569,4.30540214 2.5870323,4.19661863 1.96731891,4.08783512 C1.45089108,4.08783512 0.831177687,4.08783512 0.418035425,4.41418565 C-0.0983924018,4.95810321 -0.0983924018,5.8283713 0.211464295,6.48107237 C0.624606556,7.24255695 1.24431995,7.78647451 1.96731891,8.22160855 C2.5870323,8.6567426 3.41331682,9.09187665 4.23960135,8.98309314 C6.40859822,8.87430962 8.47430953,8.6567426 10.6433064,8.33039207 C14.2583012,7.78647451 18.0798671,7.35134046 21.4882908,5.8283713 C22.624432,5.39323725 23.6572876,4.74053618 24.6901433,3.9790516 C24.6901433,4.08783512 25,3.76148458 25,3.54391756" id="Path" fill="#008077"></path>
                    <path d="M9,2.04878049 C9,3.12195122 9.9,4 11,4 C12.1,4 13,3.12195122 13,2.04878049 C13,1.85365854 13,1.75609756 12.9,1.56097561 C12.7,1.17073171 12.5,1.07317073 12.6,0.585365854 C12.6,0 11.9,0 11.4,0 C11,0 10.5,0.0975609756 10.1,0.292682927 C9.8,0.487804878 9.5,0.682926829 9.3,0.975609756 C9.1,1.36585366 9,1.65853659 9,2.04878049 C9,2.04878049 9,2.04878049 9,2.04878049" id="Path" fill="#D01F37"></path>
                </g>
                <g id="text" transform="translate(26.000000, 5.000000)" fill="#231F20">
                    <path d="M3.15784091,1.6696242 L3.15784091,0 L5.56777212,0 L5.56777212,1.6696242 L8.78314454,1.6696242 L8.78314454,3.24794082 L7.09555345,3.24794082 C7.47270449,3.71752263 7.77314685,4.27189004 7.99688051,4.91756502 C8.22061418,5.56324001 8.33567721,6.26109075 8.34846199,7.02416118 C8.33567721,7.77418768 8.23339896,8.46551644 8.04162725,9.09814749 C7.84346314,9.73077853 7.56859035,10.272102 7.21700887,10.7286399 C6.859035,11.1982217 6.44352962,11.55693 5.95770794,11.8178088 C5.47188627,12.0786876 4.94131786,12.202605 4.35961032,12.202605 C3.75233322,12.2156489 3.20258764,12.0852095 2.71037357,11.8243308 C2.2181595,11.563452 1.79626173,11.1982217 1.45107264,10.7416838 C1.09309878,10.272102 0.824618374,9.72425656 0.632846659,9.09162552 C0.441074944,8.45899448 0.351581477,7.76766571 0.351581477,7.01763921 C0.351581477,6.25456878 0.460252116,5.55671804 0.683985783,4.91104305 C0.907719451,4.26536807 1.2081618,3.71100066 1.58531284,3.24141885 L0,3.24141885 L0,1.66310223 L3.15784091,1.66310223 L3.15784091,1.6696242 Z M4.36600271,3.28055067 C3.88657342,3.28055067 3.47746043,3.62621506 3.15144852,4.31102186 C2.8254366,4.99582866 2.66562684,5.90238242 2.67841162,7.02416118 C2.66562684,8.11333009 2.81904421,8.98727401 3.14505613,9.63947096 C3.46467565,10.2981899 3.86739625,10.6242884 4.34682554,10.6242884 C4.82625483,10.6242884 5.22897543,10.2981899 5.54859495,9.6525149 C5.86821448,9.00031795 6.02802424,8.12637403 6.02802424,7.02416118 C6.02802424,5.8436847 5.86821448,4.92408699 5.55498734,4.26536807 C5.2481526,3.61317112 4.845432,3.28055067 4.36600271,3.28055067 Z M12.6633256,6.41109604 L12.6633256,15.8940397 L10.3364954,15.8940397 L10.3364954,0 L12.6633256,0 L12.6633256,4.82625745 L14.9006623,4.82625745 L14.9006623,6.40457407 L12.6633256,6.40457407 L12.6633256,6.41109604 Z" id="Shape"></path>
                    <path d="M19.5941375,9.7478224 L23.6422943,9.7478224 C23.9006873,9.7478224 24.1590803,9.7478224 24.3975969,9.7478224 C24.6427389,9.7478224 24.8812555,9.73477311 25.1197721,9.71519916 C25.3582887,9.68910058 25.5901799,9.6499527 25.822071,9.58470623 C26.0539622,9.51945976 26.2991042,9.41506541 26.5641227,9.27804783 L26.5641227,0 L28.9757906,0 L28.9757906,4.82823867 L31.294702,4.82823867 L31.294702,6.40720321 L28.9757906,6.40720321 L28.9757906,15.8940397 L26.5641227,15.8940397 L26.5641227,10.8570124 C26.1334677,11.0462271 25.6564345,11.1701954 25.1263976,11.2354419 C24.5963607,11.3006884 24.0862002,11.3333116 23.5826651,11.3333116 L18.2491689,11.3333116 C17.7125065,11.3333116 17.2686006,11.1179982 16.9174512,10.6938962 C16.5663017,10.2632695 16.3940397,9.75434705 16.3940397,9.15407954 L16.3940397,0.698137213 L18.7990822,0.698137213 L18.7990822,9.09535771 C18.7990822,9.30414641 18.8653368,9.46726258 18.997846,9.57818158 C19.1303552,9.69562522 19.329119,9.7478224 19.5941375,9.7478224 Z" id="Path"></path>
                    <path d="M38.0378202,0.260985874 C38.5758996,0.260985874 39.0945304,0.365380224 39.6001955,0.574168923 C40.1058605,0.782957622 40.5596625,1.08309138 40.9551185,1.46804554 C41.3376087,1.85299971 41.6552701,2.32277428 41.8951368,2.86431997 C42.1414865,3.40586566 42.2646613,4.01918246 42.2646613,4.69774573 C42.2646613,5.37630901 42.1479694,5.98962581 41.9081026,6.54422079 C41.6682359,7.09229113 41.3505745,7.5620657 40.9551185,7.94701987 C40.5596625,8.33197403 40.1058605,8.63210779 39.6001955,8.83437184 C39.0945304,9.03663589 38.5758996,9.14103024 38.0378202,9.14103024 C37.4932578,9.14103024 36.9616612,9.03663589 36.4495133,8.83437184 C35.9373654,8.63210779 35.4900463,8.33197403 35.1075561,7.94701987 C34.7121001,7.575115 34.3944387,7.11186507 34.1545719,6.55727009 C33.9147052,6.00919975 33.7980132,5.3893583 33.7980132,4.69774573 C33.7980132,4.06485499 33.9147052,3.47763677 34.148089,2.92956644 C34.3814729,2.38802075 34.6926514,1.91824617 35.0881074,1.53329201 C35.4835634,1.13528855 35.9373654,0.822105504 36.4430304,0.593742864 C36.9486954,0.365380224 37.480292,0.260985874 38.0378202,0.260985874 Z M38.0378202,1.84647506 C37.8174021,1.84647506 37.596984,1.91172153 37.3765659,2.04221447 C37.1561478,2.1727074 36.9486954,2.35539751 36.7671747,2.60333409 C36.579171,2.85127067 36.4300646,3.14487978 36.3198556,3.49721071 C36.2096465,3.84954164 36.1513006,4.25406975 36.1513006,4.71079503 C36.1513006,5.15447101 36.2031636,5.55899912 36.3198556,5.91133005 C36.4300646,6.27018563 36.5726881,6.57031938 36.747726,6.81825596 C36.9357297,7.06619254 37.1366991,7.24888265 37.3571172,7.37937559 C37.5775353,7.50986853 37.7979534,7.575115 38.0183715,7.575115 C38.2387896,7.575115 38.4592077,7.50986853 38.6796258,7.37937559 C38.9000439,7.24888265 39.1074962,7.06619254 39.289017,6.81825596 C39.4640549,6.57031938 39.6066784,6.27018563 39.7233703,5.91133005 C39.8400622,5.55247447 39.8984082,5.15447101 39.8984082,4.71079503 C39.8984082,3.78429518 39.6974388,3.07963331 39.3019828,2.58376015 C38.9130097,2.08788699 38.4916221,1.84647506 38.0378202,1.84647506 Z M39.4705378,14.3150752 L46.7119205,14.3150752 L46.7119205,15.8940397 L38.0896832,15.8940397 C37.6034668,15.8940397 37.201528,15.685251 36.8838666,15.261149 C36.5726881,14.8370469 36.410616,14.3476984 36.410616,13.7865788 L36.410616,10.1001533 L38.7639033,10.1001533 L38.7639033,13.6104133 C38.7639033,13.819202 38.8287321,13.9888429 38.9583899,14.1193358 C39.0880476,14.2498287 39.2566026,14.3150752 39.4705378,14.3150752 Z M46.7119205,0 L46.7119205,11.509477 L44.3586332,11.509477 L44.3586332,0 L46.7119205,0 Z" id="Shape"></path>
                    <path d="M49.192053,6.95483874 L63.0993377,6.95483874 L63.0993377,8.49894056 L59.152245,8.49894056 C59.5284622,8.8881563 59.8281607,9.34117791 60.0513404,9.86438596 C60.2745202,10.387594 60.3829217,10.9490856 60.3829217,11.5552413 C60.3701686,12.206061 60.2490139,12.8058361 60.0130811,13.3418053 C59.7771482,13.8777746 59.4646966,14.3371768 59.0757262,14.7136313 C58.6867559,15.0900859 58.2403964,15.3835929 57.7302714,15.5877716 C57.2201463,15.7919504 56.6908915,15.8940397 56.1425071,15.8940397 C55.5558633,15.8940397 55.0074788,15.7855698 54.4973537,15.5750104 C53.9808521,15.3644511 53.5281161,15.0645636 53.1391457,14.6753478 C52.7501754,14.2988932 52.4441003,13.839491 52.2209206,13.3099024 C51.9977409,12.7803138 51.8893393,12.1932999 51.8893393,11.5488607 C51.8893393,10.9554662 51.9977409,10.3939746 52.214544,9.86438596 C52.4313472,9.33479732 52.7310457,8.88177572 53.1072629,8.49255997 L49.192053,8.49255997 L49.192053,6.95483874 L49.192053,6.95483874 Z M61.3967953,1.54410181 L57.4114432,1.54410181 C57.5836104,2.36719741 58.0554761,3.01163659 58.8334168,3.47741937 C59.6113576,3.94320215 60.5168296,4.19842559 61.5434563,4.24308969 L61.5434563,5.83823619 C60.8994234,5.83823619 60.2872733,5.78081092 59.707006,5.65957979 C59.1267388,5.53834865 58.5911074,5.378834 58.1128652,5.16827466 C57.6218698,4.9704765 57.19464,4.74715599 56.8439291,4.49193255 C56.4868415,4.23670911 56.231779,3.96872449 56.0723649,3.6943593 C55.9001977,3.96872449 55.6387586,4.23670911 55.281671,4.49193255 C54.9245835,4.74715599 54.5164834,4.97685708 54.0446177,5.16827466 C53.5663755,5.37245342 53.0371207,5.53834865 52.4759831,5.65957979 C51.9148456,5.78081092 51.3282017,5.83823619 50.7351813,5.83823619 L50.7351813,4.24308969 C51.2261767,4.21756735 51.704419,4.1473809 52.157155,4.01976918 C52.6162675,3.89215746 53.0243676,3.71350105 53.3942083,3.49018054 C53.7576724,3.26047945 54.070124,2.98611425 54.31881,2.65432378 C54.5674959,2.32891389 54.7460397,1.9588399 54.8480647,1.54410181 L50.9137251,1.54410181 L50.9137251,0 L61.3840422,0 L61.3840422,1.54410181 L61.3967953,1.54410181 Z M56.1425071,8.72864165 C55.9001977,8.72864165 55.6642648,8.7988281 55.4410851,8.93282041 C55.2115288,9.0731933 55.0074788,9.25823029 54.8225585,9.50069256 C54.6376381,9.755916 54.4909772,10.0558035 54.376199,10.4003552 C54.2614209,10.7512874 54.2040318,11.1341226 54.2040318,11.5616218 C54.1912787,12.4421427 54.3889521,13.131246 54.7906756,13.6225511 C55.1923991,14.1138562 55.6387586,14.3626991 56.129754,14.3626991 C56.3593102,14.3626991 56.5888665,14.2988932 56.8247994,14.1712815 C57.0607322,14.0436698 57.2711588,13.8650134 57.4497026,13.6225511 C57.6346229,13.3800888 57.7812839,13.0929625 57.896062,12.7484108 C58.0108402,12.4038592 58.0682292,12.0082629 58.0682292,11.5616218 C58.0682292,10.6683398 57.8705558,9.97285592 57.4688323,9.47517022 C57.0671088,8.97748451 56.6271259,8.72864165 56.1425071,8.72864165 Z" id="Shape"></path>
                    <path d="M70.0741984,0.873943916 L70.0741984,4.06970898 C70.0612392,5.49802031 70.3269041,6.73719452 70.858234,7.78070964 C71.3960434,8.83074674 72.1476808,9.53511945 73.1261053,9.89382777 L73.1261053,11.563452 C72.5688569,11.4917103 72.0440067,11.335183 71.545075,11.1003921 C71.0526229,10.8590793 70.6120079,10.5916785 70.2297096,10.2851459 C69.8474113,9.97861337 69.5299093,9.66555884 69.2772037,9.33946036 C69.024498,9.01336189 68.8625072,8.71987326 68.778272,8.45899448 C68.6940367,8.70682932 68.5255663,8.99379598 68.266381,9.32641642 C68.0071957,9.65903687 67.6832141,9.97861337 67.3009158,10.2851459 C66.9186175,10.5916785 66.4909617,10.8590793 66.0179486,11.1003921 C65.5449354,11.341705 65.0654426,11.4982323 64.5794702,11.563452 L64.5794702,9.89382777 C65.5190169,9.52859748 66.2641746,8.83074674 66.8019841,7.78723161 C67.3397936,6.74371649 67.6184178,5.49149834 67.631377,4.03057717 L67.631377,0.873943916 L70.0741984,0.873943916 Z M77.4933775,0 L77.4933775,15.8940397 L75.1412709,15.8940397 L75.1412709,6.41109604 L72.0893641,6.41109604 L72.0893641,4.83277942 L75.1412709,4.83277942 L75.1412709,0.00652196953 L77.4933775,0.00652196953 L77.4933775,0 Z" id="Shape"></path>
                </g>
            </g>
        </g>
    </g>
</svg>