<?xml version="1.0" encoding="UTF-8"?>
<svg width="48px" height="24px" viewBox="0 0 48 24" version="1.1" xmlns="http://www.w3.org/2000/svg" xmlns:xlink="http://www.w3.org/1999/xlink">
    <!-- Generator: Sketch 63.1 (92452) - https://sketch.com -->
    <title>logo/kakao</title>
    <desc>Created with Sketch.</desc>
    <g id="logo/kakao" stroke="none" stroke-width="1" fill="none" fill-rule="evenodd">
        <g id="Group-4" transform="translate(3.000000, 5.000000)">
            <path d="M19.3483482,13.6153606 L19.3483482,10.381637 C19.9107944,10.381637 20.4933267,10.381637 21.0959451,10.381637 C22.0977206,10.381637 23.225099,9.61033575 23.8331534,8.77043908 C24.4412078,7.9305424 24.7636528,6.7599843 24.7636528,5.38034211 C24.7636528,4.10075031 24.3666571,2.9017006 23.8331534,2.16975302 C23.2996497,1.43780545 22.3969841,1.03695119 21.4697593,1.03695119 C20.426049,1.03695119 19.3145953,1.53473389 18.7499809,2.16975302 L18.7499809,1.31740036 L17,1.31740036 L17,13.6153606 L19.3483482,13.6153606 Z M20.5479034,8.63334841 C20.1579681,8.63334841 19.7581164,8.63334841 19.3483482,8.63334841 C19.3483482,7.46541554 19.3483482,6.66128615 19.3483482,6.22096022 L19.3483482,5.32582397 C19.3483482,4.57842865 19.3483482,3.23615953 19.3483482,3.11779949 C19.3483482,2.99943944 20.0595472,2.74041752 20.7069155,2.74041752 C21.7901408,2.74041752 22.5704145,4.19032807 22.5704145,5.32582397 C22.5704145,6.32235106 22.5271381,7.09531972 22.1353099,7.64572713 C21.7434817,8.19613453 21.2407011,8.63334841 20.5479034,8.63334841 Z M28.7057845,10.389449 C29.8284404,10.389449 30.4999055,10.1925842 31.2233396,9.54017912 L31.6943866,9.54017912 L31.81454,10.1925842 L33.4351524,10.1925842 L33.4351524,4.59580994 C33.4351524,2.6412159 32.3588967,1 30.0706123,1 C29.5871719,1 29.1355092,1.04888072 28.528523,1.19662165 C27.9215368,1.34436259 27.2000664,1.76359662 26.8186857,2.00114087 L27.3740509,3.49305004 C28.2603582,2.81517987 29.1891626,2.93006857 29.7076386,2.93006857 C30.2261146,2.93006857 31.2233396,2.96869807 31.2233396,3.84129453 C31.2233396,4.42302551 31.2233396,4.76217098 31.2233396,4.85873093 L28.7057845,4.85873093 C26.7827661,5.13683151 26.1494909,6.68267178 26.1494909,7.79664069 C26.1494909,8.9106096 26.3406169,9.04481246 26.8186857,9.54017912 C27.2967545,10.0355458 27.8893074,10.389449 28.7057845,10.389449 Z M29.4556807,8.63695904 C29.0411378,8.63695904 28.711775,8.52398068 28.4675922,8.29802396 C28.2234094,8.07206723 28.101318,7.77948224 28.101318,7.42026899 C28.101318,6.9007175 28.6123983,6.31589555 29.6345588,6.18263902 L31.2319336,6.18263902 L31.2319336,6.9007175 C31.2319336,7.31400587 31.2319336,7.69406937 31.2319336,8.04090801 C30.4263429,8.43827537 29.8342586,8.63695904 29.4556807,8.63695904 Z M37.1696305,14 C38.2094412,13.2428065 39.004762,12.3053316 39.5555929,11.1875754 L39.974919,10.4730892 L43,1.63463876 L40.9505305,1.05871813 L39.0084256,7.06395262 C38.8834949,7.46372221 38.7983148,7.81424482 38.7528855,8.11552045 L38.7188135,8.11552045 C38.6222761,7.59408186 38.5456141,7.23776548 38.4888274,7.04657133 L36.6063485,1.05871813 L34.5275613,1.63463876 L37.5688829,10.1752029 L37.5688829,10.5967514 C37.3027146,11.0955835 36.716251,11.7904043 35.8094921,12.6812137 L37.1696305,14 Z" id="pay" fill="#212529" fill-rule="nonzero"></path>
            <path d="M7,0 C10.8659932,0 14,2.48267459 14,5.5452089 C14,8.60774322 10.8659932,11.0904178 7,11.0904178 C6.53296963,11.0904178 6.07662172,11.0541862 5.63519102,10.9850776 L2.77648081,12.7807246 C2.54796074,12.9446268 2.40474884,13.0166448 2.34684511,12.9967785 C2.28894137,12.9769123 2.27284655,12.845044 2.29856065,12.6011737 L2.61198115,9.86590725 C1.01913538,8.84947246 0,7.29162184 0,5.5452089 C0,2.48267459 3.13400675,0 7,0 Z" id="Combined-Shape" fill="#181600"></path>
        </g>
        <rect id="Rectangle" fill-opacity="0" fill="#FFFFFF" x="0" y="0" width="48" height="24"></rect>
    </g>
</svg>