<?xml version="1.0" encoding="UTF-8"?>
<svg width="113px" height="19px" viewBox="0 0 113 19" version="1.1" xmlns="http://www.w3.org/2000/svg" xmlns:xlink="http://www.w3.org/1999/xlink">
    <title>mlogo/kakaobank</title>
    <g id="메인화면(체크박스추가)" stroke="none" stroke-width="1" fill="none" fill-rule="evenodd">
        <g id="메인/카카오뱅크" transform="translate(-465.000000, -179.000000)" fill="#1E1E1E" fill-rule="nonzero">
            <g id="Group" transform="translate(465.000000, 179.000000)">
                <g transform="translate(0.000000, 0.033510)" id="Shape">
                    <path d="M2.00829384,18.5308642 L0,18.5308642 L0,0.469135802 L2.00829384,0 L2.00829384,18.5308642 Z M7.86581754,5.46208113 L9.47245261,6.63492063 L5.28850711,11.8624339 L10.1084123,17.6261023 L8.50177725,18.8659612 L2.8785545,11.9294533 L7.86581754,5.46208113 Z"></path>
                    <path d="M16.200237,11.1922399 L18.7440758,11.1922399 L18.7440758,10.1534392 C18.7440758,8.14285714 17.8403436,7.33862434 16.1667654,7.33862434 C14.9952607,7.33862434 13.6563981,7.70723104 12.6187796,8.17636684 L12.0162915,6.76895944 C13.2882109,6.03174603 14.8279028,5.59611993 16.200237,5.59611993 C19.2126777,5.59611993 20.6854265,7.03703704 20.6854265,10.2204586 L20.6854265,18.5308642 L19.1792062,18.5308642 L18.9449052,17.1234568 C17.7064573,18.1287478 16.0663507,18.7319224 14.7944313,18.7319224 C12.5518365,18.7319224 11.2129739,17.3915344 11.2129739,15.1128748 C11.2129739,12.5326279 12.9200237,11.1922399 16.200237,11.1922399 Z M18.7106043,15.64903 L18.7106043,12.5996473 L16.4345379,12.5996473 C14.1584716,12.5996473 13.1208531,13.3703704 13.1208531,15.0123457 C13.1208531,16.3527337 13.8572275,17.0899471 15.1291469,17.0899471 C16.3341232,17.0899471 17.8738152,16.4532628 18.7106043,15.64903 Z"></path>
                    <path d="M26.3086493,18.5308642 L24.3003555,18.5308642 L24.3003555,0.469135802 L26.3086493,0 L26.3086493,18.5308642 Z M32.166173,5.46208113 L33.7728081,6.63492063 L29.5888626,11.8624339 L34.4087678,17.6261023 L32.8021327,18.8659612 L27.17891,11.9294533 L32.166173,5.46208113 Z"></path>
                    <path d="M40.5005924,11.1922399 L43.0444313,11.1922399 L43.0444313,10.1534392 C43.0444313,8.14285714 42.1406991,7.33862434 40.4671209,7.33862434 C39.2956161,7.33862434 37.9567536,7.70723104 36.9191351,8.17636684 L36.3166469,6.76895944 C37.5885664,6.03174603 39.1282583,5.59611993 40.5005924,5.59611993 C43.5130332,5.59611993 44.985782,7.03703704 44.985782,10.2204586 L44.985782,18.5308642 L43.4795616,18.5308642 L43.2452607,17.1234568 C42.0068128,18.1287478 40.3667062,18.7319224 39.0947867,18.7319224 C36.8521919,18.7319224 35.5133294,17.3915344 35.5133294,15.1128748 C35.5133294,12.5326279 37.2538507,11.1922399 40.5005924,11.1922399 Z M43.0444313,15.64903 L43.0444313,12.5996473 L40.7683649,12.5996473 C38.4922986,12.5996473 37.4546801,13.3703704 37.4546801,15.0123457 C37.4546801,16.3527337 38.1910545,17.0899471 39.4629739,17.0899471 C40.6344787,17.0899471 42.1741706,16.4532628 43.0444313,15.64903 Z"></path>
                    <path d="M59.1442536,12.1975309 C59.1442536,16.4197531 57.035545,18.7654321 53.5210308,18.7654321 C50.0065166,18.7654321 47.8978081,16.4197531 47.8978081,12.1975309 C47.8978081,7.94179894 50.0399882,5.59611993 53.5210308,5.59611993 C57.035545,5.59611993 59.1442536,7.97530864 59.1442536,12.1975309 Z M49.973045,12.1975309 C49.973045,15.4144621 51.278436,17.0899471 53.5210308,17.0899471 C55.7636256,17.0899471 57.0690166,15.4144621 57.0690166,12.1975309 C57.0690166,8.98059965 55.7636256,7.23809524 53.5210308,7.23809524 C51.278436,7.27160494 49.973045,9.01410935 49.973045,12.1975309 Z"></path>
                </g>
                <g transform="translate(62.156694, 0.000000)">
                    <path d="M0,18.1957672 L0,0.569664903 L3.21327014,0 L3.21327014,6.29982363 C3.98311611,5.83068783 4.98726303,5.49559083 6.09182464,5.49559083 C9.50592417,5.49559083 11.1125592,7.84126984 11.1125592,11.9294533 C11.1125592,16.3527337 8.70260664,18.9664903 4.68601896,18.9664903 C2.8785545,18.9329806 0.903732227,18.5643739 0,18.1957672 Z M3.24674171,8.37742504 L3.24674171,16.4197531 C3.74881517,16.4867725 4.08353081,16.4867725 4.41824645,16.4867725 C6.42654028,16.4867725 7.8992891,15.2134039 7.8992891,11.962963 C7.8992891,9.51675485 7.29680095,8.07583774 5.0207346,8.07583774 C4.25088863,8.07583774 3.61492891,8.24338624 3.24674171,8.37742504 Z" id="Shape"></path>
                    <path d="M17.9742299,10.8236332 L19.9825237,10.8236332 L19.9825237,10.3880071 C19.9825237,8.98059965 19.5473934,8.17636684 17.6395142,8.17636684 C16.4680095,8.17636684 15.3634479,8.41093474 14.2254147,9.01410935 L13.3216825,6.80246914 C14.5601303,5.96472663 16.3675948,5.46208113 18.0077014,5.46208113 C21.2544431,5.46208113 22.9614929,7.07054674 22.9614929,10.3544974 L22.9614929,18.5643739 L20.6854265,18.5643739 L20.3172393,17.4920635 C19.0118483,18.4973545 17.6060427,18.8994709 16.501481,18.8994709 C14.0245853,18.8994709 12.6522512,17.4250441 12.6522512,14.8783069 C12.6857227,12.2310406 14.5266588,10.8236332 17.9742299,10.8236332 Z M19.9825237,15.3809524 L19.9825237,12.9012346 L18.2420024,12.9012346 C16.501481,12.9012346 15.5977488,13.6049383 15.5977488,14.8783069 C15.5977488,15.7830688 16.1332938,16.3862434 17.2043839,16.3862434 C18.3089455,16.3862434 19.4135071,15.8835979 19.9825237,15.3809524 Z" id="Shape"></path>
                    <path d="M25.9069905,5.86419753 L28.1830569,5.86419753 L28.6516588,7.13756614 C29.7896919,6.13227513 31.3628555,5.46208113 32.701718,5.46208113 C35.5468009,5.46208113 36.9526066,7.23809524 36.9526066,10.4215168 L36.9526066,18.5643739 L33.7393365,18.5643739 L33.7393365,10.3209877 C33.7393365,8.91358025 33.2037915,8.31040564 31.4967417,8.31040564 C30.8273104,8.31040564 29.8566351,8.51146384 29.1202607,8.77954145 L29.1202607,18.5643739 L25.9069905,18.5643739 L25.9069905,5.86419753 L25.9069905,5.86419753 Z" id="Path"></path>
                    <polygon id="Path" points="46.4585308 11.8289242 50.8433057 17.0899471 48.4333531 19 43.1113744 12.4656085 43.1113744 18.5643739 39.8981043 18.5643739 39.8981043 0.569664903 43.1113744 0 43.1113744 11.6948854 47.9647512 5.09347443 50.3747038 6.76895944"></polygon>
                </g>
            </g>
        </g>
    </g>
</svg>