<?xml version="1.0" encoding="UTF-8"?>
<svg width="99px" height="19px" viewBox="0 0 99 19" version="1.1" xmlns="http://www.w3.org/2000/svg" xmlns:xlink="http://www.w3.org/1999/xlink">
    <!-- Generator: Sketch 63.1 (92452) - https://sketch.com -->
    <title>mlogo/kakaotalk@1.5x</title>
    <desc>Created with Sketch.</desc>
    <g id="업체-로고들" stroke="none" stroke-width="1" fill="none" fill-rule="evenodd">
        <g id="메인화면로고" transform="translate(-1048.000000, -114.000000)" fill="#212529" fill-rule="nonzero">
            <g id="mlogo/kakaotalk" transform="translate(1048.000000, 114.000000)">
                <path d="M2.0923913,18.6861152 L0,18.6861152 L0,0.964210148 L2.0923913,0.5 L2.0923913,18.6861152 Z M7.7173913,5.82476346 L9.34782609,7.02624855 L5.32608696,12.1052537 L10,17.7303884 L8.36956522,18.9864865 L2.85326087,12.2144796 L7.7173913,5.82476346 Z M11,15.0504202 C11,13.8134454 11.4173913,12.8453782 12.226087,12.2 C13.0347826,11.5546218 14.2086957,11.205042 15.7478261,11.205042 L18.0695652,11.205042 L18.0695652,10.4252101 C18.0695652,8.51596639 17.2608696,7.54789916 15.6173913,7.54789916 C15.0956522,7.54789916 14.5478261,7.62857143 13.973913,7.76302521 C13.4,7.92436975 12.8782609,8.11260504 12.3826087,8.32773109 L11.7826087,6.87563025 C12.3826087,6.52605042 13.0347826,6.25714286 13.7130435,6.06890756 C14.4173913,5.88067227 15.0695652,5.8 15.7478261,5.8 C18.5913043,5.8 20,7.35966387 20,10.4789916 L20,18.3848739 L18.5130435,18.3848739 L18.2782609,17.0403361 C17.6782609,17.5243697 17.0521739,17.9277311 16.373913,18.1966387 C15.6956522,18.4655462 15.0434783,18.6 14.4434783,18.6 C13.373913,18.6 12.5391304,18.2773109 11.9391304,17.6588235 C11.3130435,16.9865546 11,16.1260504 11,15.0504202 Z M14.7826087,16.8789916 C15.0695652,16.8789916 15.3565217,16.8521008 15.6434783,16.7714286 C15.9304348,16.6907563 16.2434783,16.610084 16.5304348,16.4756303 C16.8173913,16.3680672 17.1043478,16.2067227 17.3652174,16.0453782 C17.626087,15.8840336 17.8608696,15.6957983 18.0695652,15.4806723 L18.0695652,12.6033613 L15.9826087,12.6033613 C14.9130435,12.6033613 14.1565217,12.7915966 13.6608696,13.1680672 C13.1652174,13.5445378 12.9304348,14.1361345 12.9304348,14.9428571 C12.9304348,16.2336134 13.5565217,16.8789916 14.7826087,16.8789916 Z M25.5923913,18.6861152 L23.5,18.6861152 L23.5,0.964210148 L25.5923913,0.5 L25.5923913,18.6861152 Z M31.2173913,5.82476346 L32.8478261,7.02624855 L28.826087,12.1052537 L33.5,17.7303884 L31.8695652,18.9864865 L26.3532609,12.2144796 L31.2173913,5.82476346 Z M34.5,15.0773109 C34.5,13.8403361 34.916185,12.8722689 35.7225434,12.2268908 C36.5289017,11.5815126 37.699422,11.2319328 39.2601156,11.2319328 L41.5751445,11.2319328 L41.5751445,10.4521008 C41.5751445,8.54285714 40.7687861,7.57478992 39.1300578,7.57478992 C38.6098266,7.57478992 38.0635838,7.65546218 37.4913295,7.78991597 C36.9190751,7.9512605 36.3988439,8.1394958 35.9046243,8.35462185 L35.3063584,6.87563025 C35.9046243,6.52605042 36.5549133,6.25714286 37.2312139,6.06890756 C37.933526,5.88067227 38.583815,5.8 39.2601156,5.8 C42.0693642,5.8 43.5,7.35966387 43.5,10.4789916 L43.5,18.3848739 L42.017341,18.3848739 L41.783237,17.0403361 C41.1849711,17.5243697 40.5606936,17.9277311 39.8843931,18.1966387 C39.2080925,18.4655462 38.5578035,18.6 37.9595376,18.6 C36.8930636,18.6 36.0606936,18.2773109 35.4624277,17.6588235 C34.8641618,17.0403361 34.5,16.1529412 34.5,15.0773109 Z M38.2716763,16.9058824 C38.5578035,16.9058824 38.8439306,16.8789916 39.1300578,16.7983193 C39.416185,16.7176471 39.7283237,16.6369748 40.0144509,16.502521 C40.300578,16.394958 40.5867052,16.2336134 40.8468208,16.0722689 C41.1069364,15.9109244 41.3410405,15.7226891 41.5491329,15.507563 L41.5491329,12.6302521 L39.4682081,12.6302521 C38.4017341,12.6302521 37.6473988,12.8184874 37.1531792,13.194958 C36.6589595,13.5714286 36.4248555,14.1630252 36.4248555,14.9697479 C36.4248555,16.2605042 37.0491329,16.9058824 38.2716763,16.9058824 Z M91.0464654,0.37 L91.046,11.649 L95.7715498,5.30155411 L98.0723351,6.93094596 L94.3324442,11.8474172 L98.5681818,16.9340677 L96.2462519,18.8389205 L91.046,12.454 L91.0464654,18.3784227 L88,18.3784227 L88,0.930421475 L91.0464654,0.37 Z M74.4609599,5.8 C77.6402519,5.8 79.05534,7.64530853 79.05534,10.8256842 L79.05534,10.8256842 L79.05534,18.4915539 L76.8079095,18.4915539 L76.5536573,17.6158432 L76.3838183,17.4770377 C75.3697338,18.3646648 74.0397328,18.7605318 72.4774945,18.7605318 C71.3537793,18.7605318 70.5921419,18.4054579 69.9069497,17.7330132 C69.2491651,17.0605685 69.1877033,16.5347425 69.016174,14.989627 C68.8446448,13.4445116 70.0346302,11.4211586 72.7205837,11.0445896 L72.7205837,11.0445896 L75.9856788,11.0445896 L75.9856788,11.0445896 L75.9856788,9.8926324 C75.9856788,8.70912971 74.6692742,8.43825099 73.9292666,8.43825099 C73.189259,8.43825099 71.8471177,8.40488326 70.6137717,9.31940806 L70.6137717,9.31940806 L69.7126355,7.08609749 C70.2333816,6.76332403 71.3120724,6.27332132 72.1617108,6.05813901 C72.9839414,5.8429567 73.7757677,5.8 74.4609599,5.8 Z M63.9872549,2.90207577 L63.9872549,6.05948686 L67.6619066,6.05948686 L67.6619066,8.43207136 L63.9872549,8.43207136 L63.9872549,14.1797567 C63.9584375,15.4338045 64.4099871,16.0608284 65.3419037,16.0608284 C66.2738203,16.0608284 66.9579593,15.9346151 67.3943205,15.6821885 L68.1744694,17.8304997 C67.0718429,18.4208811 65.762297,18.7160717 64.2458319,18.7160717 C61.9711341,18.7160717 60.8372936,16.9726479 60.8372936,14.3206097 L60.8372936,8.43207136 L60.8372936,8.43207136 L58.8939382,8.43207136 L58.8939382,6.31433894 L60.8372936,6.05948686 L60.8372936,3.63908511 L63.9872549,2.90207577 Z M52,5.8 C53.7170732,5.8 55.0585366,6.36470588 56.0243902,7.46722689 C56.9902439,8.5697479 57.5,10.1831933 57.5,12.2537815 C57.5,14.297479 57.0170732,15.8840336 56.0512195,16.9596639 C55.0853659,18.0621849 53.7439024,18.6 52,18.6 C50.2829268,18.6 48.9414634,18.0621849 47.9756098,16.9596639 C47.0097561,15.8571429 46.5,14.297479 46.5,12.2537815 C46.5,10.1831933 46.9829268,8.59663866 47.9756098,7.46722689 C48.9682927,6.36470588 50.3097561,5.8 52,5.8 Z M85.0056093,0.365909091 L85.0056093,18.3743318 L81.9591438,18.3743318 L81.9591438,0.926330566 L85.0056093,0.365909091 Z M52,7.46722689 C50.9268293,7.46722689 50.095122,7.87058824 49.504878,8.67731092 C48.9146341,9.48403361 48.6463415,10.6672269 48.6463415,12.2537815 C48.6463415,13.8134454 48.9414634,14.9697479 49.504878,15.7495798 C50.095122,16.5294118 50.9,16.9327731 52,16.9327731 C53.1,16.9327731 53.9317073,16.5294118 54.5219512,15.7495798 C55.1121951,14.9697479 55.3804878,13.7865546 55.3804878,12.2537815 C55.3804878,10.6941176 55.0853659,9.51092437 54.5219512,8.67731092 C53.9317073,7.89747899 53.1,7.46722689 52,7.46722689 Z M76.0898455,13.1033889 L73.6883456,13.1033889 C72.1959193,13.3049889 71.8565539,14.1545889 71.8565539,14.9033889 C71.8565539,15.4505889 71.9530677,15.7399999 72.2974738,16.0567999 C72.6418798,16.3735999 72.9822129,16.4264972 73.5849235,16.4264972 C74.1589336,16.4264972 74.9418253,16.0741974 76.0898455,15.4981974 L76.0898455,15.4981974 L76.0898455,13.1033889 Z" id="kakaotalk"></path>
            </g>
        </g>
    </g>
</svg>