<?xml version="1.0" encoding="UTF-8"?>
<svg width="48px" height="24px" viewBox="0 0 48 24" version="1.1" xmlns="http://www.w3.org/2000/svg" xmlns:xlink="http://www.w3.org/1999/xlink">
    <!-- Generator: Sketch 63.1 (92452) - https://sketch.com -->
    <title>logo/kakaotalk@1.5x</title>
    <desc>Created with Sketch.</desc>
    <g id="logo/kakaotalk" stroke="none" stroke-width="1" fill="none" fill-rule="evenodd">
        <g id="카카오톡-로고" transform="translate(12.000000, 0.000000)" fill-rule="nonzero">
            <path d="M22.0656,24 L1.9344,24 C0.8688,24 0,23.1312 0,22.0656 L0,1.9344 C0,0.8688 0.8688,0 1.9344,0 L22.0656,0 C23.1312,0 24,0.8688 24,1.9344 L24,22.0656 C24,23.1312 23.1312,24 22.0656,24 Z" id="Path" fill="#FAE300"></path>
            <path d="M11.997669,4 C7.02797203,4 3,7.27364029 3,11.3141656 C3,13.9455397 4.70629371,16.2461946 7.27039627,17.53552 C7.08391608,18.2592677 6.58974359,20.152515 6.49184149,20.5599227 C6.37062937,21.063191 6.67365967,21.0583979 6.86946387,20.9194 C7.02331002,20.8139533 9.33566434,19.1987018 10.3333333,18.4989193 C10.8741259,18.5804008 11.4335664,18.6235381 12.002331,18.6235381 C16.972028,18.6235381 21,15.3498978 21,11.3093725 C21,7.27364029 16.967366,4 11.997669,4" id="Path" fill="#391B1B"></path>
            <g id="Group" transform="translate(5.000000, 9.000000)" fill="#FAE300">
                <path d="M3.23263889,0.101010101 L0.486111111,0.101010101 C0.228472222,0.101010101 0.0194444444,0.318181818 0.0194444444,0.585858586 C0.0194444444,0.853535354 0.228472222,1.07070707 0.486111111,1.07070707 L1.38055556,1.07070707 L1.38055556,4.48484848 C1.38055556,4.61111111 1.42916667,4.73232323 1.51666667,4.81818182 C1.59930556,4.9040404 1.71597222,4.95454545 1.8375,4.95454545 L1.93958333,4.95454545 C2.06111111,4.95454545 2.17777778,4.9040404 2.26041667,4.81818182 C2.34791667,4.72727273 2.39652778,4.60606061 2.39652778,4.48484848 L2.39652778,1.07070707 L3.2375,1.07070707 C3.49513889,1.07070707 3.70416667,0.853535354 3.70416667,0.585858586 C3.69930556,0.318181818 3.49027778,0.101010101 3.23263889,0.101010101 Z" id="Path"></path>
                <path d="M9.82430556,4.05050505 L8.55069444,4.05050505 L8.55069444,0.560606061 C8.55069444,0.267676768 8.32222222,0.0353535354 8.04513889,0.0353535354 C7.76319444,0.0353535354 7.53958333,0.272727273 7.53958333,0.560606061 L7.53958333,4.31818182 C7.53958333,4.34848485 7.54444444,4.37373737 7.54930556,4.4040404 C7.54444444,4.42929293 7.53958333,4.45959596 7.53958333,4.48989899 C7.53958333,4.73232323 7.72916667,4.92929293 7.9625,4.92929293 L9.82916667,4.92929293 C10.0625,4.92929293 10.2520833,4.73232323 10.2520833,4.48989899 C10.2472222,4.24747475 10.0576389,4.05050505 9.82430556,4.05050505 Z" id="Path"></path>
                <path d="M13.9027778,4.20707071 L12.4784722,2.26767677 L13.7618056,0.934343434 C13.9368056,0.752525253 13.9368056,0.45959596 13.7618056,0.277777778 C13.5868056,0.095959596 13.3048611,0.095959596 13.1298611,0.277777778 L11.5402778,1.92929293 L11.5402778,0.560606061 C11.5402778,0.267676768 11.3118056,0.0353535354 11.0347222,0.0353535354 C10.7527778,0.0353535354 10.5291667,0.272727273 10.5291667,0.560606061 L10.5291667,4.43434343 C10.5291667,4.72727273 10.7576389,4.95959596 11.0347222,4.95959596 C11.3166667,4.95959596 11.5402778,4.72222222 11.5402778,4.43434343 L11.5402778,3.23737374 L11.8270833,2.93939394 L13.1736111,4.77272727 C13.3243056,4.97979798 13.60625,5.02525253 13.8055556,4.86868687 C14.0145833,4.71212121 14.0534722,4.41919192 13.9027778,4.20707071 Z" id="Path"></path>
                <path d="M7.15555556,4.33333333 L5.78958333,0.444444444 C5.78958333,0.444444444 5.78472222,0.439393939 5.78472222,0.439393939 C5.69722222,0.202020202 5.44444444,0.0303030303 5.14305556,0.0303030303 C4.80763889,0.0303030303 4.53541667,0.242424242 4.47708333,0.52020202 C4.46736111,0.54040404 4.45763889,0.560606061 4.45277778,0.585858586 L3.11111111,4.33333333 C3.02847222,4.58080808 3.15486111,4.84848485 3.38819444,4.93434343 C3.62638889,5.02020202 3.88402778,4.88888889 3.96666667,4.64646465 L4.2,3.95454545 L6.07152778,3.95454545 L6.30486111,4.64646465 C6.3875,4.89393939 6.64513889,5.02020202 6.88333333,4.93434343 C7.11666667,4.84848485 7.23819444,4.58080808 7.15555556,4.33333333 Z M4.49652778,3.07575758 L5.12361111,1.21212121 C5.12847222,1.21212121 5.13819444,1.21212121 5.14305556,1.21212121 L5.77013889,3.07575758 L4.49652778,3.07575758 Z" id="Shape"></path>
            </g>
        </g>
        <rect id="Rectangle" fill-opacity="0" fill="#FFFFFF" x="0" y="0" width="48" height="24"></rect>
    </g>
</svg>