<?xml version="1.0" encoding="UTF-8"?>
<svg width="97px" height="23px" viewBox="0 0 97 23" version="1.1" xmlns="http://www.w3.org/2000/svg" xmlns:xlink="http://www.w3.org/1999/xlink">
    <!-- Generator: sketchtool 63.1 (101010) - https://sketch.com -->
    <title>26CAA944-C916-4474-87D1-8BAA146C6A67</title>
    <desc>Created with sketchtool.</desc>
    <g id="로고" stroke="none" stroke-width="1" fill="none" fill-rule="evenodd">
        <g id="provider" transform="translate(-361.000000, -452.000000)" fill="#212529" fill-rule="nonzero">
            <g id="mlogo/kakaopay" transform="translate(361.000000, 452.000000)">
                <path d="M88.2061697,5 L90.776674,13.3854325 C90.8578478,13.6312595 90.9660795,14.1229135 91.1013692,14.8603945 L91.1013692,14.8603945 L91.1554851,14.8603945 C91.209601,14.4233687 91.3448907,13.9317147 91.5072383,13.3854325 L91.5072383,13.3854325 L94.1859743,5.02731411 L97,5.81942337 L92.8330774,18.1107739 L92.2648606,19.0940819 C91.5072383,20.6509863 90.4249208,21.9347496 88.99085,23 L88.99085,23 L87.0967942,21.1426404 C88.3685174,19.9135053 89.1531976,18.9301973 89.5320088,18.2473445 L89.5320088,18.2473445 L89.5320088,17.6737481 L85.3380282,5.79210926 L88.2061697,5 Z M67.1346965,5 C68.404876,5 69.6480303,5.57285491 70.3777079,6.58217072 C71.1073854,7.59148652 71.6478873,9.25549365 71.6478873,11.028616 C71.6478873,12.9654112 71.2154858,14.5748607 70.3777079,15.7478493 C69.5399299,16.920838 67.9994995,17.9847114 66.6212197,17.9847114 L66.6212197,17.9847114 L64.2159863,17.9847114 L64.2159863,22.4857143 L61,22.4857143 L61,5.40918208 L63.4052334,5.40918208 L63.4052334,6.58217072 C64.1619361,5.68197014 65.7023665,5 67.1346965,5 Z M16.7478261,5.64864865 C19.5913043,5.64864865 21,7.27549398 21,10.5291846 L21,18.7756075 L19.5130435,18.7756075 L19.2782609,17.3731547 C18.6782609,17.8780377 18.0521739,18.2987736 17.373913,18.5792641 C16.6956522,18.8597547 16.0434783,19 15.4434783,19 C14.373913,19 13.5391304,18.6634113 12.9391304,18.018283 C12.3130435,17.3170566 12,16.4194867 12,15.2975244 C12,14.0072678 12.4173913,12.9975017 13.226087,12.3243243 C14.0347826,11.6511469 15.2086957,11.2865092 16.7478261,11.2865092 L19.0695652,11.2865092 L19.0695652,10.4730865 C19.0695652,8.48160345 18.2608696,7.47183738 16.6173913,7.47183738 C16.0956522,7.47183738 15.5478261,7.55598456 14.973913,7.69622984 C14.4,7.86452419 13.8782609,8.06086759 13.3826087,8.28526005 L12.7826087,6.77061095 C13.3826087,6.4059732 14.0347826,6.12548263 14.7130435,5.92913922 C15.4173913,5.73279582 16.0695652,5.64864865 16.7478261,5.64864865 Z M40.7601156,5.64864865 C43.5693642,5.64864865 45,7.27549398 45,10.5291846 L45,18.7756075 L43.517341,18.7756075 L43.283237,17.3731547 C42.6849711,17.8780377 42.0606936,18.2987736 41.3843931,18.5792641 C40.7080925,18.8597547 40.0578035,19 39.4595376,19 C38.3930636,19 37.5606936,18.6634113 36.9624277,18.018283 C36.3641618,17.3731547 36,16.4475358 36,15.3255735 C36,14.0353168 36.416185,13.0255508 37.2225434,12.3523734 C38.0289017,11.679196 39.199422,11.3145583 40.7601156,11.3145583 L43.0751445,11.3145583 L43.0751445,10.5011356 C43.0751445,8.50965251 42.2687861,7.49988644 40.6300578,7.49988644 C40.1098266,7.49988644 39.5635838,7.58403361 38.9913295,7.7242789 C38.4190751,7.89257325 37.8988439,8.08891665 37.4046243,8.31330911 L36.8063584,6.77061095 C37.4046243,6.4059732 38.0549133,6.12548263 38.7312139,5.92913922 C39.433526,5.73279582 40.083815,5.64864865 40.7601156,5.64864865 Z M53.5,5.64864865 C55.2170732,5.64864865 56.5585366,6.23767886 57.5243902,7.38769021 C58.4902439,8.53770157 59,10.220645 59,12.3804224 C59,14.5121508 58.5170732,16.1670452 57.5512195,17.2890075 C56.5853659,18.4390189 55.2439024,19 53.5,19 C51.7829268,19 50.4414634,18.4390189 49.4756098,17.2890075 C48.5097561,16.1389961 48,14.5121508 48,12.3804224 C48,10.220645 48.4829268,8.56575062 49.4756098,7.38769021 C50.4682927,6.23767886 51.8097561,5.64864865 53.5,5.64864865 Z M7.7173913,5.32476346 L9.34782609,6.52624855 L5.32608696,11.6052537 L10,17.2303884 L8.36956522,18.4864865 L2.85326087,11.7144796 L7.7173913,5.32476346 Z M32.2173913,5.32476346 L33.8478261,6.52624855 L29.826087,11.6052537 L34.5,17.2303884 L32.8695652,18.4864865 L27.3532609,11.7144796 L32.2173913,5.32476346 Z M2.0923913,0 L2.0923913,18.1861152 L0,18.1861152 L0,0.464210148 L2.0923913,0 Z M26.5923913,0 L26.5923913,18.1861152 L24.5,18.1861152 L24.5,0.464210148 L26.5923913,0 Z M79.1301865,5 C82.3094785,5 83.8169014,7.25941423 83.8169014,9.92229528 L83.8169014,9.92229528 L83.8169014,17.588165 L81.5694709,17.588165 L81.4050247,16.700538 L80.7472402,16.700538 C79.7331557,17.588165 78.8012943,17.8571429 77.239056,17.8571429 C76.1153407,17.8571429 75.29311,17.3729827 74.6079178,16.700538 C73.9501332,16.0280932 73.6760563,15.8398087 73.6760563,14.3066348 C73.6760563,12.7734608 74.5531024,10.6485356 77.239056,10.2719665 L77.239056,10.2719665 L80.7472402,10.2719665 L80.7472402,10.2719665 L80.7472402,8.87328153 C80.7472402,7.68977884 79.3768557,7.63598326 78.6368481,7.63598326 C77.8968405,7.63598326 76.6086791,7.50149432 75.3753331,8.41601913 L75.3753331,8.41601913 L74.6079178,6.37178721 C75.1286639,6.04901375 76.1427484,5.48416019 76.9923868,5.26897788 C77.8146174,5.05379558 78.4449943,5 79.1301865,5 Z M53.5,7.38769021 C52.4268293,7.38769021 51.595122,7.80842607 51.004878,8.6498978 C50.4146341,9.49136952 50.1463415,10.725528 50.1463415,12.3804224 C50.1463415,14.0072678 50.4414634,15.2133772 51.004878,16.0267999 C51.595122,16.8402226 52.4,17.2609584 53.5,17.2609584 C54.6,17.2609584 55.4317073,16.8402226 56.0219512,16.0267999 C56.6121951,15.2133772 56.8804878,13.9792187 56.8804878,12.3804224 C56.8804878,10.7535771 56.5853659,9.51941858 56.0219512,8.6498978 C55.4317073,7.83647513 54.6,7.38769021 53.5,7.38769021 Z M43.0491329,12.7731092 L40.9682081,12.7731092 C39.9017341,12.7731092 39.1473988,12.9694526 38.6531792,13.3621395 C38.1589595,13.7548263 37.9248555,14.3719055 37.9248555,15.2133772 C37.9248555,16.559732 38.5491329,17.2329094 39.7716763,17.2329094 C40.0578035,17.2329094 40.3439306,17.2048603 40.6300578,17.1207132 C40.916185,17.036566 41.2283237,16.9524188 41.5144509,16.8121735 C41.800578,16.6999773 42.0867052,16.5316829 42.3468208,16.3633886 C42.6069364,16.1950943 42.8410405,15.9987509 43.0491329,15.7743584 L43.0491329,12.7731092 Z M19.0695652,12.7450602 L16.9826087,12.7450602 C15.9130435,12.7450602 15.1565217,12.9414036 14.6608696,13.3340904 C14.1652174,13.7267772 13.9304348,14.3438565 13.9304348,15.1853282 C13.9304348,16.5316829 14.5565217,17.2048603 15.7826087,17.2048603 C16.0695652,17.2048603 16.3565217,17.1768113 16.6434783,17.0926641 C16.9304348,17.0085169 17.2434783,16.9243697 17.5304348,16.7841245 C17.8173913,16.6719282 18.1043478,16.5036339 18.3652174,16.3353395 C18.626087,16.1670452 18.8608696,15.9707018 19.0695652,15.7463093 L19.0695652,12.7450602 Z M65.9622123,7.57142857 C65.0439711,7.57142857 64.0422535,7.928 64.0422535,8.09257143 L64.0422535,8.09257143 L64.0422535,15.8 L64.0422535,15.8 L65.7396084,15.8 C66.7135005,15.8 67.4369632,15.1691429 67.993473,14.4285714 C68.5499828,13.6605714 68.6056338,12.5908571 68.6056338,11.192 C68.6056338,9.60114286 67.4926142,7.57142857 65.9622123,7.57142857 Z M80.7746479,12.2 L78.449907,12.2 C76.9574807,12.4016 76.2112676,13.2656 76.2112676,14.0144 C76.2112676,14.5616 76.4121711,14.9936 76.7565772,15.3104 C77.1009833,15.6272 77.5888918,15.8 78.1916024,15.8 C78.7656125,15.8 79.6266277,15.512 80.7746479,14.936 L80.7746479,14.936 L80.7746479,12.2 Z" id="kakaopay"></path>
            </g>
        </g>
    </g>
</svg>