<?xml version="1.0" encoding="UTF-8"?>
<svg width="48px" height="24px" viewBox="0 0 48 24" version="1.1" xmlns="http://www.w3.org/2000/svg" xmlns:xlink="http://www.w3.org/1999/xlink">
    <title>logo/kbsign-b</title>
    <g id="logo/kbsign-b" stroke="none" stroke-width="1" fill="none" fill-rule="evenodd">
        <rect id="Rectangle" fill-opacity="0" fill="#FFFFFF" x="0" y="0" width="48" height="24"></rect>
        <g id="Group" transform="translate(16.000000, 0.000000)" fill-rule="nonzero">
            <path d="M13,7 L11.6544462,7 L11.6544462,4.71947368 C11.6544462,2.81842105 10.0163807,1.27105263 8,1.27105263 C5.98361934,1.27105263 4.34555382,2.81842105 4.34555382,4.71947368 L4.34555382,7 L3,7 L3,4.71947368 C3,2.11842105 5.2425897,0 7.99609984,0 C10.74961,0 12.9921997,2.11842105 12.9921997,4.71947368 L12.9921997,7 L13,7 Z" id="Path" fill="#9F9F9F"></path>
            <g transform="translate(0.000000, 6.000000)" id="Path">
                <path d="M7.9968078,17.3828768 C15.4440682,15.1729554 15.3954428,12.0563111 15.3954428,12.0563111 L15.3954428,1.84447424 L7.9968078,0.603332695 L7.9968078,17.3828768 Z" fill="#D5D5D5"></path>
                <path d="M7.9968078,18 L7.82660455,17.9482858 C0.0910406757,15.6728596 -0.0131653936,12.397625 0.000728748962,12.0321777 L0.000728748962,1.34112239 L8.00028134,0 L8.10101387,0.017238077 L15.9998339,1.34112239 L15.9998339,4.57153802 L14.8014641,4.57153802 L14.8014641,2.34437847 L8.00028134,1.20321777 L1.19909855,2.34437847 L1.19909855,12.0528634 C1.19909855,12.0873396 1.31719876,14.7488987 8.00028134,16.7554108 C14.6277873,14.7420034 14.8014641,12.0735491 14.8014641,12.0459682 L14.8014641,7.96743919 L15.9998339,7.96743919 L15.9998339,12.0528634 C16.006781,12.4079678 15.8331042,15.6728596 8.17395812,17.9482858 L7.9968078,18 Z" fill="#9F9F9F"></path>
            </g>
            <g transform="translate(3.000000, 11.000000)" fill="#9F9F9F" id="Shape">
                <path d="M1.02870042,6.95463609 L0,6.95463609 L0,0.153539382 L1.02870042,0.153539382 L1.02870042,6.95463609 Z M1.13866495,3.30109671 C2.01128668,2.31355932 2.95840052,1.22831505 3.71396324,0.153539382 L4.90228958,0.153539382 C4.12899065,1.23180459 3.2634634,2.33449651 2.40148339,3.31854437 L5.33505321,6.95463609 L4.08642373,6.95463609 L1.13866495,3.30109671 Z"></path>
                <path d="M9.75137053,3.22083749 C10.4679136,3.40229312 11,4.0443669 11,4.92023928 C11,6.14157527 10.2089649,7 8.29700097,7 C7.85714286,7 6.98452112,6.93718843 6.33182844,6.82901296 L6.33182844,0.453639083 C6.99516285,0.191924227 7.7117059,0 8.33602064,0 C9.67687843,0 10.6701064,0.642073779 10.6701064,1.79012961 C10.6701064,2.46011964 10.2657207,3.0114656 9.75137053,3.22083749 Z M8.24379233,2.93120638 C8.97807159,2.93120638 9.60593357,2.51595214 9.60593357,1.82851446 C9.60593357,1.16899302 8.99935505,0.778165503 8.35375685,0.778165503 C7.9600129,0.778165503 7.58045792,0.875872383 7.36052886,0.949152542 L7.36052886,2.92771685 L8.24379233,2.92771685 L8.24379233,2.93120638 Z M9.93582715,4.89232303 C9.93582715,4.05134596 9.17316995,3.6884347 8.41760722,3.6884347 L7.36052886,3.6884347 L7.36052886,6.13808574 C7.70106417,6.18344965 8.06997743,6.2113659 8.43534344,6.2113659 C9.2937762,6.21485543 9.93582715,5.85892323 9.93582715,4.89232303 Z"></path>
            </g>
        </g>
    </g>
</svg>