<?xml version="1.0" encoding="UTF-8"?>
<svg width="93px" height="30px" viewBox="0 0 93 30" version="1.1" xmlns="http://www.w3.org/2000/svg" xmlns:xlink="http://www.w3.org/1999/xlink">
    <title>mlogo/kbsign</title>
    <g id="시안/은행인증서모음-" stroke="none" stroke-width="1" fill="none" fill-rule="evenodd">
        <g id="메인/KB국민인증서" transform="translate(-464.000000, -170.000000)" fill-rule="nonzero">
            <g id="mlogo/kbsign" transform="translate(464.000000, 170.000000)">
                <g id="Group">
                    <path d="M16,9 L14.3853354,9 L14.3853354,6.06789474 C14.3853354,3.62368421 12.4196568,1.63421053 10,1.63421053 C7.58034321,1.63421053 5.61466459,3.62368421 5.61466459,6.06789474 L5.61466459,9 L4,9 L4,6.06789474 C4,2.72368421 6.69110764,0 9.99531981,0 C13.299532,0 15.9906396,2.72368421 15.9906396,6.06789474 L15.9906396,9 L16,9 Z" id="Path" fill="#5F504D"></path>
                    <g transform="translate(0.000000, 7.000000)" id="Path">
                        <path d="M9.99600975,22.2114537 C19.3050853,19.3876652 19.2443035,15.4052863 19.2443035,15.4052863 L19.2443035,2.35682819 L9.99600975,0.77092511 L9.99600975,22.2114537 Z" fill="#FEBE10"></path>
                        <path d="M9.99600975,23 L9.78325569,22.9339207 C0.113800845,20.0264317 -0.016456742,15.8414097 0.000910936203,15.3744493 L0.000910936203,1.71365639 L10.0003517,0 L10.1262673,0.0220264317 L19.9997924,1.71365639 L19.9997924,5.84140969 L18.5018302,5.84140969 L18.5018302,2.99559471 L10.0003517,1.53744493 L1.49887318,2.99559471 L1.49887318,15.4008811 C1.49887318,15.4449339 1.64649845,18.845815 10.0003517,21.4096916 C18.2847342,18.8370044 18.5018302,15.4273128 18.5018302,15.3920705 L18.5018302,10.1806167 L19.9997924,10.1806167 L19.9997924,15.4008811 C20.0084762,15.8546256 19.7913803,20.0264317 10.2174476,22.9339207 L9.99600975,23 Z" fill="#5F504D"></path>
                    </g>
                    <g transform="translate(3.000000, 13.000000)" fill="#5F504D" id="Shape">
                        <path d="M1.30925508,8.94167498 L0,8.94167498 L0,0.197407777 L1.30925508,0.197407777 L1.30925508,8.94167498 Z M1.44920993,4.2442672 C2.55981941,2.97457627 3.76523702,1.57926221 4.7268623,0.197407777 L6.23927765,0.197407777 C5.25507901,1.58374875 4.15349887,3.00149551 3.05643341,4.2666999 L6.79006772,8.94167498 L5.20090293,8.94167498 L1.44920993,4.2442672 Z"></path>
                        <path d="M12.4108352,4.14107677 C13.3227991,4.37437687 14,5.1999003 14,6.32602193 C14,7.89631107 12.993228,9 10.5598194,9 C10,9 8.88939052,8.91924227 8.05869074,8.78015952 L8.05869074,0.583250249 C8.90293454,0.246759721 9.81489842,0 10.6094808,0 C12.3160271,0 13.5801354,0.82552343 13.5801354,2.30159521 C13.5801354,3.16301097 13.0654628,3.87188435 12.4108352,4.14107677 Z M10.4920993,3.76869392 C11.4266366,3.76869392 12.2257336,3.23479561 12.2257336,2.35094716 C12.2257336,1.50299103 11.4537246,1.0004985 10.6320542,1.0004985 C10.1309255,1.0004985 9.64785553,1.12612164 9.36794582,1.22033898 L9.36794582,3.76420738 L10.4920993,3.76420738 L10.4920993,3.76869392 Z M12.6455982,6.29012961 C12.6455982,5.20887338 11.6749436,4.74227318 10.7133183,4.74227318 L9.36794582,4.74227318 L9.36794582,7.89182453 C9.8013544,7.95014955 10.2708804,7.98604187 10.7358916,7.98604187 C11.8284424,7.99052841 12.6455982,7.5329013 12.6455982,6.29012961 Z"></path>
                    </g>
                </g>
                <g id="Group" transform="translate(24.000000, 10.500000)" fill="#5F504D">
                    <path d="M10.6139241,9.77629382 C10.9724231,9.77629382 11.1546112,9.95742905 11.1546112,10.3255426 L11.1546112,15 L9.45614828,15 L9.45614828,11.009182 L1.81012658,11.009182 L1.81012658,9.77629382 L5.39511754,9.77629382 L5.39511754,7.55008347 L0,7.55008347 L0,6.31719533 L8.8096745,6.31719533 C8.99186257,5.79716194 9.10352622,5.2654424 9.1505425,4.71035058 C9.19755877,4.15525876 9.22106691,3.67028381 9.22106691,3.24373957 L9.22106691,2.65943239 C9.22106691,2.37312187 9.05650995,2.23288815 8.72739602,2.23288815 L1.96880651,2.23288815 L1.96880651,1 L9.39737794,1 C9.90280289,1 10.2848101,1.11101836 10.5375226,1.33889816 C10.7902351,1.56677796 10.9195298,1.85893155 10.9195298,2.21535893 L10.9195298,3.27295492 C10.9077758,3.82804674 10.8431284,4.38313856 10.7314647,4.93823038 C10.6139241,5.48747913 10.4434901,5.9490818 10.2260398,6.31719533 L13,6.31719533 L13,7.55008347 L7.0994575,7.55008347 L7.0994575,9.77629382 L10.6139241,9.77629382 Z" id="Path"></path>
                    <path d="M21.4643399,0.627646326 C21.9438543,0.627646326 22.1866464,0.842673308 22.1866464,1.27272727 L22.1866464,7.01452885 C21.2276176,7.29348277 20.3474962,7.50269822 19.5584219,7.64798672 C18.7693475,7.79327522 18.0531108,7.8630137 17.4218513,7.8630137 C16.5235205,7.8630137 15.8983308,7.67704442 15.5402124,7.30510585 C15.1820941,6.93316729 15,6.37525944 15,5.63138232 L15,0.627646326 L21.4643399,0.627646326 Z M20.4628225,1.85388128 L16.7116844,1.85388128 L16.7116844,5.66044002 C16.7116844,5.80572852 16.7177542,5.93939394 16.7298938,6.06143628 C16.7420334,6.18347862 16.7784522,6.2822748 16.8391502,6.3694479 C16.8998483,6.456621 16.9848255,6.52054795 17.1001517,6.56704027 C17.215478,6.61353259 17.3732929,6.63677875 17.585736,6.63677875 C17.7799697,6.63677875 18.0045524,6.62515567 18.2473445,6.60772105 C18.4901366,6.58447489 18.7450683,6.55541719 19.0060698,6.52054795 C19.2670713,6.4856787 19.522003,6.43918638 19.7769347,6.39269406 C20.0257967,6.34620174 20.2564492,6.29389788 20.4628225,6.24159402 L20.4628225,1.85388128 L20.4628225,1.85388128 Z M27,12.773765 L27,14 L19.3459788,14 C18.6661608,14 18.1502276,13.8721461 17.7860395,13.6222499 C17.4279211,13.3723537 17.245827,12.9074305 17.245827,12.2274803 L17.245827,9.29265255 L19,9.29265255 L19,12.2391034 C19,12.4308842 19.030349,12.5645496 19.0971168,12.6517227 C19.1638847,12.7330843 19.2852807,12.7795766 19.4734446,12.7795766 L27,12.7795766 L27,12.773765 Z M26.7086495,0 L26.7086495,9.9958489 L24.9908953,9.9958489 L24.9908953,0 L26.7086495,0 Z" id="Shape"></path>
                    <path d="M36.6100443,3.96928186 C36.6100443,4.50394355 36.5155096,4.98630137 36.3264402,5.42797841 C36.1373708,5.86965546 35.8714919,6.24159402 35.534712,6.55541719 C35.1979321,6.86924035 34.8020679,7.11332503 34.3412112,7.29348277 C33.8803545,7.47364051 33.3722304,7.56081362 32.816839,7.56081362 C32.2614476,7.56081362 31.7533235,7.47364051 31.2865583,7.29348277 C30.8197932,7.11332503 30.4180207,6.86924035 30.0812408,6.55541719 C29.7444609,6.24159402 29.4844904,5.86384392 29.2895126,5.42797841 C29.1004431,4.98630137 29,4.50394355 29,3.96928186 C29,3.43462017 29.0945347,2.95226235 29.2895126,2.51639685 C29.478582,2.08053134 29.7444609,1.70859278 30.0812408,1.39476961 C30.4180207,1.08094645 30.8197932,0.836861768 31.2865583,0.662515567 C31.7533235,0.488169365 32.267356,0.400996264 32.816839,0.400996264 C33.3722304,0.400996264 33.8803545,0.488169365 34.3412112,0.662515567 C34.8020679,0.836861768 35.2038405,1.08094645 35.534712,1.39476961 C35.8714919,1.70859278 36.1314623,2.08053134 36.3264402,2.51639685 C36.5155096,2.95226235 36.6100443,3.43462017 36.6100443,3.96928186 Z M34.9379616,3.98090494 C34.9379616,3.30095475 34.7548006,2.73723537 34.3766617,2.29555832 C34.0044313,1.85388128 33.4844904,1.63304276 32.8109306,1.63304276 C32.4682422,1.63304276 32.1728213,1.69115816 31.9069424,1.80738896 C31.6469719,1.92361976 31.422452,2.08634288 31.239291,2.29555832 C31.0502216,2.50477377 30.9143279,2.75466999 30.8138848,3.04524699 C30.7193501,3.33582399 30.6720827,3.64383562 30.6720827,3.98090494 C30.6720827,4.31797426 30.7193501,4.63179743 30.8138848,4.91656289 C30.9084195,5.20713989 31.0502216,5.45122457 31.239291,5.66625156 C31.422452,5.875467 31.6469719,6.04400166 31.9069424,6.16023246 C32.1669129,6.2822748 32.4682422,6.3403902 32.8109306,6.3403902 C33.1418021,6.3403902 33.437223,6.2822748 33.6971935,6.16023246 C33.957164,6.03819012 34.1816839,5.875467 34.3648449,5.66625156 C34.5480059,5.45703611 34.689808,5.20713989 34.7902511,4.91656289 C34.8847858,4.62598589 34.9379616,4.31216272 34.9379616,3.98090494 Z M41,12.773765 L41,14 L33.549483,14 C32.88774,14 32.3855244,13.8721461 32.0369276,13.6222499 C31.6883309,13.3723537 31.5110783,12.9074305 31.5110783,12.2274803 L31.5110783,9.13574097 L33.2186115,9.13574097 L33.2186115,12.2391034 C33.2186115,12.4308842 33.2481536,12.5645496 33.3131462,12.6517227 C33.3781388,12.7330843 33.4963072,12.7795766 33.6794682,12.7795766 L41,12.7795766 L41,12.773765 Z M40.7104874,0 L40.7104874,9.9958489 L39.0384047,9.9958489 L39.0384047,0 L40.7104874,0 Z" id="Shape"></path>
                    <path d="M57,6.50243309 L57,7.78588808 L44,7.78588808 L44,6.50243309 L57,6.50243309 Z M46.122569,5.78467153 L45.5052013,4.56812652 C45.969697,4.34914842 46.4400724,4.11800487 46.9104478,3.86861314 C47.3808232,3.62530414 47.9041158,3.30900243 48.474446,2.92579075 C48.78019,2.70681265 49.027137,2.46350365 49.2035278,2.20194647 C49.3857983,1.94038929 49.4857531,1.63017032 49.5033921,1.28345499 L45.9167797,1.28345499 L45.9167797,0 L55.030303,0 L55.030303,1.28345499 L51.2202623,1.28345499 C51.1967436,1.54501217 51.1614654,1.78223844 51.1085482,1.98905109 C51.914066,2.3540146 52.6666667,2.74939173 53.3722298,3.16909976 C54.0777929,3.59489051 54.6657621,3.99635036 55.1420172,4.38564477 C55.2243329,4.45863747 55.2772501,4.54987835 55.3007689,4.64720195 C55.3242877,4.74452555 55.2890095,4.84184915 55.2066938,4.93917275 L54.5893261,5.66909976 C54.0601538,5.26155718 53.425147,4.83576642 52.6901854,4.38564477 C51.9552239,3.93552311 51.2085029,3.54622871 50.4441429,3.21776156 C50.1266395,3.55839416 49.7620986,3.86253041 49.3505201,4.13625304 C48.78019,4.49513382 48.2039801,4.82360097 47.6277702,5.11557178 C47.0456807,5.40754258 46.5459068,5.62652068 46.122569,5.78467153 Z M54.6187246,11.8613139 C54.6187246,12.3540146 54.5070104,12.7919708 54.2835821,13.1751825 C54.0601538,13.5583942 53.7602895,13.8868613 53.3839891,14.1605839 C53.0076888,14.4343066 52.5667119,14.6411192 52.066938,14.7871046 C51.5671642,14.9270073 51.0379919,15 50.4853008,15 C49.92673,15 49.3975577,14.9270073 48.8977838,14.7871046 C48.39801,14.6472019 47.9687924,14.4343066 47.5983718,14.1605839 C47.2279512,13.8868613 46.9339665,13.5583942 46.7105382,13.1751825 C46.4871099,12.7919708 46.3753957,12.3540146 46.3753957,11.8613139 C46.3753957,11.3686131 46.4871099,10.9306569 46.7105382,10.5474453 C46.9339665,10.1642336 47.2279512,9.83576642 47.5983718,9.5620438 C47.9687924,9.28832117 48.4038896,9.08150852 48.8977838,8.93552311 C49.3975577,8.79562044 49.92673,8.72262774 50.4853008,8.72262774 C51.0379919,8.72262774 51.5612845,8.79562044 52.066938,8.93552311 C52.5725916,9.07542579 53.0076888,9.28832117 53.3839891,9.5620438 C53.7602895,9.83576642 54.0601538,10.1642336 54.2835821,10.5474453 C54.5070104,10.9306569 54.6187246,11.3686131 54.6187246,11.8613139 Z M52.9488919,11.8613139 C52.9488919,11.5875912 52.890095,11.3381995 52.7666214,11.107056 C52.6431479,10.8759124 52.4726368,10.6812652 52.2492085,10.5170316 C52.0257802,10.3527981 51.7670737,10.2250608 51.4613297,10.1399027 C51.1614654,10.0547445 50.8322026,10.0060827 50.4853008,10.0060827 C50.1383989,10.0060827 49.8091361,10.0486618 49.5092718,10.1399027 C49.2094075,10.2250608 48.950701,10.3527981 48.7331524,10.5170316 C48.5156038,10.6812652 48.3450927,10.8759124 48.2274989,11.107056 C48.1040253,11.3381995 48.0452284,11.5875912 48.0452284,11.8613139 C48.0452284,12.1350365 48.1040253,12.3844282 48.2274989,12.6155718 C48.3509724,12.8467153 48.5156038,13.0413625 48.7331524,13.2055961 C48.950701,13.3698297 49.2094075,13.4975669 49.5092718,13.5827251 C49.8091361,13.6678832 50.1383989,13.716545 50.4853008,13.716545 C50.8322026,13.716545 51.1614654,13.6739659 51.4613297,13.5827251 C51.761194,13.4975669 52.0199005,13.3698297 52.2374491,13.2055961 C52.4549977,13.0413625 52.6255088,12.8467153 52.7548621,12.6155718 C52.8842153,12.3844282 52.9488919,12.1350365 52.9488919,11.8613139 Z" id="Shape"></path>
                    <path d="M62.1687805,3.35612289 C62.1687805,3.81652964 62.1629268,4.21635656 62.1453659,4.5677196 C62.1278049,4.91908265 62.0985366,5.24621376 62.0458537,5.56728689 C62.3385366,5.88230203 62.6546341,6.23366508 62.9941463,6.62137603 C63.3336585,7.00908698 63.6614634,7.40285591 63.9834146,7.8087408 C64.3053659,8.2146257 64.6097561,8.60839463 64.8907317,9.00216357 C65.177561,9.3959325 65.4117073,9.74123756 65.5990244,10.0501947 C65.6809756,10.1713544 65.7043902,10.2682821 65.6692683,10.3349199 C65.6341463,10.4076158 65.5697561,10.4742536 65.4878049,10.5408914 L64.6331707,11.1951536 C64.2117073,10.6075292 63.7258537,9.95932497 63.1697561,9.25659887 C62.6195122,8.55387278 62.0341463,7.87537862 61.4253659,7.2211164 C60.9921951,7.97230636 60.4770732,8.71138035 59.8741463,9.42622241 C59.2712195,10.1471225 58.6858537,10.7892687 58.1063415,11.3587192 L57,10.3591519 C57.2341463,10.1107746 57.4741463,9.83210731 57.737561,9.52315015 C57.995122,9.22025097 58.2409756,8.90523583 58.4809756,8.59022068 C58.7209756,8.27520554 58.937561,7.96624838 59.142439,7.65729122 C59.3473171,7.35439204 59.5229268,7.07572479 59.6692683,6.82128949 C59.8507317,6.50627434 59.9912195,6.20943315 60.0965854,5.93682389 C60.2019512,5.66421463 60.2780488,5.39766335 60.3365854,5.12505409 C60.3892683,4.85850281 60.4243902,4.57983557 60.4360976,4.30116833 C60.4536585,4.0164431 60.4595122,3.70142795 60.4595122,3.35006491 L60.4595122,1.06014712 L62.1687805,1.06014712 L62.1687805,3.35612289 Z M64.2585366,4.41627001 L67.3258537,4.41627001 L67.3258537,0 L69,0 L69,14 L67.3258537,14 L67.3258537,5.72479446 L64.2585366,5.72479446 L64.2585366,4.41627001 Z" id="Shape"></path>
                </g>
            </g>
        </g>
    </g>
</svg>