<?xml version="1.0" encoding="UTF-8"?>
<svg width="158.5px" height="25px" viewBox="0 0 158.5 25" version="1.1" xmlns="http://www.w3.org/2000/svg" xmlns:xlink="http://www.w3.org/1999/xlink">
    <title>B915753C-F254-4CE7-856C-7FC9A5520460</title>
    <g id="메인화면(체크박스추가)" stroke="none" stroke-width="1" fill="none" fill-rule="evenodd">
        <g id="메인/nh모바일인증서" transform="translate(-465.000000, -174.000000)" fill-rule="nonzero">
            <g id="Group" transform="translate(465.000000, 174.000000)">
                <path d="M20.0295263,8.33333333 C18.7256652,8.08333333 12.2341012,7.05555556 11.5128164,6.94444444 L11.5128164,24.1666667 L16.5063271,24.1666667 C19.7798507,24.1666667 22.1933809,20.25 22.1933809,18.1944444 L22.1933809,10.4166667 C22.1933809,8.91666667 20.667586,8.44444444 20.0295263,8.33333333 Z" id="Path" fill="#E7F7EE"></path>
                <g fill="#1F9E45">
                    <path d="M20.1959766,7.5 C19.9185594,7.44444444 19.44695,7.36111111 18.8643738,7.27777778 L18.8643738,5.13888889 C18.8643738,2.77777778 16.0624594,0 12.4282933,0 L10.5973394,0 C6.96317326,0 4.16125892,2.75 4.16125892,5.13888889 L4.16125892,7.27777778 C3.57868267,7.38888889 3.10707333,7.47222222 2.82965607,7.5 C1.05418559,7.86111111 0,8.94444444 0,10.4166667 L0,18.1944444 C0,20.5277778 2.55223881,25 6.51930565,25 L16.5063271,25 C20.4733939,25 23.0256327,20.5277778 23.0256327,18.1944444 L23.0256327,10.4166667 C23.0256327,8.94444444 21.9714471,7.86111111 20.1959766,7.5 Z M4.99351071,5.13888889 C4.99351071,3.19444444 7.49026606,0.833333333 10.5973394,0.833333333 L12.4282933,0.833333333 C15.5353666,0.833333333 18.032122,3.19444444 18.032122,5.13888889 L18.032122,7.13888889 C15.4798832,6.72222222 11.7902336,6.13888889 11.5682998,6.11111111 L11.5128164,6.11111111 L11.4573329,6.11111111 C11.2353991,6.13888889 7.54574951,6.72222222 4.99351071,7.13888889 L4.99351071,5.13888889 Z M22.1933809,18.1944444 C22.1933809,20.2222222 19.7798507,24.1666667 16.5063271,24.1666667 L6.51930565,24.1666667 C3.24578196,24.1666667 0.832251785,20.25 0.832251785,18.1944444 L0.832251785,10.4166667 C0.832251785,8.91666667 2.35804672,8.44444444 2.99610642,8.33333333 C4.29996755,8.08333333 10.7915315,7.05555556 11.5128164,6.94444444 C12.2341012,7.05555556 18.7256652,8.05555556 20.0295263,8.33333333 C20.667586,8.47222222 22.1933809,8.91666667 22.1933809,10.4166667 L22.1933809,18.1944444 Z" id="Shape"></path>
                    <path d="M18.1153472,12.5555556 L17.3663206,12.5555556 L17.3663206,15.1388889 C16.8669695,15.1388889 14.78634,15.1388889 14.3147307,15.1388889 L14.3147307,12.5555556 L13.5657041,12.5555556 C13.3992537,12.5555556 13.2328034,12.7777778 13.2328034,13.0555556 L13.2328034,18.5 C13.2328034,18.7777778 13.371512,19 13.5657041,19 L14.3147307,19 L14.3147307,16.2222222 C14.78634,16.2222222 16.8947112,16.2222222 17.3663206,16.2222222 L17.3663206,19 L18.1153472,19 C18.2817975,19 18.4482479,18.7777778 18.4482479,18.5 L18.4482479,13.0555556 C18.4482479,12.7777778 18.3095393,12.5555556 18.1153472,12.5555556 Z" id="Path"></path>
                    <path d="M9.43218689,12.5555556 L8.65541856,12.5555556 L8.65541856,17.5 L6.29737184,13.5555556 C5.90898767,12.9722222 5.63157041,12.5555556 5.02125243,12.5555556 L4.21674238,12.5555556 L4.21674238,18.5 C4.21674238,18.7777778 4.35545101,19 4.54964309,19 L5.32641142,19 L5.32641142,14.0277778 L7.68445814,17.9444444 C8.07284231,18.5277778 8.43348475,19 9.016061,19 L9.73734588,19 L9.73734588,13.0555556 C9.76508761,12.7777778 9.62637897,12.5555556 9.43218689,12.5555556 Z" id="Path"></path>
                </g>
                <g transform="translate(27.500000, 8.000000)" fill="#000000">
                    <path d="M8.92643678,14 C8.54712644,14 8.19310345,13.9224652 7.88965517,13.7673956 C7.5862069,13.612326 7.35862069,13.3797217 7.1816092,13.0695825 L2.37701149,2.80914513 L2.37701149,14 L0.910344828,14 C0.657471264,14 0.455172414,13.8966203 0.27816092,13.7157058 C0.101149425,13.5347913 0,13.3280318 0,13.0695825 L0,1 L2.04827586,1 C2.42758621,1 2.75632184,1.07753479 3.05977011,1.23260437 C3.36321839,1.38767396 3.5908046,1.62027833 3.76781609,1.95626243 L8.59770115,12.2166998 L8.59770115,1 L10.0643678,1 C10.3172414,1 10.5448276,1.10337972 10.7218391,1.28429423 C10.8988506,1.46520875 11,1.69781312 11,1.95626243 L11,14 L8.92643678,14 L8.92643678,14 Z" id="Path"></path>
                    <path d="M13.9383886,14 C13.6777251,14 13.4691943,13.8968254 13.2867299,13.7162698 C13.1042654,13.5357143 13,13.3293651 13,13.0714286 L13,1.95436508 C13,1.69642857 13.1042654,1.46428571 13.2867299,1.28373016 C13.4691943,1.1031746 13.6777251,1 13.9383886,1 L15.450237,1 L15.450237,6.46825397 L21.549763,6.46825397 L21.549763,1 L23.0616114,1 C23.3222749,1 23.5308057,1.1031746 23.7132701,1.28373016 C23.8957346,1.46428571 24,1.69642857 24,1.95436508 L24,13.0714286 C24,13.3293651 23.8957346,13.5357143 23.7132701,13.7162698 C23.5308057,13.8968254 23.3222749,14 23.0616114,14 L21.549763,14 L21.549763,7.70634921 L15.450237,7.70634921 L15.450237,14 L13.9383886,14 L13.9383886,14 Z" id="Path"></path>
                    <path d="M40.9187235,1.17808219 C41.0183477,1.27984344 41.0681598,1.40704501 41.0681598,1.55968689 L41.0681598,9.19178082 L35.3397684,9.19178082 L35.3397684,12.9823875 L41.7904352,12.9823875 C41.8651533,12.9823875 41.9398715,13.0332681 41.9647775,13.109589 C41.9896836,13.2113503 42.0145896,13.3131115 41.9896836,13.4911937 C41.9896836,13.6438356 41.9896836,13.7710372 41.9647775,13.8727984 C41.9398715,13.9745597 41.8900594,14 41.7904352,14 L26.6475573,14 L26,12.9823875 L32.9985998,12.9823875 L32.9985998,9.19178082 L28.3660747,9.19178082 C28.0672021,9.19178082 27.7932355,9.06457926 27.5939871,8.86105675 C27.3947388,8.65753425 27.2951146,8.40313112 27.2702085,8.07240705 L27.2702085,1 L40.5451327,1 C40.694569,1.02544031 40.8190993,1.07632094 40.9187235,1.17808219 Z M29.6362832,2.06849315 L29.6362832,7.5890411 C29.6362832,7.74168297 29.6860953,7.86888454 29.7857195,7.97064579 C29.8853437,8.07240705 30.03478,8.12328767 30.1842163,8.14872798 L38.7269911,8.14872798 L38.7269911,2.04305284 L29.6362832,2.04305284 L29.6362832,2.06849315 Z" id="Shape"></path>
                    <path d="M46.0834646,12.7111913 C45.7811024,12.7111913 45.503937,12.6101083 45.3023622,12.4079422 C45.1007874,12.2057762 45,11.9277978 45,11.6245487 L45,0.555956679 L46.8393701,0.555956679 C46.9905512,0.555956679 47.1165354,0.631768953 47.2173228,0.732851986 C47.3181102,0.833935018 47.3685039,0.960288809 47.3937008,1.11191336 L47.3937008,5.25631769 L51.8031496,5.25631769 L51.8031496,0.555956679 L53.6425197,0.555956679 C53.7937008,0.555956679 53.919685,0.631768953 54.0204724,0.732851986 C54.1212598,0.833935018 54.1716535,0.960288809 54.1968504,1.11191336 L54.1968504,12.7364621 L46.0834646,12.7364621 L46.0834646,12.7111913 Z M47.3937008,11.1444043 C47.3937008,11.2960289 47.4440945,11.4223827 47.5448819,11.5487365 C47.6456693,11.6750903 47.7968504,11.700361 47.9480315,11.700361 L51.8031496,11.700361 L51.8031496,6.26714801 L47.3937008,6.26714801 L47.3937008,11.1444043 L47.3937008,11.1444043 Z M60.9496063,5.1299639 C60.9244094,5.23104693 60.8740157,5.28158845 60.7732283,5.28158845 L58.9590551,5.28158845 L58.9590551,14 L56.5653543,14 L56.5653543,0 L58.4047244,0 C58.5559055,0 58.6818898,0.0505415162 58.807874,0.151624549 C58.9338583,0.252707581 58.9590551,0.379061372 58.9590551,0.530685921 L58.9590551,4.22021661 L60.7732283,4.22021661 C60.8488189,4.22021661 60.9244094,4.27075812 60.9496063,4.37184116 C60.9748031,4.47292419 61,4.59927798 61,4.75090253 C61,4.92779783 60.9748031,5.02888087 60.9496063,5.1299639 Z" id="Shape"></path>
                    <path d="M72.2706271,5.02578594 C71.7689769,5.5032356 71.0825083,5.82991169 70.2376238,6.08120098 C69.3927393,6.30736135 68.4950495,6.433006 67.5181518,6.433006 C66.5412541,6.433006 65.6171617,6.30736135 64.7986799,6.08120098 C63.980198,5.82991169 63.2937294,5.47810667 62.7920792,5.02578594 C62.290429,4.54833627 62.0264026,3.94524196 62,3.216503 C62,2.48776404 62.2640264,1.88466973 62.7920792,1.40722006 C63.2937294,0.929770398 63.980198,0.577965383 64.8250825,0.351805016 C65.669967,0.125644648 66.5676568,0 67.5445545,0 C68.5214521,0 69.4191419,0.125644648 70.2640264,0.351805016 C71.1089109,0.577965383 71.7953795,0.929770398 72.2970297,1.40722006 C72.7986799,1.88466973 73.0627063,2.48776404 73.0891089,3.216503 C73.0363036,3.94524196 72.7722772,4.54833627 72.2706271,5.02578594 Z M63.6633663,13.6952667 C63.4521452,13.4942352 63.3465347,13.2429459 63.3465347,12.9162699 L63.3465347,10.1772165 L75.0957096,10.1772165 L75.0957096,8.64435181 L63.6633663,8.64435181 L62.9768977,7.61406569 L75.1221122,7.61406569 L75.1221122,0.100515719 L77.049505,0.100515719 C77.2079208,0.100515719 77.339934,0.150773578 77.4455446,0.251289297 C77.5511551,0.351805016 77.6039604,0.477449664 77.6039604,0.628223242 L77.6039604,8.14177322 L77.6039604,8.31767573 L77.6039604,11.1823737 L65.8547855,11.1823737 L65.8547855,12.4388202 C65.8547855,12.5895938 65.9075908,12.7152384 66.0132013,12.8157541 C66.1188119,12.9162699 66.2508251,12.9665277 66.4092409,12.9665277 L77.7887789,12.9665277 C77.8679868,12.9665277 77.9207921,13.0167856 77.9471947,13.0921724 C77.9735974,13.1926881 78,13.2932038 78,13.4691063 C78,13.6198799 77.9735974,13.7455245 77.9471947,13.8460403 C77.9207921,13.946556 77.8679868,13.9968138 77.7887789,13.9968138 L64.5082508,13.9968138 C64.1650165,14.0219428 63.9009901,13.8962981 63.6633663,13.6952667 Z M69.5511551,1.58312257 C68.9966997,1.23131755 68.310231,1.05541505 67.5181518,1.05541505 C66.7260726,1.05541505 66.039604,1.23131755 65.4587459,1.58312257 C64.9042904,1.93492759 64.5874587,2.48776404 64.5610561,3.24163193 C64.5874587,3.97037089 64.8778878,4.52320734 65.4587459,4.87501236 C66.0132013,5.22681737 66.69967,5.40271988 67.5181518,5.40271988 C68.310231,5.40271988 68.9966997,5.22681737 69.5511551,4.87501236 C70.1056106,4.52320734 70.4224422,3.97037089 70.4488449,3.24163193 C70.4224422,2.46263511 70.1056106,1.90979866 69.5511551,1.58312257 Z" id="Shape"></path>
                    <path d="M89.8730964,5.92792793 C89.3908629,6.48288288 88.7309645,6.88648649 87.9187817,7.16396396 C87.106599,7.44144144 86.2436548,7.56756757 85.3045685,7.56756757 C84.3654822,7.56756757 83.4771574,7.44144144 82.6903553,7.16396396 C81.9035533,6.88648649 81.2436548,6.48288288 80.7614213,5.9027027 C80.2791878,5.34774775 80.0253807,4.64144144 80,3.78378378 C80,2.92612613 80.2538071,2.21981982 80.7614213,1.66486486 C81.2436548,1.10990991 81.9035533,0.681081081 82.715736,0.403603604 C83.5279188,0.126126126 84.3908629,0 85.3299492,0 C86.2690355,0 87.1319797,0.126126126 87.9441624,0.403603604 C88.7563452,0.655855856 89.4162437,1.08468468 89.8984772,1.63963964 C90.3807107,2.19459459 90.6345178,2.9009009 90.6598985,3.75855856 C90.6345178,4.66666667 90.3807107,5.37297297 89.8730964,5.92792793 Z M82.4111675,14 C82.106599,14 81.8274112,13.8738739 81.6243655,13.6720721 C81.4213198,13.4702703 81.319797,13.218018 81.319797,12.8900901 L81.319797,8.85405405 L83.1725888,8.85405405 C83.3248731,8.85405405 83.4517766,8.92972973 83.5532995,9.03063063 C83.6548223,9.13153153 83.7055838,9.25765766 83.7309645,9.40900901 L83.7309645,12.436036 C83.7309645,12.5873874 83.7817259,12.7135135 83.8832487,12.8144144 C83.9847716,12.9153153 84.1116751,12.9657658 84.2639594,12.9657658 L92.6142132,12.9657658 L92.6142132,0.0252252252 L94.4670051,0.0252252252 C94.6192893,0.0252252252 94.7461929,0.0756756757 94.8477157,0.176576577 C94.9492386,0.277477477 95,0.403603604 95,0.554954955 L95,12.9657658 L95,13.3189189 L95,13.9747748 L82.4111675,13.9747748 L82.4111675,14 Z M87.284264,1.74054054 C86.751269,1.31171171 86.0913706,1.08468468 85.3299492,1.08468468 C84.5685279,1.08468468 83.9086294,1.31171171 83.3502538,1.74054054 C82.8172589,2.16936937 82.5126904,2.87567568 82.4873096,3.80900901 C82.5126904,4.74234234 82.7918782,5.42342342 83.3502538,5.87747748 C83.8832487,6.33153153 84.5431472,6.53333333 85.3299492,6.53333333 C86.0913706,6.53333333 86.751269,6.33153153 87.284264,5.87747748 C87.8172589,5.42342342 88.1218274,4.74234234 88.1472081,3.80900901 C88.0964467,2.85045045 87.8172589,2.16936937 87.284264,1.74054054 Z" id="Shape"></path>
                    <path d="M112.196448,12.9165171 C111.598703,13.4443447 110.801709,13.8464991 109.755655,14.0978456 C108.709601,14.3491921 107.539017,14.5 106.218996,14.5 C104.898976,14.5 103.703485,14.3743268 102.657431,14.0978456 C101.636283,13.8464991 100.814384,13.4443447 100.216638,12.9165171 C99.6188932,12.3886894 99.3200206,11.7351885 99.2951146,10.9308797 C99.2951146,10.3025135 99.4694569,9.77468582 99.8430476,9.29712747 C100.216638,8.84470377 100.739665,8.46768402 101.387223,8.16606822 L98.6475573,8.16606822 L98,7.13554758 L113.790435,7.13554758 C113.865153,7.13554758 113.939871,7.18581688 113.964778,7.28635548 C113.989684,7.38689408 114.01459,7.51256732 113.989684,7.66337522 C113.989684,7.81418312 113.989684,7.93985637 113.964778,8.04039497 C113.939871,8.14093357 113.890059,8.16606822 113.790435,8.16606822 L111.000958,8.16606822 C111.673421,8.46768402 112.171542,8.84470377 112.545133,9.29712747 C112.918723,9.74955117 113.093066,10.3025135 113.093066,10.9308797 C113.093066,11.7351885 112.794193,12.4138241 112.196448,12.9165171 Z M108.560165,3.34021544 C109.15791,3.86804309 109.954904,4.27019749 110.901333,4.59694794 C111.872669,4.89856373 112.893817,5.04937163 113.989684,5.04937163 L113.391938,6.00448833 C111.523985,5.97935368 109.954904,5.72800718 108.734507,5.27558348 C107.489205,4.79802513 106.642399,4.21992819 106.169184,3.49102334 C105.695969,4.21992819 104.849164,4.82315978 103.603861,5.27558348 C102.358559,5.72800718 100.814384,5.97935368 98.9464299,6.00448833 L98.3486847,5.04937163 C99.4445509,5.04937163 100.490605,4.89856373 101.437035,4.59694794 C102.408371,4.29533214 103.180458,3.86804309 103.778203,3.34021544 C104.375949,2.81238779 104.674821,2.20915619 104.699727,1.53052065 L99.3449267,1.53052065 L98.6973694,0.5 L113.043254,0.5 C113.117972,0.5 113.19269,0.5502693 113.217596,0.650807899 C113.242502,0.751346499 113.267408,0.851885099 113.242502,1.02782765 C113.242502,1.17863555 113.242502,1.3043088 113.217596,1.4048474 C113.19269,1.505386 113.142878,1.5556553 113.043254,1.5556553 L107.613735,1.5556553 C107.663547,2.18402154 107.987326,2.78725314 108.560165,3.34021544 Z M109.382064,8.99551167 C108.560165,8.59335727 107.489205,8.39228007 106.19409,8.39228007 C104.898976,8.39228007 103.852922,8.56822262 103.006116,8.99551167 C102.184216,9.39766607 101.760813,10.051167 101.735907,10.9308797 C101.760813,11.8105925 102.184216,12.4640934 103.006116,12.8662478 C103.828016,13.2684022 104.898976,13.4694794 106.19409,13.4694794 C107.489205,13.4694794 108.535259,13.2935368 109.382064,12.8662478 C110.203964,12.4640934 110.627367,11.8105925 110.652273,10.9308797 C110.652273,10.051167 110.203964,9.39766607 109.382064,8.99551167 Z" id="Shape"></path>
                    <path d="M122.507109,8.33935018 C122.911532,9.24909747 123.467615,10.0072202 124.150079,10.6642599 C124.832543,11.3212996 125.590837,11.8267148 126.424961,12.1805054 L125.616114,12.9133574 C124.933649,12.6859206 124.276461,12.3574007 123.64455,11.9530686 C122.987362,11.5234657 122.406003,11.0433213 121.900474,10.4873646 C121.394945,9.93140794 120.990521,9.35018051 120.71248,8.71841155 C120.434439,9.35018051 120.030016,9.93140794 119.524487,10.4873646 C119.018957,11.0433213 118.437599,11.5234657 117.780411,11.9530686 C117.148499,12.3826715 116.491311,12.6859206 115.808847,12.9133574 L115,12.1805054 C115.834123,11.8267148 116.592417,11.3212996 117.274882,10.6642599 C117.957346,10.0072202 118.513428,9.24909747 118.917852,8.33935018 C119.322275,7.42960289 119.524487,6.41877256 119.524487,5.30685921 L119.524487,0.202166065 L121.369668,0.202166065 C121.521327,0.202166065 121.647709,0.252707581 121.748815,0.353790614 C121.849921,0.454873646 121.92575,0.606498195 121.92575,0.758122744 L121.92575,5.30685921 C121.900474,6.39350181 122.102686,7.40433213 122.507109,8.33935018 Z M125.236967,5.28158845 L124.579779,4.24548736 L128.624013,4.24548736 L128.624013,0 L130.469194,0 C130.620853,0 130.747235,0.0505415162 130.848341,0.151624549 C130.949447,0.252707581 131,0.379061372 131,0.530685921 L131,14 L128.598736,14 L128.598736,5.28158845 L125.236967,5.28158845 L125.236967,5.28158845 Z" id="Shape"></path>
                </g>
            </g>
        </g>
    </g>
</svg>