<?xml version="1.0" encoding="UTF-8"?>
<svg width="48px" height="24px" viewBox="0 0 48 24" version="1.1" xmlns="http://www.w3.org/2000/svg" xmlns:xlink="http://www.w3.org/1999/xlink">
    <title>logo/nhmobile</title>
    <defs>
        <linearGradient x1="15.2052391%" y1="93.6161835%" x2="57.4411783%" y2="0%" id="linearGradient-1">
            <stop stop-color="#0133BF" offset="0%"></stop>
            <stop stop-color="#0242E0" offset="49.6664834%"></stop>
            <stop stop-color="#13ADD9" offset="100%"></stop>
        </linearGradient>
        <linearGradient x1="50%" y1="0%" x2="50%" y2="100%" id="linearGradient-2">
            <stop stop-color="#002CAB" offset="0%"></stop>
            <stop stop-color="#0042FF" offset="100%"></stop>
        </linearGradient>
    </defs>
    <g id="logo/nhmobile" stroke="none" stroke-width="1" fill="none" fill-rule="evenodd">
        <rect id="Rectangle" fill-opacity="0" fill="#FFFFFF" x="0" y="0" width="48" height="24"></rect>
        <g id="Group" transform="translate(12.000000, 0.000000)">
            <rect id="Rectangle" fill="url(#linearGradient-1)" x="0" y="0" width="24" height="24" rx="4"></rect>
            <path d="M20,24 L6.09050276,24 L6.09050276,24 C6.64812029,21.8107564 7.99895471,19.8610013 10.143006,18.1507348 C13.359083,15.5853349 15.7471589,14.4608625 17.5660648,9.78674409 C18.7786688,6.67066513 17.8023066,3.4084171 14.6369783,0 L20,0 C22.209139,-4.05812251e-16 24,1.790861 24,4 L24,20 C24,22.209139 22.209139,24 20,24 Z" id="Path-18" fill="url(#linearGradient-2)"></path>
            <path d="M3.46675461,6.79609206 C3.46630345,9.51038279 3.46630345,10.8799444 3.46675461,10.9047768 C3.47089111,11.1324512 3.56125988,11.253702 3.80885328,11.253702 C3.97391554,11.253702 4.26041324,11.253702 4.66834638,11.253702 L4.66834638,7.45500509 C6.2486858,9.66052345 7.09907912,10.8459569 7.21952633,11.0113053 C7.40019714,11.259328 7.61776298,11.253702 7.91466331,11.253702 C8.11259686,11.253702 8.53582424,11.253702 9.18434545,11.253702 C9.18422512,8.68866331 9.18422512,7.34600022 9.18434545,7.22571273 C9.18446861,7.04528151 9.12686083,6.79609206 8.7521249,6.79609206 C8.50230094,6.79609206 8.22314708,6.79609206 7.91466331,6.79609206 L7.91466331,10.6181355 L5.46996213,7.22571273 C5.20951264,6.93929895 4.94230739,6.79609206 4.66834638,6.79609206 C4.39438537,6.79609206 3.99385478,6.79609206 3.46675461,6.79609206 Z M9.81056128,7.18302589 C9.81265378,7.39067542 9.81688944,8.65061707 9.82326826,10.9628508 C9.87331108,11.1567516 9.97815958,11.253702 10.1378138,11.253702 C10.297468,11.253702 10.608605,11.253702 11.0712248,11.253702 L11.0712248,9.11097796 L14.1358763,9.11097796 L14.1358763,11.253702 L15.0045999,11.253702 C15.281689,11.1933576 15.4202335,11.0652465 15.4202335,10.8693688 C15.4202335,10.673491 15.4202335,9.44915565 15.4202335,7.1963627 C15.3748486,6.92950634 15.236304,6.79607816 15.0045999,6.79607816 C14.7728959,6.79607816 14.4833213,6.79607816 14.1358763,6.79607816 L14.1358763,8.67650501 L11.0712248,8.67650501 L11.0712248,6.79607816 L10.1378138,6.79607816 C9.91755295,6.84639378 9.80846878,6.97537635 9.81056128,7.18302589 Z" id="NHBank_b" fill="#000000"></path>
            <path d="M3.34675461,6.67609206 C3.34630345,9.39038279 3.34630345,10.7599444 3.34675461,10.7847768 C3.35089111,11.0124512 3.44125988,11.133702 3.68885328,11.133702 C3.85391554,11.133702 4.14041324,11.133702 4.54834638,11.133702 L4.54834638,7.33500509 C6.1286858,9.54052345 6.97907912,10.7259569 7.09952633,10.8913053 C7.28019714,11.139328 7.49776298,11.133702 7.79466331,11.133702 C7.99259686,11.133702 8.41582424,11.133702 9.06434545,11.133702 C9.06422512,8.56866331 9.06422512,7.22600022 9.06434545,7.10571273 C9.06446861,6.92528151 9.00686083,6.67609206 8.6321249,6.67609206 C8.38230094,6.67609206 8.10314708,6.67609206 7.79466331,6.67609206 L7.79466331,10.4981355 L5.34996213,7.10571273 C5.08951264,6.81929895 4.82230739,6.67609206 4.54834638,6.67609206 C4.27438537,6.67609206 3.87385478,6.67609206 3.34675461,6.67609206 Z M9.69056128,7.06302589 C9.69265378,7.27067542 9.69688944,8.53061707 9.70326826,10.8428508 C9.75331108,11.0367516 9.85815958,11.133702 10.0178138,11.133702 C10.177468,11.133702 10.488605,11.133702 10.9512248,11.133702 L10.9512248,8.99097796 L14.0158763,8.99097796 L14.0158763,11.133702 L14.8845999,11.133702 C15.161689,11.0733576 15.3002335,10.9452465 15.3002335,10.7493688 C15.3002335,10.553491 15.3002335,9.32915565 15.3002335,7.0763627 C15.2548486,6.80950634 15.116304,6.67607816 14.8845999,6.67607816 C14.6528959,6.67607816 14.3633213,6.67607816 14.0158763,6.67607816 L14.0158763,8.55650501 L10.9512248,8.55650501 L10.9512248,6.67607816 L10.0178138,6.67607816 C9.79755295,6.72639378 9.68846878,6.85537635 9.69056128,7.06302589 Z" id="NHBank" fill="#FFFFFF"></path>
            <path d="M8.71338583,13.2 C8.74173228,13.2 8.76535433,13.2108303 8.78897638,13.232491 C8.81259843,13.2541516 8.81732283,13.2812274 8.81732283,13.3137184 L8.81732283,14.1043321 L9.15748031,14.1043321 C9.17165354,14.1043321 9.18582677,14.1151625 9.19055118,14.1368231 C9.19527559,14.1584838 9.2,14.1855596 9.2,14.2180505 C9.2,14.2559567 9.19527559,14.2776173 9.19055118,14.299278 C9.18582677,14.3209386 9.17637795,14.331769 9.15748031,14.331769 L8.81732283,14.331769 L8.81732283,16.2 L8.36850394,16.2 L8.36850394,13.2 L8.71338583,13.2 Z M5.92721239,13.2 C5.95523169,13.2058708 5.97858111,13.2176125 5.99726065,13.2410959 C6.01594019,13.2645793 6.02527995,13.2939335 6.02527995,13.3291585 L6.02527995,15.090411 L4.95120658,15.090411 L4.95120658,15.9651663 L6.1607066,15.9651663 C6.17471625,15.9651663 6.1887259,15.976908 6.19339579,15.9945205 C6.19806567,16.0180039 6.20273555,16.0414873 6.19806567,16.0825832 C6.19806567,16.1178082 6.19806567,16.1471624 6.19339579,16.1706458 C6.1887259,16.1941292 6.17938613,16.2 6.1607066,16.2 L3.32141699,16.2 L3.2,15.9651663 L4.51223747,15.9651663 L4.51223747,15.090411 L3.643639,15.090411 C3.58760039,15.090411 3.53623166,15.0610568 3.49887259,15.01409 C3.46151352,14.9671233 3.44283398,14.9084149 3.4381641,14.8320939 L3.4381641,13.2 L5.92721239,13.2 Z M6.54488189,13.3191336 C6.57322835,13.3191336 6.59685039,13.3353791 6.61574803,13.3570397 C6.63464567,13.3787004 6.64409449,13.4057762 6.6488189,13.4382671 L6.6488189,14.3263538 L7.47559055,14.3263538 L7.47559055,13.3191336 L7.82047244,13.3191336 C7.8488189,13.3191336 7.87244094,13.3353791 7.89133858,13.3570397 C7.91023622,13.3787004 7.91968504,13.4057762 7.92440945,13.4382671 L7.92440945,15.9292419 L6.40314961,15.9292419 C6.34645669,15.9238267 6.29448819,15.9021661 6.25669291,15.8588448 C6.21889764,15.8155235 6.2,15.7559567 6.2,15.6909747 L6.2,13.3191336 L6.54488189,13.3191336 Z M7.47559055,14.5429603 L6.6488189,14.5429603 L6.6488189,15.5880866 C6.6488189,15.6205776 6.65826772,15.6476534 6.67716535,15.6747292 C6.69606299,15.7018051 6.72440945,15.7072202 6.75275591,15.7072202 L7.47559055,15.7072202 L7.47559055,14.5429603 Z M5.58631084,13.4407045 L3.8818031,13.4407045 L3.8818031,14.7205479 C3.8818031,14.755773 3.89114286,14.7851272 3.9098224,14.8086106 C3.92850194,14.8320939 3.95652124,14.8438356 3.98454055,14.8497065 L5.58631084,14.8497065 L5.58631084,13.4407045 Z M18.1607066,14.6219031 C18.1747162,14.6219031 18.1887259,14.632675 18.1933958,14.654219 C18.1980657,14.675763 18.2027356,14.702693 18.1980657,14.735009 C18.1980657,14.767325 18.1980657,14.7942549 18.1933958,14.8157989 C18.1887259,14.8373429 18.1793861,14.8427289 18.1607066,14.8427289 L17.6376796,14.8427289 C17.7637664,14.9073609 17.8571641,14.9881508 17.9272124,15.0850987 C17.9972606,15.1820467 18.0299498,15.3005386 18.0299498,15.4351885 C18.0299498,15.6075404 17.9739112,15.7529623 17.861834,15.8606822 C17.7497568,15.9737882 17.6003205,16.0599641 17.4041854,16.1138241 C17.2080502,16.167684 16.9885657,16.2 16.7410618,16.2 C16.4935579,16.2 16.2694035,16.17307 16.0732683,16.1138241 C15.8818031,16.0599641 15.7276969,15.9737882 15.6156197,15.8606822 C15.5035425,15.7475763 15.4475039,15.6075404 15.442834,15.4351885 C15.442834,15.3005386 15.4755232,15.1874327 15.5455714,15.0850987 C15.6156197,14.9881508 15.7136873,14.9073609 15.8351043,14.8427289 L15.321417,14.8427289 L15.2,14.6219031 L18.1607066,14.6219031 Z M21.1004739,13.2 C21.12891,13.2 21.1526066,13.2108303 21.171564,13.232491 C21.1905213,13.2541516 21.2,13.2812274 21.2,13.3137184 L21.2,16.2 L20.749763,16.2 L20.749763,14.331769 L20.1194313,14.331769 L19.9962085,14.1097473 L20.7545024,14.1097473 L20.7545024,13.2 L21.1004739,13.2 Z M12.0217822,13.2215391 C12.0514851,13.2215391 12.0762376,13.2323086 12.0960396,13.2538477 C12.1158416,13.2753868 12.1257426,13.3023106 12.1257426,13.3346193 L12.1257426,15.5962229 L9.92277228,15.5962229 L9.92277228,15.8654615 C9.92277228,15.8977701 9.93267327,15.9246939 9.95247525,15.946233 C9.97227723,15.9677721 9.9970297,15.9785417 10.0267327,15.9785417 L12.160396,15.9785417 C12.1752475,15.9785417 12.1851485,15.9893112 12.190099,16.0054655 C12.1950495,16.0270046 12.2,16.0485437 12.2,16.0862371 C12.2,16.1185457 12.1950495,16.1454695 12.190099,16.1670086 C12.1851485,16.1885477 12.1752475,16.1993173 12.160396,16.1993173 L9.67029703,16.1993173 C9.60594059,16.204702 9.55643564,16.1777782 9.51188119,16.1347 C9.47227723,16.0916218 9.45247525,16.0377741 9.45247525,15.9677721 L9.45247525,15.3808321 L11.6554455,15.3808321 L11.6554455,15.0523611 L9.51188119,15.0523611 L9.38316832,14.8315855 L11.660396,14.8315855 L11.660396,13.2215391 L12.0217822,13.2215391 Z M15.093401,13.2054054 C15.1238579,13.2054054 15.1492386,13.2162162 15.1695431,13.2378378 C15.1898477,13.2594595 15.2,13.2864865 15.2,13.3189189 L15.2,16.1945946 L12.6822335,16.1945946 C12.6213198,16.2 12.5654822,16.172973 12.5248731,16.1297297 C12.484264,16.0864865 12.4639594,16.0324324 12.4639594,15.9621622 L12.4639594,15.0972973 L12.8345178,15.0972973 C12.8649746,15.0972973 12.8903553,15.1135135 12.9106599,15.1351351 C12.9309645,15.1567568 12.9411168,15.1837838 12.9461929,15.2162162 L12.9461929,15.8648649 C12.9461929,15.8972973 12.9563452,15.9243243 12.9766497,15.9459459 C12.9969543,15.9675676 13.022335,15.9783784 13.0527919,15.9783784 L14.7228426,15.9783784 L14.7228426,13.2054054 L15.093401,13.2054054 Z M16.7363919,14.8912029 C16.4935579,14.8912029 16.2974228,14.9289048 16.1386467,15.0204668 C15.9845405,15.1066427 15.9051525,15.2466786 15.9004826,15.4351885 C15.9051525,15.6236984 15.9845405,15.7637343 16.1386467,15.8499102 C16.2927529,15.9360862 16.4935579,15.9791741 16.7363919,15.9791741 C16.9792259,15.9791741 17.175361,15.9414722 17.3341371,15.8499102 C17.4882433,15.7637343 17.5676313,15.6236984 17.5723012,15.4351885 C17.5723012,15.2466786 17.4882433,15.1066427 17.3341371,15.0204668 C17.1800309,14.9342908 16.9792259,14.8912029 16.7363919,14.8912029 Z M19.3943128,13.2433213 C19.4227488,13.2433213 19.4464455,13.2541516 19.4654028,13.2758123 C19.4843602,13.2974729 19.4985782,13.3299639 19.4985782,13.3624549 L19.4985782,14.3371841 C19.4938389,14.5700361 19.5317536,14.7866426 19.6075829,14.9870036 C19.6834123,15.1819495 19.7876777,15.3444043 19.9156398,15.4851986 C20.0436019,15.6259928 20.185782,15.734296 20.3421801,15.8101083 L20.1905213,15.967148 C20.0625592,15.9184116 19.9393365,15.8480144 19.8208531,15.7613718 C19.6976303,15.6693141 19.5886256,15.566426 19.4938389,15.4472924 C19.3990521,15.3281588 19.3232227,15.2036101 19.27109,15.068231 C19.2189573,15.2036101 19.143128,15.3281588 19.0483412,15.4472924 C18.9535545,15.566426 18.8445498,15.6693141 18.721327,15.7613718 C18.6028436,15.8534296 18.4796209,15.9184116 18.3516588,15.967148 L18.2,15.8101083 C18.3563981,15.734296 18.4985782,15.6259928 18.6265403,15.4851986 C18.7545024,15.3444043 18.8587678,15.1819495 18.9345972,14.9870036 C19.0104265,14.7920578 19.0483412,14.5754513 19.0483412,14.3371841 L19.0483412,13.2433213 L19.3943128,13.2433213 Z M13.2659898,13.2 C13.4538071,13.2 13.6263959,13.227027 13.7888325,13.2864865 C13.951269,13.3405405 14.0832487,13.4324324 14.1796954,13.5513514 C14.2761421,13.6702703 14.3269036,13.8216216 14.3319797,14.0054054 C14.3269036,14.2 14.2761421,14.3513514 14.1746193,14.4702703 C14.0781726,14.5891892 13.9461929,14.6756757 13.7837563,14.7351351 C13.6213198,14.7945946 13.448731,14.8216216 13.2609137,14.8216216 C13.0730964,14.8216216 12.8954315,14.7945946 12.7380711,14.7351351 C12.5807107,14.6756757 12.448731,14.5891892 12.3522843,14.4648649 C12.2558376,14.3459459 12.2050761,14.1945946 12.2,14.0108108 C12.2,13.827027 12.2507614,13.6756757 12.3522843,13.5567568 C12.448731,13.4378378 12.5807107,13.3459459 12.7431472,13.2864865 C12.9055838,13.227027 13.0781726,13.2 13.2659898,13.2 Z M13.2659898,13.4324324 C13.1137056,13.4324324 12.9817259,13.4810811 12.8700508,13.572973 C12.7634518,13.6648649 12.7025381,13.8162162 12.6974619,14.0162162 C12.7025381,14.2162162 12.7583756,14.3621622 12.8700508,14.4594595 C12.9766497,14.5567568 13.1086294,14.6 13.2659898,14.6 C13.4182741,14.6 13.5502538,14.5567568 13.6568528,14.4594595 C13.7634518,14.3621622 13.8243655,14.2162162 13.8294416,14.0162162 C13.8192893,13.8108108 13.7634518,13.6648649 13.6568528,13.572973 C13.5502538,13.4810811 13.4182741,13.4324324 13.2659898,13.4324324 Z M10.239604,13.2 C10.4227723,13.2 10.5910891,13.2269239 10.749505,13.2753868 C10.9079208,13.3238497 11.0366337,13.3992365 11.1306931,13.5015472 C11.2247525,13.6038578 11.2742574,13.7330923 11.2792079,13.8892506 C11.2693069,14.045409 11.219802,14.1746435 11.1257426,14.2769541 C11.0316832,14.3792648 10.9029703,14.4492668 10.7445545,14.5031145 C10.5861386,14.5515774 10.4178218,14.5785013 10.2346535,14.5785013 C10.0514851,14.5785013 9.87821782,14.5515774 9.72475248,14.5031145 C9.57128713,14.4492668 9.44257426,14.37388 9.34851485,14.2769541 C9.25445545,14.1746435 9.2049505,14.045409 9.2,13.8892506 C9.2,13.7330923 9.24950495,13.6038578 9.34851485,13.5015472 C9.44257426,13.3992365 9.57128713,13.3238497 9.72970297,13.2753868 C9.88811881,13.2269239 10.0564356,13.2 10.239604,13.2 Z M18.0206101,13.2 C18.0346197,13.2 18.0486294,13.210772 18.0532993,13.232316 C18.0579691,13.25386 18.062639,13.2754039 18.0579691,13.3131059 C18.0579691,13.3454219 18.0579691,13.3723519 18.0532993,13.3938959 C18.0486294,13.4154399 18.0392896,13.4262118 18.0206101,13.4262118 L17.0025753,13.4262118 C17.0119151,13.5608618 17.0726236,13.6901257 17.1800309,13.8086176 C17.2921081,13.9217235 17.4415444,14.0078995 17.619,14.0779174 C17.8011255,14.1425494 17.9925908,14.1748654 18.1980657,14.1748654 L18.0859884,14.3795332 C17.7357471,14.3741472 17.4415444,14.3202873 17.2127201,14.2233393 C16.9792259,14.1210054 16.8204498,13.9971275 16.731722,13.8409336 C16.6429942,13.9971275 16.4842182,14.1263914 16.2507239,14.2233393 C16.0172297,14.3202873 15.7276969,14.3741472 15.3774556,14.3795332 L15.2653784,14.1748654 C15.4708533,14.1748654 15.6669884,14.1425494 15.844444,14.0779174 C16.0265695,14.0132855 16.1713359,13.9217235 16.2834131,13.8086176 C16.3954904,13.6955117 16.451529,13.5662478 16.4561989,13.4208259 L15.4521737,13.4208259 L15.3307568,13.2 L18.0206101,13.2 Z M10.2346535,13.4261604 C10.0861386,13.4261604 9.95742574,13.4638538 9.84851485,13.5392406 C9.74455446,13.6146273 9.68514851,13.7330923 9.68019802,13.8946354 C9.68514851,14.0507938 9.73960396,14.1692587 9.84851485,14.2446455 C9.95247525,14.3200323 10.0811881,14.3577257 10.2346535,14.3577257 C10.3831683,14.3577257 10.5118812,14.3200323 10.6158416,14.2446455 C10.719802,14.1692587 10.7792079,14.0507938 10.7841584,13.8946354 C10.7792079,13.7277075 10.719802,13.6092426 10.6158416,13.5392406 C10.5118812,13.4638538 10.3831683,13.4261604 10.2346535,13.4261604 Z" id="Combined-Shape" fill="#000000" fill-rule="nonzero"></path>
            <path d="M8.51338583,13 C8.54173228,13 8.56535433,13.0108303 8.58897638,13.032491 C8.61259843,13.0541516 8.61732283,13.0812274 8.61732283,13.1137184 L8.61732283,13.9043321 L8.95748031,13.9043321 C8.97165354,13.9043321 8.98582677,13.9151625 8.99055118,13.9368231 C8.99527559,13.9584838 9,13.9855596 9,14.0180505 C9,14.0559567 8.99527559,14.0776173 8.99055118,14.099278 C8.98582677,14.1209386 8.97637795,14.131769 8.95748031,14.131769 L8.61732283,14.131769 L8.61732283,16 L8.16850394,16 L8.16850394,13 L8.51338583,13 Z M5.72721239,13 C5.75523169,13.0058708 5.77858111,13.0176125 5.79726065,13.0410959 C5.81594019,13.0645793 5.82527995,13.0939335 5.82527995,13.1291585 L5.82527995,14.890411 L4.75120658,14.890411 L4.75120658,15.7651663 L5.9607066,15.7651663 C5.97471625,15.7651663 5.9887259,15.776908 5.99339579,15.7945205 C5.99806567,15.8180039 6.00273555,15.8414873 5.99806567,15.8825832 C5.99806567,15.9178082 5.99806567,15.9471624 5.99339579,15.9706458 C5.9887259,15.9941292 5.97938613,16 5.9607066,16 L3.12141699,16 L3,15.7651663 L4.31223747,15.7651663 L4.31223747,14.890411 L3.443639,14.890411 C3.38760039,14.890411 3.33623166,14.8610568 3.29887259,14.81409 C3.26151352,14.7671233 3.24283398,14.7084149 3.2381641,14.6320939 L3.2381641,13 L5.72721239,13 Z M6.34488189,13.1191336 C6.37322835,13.1191336 6.39685039,13.1353791 6.41574803,13.1570397 C6.43464567,13.1787004 6.44409449,13.2057762 6.4488189,13.2382671 L6.4488189,14.1263538 L7.27559055,14.1263538 L7.27559055,13.1191336 L7.62047244,13.1191336 C7.6488189,13.1191336 7.67244094,13.1353791 7.69133858,13.1570397 C7.71023622,13.1787004 7.71968504,13.2057762 7.72440945,13.2382671 L7.72440945,15.7292419 L6.20314961,15.7292419 C6.14645669,15.7238267 6.09448819,15.7021661 6.05669291,15.6588448 C6.01889764,15.6155235 6,15.5559567 6,15.4909747 L6,13.1191336 L6.34488189,13.1191336 Z M7.27559055,14.3429603 L6.4488189,14.3429603 L6.4488189,15.3880866 C6.4488189,15.4205776 6.45826772,15.4476534 6.47716535,15.4747292 C6.49606299,15.5018051 6.52440945,15.5072202 6.55275591,15.5072202 L7.27559055,15.5072202 L7.27559055,14.3429603 Z M5.38631084,13.2407045 L3.6818031,13.2407045 L3.6818031,14.5205479 C3.6818031,14.555773 3.69114286,14.5851272 3.7098224,14.6086106 C3.72850194,14.6320939 3.75652124,14.6438356 3.78454055,14.6497065 L5.38631084,14.6497065 L5.38631084,13.2407045 Z M17.9607066,14.4219031 C17.9747162,14.4219031 17.9887259,14.432675 17.9933958,14.454219 C17.9980657,14.475763 18.0027356,14.502693 17.9980657,14.535009 C17.9980657,14.567325 17.9980657,14.5942549 17.9933958,14.6157989 C17.9887259,14.6373429 17.9793861,14.6427289 17.9607066,14.6427289 L17.4376796,14.6427289 C17.5637664,14.7073609 17.6571641,14.7881508 17.7272124,14.8850987 C17.7972606,14.9820467 17.8299498,15.1005386 17.8299498,15.2351885 C17.8299498,15.4075404 17.7739112,15.5529623 17.661834,15.6606822 C17.5497568,15.7737882 17.4003205,15.8599641 17.2041854,15.9138241 C17.0080502,15.967684 16.7885657,16 16.5410618,16 C16.2935579,16 16.0694035,15.97307 15.8732683,15.9138241 C15.6818031,15.8599641 15.5276969,15.7737882 15.4156197,15.6606822 C15.3035425,15.5475763 15.2475039,15.4075404 15.242834,15.2351885 C15.242834,15.1005386 15.2755232,14.9874327 15.3455714,14.8850987 C15.4156197,14.7881508 15.5136873,14.7073609 15.6351043,14.6427289 L15.121417,14.6427289 L15,14.4219031 L17.9607066,14.4219031 Z M20.9004739,13 C20.92891,13 20.9526066,13.0108303 20.971564,13.032491 C20.9905213,13.0541516 21,13.0812274 21,13.1137184 L21,16 L20.549763,16 L20.549763,14.131769 L19.9194313,14.131769 L19.7962085,13.9097473 L20.5545024,13.9097473 L20.5545024,13 L20.9004739,13 Z M11.8217822,13.0215391 C11.8514851,13.0215391 11.8762376,13.0323086 11.8960396,13.0538477 C11.9158416,13.0753868 11.9257426,13.1023106 11.9257426,13.1346193 L11.9257426,15.3962229 L9.72277228,15.3962229 L9.72277228,15.6654615 C9.72277228,15.6977701 9.73267327,15.7246939 9.75247525,15.746233 C9.77227723,15.7677721 9.7970297,15.7785417 9.82673267,15.7785417 L11.960396,15.7785417 C11.9752475,15.7785417 11.9851485,15.7893112 11.990099,15.8054655 C11.9950495,15.8270046 12,15.8485437 12,15.8862371 C12,15.9185457 11.9950495,15.9454695 11.990099,15.9670086 C11.9851485,15.9885477 11.9752475,15.9993173 11.960396,15.9993173 L9.47029703,15.9993173 C9.40594059,16.004702 9.35643564,15.9777782 9.31188119,15.9347 C9.27227723,15.8916218 9.25247525,15.8377741 9.25247525,15.7677721 L9.25247525,15.1808321 L11.4554455,15.1808321 L11.4554455,14.8523611 L9.31188119,14.8523611 L9.18316832,14.6315855 L11.460396,14.6315855 L11.460396,13.0215391 L11.8217822,13.0215391 Z M14.893401,13.0054054 C14.9238579,13.0054054 14.9492386,13.0162162 14.9695431,13.0378378 C14.9898477,13.0594595 15,13.0864865 15,13.1189189 L15,15.9945946 L12.4822335,15.9945946 C12.4213198,16 12.3654822,15.972973 12.3248731,15.9297297 C12.284264,15.8864865 12.2639594,15.8324324 12.2639594,15.7621622 L12.2639594,14.8972973 L12.6345178,14.8972973 C12.6649746,14.8972973 12.6903553,14.9135135 12.7106599,14.9351351 C12.7309645,14.9567568 12.7411168,14.9837838 12.7461929,15.0162162 L12.7461929,15.6648649 C12.7461929,15.6972973 12.7563452,15.7243243 12.7766497,15.7459459 C12.7969543,15.7675676 12.822335,15.7783784 12.8527919,15.7783784 L14.5228426,15.7783784 L14.5228426,13.0054054 L14.893401,13.0054054 Z M16.5363919,14.6912029 C16.2935579,14.6912029 16.0974228,14.7289048 15.9386467,14.8204668 C15.7845405,14.9066427 15.7051525,15.0466786 15.7004826,15.2351885 C15.7051525,15.4236984 15.7845405,15.5637343 15.9386467,15.6499102 C16.0927529,15.7360862 16.2935579,15.7791741 16.5363919,15.7791741 C16.7792259,15.7791741 16.975361,15.7414722 17.1341371,15.6499102 C17.2882433,15.5637343 17.3676313,15.4236984 17.3723012,15.2351885 C17.3723012,15.0466786 17.2882433,14.9066427 17.1341371,14.8204668 C16.9800309,14.7342908 16.7792259,14.6912029 16.5363919,14.6912029 Z M19.1943128,13.0433213 C19.2227488,13.0433213 19.2464455,13.0541516 19.2654028,13.0758123 C19.2843602,13.0974729 19.2985782,13.1299639 19.2985782,13.1624549 L19.2985782,14.1371841 C19.2938389,14.3700361 19.3317536,14.5866426 19.4075829,14.7870036 C19.4834123,14.9819495 19.5876777,15.1444043 19.7156398,15.2851986 C19.8436019,15.4259928 19.985782,15.534296 20.1421801,15.6101083 L19.9905213,15.767148 C19.8625592,15.7184116 19.7393365,15.6480144 19.6208531,15.5613718 C19.4976303,15.4693141 19.3886256,15.366426 19.2938389,15.2472924 C19.1990521,15.1281588 19.1232227,15.0036101 19.07109,14.868231 C19.0189573,15.0036101 18.943128,15.1281588 18.8483412,15.2472924 C18.7535545,15.366426 18.6445498,15.4693141 18.521327,15.5613718 C18.4028436,15.6534296 18.2796209,15.7184116 18.1516588,15.767148 L18,15.6101083 C18.1563981,15.534296 18.2985782,15.4259928 18.4265403,15.2851986 C18.5545024,15.1444043 18.6587678,14.9819495 18.7345972,14.7870036 C18.8104265,14.5920578 18.8483412,14.3754513 18.8483412,14.1371841 L18.8483412,13.0433213 L19.1943128,13.0433213 Z M13.0659898,13 C13.2538071,13 13.4263959,13.027027 13.5888325,13.0864865 C13.751269,13.1405405 13.8832487,13.2324324 13.9796954,13.3513514 C14.0761421,13.4702703 14.1269036,13.6216216 14.1319797,13.8054054 C14.1269036,14 14.0761421,14.1513514 13.9746193,14.2702703 C13.8781726,14.3891892 13.7461929,14.4756757 13.5837563,14.5351351 C13.4213198,14.5945946 13.248731,14.6216216 13.0609137,14.6216216 C12.8730964,14.6216216 12.6954315,14.5945946 12.5380711,14.5351351 C12.3807107,14.4756757 12.248731,14.3891892 12.1522843,14.2648649 C12.0558376,14.1459459 12.0050761,13.9945946 12,13.8108108 C12,13.627027 12.0507614,13.4756757 12.1522843,13.3567568 C12.248731,13.2378378 12.3807107,13.1459459 12.5431472,13.0864865 C12.7055838,13.027027 12.8781726,13 13.0659898,13 Z M13.0659898,13.2324324 C12.9137056,13.2324324 12.7817259,13.2810811 12.6700508,13.372973 C12.5634518,13.4648649 12.5025381,13.6162162 12.4974619,13.8162162 C12.5025381,14.0162162 12.5583756,14.1621622 12.6700508,14.2594595 C12.7766497,14.3567568 12.9086294,14.4 13.0659898,14.4 C13.2182741,14.4 13.3502538,14.3567568 13.4568528,14.2594595 C13.5634518,14.1621622 13.6243655,14.0162162 13.6294416,13.8162162 C13.6192893,13.6108108 13.5634518,13.4648649 13.4568528,13.372973 C13.3502538,13.2810811 13.2182741,13.2324324 13.0659898,13.2324324 Z M10.039604,13 C10.2227723,13 10.3910891,13.0269239 10.549505,13.0753868 C10.7079208,13.1238497 10.8366337,13.1992365 10.9306931,13.3015472 C11.0247525,13.4038578 11.0742574,13.5330923 11.0792079,13.6892506 C11.0693069,13.845409 11.019802,13.9746435 10.9257426,14.0769541 C10.8316832,14.1792648 10.7029703,14.2492668 10.5445545,14.3031145 C10.3861386,14.3515774 10.2178218,14.3785013 10.0346535,14.3785013 C9.85148515,14.3785013 9.67821782,14.3515774 9.52475248,14.3031145 C9.37128713,14.2492668 9.24257426,14.17388 9.14851485,14.0769541 C9.05445545,13.9746435 9.0049505,13.845409 9,13.6892506 C9,13.5330923 9.04950495,13.4038578 9.14851485,13.3015472 C9.24257426,13.1992365 9.37128713,13.1238497 9.52970297,13.0753868 C9.68811881,13.0269239 9.85643564,13 10.039604,13 Z M17.8206101,13 C17.8346197,13 17.8486294,13.010772 17.8532993,13.032316 C17.8579691,13.05386 17.862639,13.0754039 17.8579691,13.1131059 C17.8579691,13.1454219 17.8579691,13.1723519 17.8532993,13.1938959 C17.8486294,13.2154399 17.8392896,13.2262118 17.8206101,13.2262118 L16.8025753,13.2262118 C16.8119151,13.3608618 16.8726236,13.4901257 16.9800309,13.6086176 C17.0921081,13.7217235 17.2415444,13.8078995 17.419,13.8779174 C17.6011255,13.9425494 17.7925908,13.9748654 17.9980657,13.9748654 L17.8859884,14.1795332 C17.5357471,14.1741472 17.2415444,14.1202873 17.0127201,14.0233393 C16.7792259,13.9210054 16.6204498,13.7971275 16.531722,13.6409336 C16.4429942,13.7971275 16.2842182,13.9263914 16.0507239,14.0233393 C15.8172297,14.1202873 15.5276969,14.1741472 15.1774556,14.1795332 L15.0653784,13.9748654 C15.2708533,13.9748654 15.4669884,13.9425494 15.644444,13.8779174 C15.8265695,13.8132855 15.9713359,13.7217235 16.0834131,13.6086176 C16.1954904,13.4955117 16.251529,13.3662478 16.2561989,13.2208259 L15.2521737,13.2208259 L15.1307568,13 L17.8206101,13 Z M10.0346535,13.2261604 C9.88613861,13.2261604 9.75742574,13.2638538 9.64851485,13.3392406 C9.54455446,13.4146273 9.48514851,13.5330923 9.48019802,13.6946354 C9.48514851,13.8507938 9.53960396,13.9692587 9.64851485,14.0446455 C9.75247525,14.1200323 9.88118812,14.1577257 10.0346535,14.1577257 C10.1831683,14.1577257 10.3118812,14.1200323 10.4158416,14.0446455 C10.519802,13.9692587 10.5792079,13.8507938 10.5841584,13.6946354 C10.5792079,13.5277075 10.519802,13.4092426 10.4158416,13.3392406 C10.3118812,13.2638538 10.1831683,13.2261604 10.0346535,13.2261604 Z" id="Combined-Shape" fill="#FFFFFF" fill-rule="nonzero"></path>
        </g>
    </g>
</svg>