<?xml version="1.0" encoding="UTF-8"?>
<svg width="48px" height="24px" viewBox="0 0 48 24" version="1.1" xmlns="http://www.w3.org/2000/svg" xmlns:xlink="http://www.w3.org/1999/xlink">
    <title>logo/nhbank</title>
    <defs>
        <linearGradient x1="15.2052391%" y1="93.6161835%" x2="57.4411783%" y2="0%" id="linearGradient-1">
            <stop stop-color="#0133BF" offset="0%"></stop>
            <stop stop-color="#0A6FD5" offset="100%"></stop>
        </linearGradient>
    </defs>
    <g id="logo/nhbank" stroke="none" stroke-width="1" fill="none" fill-rule="evenodd">
        <rect id="Rectangle" fill-opacity="0" fill="#FFFFFF" x="0" y="0" width="48" height="24"></rect>
        <g id="Group" transform="translate(12.000000, 0.000000)">
            <rect id="Rectangle" fill="url(#linearGradient-1)" x="0" y="0" width="24" height="24"></rect>
            <path d="M24,24 L6.09050276,24 C6.64812029,21.8107564 7.99895471,19.8610013 10.143006,18.1507348 C13.359083,15.5853349 16.8048308,11.9646813 17.5660648,9.78674409 C18.0735542,8.33478598 18.6774529,5.07253795 19.3777608,0 L24,0 L24,24 Z" id="Path-18" fill="#0042FF"></path>
            <path d="M12.8568525,15.2993492 C13.4743839,15.2993492 13.9278682,15.9752102 13.9342728,16.3410489 C13.9353021,16.3998444 13.9360005,16.4860414 13.9364479,16.5903643 L13.9366745,17.4061559 C13.9363314,17.5921771 13.9358412,17.7756105 13.9353931,17.9344699 L13.9346089,18.2129088 L13.9342728,18.3867301 L13.9342728,18.3867301 C13.9342728,18.5313748 13.8614637,18.6278632 13.7158456,18.6761953 L13.6369692,18.6963483 L13.0357847,18.6963483 L13.0365059,18.2135193 L13.0368304,17.9921396 L13.0368304,17.9921396 L13.0374074,17.5894496 L13.0376598,17.4081394 L13.0376598,17.4081394 L13.038429,16.8164635 L13.0388618,16.3296445 C13.0388618,16.0339621 12.8356816,15.7790622 12.5836668,15.7315858 L12.498065,15.7236713 L12.3020738,15.723136 C12.1512121,15.7221364 11.9599486,15.7198517 11.7282832,15.7162816 L11.5469588,15.7133631 L11.5469588,18.6963483 C11.4895136,18.6972308 11.4343213,18.6978926 11.3813819,18.6983339 L11.0907805,18.6983339 L10.9657561,18.6963483 C10.8305954,18.6933226 10.7423209,18.6170655 10.7009326,18.467577 L10.6841456,18.3867301 L10.6841456,15.2993492 L12.8568525,15.2993492 Z M15.0979097,13.9939459 L15.0979097,16.6099527 C15.7711525,15.9633928 16.1623433,15.586452 16.2714821,15.4791304 C16.3533361,15.3986392 16.4415561,15.3448074 16.536142,15.3176351 L16.6328498,15.2993492 L17.4375469,15.2993492 L15.874561,16.8641821 L17.5998444,18.6989958 L16.6688747,18.6985983 C16.607206,18.6872081 16.5169898,18.6181861 16.3982262,18.4915323 C16.2658895,18.3504038 15.8827065,17.9312298 15.248677,17.2340102 L15.0979097,17.0681777 L15.0979097,18.6989958 L14.5234368,18.6989958 C14.3850352,18.6989958 14.2930491,18.6178224 14.2474786,18.4554756 L14.2285613,18.3675378 L14.2285613,14.2665138 C14.2285613,14.1275657 14.3008811,14.0409646 14.4455208,14.0067106 L14.5238672,13.9939459 L15.0979097,13.9939459 Z M5.64224066,14.1338604 C6.40418449,14.2564171 6.79054225,14.5935765 6.80131397,15.1453387 C6.81208568,15.6971009 6.58099805,16.098561 6.10805107,16.3497191 C6.6642278,16.5506929 6.94231617,16.9501867 6.94231617,17.5482007 C6.94231617,18.106347 6.55174329,18.4769381 5.77059753,18.659974 L5.59723099,18.6963252 L3.7055609,18.6963252 C3.53960014,18.6963252 3.4531829,18.5886899 3.44630917,18.3734192 L3.44630917,14.4345776 C3.44764049,14.2758682 3.52316916,14.1795504 3.6728952,14.1456242 L3.75394133,14.1338604 L5.64224066,14.1338604 Z M8.80685813,15.2280637 C9.62595988,15.2280637 10.3440407,15.6605013 10.3440407,16.3271038 L10.3440407,18.2674452 C10.3411883,18.5533806 10.2371905,18.6963483 10.0320472,18.6963483 L8.0908487,18.6963483 C7.47641485,18.5694259 7.16919793,18.2080293 7.16919793,17.6121584 C7.16919793,17.0162875 7.60833635,16.6931223 8.48661318,16.6426628 L9.46897839,16.6426628 C9.47350594,16.5528588 9.47400397,16.4218768 9.47047248,16.2497167 C9.46517525,15.9914765 9.26692479,15.7100663 8.90542254,15.6622554 C8.66442104,15.6303815 8.38916592,15.6690841 8.07965719,15.7783633 C7.87652951,15.8803165 7.71416067,15.8916658 7.59255067,15.812411 C7.50789852,15.7106931 7.46938678,15.6154486 7.47701545,15.5266774 C7.8175094,15.3276016 8.26079029,15.2280637 8.80685813,15.2280637 Z M5.22382185,16.5396966 L4.30659859,16.5396966 L4.30659859,18.2674452 L5.35215572,18.2674452 C5.81145632,18.204209 6.04110662,17.927812 6.04110662,17.4382541 C6.04110662,16.9486963 5.76867837,16.6491771 5.22382185,16.5396966 Z M9.46574383,16.9991725 L8.59046725,16.9991725 C8.22680648,17.1252618 8.04497609,17.3366406 8.04497609,17.6333088 C8.04497609,17.9299771 8.22680648,18.1413559 8.59046725,18.2674452 L8.59046725,18.2674452 L9.46574383,18.2674452 L9.46574383,16.9991725 Z M5.19373022,14.5299753 L4.30659859,14.5299753 L4.30659859,16.1074452 L5.3178538,16.1074452 C5.72693947,16.0413021 5.9314823,15.7783904 5.9314823,15.3187102 C5.9314823,14.85903 5.68556494,14.5961183 5.19373022,14.5299753 Z M4.66834638,7.79609206 C4.9031701,7.79609206 5.13303041,7.90130529 5.3579273,8.11173174 L5.46996213,8.22571273 L7.91466331,11.6181355 L7.91466331,7.79609206 L8.7521249,7.79609206 C9.08938724,7.79609206 9.16977578,7.99793551 9.18239107,8.16983857 L9.18434545,8.22571273 L9.18434545,12.253702 L7.8069616,12.2534593 C7.56394801,12.2511453 7.37761329,12.2283252 7.21952633,12.0113053 C7.1037117,11.8523164 6.31302087,10.7502016 4.84745383,8.70496097 L4.66834638,8.45500509 L4.66834638,12.253702 L3.80885328,12.253702 C3.59220906,12.253702 3.49593994,12.1608693 3.4724866,11.9851371 L3.46675461,11.9047768 L3.46675461,7.79609206 L4.66834638,7.79609206 Z M11.0712248,7.79607816 L11.0712248,9.67650501 L14.1358763,9.67650501 L14.1358763,7.79607816 L15.0045999,7.79607816 C15.207341,7.79607816 15.3387568,7.89823411 15.3988473,8.10254601 L15.4202335,8.1963627 L15.4202335,11.8693688 C15.4202335,12.0407618 15.3141604,12.160271 15.1020141,12.2278963 L15.0045999,12.253702 L14.1358763,12.253702 L14.1358763,10.110978 L11.0712248,10.110978 L11.0712248,12.253702 L10.1378138,12.253702 C9.97815958,12.253702 9.87331108,12.1567516 9.82326826,11.9628508 C9.81966284,10.6559361 9.81674209,9.68519786 9.81450603,9.05063612 L9.81352261,8.78163199 C9.81274362,8.57735399 9.8120659,8.42280623 9.81148947,8.31798873 L9.81056128,8.18302589 C9.80876771,8.00504057 9.88865496,7.88485139 10.050223,7.82245834 L10.1378138,7.79607816 L11.0712248,7.79607816 Z" id="NHBank_b" fill="#000000"></path>
            <path d="M12.7368525,15.1793492 C13.3543839,15.1793492 13.8078682,15.8552102 13.8142728,16.2210489 C13.8153021,16.2798444 13.8160005,16.3660414 13.8164479,16.4703643 L13.8166745,17.2861559 C13.8163314,17.4721771 13.8158412,17.6556105 13.8153931,17.8144699 L13.8146089,18.0929088 L13.8142728,18.2667301 L13.8142728,18.2667301 C13.8142728,18.4113748 13.7414637,18.5078632 13.5958456,18.5561953 L13.5169692,18.5763483 L12.9157847,18.5763483 L12.9165059,18.0935193 L12.9168304,17.8721396 L12.9168304,17.8721396 L12.9174074,17.4694496 L12.9176598,17.2881394 L12.9176598,17.2881394 L12.918429,16.6964635 L12.9188618,16.2096445 C12.9188618,15.9139621 12.7156816,15.6590622 12.4636668,15.6115858 L12.378065,15.6036713 L12.1820738,15.603136 C12.0312121,15.6021364 11.8399486,15.5998517 11.6082832,15.5962816 L11.4269588,15.5933631 L11.4269588,18.5763483 C11.3695136,18.5772308 11.3143213,18.5778926 11.2613819,18.5783339 L10.9707805,18.5783339 L10.8457561,18.5763483 C10.7105954,18.5733226 10.6223209,18.4970655 10.5809326,18.347577 L10.5641456,18.2667301 L10.5641456,15.1793492 L12.7368525,15.1793492 Z M14.9779097,13.8739459 L14.9779097,16.4899527 C15.6511525,15.8433928 16.0423433,15.466452 16.1514821,15.3591304 C16.2333361,15.2786392 16.3215561,15.2248074 16.416142,15.1976351 L16.5128498,15.1793492 L17.3175469,15.1793492 L15.754561,16.7441821 L17.4798444,18.5789958 L16.5488747,18.5785983 C16.487206,18.5672081 16.3969898,18.4981861 16.2782262,18.3715323 C16.1458895,18.2304038 15.7627065,17.8112298 15.128677,17.1140102 L14.9779097,16.9481777 L14.9779097,18.5789958 L14.4034368,18.5789958 C14.2650352,18.5789958 14.1730491,18.4978224 14.1274786,18.3354756 L14.1085613,18.2475378 L14.1085613,14.1465138 C14.1085613,14.0075657 14.1808811,13.9209646 14.3255208,13.8867106 L14.4038672,13.8739459 L14.9779097,13.8739459 Z M5.52224066,14.0138604 C6.28418449,14.1364171 6.67054225,14.4735765 6.68131397,15.0253387 C6.69208568,15.5771009 6.46099805,15.978561 5.98805107,16.2297191 C6.5442278,16.4306929 6.82231617,16.8301867 6.82231617,17.4282007 C6.82231617,17.986347 6.43174329,18.3569381 5.65059753,18.539974 L5.47723099,18.5763252 L3.5855609,18.5763252 C3.41960014,18.5763252 3.3331829,18.4686899 3.32630917,18.2534192 L3.32630917,14.3145776 C3.32764049,14.1558682 3.40316916,14.0595504 3.5528952,14.0256242 L3.63394133,14.0138604 L5.52224066,14.0138604 Z M8.68685813,15.1080637 C9.50595988,15.1080637 10.2240407,15.5405013 10.2240407,16.2071038 L10.2240407,18.1474452 C10.2211883,18.4333806 10.1171905,18.5763483 9.91204717,18.5763483 L7.9708487,18.5763483 C7.35641485,18.4494259 7.04919793,18.0880293 7.04919793,17.4921584 C7.04919793,16.8962875 7.48833635,16.5731223 8.36661318,16.5226628 L9.34897839,16.5226628 C9.35350594,16.4328588 9.35400397,16.3018768 9.35047248,16.1297167 C9.34517525,15.8714765 9.14692479,15.5900663 8.78542254,15.5422554 C8.54442104,15.5103815 8.26916592,15.5490841 7.95965719,15.6583633 C7.75652951,15.7603165 7.59416067,15.7716658 7.47255067,15.692411 C7.38789852,15.5906931 7.34938678,15.4954486 7.35701545,15.4066774 C7.6975094,15.2076016 8.14079029,15.1080637 8.68685813,15.1080637 Z M5.10382185,16.4196966 L4.18659859,16.4196966 L4.18659859,18.1474452 L5.23215572,18.1474452 C5.69145632,18.084209 5.92110662,17.807812 5.92110662,17.3182541 C5.92110662,16.8286963 5.64867837,16.5291771 5.10382185,16.4196966 Z M9.34574383,16.8791725 L8.47046725,16.8791725 C8.10680648,17.0052618 7.92497609,17.2166406 7.92497609,17.5133088 C7.92497609,17.8099771 8.10680648,18.0213559 8.47046725,18.1474452 L8.47046725,18.1474452 L9.34574383,18.1474452 L9.34574383,16.8791725 Z M5.07373022,14.4099753 L4.18659859,14.4099753 L4.18659859,15.9874452 L5.1978538,15.9874452 C5.60693947,15.9213021 5.8114823,15.6583904 5.8114823,15.1987102 C5.8114823,14.73903 5.56556494,14.4761183 5.07373022,14.4099753 Z M4.54834638,7.67609206 C4.7831701,7.67609206 5.01303041,7.78130529 5.2379273,7.99173174 L5.34996213,8.10571273 L7.79466331,11.4981355 L7.79466331,7.67609206 L8.6321249,7.67609206 C8.96938724,7.67609206 9.04977578,7.87793551 9.06239107,8.04983857 L9.06434545,8.10571273 L9.06434545,12.133702 L7.6869616,12.1334593 C7.44394801,12.1311453 7.25761329,12.1083252 7.09952633,11.8913053 C6.9837117,11.7323164 6.19302087,10.6302016 4.72745383,8.58496097 L4.54834638,8.33500509 L4.54834638,12.133702 L3.68885328,12.133702 C3.47220906,12.133702 3.37593994,12.0408693 3.3524866,11.8651371 L3.34675461,11.7847768 L3.34675461,7.67609206 L4.54834638,7.67609206 Z M10.9512248,7.67607816 L10.9512248,9.55650501 L14.0158763,9.55650501 L14.0158763,7.67607816 L14.8845999,7.67607816 C15.087341,7.67607816 15.2187568,7.77823411 15.2788473,7.98254601 L15.3002335,8.0763627 L15.3002335,11.7493688 C15.3002335,11.9207618 15.1941604,12.040271 14.9820141,12.1078963 L14.8845999,12.133702 L14.0158763,12.133702 L14.0158763,9.99097796 L10.9512248,9.99097796 L10.9512248,12.133702 L10.0178138,12.133702 C9.85815958,12.133702 9.75331108,12.0367516 9.70326826,11.8428508 C9.69966284,10.5359361 9.69674209,9.56519786 9.69450603,8.93063612 L9.69352261,8.66163199 C9.69274362,8.45735399 9.6920659,8.30280623 9.69148947,8.19798873 L9.69056128,8.06302589 C9.68876771,7.88504057 9.76865496,7.76485139 9.93022302,7.70245834 L10.0178138,7.67607816 L10.9512248,7.67607816 Z" id="NHBank" fill="#FFFFFF"></path>
            <polygon id="Path-19" fill="#001C8A" points="9.702832 0 24 14.2826116 24 0"></polygon>
            <path d="M15.7715516,5.19293966 C16.0047238,5.26794858 16.12131,5.42622353 16.12131,5.66776451 L16.12131,6.2061181 C16.1298479,6.30870603 16.0963577,6.36 16.0208393,6.36 L15.7571864,6.36 L15.7571864,6.36 L15.7571864,5.53929654 C15.6991303,5.42928655 15.6288922,5.37428155 15.5464722,5.37428155 L15.1190151,5.37428155 L15.1190151,5.37428155 L15.1190151,6.36 L14.8030672,6.36 L14.7296405,6.25204977 L14.7296405,5.19293966 L15.7715516,5.19293966 Z M22.3302221,4.73142071 C22.5934469,4.73534359 22.7843085,4.78659727 22.9028067,4.88518175 L22.7951394,5.00102602 C22.6004636,4.91275236 22.4332774,4.880742 22.2935807,4.90499495 C22.0840357,4.94137437 22.0263442,5.05342829 22.0291364,5.15152682 C22.0319287,5.24962535 22.2004901,5.34828051 22.3748527,5.40688517 C22.5492152,5.46548983 22.9839989,5.55421851 22.9802151,5.86250925 C22.9764313,6.1708 22.7754454,6.24341305 22.5378638,6.3094924 C22.3002822,6.37557174 21.9282275,6.35349228 21.7877368,6.31281889 C21.6940764,6.2857033 21.6204252,6.25039737 21.5667834,6.2069011 L21.6902242,6.07328459 C21.7645173,6.13914305 21.9172294,6.17698914 22.1483603,6.18682284 C22.4950567,6.20157341 22.6086619,5.99128843 22.6071347,5.89264652 C22.6056075,5.79400462 22.4169531,5.67235555 22.1803175,5.62134484 C21.8513525,5.55043104 21.6376855,5.35304931 21.6343561,5.13925456 C21.6310268,4.92545981 21.9353848,4.72553639 22.3302221,4.73142071 Z M23.8299824,4.73142071 C24.0932073,4.73534359 24.2840688,4.78659727 24.4025671,4.88518175 L24.2948998,5.00102602 C24.100224,4.91275236 23.9330378,4.880742 23.7933411,4.90499495 C23.5837961,4.94137437 23.5261045,5.05342829 23.5288968,5.15152682 C23.531689,5.24962535 23.7002505,5.34828051 23.874613,5.40688517 C24.0489756,5.46548983 24.4837593,5.55421851 24.4799755,5.86250925 C24.4761917,6.1708 24.2752058,6.24341305 24.0376242,6.3094924 C23.8000425,6.37557174 23.4279878,6.35349228 23.2874972,6.31281889 C23.1938367,6.2857033 23.1201856,6.25039737 23.0665438,6.2069011 L23.1899845,6.07328459 C23.2642777,6.13914305 23.4169898,6.17698914 23.6481207,6.18682284 C23.9948171,6.20157341 24.1084222,5.99128843 24.106895,5.89264652 C24.1053678,5.79400462 23.9167135,5.67235555 23.6800778,5.62134484 C23.3511129,5.55043104 23.1374458,5.35304931 23.1341165,5.13925456 C23.1307872,4.92545981 23.4351452,4.72553639 23.8299824,4.73142071 Z M17.0198624,5.09035173 C17.497341,5.09035173 17.6812524,5.37343531 17.7400723,5.48531694 C17.7714429,5.54498714 17.7748431,5.62608263 17.750273,5.72860342 L17.726601,5.80951125 L16.7310524,5.81667307 C16.7657061,6.02565137 16.869897,6.1368907 17.0436251,6.15039106 C17.1739212,6.16051634 17.3009776,6.14233976 17.4247943,6.09586134 L17.5475312,6.03994897 L17.6589941,6.1572561 C17.3865073,6.33689578 17.1054538,6.38063061 16.8158335,6.28846057 C16.5675875,6.20945769 16.4101129,6.08263176 16.3434095,5.9079828 L16.3176221,5.81667307 L16.3176221,5.57787549 C16.4674632,5.25285965 16.7015433,5.09035173 17.0198624,5.09035173 Z M18.8876796,4.78325702 C19.2543131,4.83774442 19.4376299,4.99553878 19.4376299,5.25664009 C19.4376299,5.64829205 19.0268938,5.77677966 18.9197621,5.77976158 C18.8959551,5.78042423 18.8598882,5.78086599 18.8115616,5.78108688 L18.6298025,5.78108688 C18.5812383,5.78093962 18.5272254,5.7806942 18.4677637,5.7803506 L18.3744846,5.77976158 L18.3744846,6.32914569 L18.1245372,6.32914569 C18.0194912,6.32914569 18.0095285,6.243857 17.9993071,6.13058112 C17.9970357,6.10540871 17.9954636,6.04393904 17.9945908,5.94617212 L17.9945959,5.40940283 C17.9952525,5.2680203 17.9963024,5.10622056 17.9977457,4.92400363 C17.9982553,4.84979817 18.0229285,4.80493113 18.0717654,4.78940252 L18.1129237,4.78325702 L18.8876796,4.78325702 Z M13.4945438,4.68 C14.0548608,4.68 14.5090876,5.04744145 14.5090876,5.50070346 C14.5090876,5.95396546 14.0548608,6.32140692 13.4945438,6.32140692 C12.9342267,6.32140692 12.48,5.95396546 12.48,5.50070346 C12.48,5.04744145 12.9342267,4.68 13.4945438,4.68 Z M20.7462739,4.78258793 L21.5667834,6.30396982 L21.2788345,6.30396982 C21.2245999,6.30340181 21.1740202,6.26207463 21.1270955,6.17998828 L21.0925872,6.11078118 L21.0120657,5.96316952 L20.125969,5.96316952 C20.0962592,6.02210993 20.0635934,6.08353747 20.0279715,6.14745216 C19.9745386,6.24332419 19.9225351,6.30224693 19.8457336,6.30396982 L19.8241202,6.3043467 L19.8241202,6.3043467 L19.6436618,6.3046159 L19.5376958,6.30396982 L20.3333033,4.78258793 L20.7462739,4.78258793 Z M13.4945438,4.8338819 C13.1534812,4.8338819 12.8769954,5.13242808 12.8769954,5.50070346 C12.8769954,5.86897884 13.1534812,6.16752502 13.4945438,6.16752502 C13.8356063,6.16752502 14.1120922,5.86897884 14.1120922,5.50070346 C14.1120922,5.13242808 13.8356063,4.8338819 13.4945438,4.8338819 Z M20.5522396,5.04402258 L20.2053884,5.77899291 L20.9073859,5.77899291 L20.5522396,5.04402258 Z M17.0462236,5.26099706 C16.8563346,5.26099706 16.7498411,5.38746579 16.7267432,5.64040327 L17.3660345,5.64040327 C17.3427163,5.38746579 17.2361126,5.26099706 17.0462236,5.26099706 Z M18.7735274,4.94271402 L18.3845025,4.94271402 L18.3845025,5.58991269 C18.5174967,5.59319002 18.6439045,5.59462134 18.7637259,5.59420665 C18.86329,5.59386208 19.040536,5.474413 19.040536,5.26126538 C19.040536,5.04811775 18.8592327,4.94265057 18.7735274,4.94271402 Z" id="Onepass" fill="#FFFFFF" transform="translate(18.480000, 5.520000) rotate(-315.000000) translate(-18.480000, -5.520000) "></path>
        </g>
    </g>
</svg>