<?xml version="1.0" encoding="UTF-8"?>
<svg width="129px" height="30px" viewBox="0 0 129 30" version="1.1" xmlns="http://www.w3.org/2000/svg" xmlns:xlink="http://www.w3.org/1999/xlink">
    <title>mlogo/Onepass-bg</title>
    <g id="업체-로고들" stroke="none" stroke-width="1" fill="none" fill-rule="evenodd">
        <g id="메인화면로고" transform="translate(-891.000000, -32.000000)">
            <g id="mlogo/Onepass-bg" transform="translate(891.000000, 32.000000)">
                <rect id="Rectangle" fill="#FFFFFF" x="0" y="0" width="129" height="30"></rect>
                <path d="M45.5,8 C49.6421356,8 53,10.9101491 53,14.5 C53,18.0898509 49.6421356,21 45.5,21 C41.3578644,21 38,18.0898509 38,14.5 C38,10.9101491 41.3578644,8 45.5,8 Z M45.5,9.21875 C42.9787001,9.21875 40.9347826,11.5832462 40.9347826,14.5 C40.9347826,17.4167538 42.9787001,19.78125 45.5,19.78125 C48.0212999,19.78125 50.0652174,17.4167538 50.0652174,14.5 C50.0652174,11.5832462 48.0212999,9.21875 45.5,9.21875 Z M57.0748111,21 L54.579835,21 L54,20.167522 L54,12 L62.2277575,12 C64.0690708,12.5784451 64.9897274,13.7990114 64.9897274,15.661699 C64.9897274,17.5243866 64.9897274,18.9082574 64.9897274,19.8133115 C65.05715,20.6044372 64.7926846,21 64.1963311,21 C63.5999775,21 62.9059734,21 62.1143189,21 L62.1143189,14.6709946 C61.6558611,13.8226324 61.1012055,13.3984513 60.450352,13.3984513 C59.7994984,13.3984513 58.6743181,13.3984513 57.0748111,13.3984513 L57.0748111,21 Z M71.3316115,11 C74.9567673,11 76.3530761,13.2737805 76.7996535,14.1724347 C77.0973718,14.7715376 77.0632793,15.6395341 76.697376,16.7764244 L76.697376,16.7764244 L69.1388824,16.8339494 C69.4019834,18.5125024 70.1930309,19.4059976 71.5120249,19.514435 C72.8310189,19.6228725 74.1062859,19.3271753 75.3378258,18.6273434 L75.3378258,18.6273434 L76.1840845,19.5695763 C74.1152859,21.012476 71.981446,21.3637623 69.7825651,20.6234353 C67.5836841,19.8831082 66.3228291,18.6199463 66,16.8339494 L66,16.8339494 L66,14.9158824 C67.1376371,12.3052941 68.914841,11 71.3316115,11 Z M71.5317536,12.3706553 C70.0900612,12.3706553 69.281532,13.386476 69.1061661,15.4181173 L73.9598505,15.4181173 C73.7828117,13.386476 72.9734461,12.3706553 71.5317536,12.3706553 Z M82.7464762,8.99991847 C82.8309019,9.00000352 82.9170973,9.0000992 83.0050622,9.00020552 L83.8445264,9.00144939 C84.4360224,9.00246999 85.0912245,9.00387333 85.8101329,9.0056594 C88.6033776,9.42841978 90,10.6527248 90,12.6785744 C90,15.7173489 86.8707543,16.7142668 86.0545577,16.7374032 C85.5104266,16.7528274 84.1256709,16.7528274 81.9002906,16.7374032 L81.9002906,16.7374032 L81.9002906,21 L81.9002906,21 L79.9960345,21 C79.1957276,21 79.1198252,20.3382566 79.0419527,19.4593644 C79.0191608,19.2021277 79.0056108,18.4563604 79.0013027,17.2220627 L79.0010354,15.2868328 C79.0042913,13.8963769 79.0139652,12.1666637 79.0300571,10.0976933 C79.0349098,9.37800566 79.3274092,9.01399437 79.9075553,9.0056594 C80.0318723,9.00387333 80.2198955,9.00246999 80.471625,9.00144939 L80.8969988,9.00020552 C80.9495714,9.0000992 81.0039136,9.00000352 81.0600255,8.99991847 Z M84.9404493,10.2428647 L84.5603567,10.2431217 L84.5603567,10.2431217 L82.4433312,10.2431217 C82.290165,10.2430503 82.1345924,10.2429646 81.9766137,10.2428647 L81.9766137,15.2643914 C82.9898466,15.2898197 83.9529007,15.3009251 84.865776,15.2977077 C85.6243179,15.2950341 86.9746891,14.3682449 86.9746891,12.7144614 C86.9746891,11.0606779 85.5934066,10.2423723 84.9404493,10.2428647 Z M99.9343957,9 L106,20.9933977 C105.694019,20.9952634 105.411192,20.9965072 105.151519,20.9971291 L104.441967,20.9971291 C104.228604,20.9965072 104.038396,20.9952634 103.871342,20.9933977 C103.370181,20.9878005 102.911238,20.4801506 102.494511,19.4704479 L102.494511,19.4704479 L101.899258,18.3067918 L95.3488006,18.3067918 C95.1291716,18.7714324 94.8876899,19.2556796 94.6243555,19.7595336 C94.2293539,20.5153145 93.8449185,20.9798158 93.2771649,20.9933977 C92.8986626,21.0024523 92.1396076,21.0024523 91,20.9933977 L91,20.9933977 L96.8815167,9 L99.9343957,9 Z M98.5,11.0609485 L95.9359075,16.8548859 L101.125414,16.8548859 L98.5,11.0609485 Z M112.941341,8.00101698 C114.989847,8.03249306 116.475197,8.44373797 117.397391,9.23475169 L116.559487,10.1642531 C115.044453,9.4559704 113.743353,9.19912843 112.656186,9.39372716 C111.025434,9.68562527 110.576459,10.584714 110.598189,11.3718286 C110.61992,12.1589433 111.931723,12.9505242 113.288671,13.4207513 C114.64562,13.8909784 118.029256,14.602912 117.999809,17.076549 C117.970362,19.5501861 116.406221,20.1328125 114.55728,20.6630143 C112.708338,21.1932161 109.812882,21.0160569 108.719535,20.6897052 C107.990637,20.4721374 107.417459,20.1888527 107,19.8398511 L107.960658,18.7677503 C108.538833,19.2961798 109.727291,19.599846 111.526031,19.6787488 C114.22414,19.7971031 115.108255,18.1098364 115.09637,17.3183619 C115.084484,16.5268874 113.616312,15.5508099 111.774732,15.1415145 C109.214614,14.5725224 107.551784,12.9887877 107.525874,11.2733595 C107.499964,9.55793142 109.868582,7.95380286 112.941341,8.00101698 Z M123.941341,8.00101698 C125.989847,8.03249306 127.475197,8.44373797 128.397391,9.23475169 L127.559487,10.1642531 C126.044453,9.4559704 124.743353,9.19912843 123.656186,9.39372716 C122.025434,9.68562527 121.576459,10.584714 121.598189,11.3718286 C121.61992,12.1589433 122.931723,12.9505242 124.288671,13.4207513 C125.64562,13.8909784 129.029256,14.602912 128.999809,17.076549 C128.970362,19.5501861 127.406221,20.1328125 125.55728,20.6630143 C123.708338,21.1932161 120.812882,21.0160569 119.719535,20.6897052 C118.990637,20.4721374 118.417459,20.1888527 118,19.8398511 L118.960658,18.7677503 C119.538833,19.2961798 120.727291,19.599846 122.526031,19.6787488 C125.22414,19.7971031 126.108255,18.1098364 126.09637,17.3183619 C126.084484,16.5268874 124.616312,15.5508099 122.774732,15.1415145 C120.214614,14.5725224 118.551784,12.9887877 118.525874,11.2733595 C118.499964,9.55793142 120.868582,7.95380286 123.941341,8.00101698 Z M0.000946847497,8 C-0.000315615832,15.9158517 -0.000315615832,19.9099877 0.000946847497,19.982408 C0.0125216635,20.6463888 0.265392983,21 0.958212737,21 C1.42009257,21 2.22177497,21 3.36325994,21 L3.36325994,9.92162827 C7.78539071,16.3537161 10.1649747,19.8108679 10.502012,20.2930837 C11.007568,21.0164074 11.6163642,21 12.4471553,21 C13.0010161,21 14.1852977,21 16,21 C15.9996633,13.5194211 15.9996633,9.60373072 16,9.25292898 C16.0003446,8.72672638 15.8391456,8 14.7905536,8 C14.0914923,8 13.3103595,8 12.4471553,8 L12.4471553,19.1464585 L5.60635383,9.25292898 C4.87755993,8.41764299 4.12986196,8 3.36325994,8 C2.59665791,8 1.47588688,8 0.000946847497,8 Z M19.0001669,9.12847575 C19.0061351,9.73405488 19.018216,13.4084882 19.0364096,20.1517756 C19.1791411,20.7172585 19.4781886,21 19.9335522,21 C20.3889158,21 21.2763367,21 22.5958149,21 L22.5958149,14.7510625 L31.3367734,14.7510625 L31.3367734,21 L33.8145354,21 C34.6048451,20.8240145 35,20.4503975 35,19.879149 C35,19.3079005 35,15.7373077 35,9.16737058 C34.8705536,8.38912353 34.4753988,8 33.8145354,8 C33.1536721,8 32.3277514,8 31.3367734,8 L31.3367734,13.4839865 L22.5958149,13.4839865 L22.5958149,8 L19.9335522,8 C19.3053272,8.14673804 18.9941987,8.52289662 19.0001669,9.12847575 Z" id="mlogo/Onepass" fill="#001C8A"></path>
            </g>
        </g>
    </g>
</svg>