<?xml version="1.0" encoding="UTF-8"?>
<svg width="48px" height="24px" viewBox="0 0 48 24" version="1.1" xmlns="http://www.w3.org/2000/svg" xmlns:xlink="http://www.w3.org/1999/xlink">
    <title>logo/nhbank-b</title>
    <g id="logo/nhbank-b" stroke="none" stroke-width="1" fill="none" fill-rule="evenodd">
        <rect id="Rectangle" fill-opacity="0" fill="#FFFFFF" x="0" y="0" width="48" height="24"></rect>
        <g id="Group" transform="translate(12.000000, -0.351058)">
            <rect id="Rectangle" fill="#9F9F9F" x="0" y="0.351058212" width="24" height="24"></rect>
            <path d="M24,24.3510582 L6.09050276,24.3510582 C6.64812029,22.1618146 7.99895471,20.2120595 10.143006,18.501793 C13.359083,15.9363932 16.8048308,12.3157395 17.5660648,10.1378023 C18.0735542,8.68584419 18.6774529,5.42359616 19.3777608,0.351058212 L24,0.351058212 L24,24.3510582 Z" id="Path-18" fill="#9F9F9F"></path>
            <path d="M12.7368525,15.5304075 C13.3543839,15.5304075 13.8078682,16.2062684 13.8142728,16.5721071 C13.8153021,16.6309027 13.8160005,16.7170996 13.8164479,16.8214225 L13.8166745,17.6372141 C13.8163314,17.8232353 13.8158412,18.0066688 13.8153931,18.1655281 L13.8146089,18.443967 L13.8142728,18.6177883 L13.8142728,18.6177883 C13.8142728,18.762433 13.7414637,18.8589214 13.5958456,18.9072535 L13.5169692,18.9274065 L12.9157847,18.9274065 L12.9165059,18.4445775 L12.9168304,18.2231978 L12.9168304,18.2231978 L12.9174074,17.8205078 L12.9176598,17.6391976 L12.9176598,17.6391976 L12.918429,17.0475217 L12.9188618,16.5607027 C12.9188618,16.2650203 12.7156816,16.0101204 12.4636668,15.962644 L12.378065,15.9547295 L12.1820738,15.9541942 C12.0312121,15.9531946 11.8399486,15.9509099 11.6082832,15.9473398 L11.4269588,15.9444213 L11.4269588,18.9274065 C11.3695136,18.928289 11.3143213,18.9289509 11.2613819,18.9293921 L10.9707805,18.9293921 L10.8457561,18.9274065 C10.7105954,18.9243808 10.6223209,18.8481237 10.5809326,18.6986352 L10.5641456,18.6177883 L10.5641456,15.5304075 L12.7368525,15.5304075 Z M14.9779097,14.2250041 L14.9779097,16.8410109 C15.6511525,16.194451 16.0423433,15.8175103 16.1514821,15.7101886 C16.2333361,15.6296974 16.3215561,15.5758656 16.416142,15.5486933 L16.5128498,15.5304075 L17.3175469,15.5304075 L15.754561,17.0952403 L17.4798444,18.930054 L16.5488747,18.9296565 C16.487206,18.9182663 16.3969898,18.8492443 16.2782262,18.7225905 C16.1458895,18.581462 15.7627065,18.162288 15.128677,17.4650684 L14.9779097,17.2992359 L14.9779097,18.930054 L14.4034368,18.930054 C14.2650352,18.930054 14.1730491,18.8488806 14.1274786,18.6865338 L14.1085613,18.598596 L14.1085613,14.4975721 C14.1085613,14.3586239 14.1808811,14.2720228 14.3255208,14.2377688 L14.4038672,14.2250041 L14.9779097,14.2250041 Z M5.52224066,14.3649186 C6.28418449,14.4874753 6.67054225,14.8246347 6.68131397,15.3763969 C6.69208568,15.9281591 6.46099805,16.3296193 5.98805107,16.5807773 C6.5442278,16.7817511 6.82231617,17.181245 6.82231617,17.7792589 C6.82231617,18.3374052 6.43174329,18.7079963 5.65059753,18.8910322 L5.47723099,18.9273834 L3.5855609,18.9273834 C3.41960014,18.9273834 3.3331829,18.8197481 3.32630917,18.6044774 L3.32630917,14.6656358 C3.32764049,14.5069264 3.40316916,14.4106086 3.5528952,14.3766824 L3.63394133,14.3649186 L5.52224066,14.3649186 Z M8.68685813,15.4591219 C9.50595988,15.4591219 10.2240407,15.8915595 10.2240407,16.5581621 L10.2240407,18.4985034 C10.2211883,18.7844388 10.1171905,18.9274065 9.91204717,18.9274065 L7.9708487,18.9274065 C7.35641485,18.8004841 7.04919793,18.4390875 7.04919793,17.8432166 C7.04919793,17.2473458 7.48833635,16.9241805 8.36661318,16.873721 L9.34897839,16.873721 C9.35350594,16.783917 9.35400397,16.652935 9.35047248,16.4807749 C9.34517525,16.2225348 9.14692479,15.9411246 8.78542254,15.8933136 C8.54442104,15.8614397 8.26916592,15.9001423 7.95965719,16.0094215 C7.75652951,16.1113748 7.59416067,16.122724 7.47255067,16.0434692 C7.38789852,15.9417514 7.34938678,15.8465068 7.35701545,15.7577356 C7.6975094,15.5586598 8.14079029,15.4591219 8.68685813,15.4591219 Z M5.10382185,16.7707548 L4.18659859,16.7707548 L4.18659859,18.4985034 L5.23215572,18.4985034 C5.69145632,18.4352672 5.92110662,18.1588702 5.92110662,17.6693123 C5.92110662,17.1797545 5.64867837,16.8802353 5.10382185,16.7707548 Z M9.34574383,17.2302307 L8.47046725,17.2302307 C8.10680648,17.35632 7.92497609,17.5676988 7.92497609,17.864367 C7.92497609,18.1610353 8.10680648,18.3724141 8.47046725,18.4985034 L8.47046725,18.4985034 L9.34574383,18.4985034 L9.34574383,17.2302307 Z M5.07373022,14.7610335 L4.18659859,14.7610335 L4.18659859,16.3385034 L5.1978538,16.3385034 C5.60693947,16.2723603 5.8114823,16.0094487 5.8114823,15.5497684 C5.8114823,15.0900882 5.56556494,14.8271765 5.07373022,14.7610335 Z M4.54834638,8.02715028 C4.7831701,8.02715028 5.01303041,8.1323635 5.2379273,8.34278995 L5.34996213,8.45677094 L7.79466331,11.8491937 L7.79466331,8.02715028 L8.6321249,8.02715028 C8.96938724,8.02715028 9.04977578,8.22899372 9.06239107,8.40089678 L9.06434545,8.45677094 L9.06434545,12.4847602 L7.6869616,12.4845175 C7.44394801,12.4822035 7.25761329,12.4593834 7.09952633,12.2423635 C6.9837117,12.0833746 6.19302087,10.9812598 4.72745383,8.93601918 L4.54834638,8.6860633 L4.54834638,12.4847602 L3.68885328,12.4847602 C3.47220906,12.4847602 3.37593994,12.3919275 3.3524866,12.2161953 L3.34675461,12.135835 L3.34675461,8.02715028 L4.54834638,8.02715028 Z M10.9512248,8.02713638 L10.9512248,9.90756322 L14.0158763,9.90756322 L14.0158763,8.02713638 L14.8845999,8.02713638 C15.087341,8.02713638 15.2187568,8.12929232 15.2788473,8.33360422 L15.3002335,8.42742091 L15.3002335,12.100427 C15.3002335,12.27182 15.1941604,12.3913292 14.9820141,12.4589545 L14.8845999,12.4847602 L14.0158763,12.4847602 L14.0158763,10.3420362 L10.9512248,10.3420362 L10.9512248,12.4847602 L10.0178138,12.4847602 C9.85815958,12.4847602 9.75331108,12.3878098 9.70326826,12.193909 C9.69966284,10.8869943 9.69674209,9.91625607 9.69450603,9.28169433 L9.69352261,9.0126902 C9.69274362,8.8084122 9.6920659,8.65386444 9.69148947,8.54904694 L9.69056128,8.4140841 C9.68876771,8.23609878 9.76865496,8.1159096 9.93022302,8.05351655 L10.0178138,8.02713638 L10.9512248,8.02713638 Z" id="NHBank" fill="#FFFFFF"></path>
            <polygon id="Path-19" fill="#FFFFFF" points="9.202832 -1.03028697e-13 24.202832 14.984728 24.202832 -1.03028697e-13"></polygon>
            <polygon id="Path-19" fill="#9F9F9F" points="9.702832 0.351058212 24 14.6336698 24 0.351058212"></polygon>
            <path d="M15.7715516,5.54399787 C16.0047238,5.6190068 16.12131,5.77728175 16.12131,6.01882272 L16.12131,6.55717631 C16.1298479,6.65976425 16.0963577,6.71105821 16.0208393,6.71105821 L15.7571864,6.71105821 L15.7571864,6.71105821 L15.7571864,5.89035475 C15.6991303,5.78034476 15.6288922,5.72533976 15.5464722,5.72533976 L15.1190151,5.72533976 L15.1190151,5.72533976 L15.1190151,6.71105821 L14.8030672,6.71105821 L14.7296405,6.60310798 L14.7296405,5.54399787 L15.7715516,5.54399787 Z M22.3302221,5.08247892 C22.5934469,5.08640181 22.7843085,5.13765548 22.9028067,5.23623996 L22.7951394,5.35208423 C22.6004636,5.26381057 22.4332774,5.23180021 22.2935807,5.25605316 C22.0840357,5.29243258 22.0263442,5.4044865 22.0291364,5.50258503 C22.0319287,5.60068356 22.2004901,5.69933872 22.3748527,5.75794338 C22.5492152,5.81654805 22.9839989,5.90527672 22.9802151,6.21356747 C22.9764313,6.52185821 22.7754454,6.59447127 22.5378638,6.66055061 C22.3002822,6.72662995 21.9282275,6.70455049 21.7877368,6.6638771 C21.6940764,6.63676151 21.6204252,6.60145558 21.5667834,6.55795931 L21.6902242,6.4243428 C21.7645173,6.49020126 21.9172294,6.52804735 22.1483603,6.53788106 C22.4950567,6.55263162 22.6086619,6.34234664 22.6071347,6.24370473 C22.6056075,6.14506283 22.4169531,6.02341376 22.1803175,5.97240305 C21.8513525,5.90148925 21.6376855,5.70410752 21.6343561,5.49031277 C21.6310268,5.27651803 21.9353848,5.0765946 22.3302221,5.08247892 Z M23.8299824,5.08247892 C24.0932073,5.08640181 24.2840688,5.13765548 24.4025671,5.23623996 L24.2948998,5.35208423 C24.100224,5.26381057 23.9330378,5.23180021 23.7933411,5.25605316 C23.5837961,5.29243258 23.5261045,5.4044865 23.5288968,5.50258503 C23.531689,5.60068356 23.7002505,5.69933872 23.874613,5.75794338 C24.0489756,5.81654805 24.4837593,5.90527672 24.4799755,6.21356747 C24.4761917,6.52185821 24.2752058,6.59447127 24.0376242,6.66055061 C23.8000425,6.72662995 23.4279878,6.70455049 23.2874972,6.6638771 C23.1938367,6.63676151 23.1201856,6.60145558 23.0665438,6.55795931 L23.1899845,6.4243428 C23.2642777,6.49020126 23.4169898,6.52804735 23.6481207,6.53788106 C23.9948171,6.55263162 24.1084222,6.34234664 24.106895,6.24370473 C24.1053678,6.14506283 23.9167135,6.02341376 23.6800778,5.97240305 C23.3511129,5.90148925 23.1374458,5.70410752 23.1341165,5.49031277 C23.1307872,5.27651803 23.4351452,5.0765946 23.8299824,5.08247892 Z M17.0198624,5.44140994 C17.497341,5.44140994 17.6812524,5.72449352 17.7400723,5.83637515 C17.7714429,5.89604535 17.7748431,5.97714085 17.750273,6.07966163 L17.726601,6.16056946 L16.7310524,6.16773128 C16.7657061,6.37670958 16.869897,6.48794891 17.0436251,6.50144927 C17.1739212,6.51157455 17.3009776,6.49339797 17.4247943,6.44691955 L17.5475312,6.39100718 L17.6589941,6.50831432 C17.3865073,6.687954 17.1054538,6.73168882 16.8158335,6.63951878 C16.5675875,6.5605159 16.4101129,6.43368997 16.3434095,6.25904102 L16.3176221,6.16773128 L16.3176221,5.9289337 C16.4674632,5.60391786 16.7015433,5.44140994 17.0198624,5.44140994 Z M18.8876796,5.13431523 C19.2543131,5.18880263 19.4376299,5.34659699 19.4376299,5.6076983 C19.4376299,5.99935026 19.0268938,6.12783787 18.9197621,6.13081979 C18.8959551,6.13148244 18.8598882,6.13192421 18.8115616,6.13214509 L18.6298025,6.13214509 C18.5812383,6.13199783 18.5272254,6.13175241 18.4677637,6.13140881 L18.3744846,6.13081979 L18.3744846,6.68020391 L18.1245372,6.68020391 C18.0194912,6.68020391 18.0095285,6.59491521 17.9993071,6.48163933 C17.9970357,6.45646692 17.9954636,6.39499725 17.9945908,6.29723033 L17.9945959,5.76046104 C17.9952525,5.61907851 17.9963024,5.45727878 17.9977457,5.27506184 C17.9982553,5.20085638 18.0229285,5.15598935 18.0717654,5.14046073 L18.1129237,5.13431523 L18.8876796,5.13431523 Z M13.4945438,5.03105821 C14.0548608,5.03105821 14.5090876,5.39849967 14.5090876,5.85176167 C14.5090876,6.30502367 14.0548608,6.67246513 13.4945438,6.67246513 C12.9342267,6.67246513 12.48,6.30502367 12.48,5.85176167 C12.48,5.39849967 12.9342267,5.03105821 13.4945438,5.03105821 Z M20.7462739,5.13364614 L21.5667834,6.65502803 L21.2788345,6.65502803 C21.2245999,6.65446002 21.1740202,6.61313284 21.1270955,6.53104649 L21.0925872,6.46183939 L21.0120657,6.31422773 L20.125969,6.31422773 C20.0962592,6.37316814 20.0635934,6.43459569 20.0279715,6.49851037 C19.9745386,6.59438241 19.9225351,6.65330514 19.8457336,6.65502803 L19.8241202,6.65540491 L19.8241202,6.65540491 L19.6436618,6.65567411 L19.5376958,6.65502803 L20.3333033,5.13364614 L20.7462739,5.13364614 Z M13.4945438,5.18494011 C13.1534812,5.18494011 12.8769954,5.48348629 12.8769954,5.85176167 C12.8769954,6.22003705 13.1534812,6.51858323 13.4945438,6.51858323 C13.8356063,6.51858323 14.1120922,6.22003705 14.1120922,5.85176167 C14.1120922,5.48348629 13.8356063,5.18494011 13.4945438,5.18494011 Z M20.5522396,5.3950808 L20.2053884,6.13005112 L20.9073859,6.13005112 L20.5522396,5.3950808 Z M17.0462236,5.61205527 C16.8563346,5.61205527 16.7498411,5.73852401 16.7267432,5.99146148 L17.3660345,5.99146148 C17.3427163,5.73852401 17.2361126,5.61205527 17.0462236,5.61205527 Z M18.7735274,5.29377223 L18.3845025,5.29377223 L18.3845025,5.9409709 C18.5174967,5.94424823 18.6439045,5.94567955 18.7637259,5.94526487 C18.86329,5.94492029 19.040536,5.82547121 19.040536,5.61232359 C19.040536,5.39917597 18.8592327,5.29370878 18.7735274,5.29377223 Z" id="Onepass" fill="#FFFFFF" transform="translate(18.480000, 5.871058) rotate(-315.000000) translate(-18.480000, -5.871058) "></path>
        </g>
    </g>
</svg>