<?xml version="1.0" encoding="UTF-8"?>
<svg width="48px" height="24px" viewBox="0 0 48 24" version="1.1" xmlns="http://www.w3.org/2000/svg" xmlns:xlink="http://www.w3.org/1999/xlink">
    <!-- Generator: Sketch 63.1 (92452) - https://sketch.com -->
    <title>logo/pass-b</title>
    <desc>Created with Sketch.</desc>
    <g id="logo/pass-b" stroke="none" stroke-width="1" fill="none" fill-rule="evenodd">
        <path d="M19.4638783,6 C20.0028526,6 20.1883321,6.33490038 20.3404006,6.84759702 C20.4617897,7.25685835 22.792919,16.1572414 23.1821004,17.6772414 C23.1974997,17.7365517 23.2436975,18 23.2436975,18 L23.2436975,18 L21.0038047,18 C21.0038047,18 20.1652448,14.5889655 20.0028526,13.9089655 C18.8171093,14.577931 17.820357,15.2206897 16.8054055,15.7917241 C16.7529881,15.8213481 16.6769511,15.9103096 16.6227532,16.058889 C16.38622,16.707328 15.9654457,17.9986207 15.9654457,17.9986207 L15.9654457,17.9986207 L13.8655462,17.9986207 C15.5848261,11.2755272 16.5531131,7.50173408 16.7704072,6.67724138 C16.8342217,6.43510621 17.0585573,6 17.5392231,6 L17.5392231,6 Z M18.6611507,8.40196668 L18.4317506,8.40196668 C18.1197665,9.75362168 17.8077824,11.1243525 17.4957983,12.4760075 L17.4957983,12.4760075 L17.7160224,12.6 C18.1813768,12.3261264 18.6572181,12.0686034 19.1055314,11.7674786 C19.2208868,11.6911755 19.3323097,11.4595411 19.3074034,11.3273732 C19.1120857,10.3476959 18.8813747,9.37619382 18.6611507,8.40196668 L18.6611507,8.40196668 Z" id="Combined-Shape" fill="#9F9F9F" fill-rule="nonzero"></path>
        <path d="M11.8143661,6 C12.6449888,6 14.126266,7.37655172 14.1650284,8.43724138 C14.2037908,9.49931034 13.8770792,10.4937931 12.8761788,11.0827586 C11.6108636,11.8275862 10.3455483,12.577931 9.03593314,13.2386207 C8.46418784,13.5282759 8.35343814,13.862069 8.35343814,14.4137931 C8.35343814,15.5558621 8.35343814,16.7806897 8.35343814,18 C7.6875556,18 7.14626646,18 6.55375559,18 C6.19935657,18 5.99862274,17.777931 6,17.4482759 L6,13.862069 C6,13.862069 6,7.37931034 6,6.68965517 C6,6.36965517 6,6 6.41531847,6 C11.3990548,6 10.0036086,6 11.8143661,6 Z M8.42016807,11.1 C9.52265348,10.5289655 10.4690472,10.077931 11.3662228,9.54689655 C11.5855949,9.41724138 11.8134044,8.94413793 11.7304368,8.76482759 C11.6038759,8.49034483 11.2635679,8.1 10.954197,8.1 C10.2510813,8.1 9.82921192,8.1 8.98547309,8.1 C8.70422681,8.1 8.42298053,8.37586207 8.42298053,8.65172414 C8.42298053,9.06551724 8.42016807,10.1206897 8.42016807,11.1 Z" id="Shape" fill="#9F9F9F" fill-rule="nonzero"></path>
        <path d="M32.1894785,9.53114823 C32.1894785,9.07947614 32.1894785,8.82541059 32.1894785,8.401968 C32.1894785,7.27278776 31.5250374,6.01092885 29.9792794,6.00246 C29.0026476,5.9968141 27.7690802,6.00246 26.7302866,6.00387147 C25.5809831,6.00669442 24.4537815,7.01589926 24.4537815,8.11967294 C24.4537815,9.10770564 24.4537815,9.53114823 24.4537815,10.5191809 C24.4537815,11.3674776 25.1928169,12.3244578 26.1321515,12.5347677 C27.0203753,12.7337857 27.8961667,13.001966 28.7912973,13.1501709 C29.8881087,13.3322512 30.1989179,13.6893545 30.1339933,14.9131035 C30.0870266,15.7938641 29.9903304,16.0239346 28.8741798,16.0239346 C28.6669736,16.0239346 27.9072177,16.0239346 27.6309428,16.0239346 C26.7150915,16.0239346 26.561759,15.5454445 26.5258432,15.0359019 C26.5147922,14.8862855 26.5258432,14.5884642 26.5258432,14.4713118 C26.5258432,14.2892315 26.3946126,14.1890167 26.2495683,14.1890167 C25.835156,14.1890167 25.1444687,14.1890167 24.7300564,14.1890167 C24.6002072,14.1890167 24.4537815,14.341456 24.4537815,14.4713118 C24.4537815,14.9582707 24.4537815,15.4593445 24.4537815,15.8827871 C24.4537815,17.0387853 25.7923334,18 27.2165304,18 C28.0453551,18 28.8368827,18 29.7030045,18 C30.2555543,18 30.9876827,17.6245476 31.4366294,17.2349804 C31.9767469,16.7649591 32.3193277,16.0239346 32.3193277,15.0359019 C32.3193277,14.3301642 32.3193277,13.8022725 32.3193277,13.5369151 C32.3193277,12.6363939 31.5402325,11.6173087 30.4738114,11.2997268 C29.6684701,11.059776 28.8313572,10.9016907 27.997007,10.8057104 C26.9665017,10.6871465 26.506504,10.23124 26.5410383,9.19380564 C26.5700472,8.2989303 26.8007367,7.8359664 27.7690802,7.8359664 C27.9334638,7.8359664 28.8576033,7.8359664 29.2885921,7.8359664 C29.9792794,7.8359664 30.1174168,8.2819926 30.1174168,8.96514664 L30.1174168,9.52973676 C30.4503281,9.53114823 31.9132036,9.53114823 32.1894785,9.53114823 Z" id="Path" fill="#9F9F9F" fill-rule="nonzero"></path>
        <path d="M41.8651566,9.53114823 C41.8651566,9.07947614 41.8651566,8.82541059 41.8651566,8.401968 C41.8651566,7.27278776 41.1751601,6.01092885 39.5699498,6.00246 C38.5557553,5.9968141 37.274743,6.00246 36.1959958,6.00387147 C35.0024882,6.00669442 33.8319328,7.01589926 33.8319328,8.11967294 C33.8319328,9.10770564 33.8319328,9.53114823 33.8319328,10.5191809 C33.8319328,11.3674776 34.5993925,12.3244578 35.5748554,12.5347677 C36.4972417,12.7337857 37.4067174,13.001966 38.3362761,13.1501709 C39.4752725,13.3322512 39.798036,13.6893545 39.7306143,14.9131035 C39.6818411,15.7938641 39.5814258,16.0239346 38.4223464,16.0239346 C38.2071708,16.0239346 37.4181934,16.0239346 37.1312926,16.0239346 C36.1802162,16.0239346 36.0209863,15.5454445 35.9836892,15.0359019 C35.9722131,14.8862855 35.9836892,14.5884642 35.9836892,14.4713118 C35.9836892,14.2892315 35.8474113,14.1890167 35.6967883,14.1890167 C35.266437,14.1890167 34.5491849,14.1890167 34.1188336,14.1890167 C33.9839902,14.1890167 33.8319328,14.341456 33.8319328,14.4713118 C33.8319328,14.9582707 33.8319328,15.4593445 33.8319328,15.8827871 C33.8319328,17.0387853 35.2219674,18 36.7009413,18 C37.5616438,18 38.3836148,18 39.2830489,18 C39.8568506,18 40.6171379,17.6245476 41.0833518,17.2349804 C41.6442429,16.7649591 42,16.0239346 42,15.0359019 C42,14.3301642 42,13.8022725 42,13.5369151 C42,12.6363939 41.1909396,11.6173087 40.0835023,11.2997268 C39.2471863,11.059776 38.3778768,10.9016907 37.5114362,10.8057104 C36.441296,10.6871465 35.9636061,10.23124 35.9994687,9.19380564 C36.0295933,8.2989303 36.2691555,7.8359664 37.274743,7.8359664 C37.445449,7.8359664 38.4051323,7.8359664 38.8526977,7.8359664 C39.5699498,7.8359664 39.7134002,8.2819926 39.7134002,8.96514664 L39.7134002,9.52973676 C40.0591157,9.53114823 41.5782557,9.53114823 41.8651566,9.53114823 Z" id="Path" fill="#9F9F9F" fill-rule="nonzero"></path>
        <rect id="Rectangle" fill-opacity="0" fill="#FFFFFF" x="0" y="0" width="48" height="24"></rect>
    </g>
</svg>