<?xml version="1.0" encoding="UTF-8"?>
<svg width="88px" height="16px" viewBox="0 0 88 16" version="1.1" xmlns="http://www.w3.org/2000/svg" xmlns:xlink="http://www.w3.org/1999/xlink">
    <!-- Generator: sketchtool 63.1 (101010) - https://sketch.com -->
    <title>6FBB8905-0153-420C-B2A3-C5B4217B7EED</title>
    <desc>Created with sketchtool.</desc>
    <g id="로고" stroke="none" stroke-width="1" fill="none" fill-rule="evenodd">
        <g id="provider" transform="translate(-242.000000, -457.000000)" fill="#222222" fill-rule="nonzero">
            <g id="mlogo/pass" transform="translate(242.000000, 457.000000)">
                <g id="Layer_1_1_">
                    <g id="Group">
                        <path d="M32.058895,4.70035253 C32.058895,4.0987074 32.058895,3.76028202 32.058895,3.19623972 C32.058895,1.69212691 31.2389049,0.0188014101 29.3255948,-2.64677169e-13 C28.1126929,-2.64677169e-13 26.5922947,-2.64677169e-13 25.3110602,-2.64677169e-13 C23.8931608,-2.64677169e-13 22.4923444,1.35370153 22.4923444,2.82021152 C22.4923444,4.13631022 22.4923444,4.70035253 22.4923444,6.01645123 C22.4923444,7.14453584 23.4148333,8.42303173 24.5594027,8.70505288 C25.6527227,8.96827262 26.7460428,9.32549941 27.856446,9.53231492 C29.2060129,9.77673325 29.5989248,10.2467685 29.5135092,11.8824912 C29.4622598,13.0481786 29.3426779,13.3678026 27.9589447,13.3678026 C27.7026979,13.3678026 26.7631259,13.3678026 26.4214634,13.3678026 C25.2939771,13.3678026 25.1060627,12.7285546 25.0548133,12.0517039 C25.0377302,11.8448884 25.0548133,11.4500588 25.0548133,11.2996475 C25.0548133,11.0552291 24.9010652,10.9236193 24.7131508,10.9236193 C24.200657,10.9236193 23.3465007,10.9236193 22.834007,10.9236193 C22.6802588,10.9236193 22.4923444,11.1304348 22.4923444,11.2996475 C22.4923444,11.9388954 22.4923444,12.6157462 22.4923444,13.1797885 C22.4923444,14.7215041 24.1494077,16 25.9089696,16 C26.9339572,16 27.9076954,16 28.9839323,16 C29.6672573,16 30.572663,15.4923619 31.119323,14.9847239 C31.785565,14.3642773 32.2126431,13.3678026 32.2126431,12.0517039 C32.2126431,11.1116334 32.2126431,10.4159812 32.2126431,10.0587544 C32.2126431,8.85546416 31.2559881,7.50176263 29.9235042,7.0693302 C28.9326829,6.74970623 27.8906122,6.54289072 26.8656247,6.41128085 C25.5843902,6.26086957 25.0206471,5.64042303 25.0718965,4.26792009 C25.1060627,3.08343126 25.3964759,2.46298472 26.5922947,2.46298472 C26.7972922,2.46298472 27.9418616,2.46298472 28.4714385,2.46298472 C29.3255948,2.46298472 29.4964261,3.06462985 29.4964261,3.96709753 L29.4964261,4.71915394 C29.9064211,4.70035253 31.7172325,4.70035253 32.058895,4.70035253 Z M21.0573619,15.5546825 C20.5790343,13.513644 20.1007068,11.4726055 19.6223793,9.43156699 C19.041553,6.94521099 18.3923942,4.47740989 17.8628173,1.97249899 C17.7603186,1.45296192 17.6919861,1.04475422 17.5382379,0.784985681 C17.1965754,0.228338816 16.8378298,0.0427898611 15.7445097,0.0242349656 C15.2320159,0.0242349656 14.702439,-0.0499846165 14.2070284,0.0613447566 C13.8482827,0.154119234 13.3187058,0.432442667 13.2332902,0.74787589 C12.7891289,2.32504201 12.4645495,3.93931792 12.0716376,5.53503893 C11.4908113,7.96573024 10.9099851,10.3964216 10.3291588,12.8271129 C10.089995,13.8290772 9.93624689,14.8681514 9.68,15.9814451 C10.3974913,15.9814451 10.9612344,15.9814451 11.5591439,15.9814451 C11.9008064,15.9814451 12.2424689,15.9814451 12.2424689,15.9814451 C12.2424689,15.9814451 12.9257939,13.2167657 13.2674564,13.0126618 C14.5145246,12.2519111 15.7274266,11.379831 17.1624092,10.489196 C17.3674067,11.3983859 18.3923942,16 18.3923942,16 L21.1256944,16 C21.1256944,15.9814451 21.074445,15.6289021 21.0573619,15.5546825 Z M16.0861722,7.68740681 C15.5053459,8.09561451 14.8732703,8.44815753 14.2753609,8.81925544 C14.1728621,8.76359075 14.0874465,8.70792606 13.9849477,8.65226138 C14.3949428,6.81532672 14.8049378,4.94128228 15.1978497,3.10434762 C15.3003484,3.08579272 15.4028472,3.12290252 15.5053459,3.10434762 C15.7957591,4.4403001 16.0861722,5.75769768 16.3424191,7.09365016 C16.3765854,7.26064421 16.2399204,7.57607744 16.0861722,7.68740681 Z M43.8462519,4.70035253 C43.8462519,4.0987074 43.8462519,3.76028202 43.8462519,3.19623972 C43.8462519,1.69212691 43.0262618,0.0188014101 41.1129517,-2.64677169e-13 C39.9000498,-2.64677169e-13 38.3796516,-2.64677169e-13 37.0984171,-2.64677169e-13 C35.6805177,-2.64677169e-13 34.2797013,1.35370153 34.2797013,2.82021152 C34.2797013,4.13631022 34.2797013,4.70035253 34.2797013,6.01645123 C34.2797013,7.14453584 35.2021901,8.42303173 36.3467596,8.70505288 C37.4400796,8.96827262 38.5333997,9.32549941 39.6438029,9.53231492 C40.9933698,9.77673325 41.3862817,10.2467685 41.3008661,11.8824912 C41.2496167,13.0481786 41.1300348,13.3678026 39.7463016,13.3678026 C39.4900548,13.3678026 38.5504828,13.3678026 38.2088203,13.3678026 C37.081334,13.3678026 36.8934196,12.7285546 36.8421702,12.0517039 C36.8250871,11.8448884 36.8421702,11.4500588 36.8421702,11.2996475 C36.8421702,11.0552291 36.671339,10.9236193 36.5005077,10.9236193 C35.9880139,10.9236193 35.1338576,10.9236193 34.6213639,10.9236193 C34.4676157,10.9236193 34.2797013,11.1304348 34.2797013,11.2996475 C34.2797013,11.9388954 34.2797013,12.6157462 34.2797013,13.1797885 C34.2797013,14.7215041 35.9367646,16 37.6963265,16 C38.7213141,16 39.6950523,16 40.7712892,16 C41.4546142,16 42.3600199,15.4923619 42.9066799,14.9847239 C43.5729219,14.3642773 44,13.3678026 44,12.0517039 C44,11.1116334 44,10.4159812 44,10.0587544 C44,8.85546416 43.0433449,7.50176263 41.7108611,7.0693302 C40.7200398,6.74970623 39.6779691,6.54289072 38.6529816,6.41128085 C37.3717471,6.26086957 36.808004,5.64042303 36.8592534,4.26792009 C36.8934196,3.08343126 37.1838328,2.46298472 38.3796516,2.46298472 C38.5846491,2.46298472 39.7292185,2.46298472 40.2587954,2.46298472 C41.1129517,2.46298472 41.283783,3.06462985 41.283783,3.96709753 L41.283783,4.71915394 C41.693778,4.70035253 43.5045893,4.70035253 43.8462519,4.70035253 Z" id="Shape"></path>
                        <path d="M6.88323125,0 C7.86889682,0 9.6266671,1.83908046 9.67595038,3.25517241 C9.72523365,4.67126437 9.33096742,5.9954023 8.14816874,6.7862069 C6.65324262,7.77931034 5.14188874,8.77241379 3.59767934,9.65517241 C2.9241412,10.0413793 2.79271912,10.4827586 2.79271912,11.2183908 C2.79271912,12.7448276 2.79271912,14.3816092 2.79271912,16 C2.00418667,16 1.36350404,16 0.657110382,16 C0.229988634,16 0,15.7057471 0,15.2643678 L0,10.4827586 C0,10.4827586 0,1.83908046 0,0.91954023 C0,0.496551724 0,0 0.492832787,0 C6.39039847,0 4.73119475,0 6.88323125,0 Z M2.77629136,6.95172414 C4.05765661,6.19770115 5.17474426,5.5908046 6.22612087,4.87356322 C6.48896502,4.70804598 6.75180918,4.06436782 6.65324262,3.82528736 C6.50539278,3.45747126 6.11112655,2.94252874 5.74971584,2.94252874 C4.92832787,2.94252874 4.43549508,2.94252874 3.44982951,2.94252874 C3.12127431,2.94252874 2.79271912,3.31034483 2.79271912,3.67816092 C2.77629136,4.22988506 2.77629136,5.64597701 2.77629136,6.95172414 Z" id="Shape"></path>
                    </g>
                </g>
                <g id="Group" transform="translate(46.000000, 0.000000)">
                    <path d="M4.05699432,8.49885522 C2.88707038,8.49885522 1.90584384,8.13252525 1.1510542,7.39986532 C0.37739482,6.66720539 0,5.71474747 0,4.57912458 C0,3.42518519 0.37739482,2.47272727 1.1510542,1.74006734 C1.92471358,1.00740741 2.88707038,0.641077441 4.05699432,0.641077441 C5.22691826,0.641077441 6.2081448,1.00740741 6.96293444,1.74006734 C7.73659382,2.47272727 8.11398864,3.42518519 8.11398864,4.57912458 C8.11398864,5.73306397 7.73659382,6.66720539 6.96293444,7.39986532 C6.2081448,8.13252525 5.22691826,8.49885522 4.05699432,8.49885522 Z M4.05699432,2.49104377 C3.43429287,2.49104377 2.90594012,2.69252525 2.50967556,3.09548822 C2.11341099,3.49845118 1.90584384,4.02962963 1.90584384,4.68902357 C1.90584384,5.34841751 2.11341099,5.87959596 2.50967556,6.28255892 C2.90594012,6.68552189 3.43429287,6.88700337 4.05699432,6.88700337 C4.69856551,6.88700337 5.20804852,6.68552189 5.60431308,6.28255892 C6.00057765,5.87959596 6.18927506,5.34841751 6.18927506,4.68902357 C6.18927506,4.04794613 5.9817079,3.51676768 5.58544334,3.09548822 C5.20804852,2.69252525 4.67969577,2.49104377 4.05699432,2.49104377 Z M2.43419659,15.1111111 L2.43419659,10.0008081 L4.4155194,10.0008081 L4.4155194,13.4076768 L12.5106383,13.4076768 L12.5106383,15.0927946 L2.43419659,15.0927946 L2.43419659,15.1111111 Z M10.2840089,11.026532 L10.2840089,0 L12.2087224,0 L12.2087224,11.0082155 L10.2840089,11.0082155 L10.2840089,11.026532 Z" id="Shape"></path>
                    <g transform="translate(13.404255, 0.000000)">
                        <path d="M10.9778851,10.3106746 C10.0805624,9.76503675 8.80140009,9.50162535 7.10221439,9.50162535 C5.44121263,9.50162535 4.14295839,9.76503675 3.24563561,10.3106746 C2.34831282,10.8374974 1.89010544,11.5901014 1.89010544,12.5496715 C1.89010544,13.5280567 2.34831282,14.2806607 3.24563561,14.8262986 C4.14295839,15.3531214 5.42212066,15.6353479 7.10221439,15.6353479 C8.78230811,15.6353479 10.0614704,15.3719365 10.9587932,14.8262986 C11.856116,14.2994758 12.3143233,13.5280567 12.3143233,12.5496715 C12.3334153,11.6089165 11.8752079,10.8563125 10.9778851,10.3106746 Z M9.48871116,13.5656869 C8.95413588,13.8102832 8.17136494,13.9419889 7.12130636,13.9419889 C6.07124778,13.9419889 5.28847684,13.8102832 4.75390157,13.5656869 C4.21932629,13.3210906 3.95203865,12.9824188 3.95203865,12.5496715 C3.95203865,11.6465467 5.00209723,11.2137994 7.12130636,11.2137994 C9.24051549,11.2137994 10.2905741,11.6653618 10.2905741,12.5496715 C10.2905741,12.9824188 10.0232864,13.3022755 9.48871116,13.5656869 Z" id="Shape"></path>
                        <rect id="Rectangle" x="0" y="6.94277179" width="14.2235207" height="1.73098917"></rect>
                        <path d="M8.24773284,2.59648376 C8.24773284,2.59648376 8.24773284,2.16373647 8.24773284,1.99440057 L12.524335,1.99440057 L12.524335,0.112890598 L7.08312241,0.112890598 L1.64190978,0.112890598 L1.64190978,2.01321567 L5.91851199,2.01321567 C5.91851199,2.18255157 5.91851199,2.61529886 5.91851199,2.61529886 C5.57485645,3.12330655 2.13830111,4.53443903 1.08824253,4.59088433 L1.73736965,6.3783188 C2.78742823,6.2089829 5.51758053,5.55045441 7.08312241,4.15813704 C8.64866429,5.55045441 11.3788166,6.2089829 12.4288752,6.3783188 L13.0780023,4.59088433 C12.0279437,4.51562393 8.59138837,3.10449145 8.24773284,2.59648376 Z" id="Path"></path>
                    </g>
                    <g transform="translate(27.702128, 0.000000)" id="Path">
                        <polygon points="11.5697363 0.11254217 11.5697363 4.78304225 8.22864086 4.78304225 8.22864086 6.45241777 11.5697363 6.45241777 11.5697363 15.4933055 13.5743936 15.4933055 13.5743936 0.11254217"></polygon>
                        <path d="M6.07124778,5.64586555 L6.07124778,1.18169279 L5.04028118,1.18169279 L5.0211892,1.18169279 L4.00931457,1.18169279 L4.00931457,5.64586555 C4.00931457,6.7337732 1.14551845,9.41602826 0.0763678966,10.3726367 L1.48917398,11.891956 C2.65378441,10.6727492 4.14295839,9.34100015 5.05937315,7.9904941 C5.97578791,9.32224312 7.4649619,10.6727492 8.62957232,11.891956 L10.0423784,10.3726367 C8.93504391,9.41602826 6.07124778,6.71501617 6.07124778,5.64586555 Z"></path>
                    </g>
                </g>
            </g>
        </g>
    </g>
</svg>