<?xml version="1.0" encoding="UTF-8"?>
<svg width="48px" height="24px" viewBox="0 0 48 24" version="1.1" xmlns="http://www.w3.org/2000/svg" xmlns:xlink="http://www.w3.org/1999/xlink">
    <title>logo/shbank</title>
    <defs>
        <path d="M5.31090746,19.5751252 C4.20674839,18.529581 3.54957034,17.2317573 3.26532419,16.0212508 C2.97220106,14.7790892 2.92003904,13.5088307 3.50245869,13.6537167 C3.67944902,13.6941822 3.93286999,14.3407952 4.23921131,14.9286633 C4.51144155,15.4538391 4.73331809,15.7923359 4.94251257,16.0032386 C4.97768339,16.0386966 5.02477546,16.0748466 5.0846799,16.0854094 C5.14458435,16.0959721 5.22236276,16.0937881 5.29470702,16.0137662 C5.50471209,15.7814741 5.82333796,15.1799932 6.28899647,14.8177592 C6.65094463,14.5456231 7.06578836,14.5768341 7.08427447,15.4303247 C7.10348699,16.4709923 6.90877596,17.28775 7.06065525,17.4455065 C7.21253454,17.603263 7.78875708,17.556342 9.05034348,17.3041157 C10.2629499,17.0616819 10.3315301,17.4936153 9.7896975,18.182585 C9.54191618,18.4932225 9.28826138,18.9060796 8.72235902,19.3867467 C8.60618836,19.48542 8.65841294,19.6201571 8.70431935,19.6670615 C9.79428583,20.7807232 10.9585533,20.9164192 10.9653317,21.3653542 C10.9722182,21.6360269 10.4719025,21.7744895 9.77829626,21.652188 C8.91044466,21.4991624 6.50473996,20.7189384 5.31090746,19.5751252 Z M13.6078922,8.94193616 C13.2425347,7.8081068 13.8467957,6.53559001 14.1717029,5.74440672 C14.3425932,5.32887458 14.4260738,4.77006691 14.3419832,4.39462141 C14.2113802,3.81150817 13.7227102,3.39150167 13.8070152,3.13993081 C13.9617891,2.67807644 14.8356837,3.34522698 15.6382111,3.64587402 C16.1469275,3.83645208 16.4689159,3.89403251 17.0317869,3.99328186 C17.7327242,4.11687602 18.7657332,4.47654885 19.4934932,5.33036962 C19.9802993,5.90149907 19.9568492,6.26543275 19.6593173,6.43813148 C19.4390298,6.56599464 18.8716028,6.22005172 18.6980075,6.03492275 C18.2885525,5.59826348 17.7517285,5.94500959 18.1137679,6.43949915 C18.5500719,6.91600726 18.7431988,6.91212625 19.4847784,7.2681658 C20.5063055,7.75861083 20.1577979,8.73372109 19.6897479,9.31330476 C18.8824366,10.3129937 17.9984408,9.94514413 17.6085522,8.6235084 C17.4136078,7.9671859 17.0671539,7.10708226 16.5751516,7.29588736 C16.0924323,7.48469246 15.9234786,7.67175176 16.3240695,8.71984484 C16.7246604,9.76793792 15.8496461,10.3023908 15.230244,10.3288759 C14.6108419,10.355361 13.8265503,9.62050727 13.6078922,8.94193616 Z M15.7420515,20.6424447 C17.0157142,18.8519531 15.8795868,17.1676443 14.6026362,16.2800908 C14.0638251,15.9060122 9.58588767,13.3719655 9.58588767,13.3719655 C6.51498427,11.4484003 5.55634982,10.6278181 4.80025042,8.39528933 C4.43575285,7.31904023 4.9500451,5.51643621 5.89182129,4.36034517 C6.90362851,3.11828651 7.93951233,2.73813858 9.05706431,2.33995704 C9.30487407,2.25166292 9.58588767,2.25166292 9.68592383,2.39328232 C9.71026261,2.49289094 9.62280003,2.68722196 9.30740454,2.84737101 C8.99200906,3.00752006 8.22823214,3.70196064 7.89351565,4.22974265 C6.84779942,5.87863126 7.23454042,7.57642187 10.0416271,9.6556012 C10.9406777,10.3215184 16.1868653,13.2706438 16.1868653,13.2706438 C19.9424538,15.5647614 19.158369,18.5923 18.0825993,19.7201581 C17.5332875,20.297011 16.7839833,20.7989928 15.8346869,21.2261036 C15.7088157,21.270116 15.5297235,21.2861329 15.4924127,21.0745325 C15.4395358,20.83295 15.7420515,20.6424447 15.7420515,20.6424447 Z M11.4462123,0.0230768565 C4.83521354,0.323075991 -0.287445186,5.93075213 0.0125303249,12.5422715 C0.312505836,19.1537909 5.91974038,24.2768531 12.5422767,23.9883924 C19.1532754,23.6883932 24.2874717,18.0807171 23.9874961,11.4576593 C23.6990582,5.01921629 18.3917991,0 12.0115508,0 C11.8154129,0.0115384283 11.6308126,0.0115384283 11.4462123,0.0230768565" id="path-1"></path>
        <polyline id="path-3" points="0 0 26 0 26 24 0 24 0 0"></polyline>
    </defs>
    <g id="logo/shbank" stroke="none" stroke-width="1" fill="none" fill-rule="evenodd">
        <rect id="Rectangle" fill-opacity="0" fill="#FFFFFF" x="0" y="0" width="48" height="24"></rect>
        <g id="Clipped" transform="translate(12.000000, 0.000000)">
            <mask id="mask-2" fill="white">
                <use xlink:href="#path-1"></use>
            </mask>
            <g id="SVGID_6_"></g>
            <g mask="url(#mask-2)">
                <mask id="mask-4" fill="white">
                    <use xlink:href="#path-3"></use>
                </mask>
                <g id="SVGID_8_"></g>
                <rect id="Rectangle" fill="#0046FF" fill-rule="nonzero" mask="url(#mask-4)" x="0" y="0" width="26" height="24"></rect>
            </g>
        </g>
    </g>
</svg>