<?xml version="1.0" encoding="UTF-8"?>
<svg width="99px" height="25px" viewBox="0 0 99 25" version="1.1" xmlns="http://www.w3.org/2000/svg" xmlns:xlink="http://www.w3.org/1999/xlink">
    <title>mlogo/shbank</title>
    <defs>
        <path d="M5.53219527,20.3907554 C4.38202957,19.3016468 3.69746911,17.9497472 3.40137936,16.6888029 C3.09604277,15.3948846 3.04170734,14.0716987 3.64839447,14.2226216 C3.83275939,14.2647731 4.09673958,14.9383283 4.41584511,15.5506909 C4.69941828,16.0977491 4.93053968,16.4503499 5.14845059,16.6700402 C5.18508687,16.7069757 5.2341411,16.7446319 5.29654157,16.7556348 C5.35894203,16.7666376 5.43996121,16.7643626 5.51531982,16.6810065 C5.73407509,16.4390355 6.06597705,15.8124929 6.55103799,15.4351658 C6.92806733,15.1516907 7.36019621,15.1842021 7.37945257,16.0732549 C7.39946562,17.1572836 7.19664162,18.0080729 7.35484922,18.1724026 C7.51305681,18.3367322 8.11328862,18.2878562 9.42744112,18.0251205 C10.6905729,17.7725853 10.7620105,18.222516 10.1976016,18.9401927 C9.93949602,19.2637735 9.67527227,19.6938329 9.08579064,20.1945279 C8.96477954,20.2973125 9.01918015,20.4376636 9.06699932,20.4865224 C10.2023811,21.6465867 11.4151597,21.7879367 11.4222205,22.2555773 C11.429394,22.537528 10.9082318,22.6817599 10.1857253,22.5543625 C9.28171318,22.3949608 6.77577079,21.5822275 5.53219527,20.3907554 Z M14.1748877,9.31451683 C13.794307,8.13344458 14.4237455,6.80790626 14.7621905,5.983757 C14.9402012,5.55091102 15.0271603,4.96881969 14.9395659,4.57773063 C14.803521,3.97032101 14.2944898,3.53281424 14.3823075,3.27076126 C14.5435303,2.78966295 15.4538372,3.48461143 16.2898032,3.79778543 C16.8197162,3.99630425 17.1551207,4.05628386 17.7414447,4.15966861 C18.4715877,4.28841252 19.5476388,4.66307172 20.3057221,5.55246836 C20.8128118,6.14739486 20.7883846,6.52649245 20.4784555,6.70638696 C20.2489894,6.83957775 19.6579196,6.47922054 19.4770912,6.28637787 C19.0505755,5.83152446 18.4913838,6.19271832 18.8685083,6.70781161 C19.3229916,7.20417423 19.5241654,7.20013151 20.2966442,7.57100604 C21.3607348,8.08188628 20.9977062,9.09762614 20.5101541,9.70135912 C19.6692048,10.7427018 18.7483758,10.3595251 18.3422418,8.98282126 C18.1391748,8.29915198 17.7782854,7.40321068 17.2657829,7.59988267 C16.7629504,7.79655465 16.5869569,7.99140809 17.004239,9.08317171 C17.4215212,10.1749353 16.510048,10.7316571 15.8648375,10.7592457 C15.219627,10.7868343 14.4026566,10.0213617 14.1748877,9.31451683 Z M16.3979703,21.5025465 C17.7247023,19.6374512 16.5412363,17.8829628 15.2110793,16.9584279 C14.6498179,16.5687627 9.98529966,13.9291307 9.98529966,13.9291307 C6.78644194,11.925417 5.7878644,11.0706438 5.00026086,8.74509306 C4.62057588,7.62400024 5.15629698,5.74628772 6.13731385,4.54202622 C7.1912797,3.24821512 8.27032534,2.85222769 9.43444199,2.43745525 C9.69257715,2.3454822 9.98529966,2.3454822 10.089504,2.49300241 C10.1148569,2.59676139 10.02375,2.79918954 9.69521306,2.96601147 C9.3666761,3.13283339 8.57107515,3.856209 8.22241213,4.40598193 C7.13312439,6.12357423 7.53597961,7.89210611 10.4600282,10.0579179 C11.3965392,10.7515817 16.861318,13.8235872 16.861318,13.8235872 C20.7733894,16.2132932 19.9566344,19.3669791 18.836041,20.5418314 C18.2638411,21.1427198 17.483316,21.6656175 16.4944655,22.1105246 C16.3633497,22.1563708 16.1767953,22.1730551 16.1379299,21.952638 C16.0828498,21.7009895 16.3979703,21.5025465 16.3979703,21.5025465 Z M11.9231378,0.0240383922 C5.03668077,0.336537491 -0.299422069,6.1778668 0.0130524218,13.0648662 C0.325526912,19.9518655 6.16639623,25.2883886 13.0648715,24.9879087 C19.9513286,24.6754096 25.2994496,18.8340803 24.9869751,11.9350617 C24.6865189,5.2283503 19.1581241,0 12.512032,0 C12.3077218,0.0120191961 12.1154298,0.0120191961 11.9231378,0.0240383922" id="path-1"></path>
        <polyline id="path-3" points="0 0 27 0 27 25 0 25 0 0"></polyline>
    </defs>
    <g id="업체-로고들" stroke="none" stroke-width="1" fill="none" fill-rule="evenodd">
        <g id="메인화면로고" transform="translate(-1482.000000, -108.000000)">
            <g id="mlogo/shbank" transform="translate(1482.000000, 108.000000)">
                <g id="Clipped">
                    <mask id="mask-2" fill="white">
                        <use xlink:href="#path-1"></use>
                    </mask>
                    <g id="SVGID_6_"></g>
                    <g mask="url(#mask-2)">
                        <g transform="translate(-0.052564, -0.051549)">
                            <mask id="mask-4" fill="white">
                                <use xlink:href="#path-3"></use>
                            </mask>
                            <g id="SVGID_8_" stroke="none" fill="none"></g>
                            <rect id="Rectangle" stroke="none" fill="#0046FF" fill-rule="nonzero" mask="url(#mask-4)" x="0" y="0" width="27" height="25"></rect>
                        </g>
                    </g>
                </g>
                <g id="신한Sign" transform="translate(27.804436, 4.562451)" fill="#0046FF" fill-rule="nonzero">
                    <path d="M12.41,11.05 L12.41,2.21 C12.41,1.91533333 12.3788333,1.67733333 12.3165,1.496 C12.2541667,1.31466667 12.1436667,1.13333333 11.985,0.952 C11.883,0.827333333 11.8575,0.716833333 11.9085,0.6205 C11.9595,0.524166667 12.0473333,0.476 12.172,0.476 L15.079,0.476 L15.079,11.05 L12.41,11.05 Z M4.182,2.465 C4.182,2.18166667 4.16216667,1.95216667 4.1225,1.7765 C4.08283333,1.60083333 3.98366667,1.42233333 3.825,1.241 C3.723,1.11633333 3.69466667,1.003 3.74,0.901 C3.78533333,0.799 3.87033333,0.748 3.995,0.748 L6.936,0.748 L6.936,3.009 C6.936,3.56433333 7.06066667,4.06583333 7.31,4.5135 C7.55933333,4.96116667 7.8795,5.355 8.2705,5.695 C8.6615,6.035 9.1035,6.32966667 9.5965,6.579 C10.0895,6.82833333 10.5853333,7.038 11.084,7.208 L10.353,8.585 C10.2396667,8.789 9.97616667,8.84566667 9.5625,8.755 C9.14883333,8.66433333 8.57366667,8.39233333 7.837,7.939 C7.41766667,7.67833333 7.01816667,7.3865 6.6385,7.0635 C6.25883333,6.7405 5.93866667,6.39766667 5.678,6.035 C5.05466667,6.919 4.284,7.667 3.366,8.279 C3.10533333,8.449 2.83616667,8.6105 2.5585,8.7635 C2.28083333,8.9165 2.01733333,9.04116667 1.768,9.1375 C1.51866667,9.23383333 1.30616667,9.2905 1.1305,9.3075 C0.954833333,9.3245 0.838666667,9.282 0.782,9.18 L0,7.701 C0.566666667,7.48566667 1.10216667,7.22783333 1.6065,6.9275 C2.11083333,6.62716667 2.55566667,6.29 2.941,5.916 C3.32633333,5.542 3.6295,5.12833333 3.8505,4.675 C4.0715,4.22166667 4.182,3.723 4.182,3.179 L4.182,2.465 Z M5.61,16.269 C5.1,16.269 4.66366667,16.2406667 4.301,16.184 C3.93833333,16.1273333 3.6465,16.0225 3.4255,15.8695 C3.2045,15.7165 3.043,15.5068333 2.941,15.2405 C2.839,14.9741667 2.788,14.6256667 2.788,14.195 L2.788,11.56 C2.788,11.39 2.75966667,11.237 2.703,11.101 C2.64633333,10.965 2.55566667,10.8233333 2.431,10.676 C2.329,10.5513333 2.30066667,10.438 2.346,10.336 C2.39133333,10.234 2.47633333,10.183 2.601,10.183 L5.491,10.183 L5.491,13.651 C5.491,13.957 5.5505,14.1496667 5.6695,14.229 C5.7885,14.3083333 5.98966667,14.348 6.273,14.348 L15.368,14.348 L15.368,16.269 L5.61,16.269 Z" id="Shape"></path>
                    <path d="M20.988881,1.734 C20.988881,1.43933333 20.9690477,1.20416667 20.929381,1.0285 C20.8897143,0.852833333 20.7905477,0.668666667 20.631881,0.476 C20.5185477,0.351333333 20.487381,0.240833333 20.538381,0.1445 C20.589381,0.0481666667 20.6772143,0 20.801881,0 L23.708881,0 L23.708881,1.904 L27.567881,1.904 L27.567881,3.774 L25.782881,3.774 C26.0435477,4.06866667 26.250381,4.40016667 26.403381,4.7685 C26.556381,5.13683333 26.632881,5.53633333 26.632881,5.967 C26.632881,6.49966667 26.5365477,6.9955 26.343881,7.4545 C26.1512143,7.9135 25.867881,8.313 25.493881,8.653 C25.119881,8.993 24.6580477,9.25933333 24.108381,9.452 C23.5587143,9.64466667 22.9325477,9.741 22.229881,9.741 C21.5272143,9.741 20.903881,9.64466667 20.359881,9.452 C19.815881,9.25933333 19.356881,8.993 18.982881,8.653 C18.608881,8.313 18.3227143,7.9135 18.124381,7.4545 C17.9260477,6.9955 17.826881,6.49966667 17.826881,5.967 C17.826881,5.525 17.8977143,5.12266667 18.039381,4.76 C18.1810477,4.39733333 18.3822143,4.06866667 18.642881,3.774 L16.857881,3.774 L16.857881,1.904 L20.988881,1.904 L20.988881,1.734 Z M28.944881,11.288 L28.944881,2.21 C28.944881,1.91533333 28.9165477,1.68016667 28.859881,1.5045 C28.8032143,1.32883333 28.6955477,1.14466667 28.536881,0.952 C28.4235477,0.827333333 28.392381,0.716833333 28.443381,0.6205 C28.494381,0.524166667 28.5822143,0.476 28.706881,0.476 L31.613881,0.476 L31.613881,4.488 L33.551881,4.488 L33.551881,6.409 L31.613881,6.409 L31.613881,11.288 L28.944881,11.288 Z M31.817881,14.348 L31.817881,16.269 L22.314881,16.269 C21.804881,16.269 21.3657143,16.2378333 20.997381,16.1755 C20.6290477,16.1131667 20.325881,15.9998333 20.087881,15.8355 C19.849881,15.6711667 19.6770477,15.4501667 19.569381,15.1725 C19.4617143,14.8948333 19.407881,14.5406667 19.407881,14.11 L19.407881,12.24 C19.407881,12.07 19.3795477,11.917 19.322881,11.781 C19.2662143,11.645 19.1755477,11.5033333 19.050881,11.356 C18.948881,11.2313333 18.9205477,11.118 18.965881,11.016 C19.0112143,10.914 19.0962143,10.863 19.220881,10.863 L22.110881,10.863 L22.110881,13.651 C22.110881,13.957 22.170381,14.1496667 22.289381,14.229 C22.408381,14.3083333 22.6095477,14.348 22.892881,14.348 L31.817881,14.348 Z M22.229881,7.871 C22.8192143,7.871 23.275381,7.6755 23.598381,7.2845 C23.921381,6.8935 24.082881,6.426 24.082881,5.882 C24.082881,5.304 23.921381,4.8195 23.598381,4.4285 C23.275381,4.0375 22.8192143,3.842 22.229881,3.842 C21.6292143,3.842 21.1702143,4.0375 20.852881,4.4285 C20.5355477,4.8195 20.376881,5.304 20.376881,5.882 C20.376881,6.426 20.5355477,6.8935 20.852881,7.2845 C21.1702143,7.6755 21.6292143,7.871 22.229881,7.871 Z" id="Shape"></path>
                    <path d="M34.650762,11.764 C34.9000953,11.968 35.186262,12.1521667 35.509262,12.3165 C35.832262,12.4808333 36.1609287,12.6196667 36.495262,12.733 C36.8295953,12.8463333 37.1610953,12.9341667 37.489762,12.9965 C37.8184287,13.0588333 38.1244287,13.09 38.407762,13.09 C39.0990953,13.09 39.640262,12.9455 40.031262,12.6565 C40.422262,12.3675 40.617762,11.934 40.617762,11.356 C40.617762,10.914 40.5129287,10.54 40.303262,10.234 C40.0935953,9.928 39.7054287,9.63333333 39.138762,9.35 C38.8100953,9.18 38.4984287,9.027 38.203762,8.891 C37.9090953,8.755 37.625762,8.61333333 37.353762,8.466 C37.081762,8.31866667 36.818262,8.16283333 36.563262,7.9985 C36.308262,7.83416667 36.0560953,7.65 35.806762,7.446 C35.364762,7.04933333 35.0020953,6.6045 34.718762,6.1115 C34.4354287,5.6185 34.293762,5.015 34.293762,4.301 C34.293762,3.81366667 34.3929287,3.36316667 34.591262,2.9495 C34.7895953,2.53583333 35.075762,2.18166667 35.449762,1.887 C35.823762,1.59233333 36.2799287,1.36283333 36.818262,1.1985 C37.3565953,1.03416667 37.965762,0.952 38.645762,0.952 C40.1190953,0.952 41.4280953,1.20133333 42.572762,1.7 L42.572762,3.791 C42.572762,3.94966667 42.5160953,4.04883333 42.402762,4.0885 C42.2894287,4.12816667 42.1704287,4.097 42.045762,3.995 C41.1164287,3.213 40.0964287,2.822 38.985762,2.822 C38.373762,2.822 37.906262,2.95233333 37.583262,3.213 C37.260262,3.47366667 37.098762,3.83633333 37.098762,4.301 C37.098762,4.62966667 37.1554287,4.913 37.268762,5.151 C37.3820953,5.389 37.5520953,5.59866667 37.778762,5.78 C38.2094287,6.13133333 38.671262,6.43733333 39.164262,6.698 C39.657262,6.95866667 40.141762,7.20233333 40.617762,7.429 C41.059762,7.633 41.4535953,7.854 41.799262,8.092 C42.1449287,8.33 42.4395953,8.602 42.683262,8.908 C42.9269287,9.214 43.1110953,9.5625 43.235762,9.9535 C43.3604287,10.3445 43.422762,10.8006667 43.422762,11.322 C43.422762,11.968 43.295262,12.5205 43.040262,12.9795 C42.785262,13.4385 42.4310953,13.8181667 41.977762,14.1185 C41.5244287,14.4188333 40.9945953,14.637 40.388262,14.773 C39.7819287,14.909 39.1330953,14.977 38.441762,14.977 C37.931762,14.977 37.4019287,14.9203333 36.852262,14.807 C36.3025953,14.6936667 35.8124287,14.5491667 35.381762,14.3735 C34.9510953,14.1978333 34.6110953,14.0023333 34.361762,13.787 C34.1124287,13.5716667 34.0330953,13.3563333 34.123762,13.141 L34.650762,11.764 Z" id="Path"></path>
                    <path d="M47.904643,2.006 C47.904643,2.47066667 47.7544763,2.856 47.454143,3.162 C47.1538097,3.468 46.765643,3.621 46.289643,3.621 C45.813643,3.621 45.4254763,3.468 45.125143,3.162 C44.8248097,2.856 44.674643,2.47066667 44.674643,2.006 C44.674643,1.54133333 44.8248097,1.156 45.125143,0.85 C45.4254763,0.544 45.813643,0.391 46.289643,0.391 C46.765643,0.391 47.1538097,0.544 47.454143,0.85 C47.7544763,1.156 47.904643,1.54133333 47.904643,2.006 Z M47.802643,5.032 L47.802643,14.586 L45.133643,14.586 L45.133643,6.715 C45.133643,6.443 45.1024763,6.222 45.040143,6.052 C44.9778097,5.882 44.8673097,5.70633333 44.708643,5.525 C44.606643,5.40033333 44.5783097,5.287 44.623643,5.185 C44.6689763,5.083 44.7539763,5.032 44.878643,5.032 L47.802643,5.032 Z" id="Shape"></path>
                    <path d="M58.676524,8.33 C58.676524,8.82866667 58.5801907,9.29616667 58.387524,9.7325 C58.1948573,10.1688333 57.9086907,10.5513333 57.529024,10.88 C57.1493573,11.2086667 56.6846907,11.4665 56.135024,11.6535 C55.5853573,11.8405 54.953524,11.934 54.239524,11.934 C53.7521907,11.934 53.3271907,11.8943333 52.964524,11.815 C52.658524,12.1776667 52.505524,12.529 52.505524,12.869 C52.505524,13.1296667 52.5763573,13.328 52.718024,13.464 C52.8596907,13.6 53.0948573,13.668 53.423524,13.668 L55.327524,13.668 C55.939524,13.668 56.5061907,13.736 57.027524,13.872 C57.5488573,14.008 57.9993573,14.2063333 58.379024,14.467 C58.7586907,14.7276667 59.0533573,15.0535 59.263024,15.4445 C59.4726907,15.8355 59.577524,16.2916667 59.577524,16.813 C59.577524,17.9123333 59.1383573,18.7481667 58.260024,19.3205 C57.3816907,19.8928333 56.109524,20.179 54.443524,20.179 C52.7208573,20.179 51.4203573,19.89 50.542024,19.312 C49.6636907,18.734 49.224524,17.9576667 49.224524,16.983 C49.224524,16.4163333 49.369024,15.929 49.658024,15.521 C49.947024,15.113 50.3238573,14.7673333 50.788524,14.484 C50.3691907,14.0986667 50.159524,13.6056667 50.159524,13.005 C50.159524,12.6196667 50.253024,12.2598333 50.440024,11.9255 C50.627024,11.5911667 50.9018573,11.3276667 51.264524,11.135 C50.788524,10.795 50.4258573,10.3841667 50.176524,9.9025 C49.9271907,9.42083333 49.802524,8.89666667 49.802524,8.33 C49.802524,7.83133333 49.9016907,7.361 50.100024,6.919 C50.2983573,6.477 50.584524,6.09166667 50.958524,5.763 C51.332524,5.43433333 51.7943573,5.1765 52.344024,4.9895 C52.8936907,4.8025 53.525524,4.709 54.239524,4.709 C54.783524,4.709 55.276524,4.76283333 55.718524,4.8705 C56.160524,4.97816667 56.551524,5.12833333 56.891524,5.321 C57.1861907,5.19633333 57.5091907,5.1 57.860524,5.032 C58.2118573,4.964 58.5008573,4.93 58.727524,4.93 C58.9881907,4.93 59.220524,4.9385 59.424524,4.9555 C59.628524,4.9725 59.8438573,5.00933333 60.070524,5.066 L60.070524,6.766 C60.070524,6.85666667 60.0393573,6.92466667 59.977024,6.97 C59.9146907,7.01533333 59.8211907,7.00966667 59.696524,6.953 C59.5491907,6.89633333 59.4018573,6.851 59.254524,6.817 C59.1071907,6.783 58.948524,6.766 58.778524,6.766 C58.6991907,6.766 58.6226907,6.76883333 58.549024,6.7745 C58.4753573,6.78016667 58.404524,6.78866667 58.336524,6.8 C58.4611907,7.02666667 58.549024,7.27033333 58.600024,7.531 C58.651024,7.79166667 58.676524,8.058 58.676524,8.33 Z M51.893524,16.915 C51.893524,17.153 51.936024,17.3626667 52.021024,17.544 C52.106024,17.7253333 52.2476907,17.8811667 52.446024,18.0115 C52.6443573,18.1418333 52.9078573,18.241 53.236524,18.309 C53.5651907,18.377 53.967524,18.411 54.443524,18.411 C54.919524,18.411 55.3161907,18.3741667 55.633524,18.3005 C55.9508573,18.2268333 56.203024,18.122 56.390024,17.986 C56.577024,17.85 56.7101907,17.6828333 56.789524,17.4845 C56.8688573,17.2861667 56.908524,17.068 56.908524,16.83 C56.908524,16.3993333 56.7951907,16.0508333 56.568524,15.7845 C56.3418573,15.5181667 55.8998573,15.385 55.242524,15.385 L53.423524,15.385 C53.2648573,15.385 53.1118573,15.3793333 52.964524,15.368 C52.8171907,15.3566667 52.675524,15.3396667 52.539524,15.317 C52.301524,15.5663333 52.1343573,15.8326667 52.038024,16.116 C51.9416907,16.3993333 51.893524,16.6656667 51.893524,16.915 Z M56.007524,8.33 C56.007524,7.752 55.8573573,7.29866667 55.557024,6.97 C55.2566907,6.64133333 54.817524,6.477 54.239524,6.477 C53.661524,6.477 53.2223573,6.64133333 52.922024,6.97 C52.6216907,7.29866667 52.471524,7.752 52.471524,8.33 C52.471524,8.908 52.6216907,9.3585 52.922024,9.6815 C53.2223573,10.0045 53.661524,10.166 54.239524,10.166 C54.817524,10.166 55.2566907,10.0045 55.557024,9.6815 C55.8573573,9.3585 56.007524,8.908 56.007524,8.33 Z" id="Shape"></path>
                    <path d="M61.152405,5.032 L63.991405,5.032 L63.991405,5.967 C64.3427383,5.627 64.7365717,5.33233333 65.172905,5.083 C65.6092383,4.83366667 66.1277383,4.709 66.728405,4.709 C67.238405,4.709 67.7087383,4.77983333 68.139405,4.9215 C68.5700717,5.06316667 68.946905,5.27 69.269905,5.542 C69.592905,5.814 69.8450717,6.15116667 70.026405,6.5535 C70.2077383,6.95583333 70.298405,7.41766667 70.298405,7.939 L70.298405,14.586 L67.629405,14.586 L67.629405,8.177 C67.629405,7.633 67.5075717,7.23916667 67.263905,6.9955 C67.0202383,6.75183333 66.626405,6.63 66.082405,6.63 C65.708405,6.63 65.3570717,6.70366667 65.028405,6.851 C64.6997383,6.99833333 64.382405,7.208 64.076405,7.48 L64.076405,14.586 L61.407405,14.586 L61.407405,6.749 C61.407405,6.45433333 61.3762383,6.222 61.313905,6.052 C61.2515717,5.882 61.1410717,5.70633333 60.982405,5.525 C60.8690717,5.40033333 60.837905,5.287 60.888905,5.185 C60.939905,5.083 61.0277383,5.032 61.152405,5.032 Z" id="Path"></path>
                </g>
            </g>
        </g>
    </g>
</svg>