<?xml version="1.0" encoding="UTF-8"?><svg version="1.1" width="48px" height="24px" viewBox="0 0 48.0 24.0" xmlns="http://www.w3.org/2000/svg" xmlns:xlink="http://www.w3.org/1999/xlink"><defs><clipPath id="i0"><path d="M13.5585459,0.00869687376 C13.7890933,-0.0455666816 13.98608,0.162688044 13.9423052,0.394408092 L12.9675858,4.99361105 C17.6865116,4.2573866 21.7473559,5.52158078 22.9949383,8.47087835 C24.6583816,12.4306513 20.7069743,17.8878051 14.1611793,20.6713788 C12.7049369,21.2976096 11.2384803,21.7375843 9.82601274,21.9913031 C9.59546534,22.0455667 9.39847864,21.837312 9.44225347,21.6055919 L10.4169728,17.0063889 C5.69950619,17.74408 1.63866187,16.4784192 0.379406158,13.5188556 C-1.28403708,9.5693487 2.67758431,4.11219493 9.22337936,1.32862119 C10.6796218,0.702390433 12.1460783,0.26241566 13.5585459,0.00869687376 Z"></path></clipPath></defs><g transform="translate(12.0 1.0)"><g clip-path="url(#i0)"><polygon points="0,2.22044605e-16 23.375,2.22044605e-16 23.375,22 0,22 0,2.22044605e-16" stroke="none" fill="#9F9F9F"></polygon></g></g></svg>