<?xml version="1.0" encoding="UTF-8"?>
<svg width="147.973px" height="24px" viewBox="0 0 147.973 24" version="1.1" xmlns="http://www.w3.org/2000/svg" xmlns:xlink="http://www.w3.org/1999/xlink">
    <title>mlogo/wooriwonsign1</title>
    <g id="업체-로고들" stroke="none" stroke-width="1" fill="none" fill-rule="evenodd">
        <g id="메인화면로고" transform="translate(-2291.000000, -109.000000)">
            <g id="mlogo/wooriwonsign1" transform="translate(2291.000000, 109.000000)">
                <g id="우리WON인증서" transform="translate(31.000000, 5.000000)" fill="#0028A0" fill-rule="nonzero">
                    <path d="M2.016,3.84 C2.016,5.968 4.288,7.664 7.152,7.664 C10.032,7.664 12.288,5.952 12.288,3.84 C12.288,1.728 10.032,0 7.152,0 C4.288,0 2.016,1.696 2.016,3.84 Z M4.208,3.84 C4.208,2.352 5.472,1.232 7.152,1.232 C8.832,1.232 10.064,2.352 10.064,3.84 C10.064,5.312 8.832,6.432 7.152,6.432 C5.424,6.432 4.208,5.328 4.208,3.84 Z M0,10.32 L6.064,10.32 L6.064,15.312 L8.256,15.312 L8.256,10.32 L14.304,10.32 L14.304,9.072 L0,9.072 L0,10.32 Z" id="Shape"></path>
                    <path d="M28.336,0.8 C28.336,0.432 28.096,0.256 27.616,0.256 L25.952,0.256 C26.16,0.512 26.144,1.2 26.144,1.504 L26.144,8.56 C26.144,9.472 25.088,9.648 24.384,9.648 L19.36,9.648 C18.896,9.648 18.816,9.488 18.816,9.152 L18.816,6.256 L23.216,6.256 C23.712,6.256 23.84,6.112 23.84,5.744 L23.84,1.216 C23.84,0.88 23.696,0.704 23.2,0.704 L16.528,0.704 L16.528,1.952 L21.632,1.952 L21.632,5.008 L16.416,5.008 C16.56,5.312 16.624,5.552 16.624,5.888 L16.624,9.952 C16.624,10.672 17.376,10.896 18,10.896 L23.904,10.896 C24.416,10.896 25.696,10.896 26.144,10.48 L26.144,15.136 L28.336,15.136 L28.336,0.8 Z" id="Path"></path>
                    <path d="M36.941,0.778 C37.009,0.897 37.043,0.999 37.043,1.067 C37.043,1.186 36.992,1.407 36.941,1.662 L35.037,9.89 L33.031,1.373 C32.912,0.88 32.776,0.778 32.351,0.778 L30.328,0.778 C30.481,0.897 30.6,1.05 30.651,1.271 L33.66,13.12 L36.159,13.12 L38.267,4.059 L40.392,13.12 L42.925,13.12 L45.849,1.39 C45.883,1.271 45.9,1.186 45.9,1.101 C45.9,0.88 45.747,0.778 45.458,0.778 L43.554,0.778 C43.622,0.897 43.656,0.999 43.656,1.05 C43.656,1.186 43.605,1.458 43.554,1.594 L41.582,9.958 L39.593,1.373 C39.474,0.88 39.372,0.778 38.964,0.778 L36.941,0.778 Z" id="Path"></path>
                    <path d="M58.82,6.966 C58.82,3.073 56.763,0.523 52.904,0.523 C49.062,0.523 46.954,3.09 46.954,6.966 C46.954,10.842 49.079,13.375 52.904,13.375 C56.729,13.375 58.82,10.825 58.82,6.966 Z M56.44,6.966 C56.44,10.281 55.08,12.015 52.904,12.015 C50.762,12.015 49.334,10.23 49.334,6.966 C49.334,3.651 50.66,1.883 52.904,1.883 C55.097,1.883 56.44,3.651 56.44,6.966 Z" id="Shape"></path>
                    <path d="M64.668,1.373 C64.43,0.897 64.413,0.778 63.954,0.778 L60.792,0.778 C60.996,1.067 61.013,1.594 61.013,1.934 L61.013,13.12 L63.393,13.12 L63.393,3.413 L68.374,13.12 L71.213,13.12 L71.213,1.356 C71.213,0.965 70.941,0.778 70.397,0.778 L68.629,0.778 C68.833,1.101 68.833,1.577 68.833,1.917 L68.833,9.533 L64.668,1.373 Z" id="Path"></path>
                    <path d="M84.045,10.768 L86.253,10.768 L86.253,0.784 C86.253,0.432 86.013,0.256 85.517,0.256 L83.869,0.256 C84.045,0.528 84.045,1.184 84.045,1.504 L84.045,10.768 Z M73.101,4.208 C73.101,6.464 74.989,8.144 77.485,8.144 C79.981,8.144 81.853,6.464 81.853,4.208 C81.853,1.952 79.981,0.272 77.485,0.272 C74.989,0.272 73.101,1.952 73.101,4.208 Z M75.309,4.208 C75.309,2.656 76.205,1.52 77.485,1.52 C78.717,1.52 79.661,2.656 79.661,4.208 C79.661,5.744 78.717,6.912 77.485,6.912 C76.205,6.912 75.309,5.744 75.309,4.208 Z M76.685,14.208 C76.685,14.96 77.453,15.136 78.077,15.136 L86.317,15.136 L86.317,13.904 L79.437,13.904 C78.989,13.904 78.893,13.728 78.893,13.408 L78.893,10.368 C78.893,10.048 78.813,9.904 78.477,9.904 L76.477,9.904 C76.669,10.08 76.685,10.368 76.685,10.64 L76.685,14.208 Z" id="Shape"></path>
                    <path d="M89.757,6.048 C90.797,5.856 91.853,5.584 92.893,5.232 C93.917,4.88 94.813,4.384 95.581,3.744 C96.989,4.768 98.893,5.552 100.749,6.064 L101.629,4.448 C99.821,4.144 97.901,3.632 96.429,2.88 C96.701,2.528 96.941,2.128 97.117,1.68 L101.149,1.68 L101.149,0.416 L90.077,0.416 L90.077,1.68 L94.205,1.68 C94.381,1.68 94.445,1.776 94.381,1.968 C93.821,3.216 92.237,4.496 89.357,5.104 L89.757,6.048 Z M88.461,7.232 L88.461,8.48 L102.765,8.48 L102.765,7.232 L88.461,7.232 Z M90.301,12.592 C90.301,14.416 92.333,15.648 95.613,15.648 C98.893,15.648 100.925,14.416 100.925,12.592 C100.925,10.768 98.893,9.536 95.613,9.536 C92.333,9.536 90.301,10.768 90.301,12.592 Z M92.509,12.592 C92.509,11.504 93.629,10.784 95.613,10.784 C97.613,10.784 98.717,11.504 98.717,12.592 C98.717,13.68 97.613,14.4 95.613,14.4 C93.629,14.4 92.509,13.68 92.509,12.592 Z" id="Shape"></path>
                    <path d="M116.973,0.784 C116.973,0.432 116.733,0.256 116.237,0.256 L114.589,0.256 C114.765,0.528 114.765,1.184 114.765,1.504 L114.765,4.32 L111.837,4.32 L111.837,5.584 L114.765,5.584 L114.765,15.136 L116.973,15.136 L116.973,0.784 Z M104.125,10.64 C105.853,9.488 107.165,8.032 108.189,6.304 C109.085,7.792 110.637,9.328 111.949,10.432 L113.197,8.704 C111.389,7.584 109.645,6.128 108.797,5.104 C109.325,3.888 109.613,2.592 109.613,1.184 C109.613,0.944 109.517,0.768 109.325,0.672 L109.053,0.624 L106.957,0.624 L107.069,0.72 C107.213,0.896 107.293,1.12 107.293,1.392 C107.245,4.72 106.077,7.52 103.405,9.824 L104.125,10.64 Z" id="Shape"></path>
                </g>
                <g id="Group">
                    <rect id="Rectangle" fill="#1057C3" x="0" y="0" width="24" height="24" rx="5"></rect>
                    <g id="Group-8" transform="translate(5.500000, 4.500000)">
                        <path d="M3.15,8 C1.39666296,7.91024118 0,6.377819 0,4.5 C0,2.56700338 1.47994763,1 3.30555556,1 L3.15,1.004 L7,1 L7,8 L3.15,8 Z" id="Combined-Shape" fill="#6DCEF8"></path>
                        <circle id="Oval" fill="#FFFFFF" cx="8.5" cy="4.5" r="4.5"></circle>
                    </g>
                    <path d="M5.58,15.5 L6.55418485,15.5 L7.1679755,17.4286865 L7.73385193,15.5 L8.41581192,15.5 L8.99314693,17.5354534 L9.60172588,15.5 L10.58,15.5 L9.60172588,19.1923077 L8.7622158,19.1923077 L8.21117958,17.3461538 L7.59778459,19.1923077 L6.85504129,19.1923077 L5.58,15.5 Z M12.6,15.3 C13.7045695,15.3 14.6,16.1954305 14.6,17.3 C14.6,18.4045695 13.7045695,19.3 12.6,19.3 C11.4954305,19.3 10.6,18.4045695 10.6,17.3 C10.6,16.1954305 11.4954305,15.3 12.6,15.3 Z M12.6,16.3434783 C12.0717276,16.3434783 11.6434783,16.7717276 11.6434783,17.3 C11.6434783,17.8282724 12.0717276,18.2565217 12.6,18.2565217 C13.1282724,18.2565217 13.5565217,17.8282724 13.5565217,17.3 C13.5565217,16.7717276 13.1282724,16.3434783 12.6,16.3434783 Z M15.8767134,19.1923077 L14.8876923,19.1923077 L14.8876923,15.5 L15.7471368,15.5 L17.4907469,17.4 L17.4907469,15.5 L18.53,15.5 L18.53,19.1923077 L17.7392784,19.1807318 L15.8767134,17.2 L15.8767134,19.1923077 Z" id="Combined-Shape" fill="#FFFFFF"></path>
                </g>
            </g>
        </g>
    </g>
</svg>