<?xml version="1.0" encoding="UTF-8"?>
<svg width="48px" height="24px" viewBox="0 0 48 24" version="1.1" xmlns="http://www.w3.org/2000/svg" xmlns:xlink="http://www.w3.org/1999/xlink">
    <title>logo/wooriowon</title>
    <g id="logo/wooriowon" stroke="none" stroke-width="1" fill="none" fill-rule="evenodd">
        <rect id="Rectangle" fill-opacity="0" fill="#FFFFFF" x="0" y="0" width="48" height="24"></rect>
        <g id="Group" transform="translate(12.000000, 0.000000)">
            <rect id="Rectangle" fill="#1057C3" x="0" y="0" width="24" height="24" rx="5"></rect>
            <g id="Group-8" transform="translate(5.500000, 4.500000)">
                <path d="M3.15,8 C1.39666296,7.91024118 0,6.377819 0,4.5 C0,2.56700338 1.47994763,1 3.30555556,1 L3.15,1.004 L7,1 L7,8 L3.15,8 Z" id="Combined-Shape" fill="#6DCEF8"></path>
                <circle id="Oval" fill="#FFFFFF" cx="8.5" cy="4.5" r="4.5"></circle>
            </g>
            <path d="M5.58,15.5 L6.55418485,15.5 L7.1679755,17.4286865 L7.73385193,15.5 L8.41581192,15.5 L8.99314693,17.5354534 L9.60172588,15.5 L10.58,15.5 L9.60172588,19.1923077 L8.7622158,19.1923077 L8.21117958,17.3461538 L7.59778459,19.1923077 L6.85504129,19.1923077 L5.58,15.5 Z M12.6,15.3 C13.7045695,15.3 14.6,16.1954305 14.6,17.3 C14.6,18.4045695 13.7045695,19.3 12.6,19.3 C11.4954305,19.3 10.6,18.4045695 10.6,17.3 C10.6,16.1954305 11.4954305,15.3 12.6,15.3 Z M12.6,16.3434783 C12.0717276,16.3434783 11.6434783,16.7717276 11.6434783,17.3 C11.6434783,17.8282724 12.0717276,18.2565217 12.6,18.2565217 C13.1282724,18.2565217 13.5565217,17.8282724 13.5565217,17.3 C13.5565217,16.7717276 13.1282724,16.3434783 12.6,16.3434783 Z M15.8767134,19.1923077 L14.8876923,19.1923077 L14.8876923,15.5 L15.7471368,15.5 L17.4907469,17.4 L17.4907469,15.5 L18.53,15.5 L18.53,19.1923077 L17.7392784,19.1807318 L15.8767134,17.2 L15.8767134,19.1923077 Z" id="Combined-Shape" fill="#FFFFFF"></path>
        </g>
    </g>
</svg>