<?xml version="1.0" encoding="UTF-8"?>
<svg width="102px" height="76px" viewBox="0 0 102 76" version="1.1" xmlns="http://www.w3.org/2000/svg" xmlns:xlink="http://www.w3.org/1999/xlink">
    <!-- Generator: Sketch 63.1 (92452) - https://sketch.com -->
    <title>browser/nomal</title>
    <desc>Created with Sketch.</desc>
    <g id="browser/nomal" stroke="none" stroke-width="1" fill="none" fill-rule="evenodd">
        <rect id="Rectangle" stroke="#E4E4E4" fill="#FFFFFF" x="0.5" y="0.5" width="101" height="75"></rect>
        <g id="Group-2" transform="translate(32.000000, 15.000000)" fill="#9F9F9F" fill-rule="nonzero">
            <path d="M33.7,0 C36.2,0 37.9,1.7 37.9,4.1 L37.9,28.4 C37.9971429,30.9257143 36.2069388,32.8852245 33.9044548,32.9951347 L33.7,33 L33.7,33 L4.7,33 C2.2,33 -7.10542736e-14,30.9 -7.10542736e-14,28.4 L-7.10542736e-14,4.1 C-7.10542736e-14,1.4 2.4,0 4.7,0 L33.7,0 Z M10.7,1 L4.7,1 C2.9,1 1,2.1 1,4.1 L1,28.4 C1,30.3 2.7,32 4.7,32 L33.7,32 C35.6,32 36.9,30.5 36.9,28.4 L36.9,6.5 C36.9,4.9 36.8,4 34.4,4 L13.9,4 L13.9,3.1 C13.9,1.9 12.5,1 10.7,1 Z M33.7,1 L13.8799375,1.00023414 C14.5213927,1.52480816 14.9,2.22033661 14.9,3 L34.4,3 C35.5657666,3 36.3466568,3.22561718 36.8683773,3.59949362 C36.6582161,1.99136386 35.426949,1 33.7,1 Z M37,6 L37,7 L1,7 L1,6 L37,6 Z M22.8,0 C25.3,0 27,1.3 27,3.1 L27,4 L26,4 L26,3.1 C26,1.9 24.6,1 22.8,1 L11,1 L11,0 L22.8,0 Z M12,2 L12,3 L11,3 L11,2 L12,2 Z" id="browser"></path>
        </g>
    </g>
</svg>