<?xml version="1.0" encoding="UTF-8"?>
<svg width="102px" height="76px" viewBox="0 0 102 76" version="1.1" xmlns="http://www.w3.org/2000/svg" xmlns:xlink="http://www.w3.org/1999/xlink">
    <!-- Generator: Sketch 63.1 (92452) - https://sketch.com -->
    <title>chrome/hover</title>
    <desc>Created with Sketch.</desc>
    <g id="chrome/hover" stroke="none" stroke-width="1" fill="none" fill-rule="evenodd">
        <rect id="Rectangle" stroke="#E4E4E4" fill="#FFFFFF" x="0.5" y="0.5" width="101" height="75"></rect>
        <path d="M50.6,14 C60.3,14 68.2,21.9 68.2,31.6 C68.2,41.3 60.3,49.2 50.6,49.2 C49.947434,49.2 49.3030147,49.1642454 48.6685993,49.0945934 L48.6,49.1 L48.6,49.1 C48.5303571,49.1 48.4607143,49.1 48.4248491,49.0662223 C39.7464802,47.9906195 33,40.5638961 33,31.6 C33,21.9 40.9,14 50.6,14 Z M66.3299716,26.2992414 L54.8852537,26.2985986 C56.4766932,27.5645471 57.5,29.5167389 57.5,31.7 C57.5,33.627558 56.7023554,35.3750027 55.4203103,36.6290901 C55.41472,36.652 55.408,36.676 55.4,36.7 L49.4342193,48.1587798 C49.8195344,48.1861031 50.2082849,48.2 50.6,48.2 C59.7,48.2 67.2,40.7 67.2,31.6 C67.2,29.7504757 66.8943186,27.9670447 66.3299716,26.2992414 Z M34,31.6 C34,39.9323301 40.2879838,46.9232237 48.3346916,48.0434209 L53.6142131,37.9044025 C52.7026634,38.3497897 51.6795813,38.6 50.6,38.6 C47.3396114,38.6 44.5945339,36.3179075 43.8806608,33.2696156 L37.0647912,22.0043514 C35.133503,24.7220173 34,28.0384678 34,31.6 Z M50.6,25.7 C47.3,25.7 44.7,28.4 44.7,31.6 C44.7,34.8 47.4,37.5 50.6,37.5 C53.8,37.5 56.5,34.8 56.5,31.6 C56.5,28.4 53.9,25.7 50.6,25.7 Z M50.6,15 C45.3992485,15 40.7737105,17.3967228 37.7350186,21.1243412 L43.7318781,31.035227 C44.0682232,27.5450037 47.0241918,24.8 50.6,24.8 C51.5697917,24.8 52.4939914,25.001907 53.3327064,25.3658281 C53.4068234,25.3233087 53.4975845,25.3 53.6,25.3 L65.9553321,25.2997929 C63.4747547,19.2815451 57.5511628,15 50.6,15 Z" id="Combined-Shape" fill="#0266CC" fill-rule="nonzero"></path>
    </g>
</svg>