<?xml version="1.0" encoding="UTF-8"?>
<svg width="102px" height="76px" viewBox="0 0 102 76" version="1.1" xmlns="http://www.w3.org/2000/svg" xmlns:xlink="http://www.w3.org/1999/xlink">
    <!-- Generator: Sketch 63.1 (92452) - https://sketch.com -->
    <title>cloud/selector@1x</title>
    <desc>Created with Sketch.</desc>
    <g id="cloud/selector" stroke="none" stroke-width="1" fill="none" fill-rule="evenodd">
        <rect id="Rectangle" stroke="#2484E4" fill="#E6F6FF" x="0.5" y="0.5" width="101" height="75"></rect>
        <path d="M54.1834968,18.5045145 C50.2888035,18.615675 46.7616954,20.772361 44.878662,24.1646897 L44.7296116,24.4424351 C43.7666598,23.8262553 42.653507,23.5 41.5000724,23.5 C38.1863544,23.5 35.5000724,26.1862913 35.5000724,29.5 C35.5000724,29.9749276 35.5552564,30.4436121 35.6642322,30.8982329 L35.7560262,31.2364393 C33.2399084,32.4469844 31.5930565,34.9582738 31.5041053,37.7497699 L31.5000724,37.9835545 L31.5037259,38.2346413 C31.6324319,42.2834972 34.9510238,45.500066 38.9965705,45.500066 L62.9954331,45.500066 L63.2428284,45.4961788 C67.1916687,45.3677548 70.3706073,42.1868546 70.4960209,38.2502267 L70.5000724,38.017539 L70.495403,37.7353883 C70.3834269,34.6128263 68.3509152,31.8931748 65.4122088,30.8968775 C65.4707078,30.4352839 65.5000724,29.9690347 65.5000724,29.5 C65.5000724,23.4248675 60.5751956,18.5 54.5000724,18.5 L54.1834968,18.5045145 Z" id="Path" fill="#FFFFFF" fill-rule="nonzero"></path>
        <g id="Group" transform="translate(32.000000, 18.000000)" fill="#0266CC" fill-rule="nonzero">
            <path d="M22.6834244,0.00451450232 C18.7887311,0.115675031 15.2616231,2.27236097 13.3785896,5.66468968 L13.2295392,5.94243513 C12.2665875,5.32625529 11.1534346,5 10,5 C6.68628201,5 4,7.68629134 4,11 C4,11.4749276 4.05518401,11.9436121 4.16415984,12.3982329 L4.25595389,12.7364393 C1.73983603,13.9469844 0.0929841574,16.4582738 0.00403291181,19.2497699 L0,19.4835545 L0.00365357984,19.7346413 C0.132359525,23.7834972 3.45095141,27.000066 7.49649813,27.000066 L31.4953607,27.000066 L31.742756,26.9961788 C35.6915964,26.8677548 38.870535,23.6868546 38.9959485,19.7502267 L39,19.517539 L38.9953306,19.2353883 C38.8833545,16.1128263 36.8508428,13.3931748 33.9121364,12.3968775 C33.9706355,11.9352839 34,11.4690347 34,11 C34,4.92486745 29.0751232,0 23,0 L22.6834244,0.00451450232 Z M22.9999907,1 C28.5228385,1 32.9999907,5.4771522 32.9999907,11 C32.9999907,11.4270515 32.9732793,11.8513082 32.9200716,12.2711504 L32.8173578,13.0816257 L33.5910608,13.343931 C36.13708,14.2070973 37.8989227,16.5645735 37.9957298,19.2621243 L38.0001484,19.5177604 L37.9962758,19.7257229 C37.887833,23.1279571 35.1320581,25.8854326 31.7185109,25.996507 L31.4873766,26.0001297 L7.49649813,26.0001297 C3.99098738,26.0001297 1.11469537,23.2121995 1.00333998,19.7109427 L0.999866726,19.4842563 L1.0037069,19.2742006 C1.08056306,16.8640052 2.50816912,14.6870443 4.68950229,13.6375696 L5.46186356,13.265974 L5.21280346,12.4458556 C5.07176708,11.9814434 4.99999067,11.4954649 4.99999067,11 C4.99999067,8.23857609 7.23856676,6 9.99999067,6 C10.9622287,6 11.8883707,6.27144404 12.6905533,6.78474992 L13.6131365,7.37509845 L14.117302,6.40273632 C15.8360332,3.08789456 19.2493608,1 22.9999907,1 Z" id="Path"></path>
        </g>
        <path d="M13.5,7 C17.0898509,7 20,9.91014913 20,13.5 C20,17.0898509 17.0898509,20 13.5,20 C9.91014913,20 7,17.0898509 7,13.5 C7,9.91014913 9.91014913,7 13.5,7 Z M16.3070198,11 L12.1021446,15.5688499 L9.68938381,12.9756478 L9,13.661054 L12.1060614,17 L17,11.681519 L16.3070198,11 Z" id="Combined-Shape" fill="#0266CC"></path>
    </g>
</svg>