<?xml version="1.0" encoding="UTF-8"?>
<svg width="102px" height="76px" viewBox="0 0 102 76" version="1.1" xmlns="http://www.w3.org/2000/svg" xmlns:xlink="http://www.w3.org/1999/xlink">
    <!-- Generator: Sketch 63.1 (92452) - https://sketch.com -->
    <title>edge/selector@1x</title>
    <desc>Created with Sketch.</desc>
    <g id="edge/selector" stroke="none" stroke-width="1" fill="none" fill-rule="evenodd">
        <rect id="Rectangle" stroke="#2484E4" fill="#E6F6FF" x="0.5" y="0.5" width="101" height="75"></rect>
        <path d="M51.5,49 C58.9722924,49 63.3090047,45.7136964 66,40 C66.2208492,39.5310785 63,42 59,42 C57.4535475,42 51,40 50,39 C49.8507134,38.8507134 46.6367418,33.8346858 47,31 C47.3213489,28.4923536 51.4031303,27.0707311 52,27 C52.9457088,26.8879303 55,26 56,29 C56.6666667,31 56,33 54,35 C56,36.3333333 58.3333333,37 61,37 C64,37 69.0002399,29.5929515 69.0002399,29 C69.0002399,19.6111593 60.3888407,14 51,14 C41.6111593,14 34,22.6111593 34,32 C34,41.3888407 40,49 51.5,49 Z" id="Oval" fill="#FFFFFF"></path>
        <path d="M51,13.5 C57.0777145,13.5 61.8876084,15.4305016 65.2285534,18.7714466 C67.9564063,21.4992996 69.5,25.0531547 69.5,28 C69.5,33.2761424 65.2761424,37.5 60,37.5 C56.4948206,37.5 54.3302155,36.778465 53.5527864,35.2236068 C53.4292918,34.9766175 53.529404,34.676281 53.7763932,34.5527864 C54.9226952,33.9796354 55.5,32.8250259 55.5,31 C55.5,30.6283831 55.4777052,30.2611635 55.4329452,29.90007 C54.8117345,28.2763851 53.693294,27.5 52,27.5 L51.883,27.503 L51.8182623,27.505934 C51.5550546,27.5225269 51.2580096,27.573679 50.9381978,27.6563758 C49.0150426,28.2218834 47.5,30.2227035 47.5,32 C47.5,37.8581592 52.7263918,41.5 59,41.5 C62.154265,41.5 64.367946,40.8675197 65.6546338,39.6384448 C65.8543152,39.4477043 66.1708148,39.4549524 66.3615552,39.6546338 C66.5059842,39.8058329 66.5368957,40.0240102 66.4567012,40.203852 L66.4569058,40.2030692 C65.0703127,43.3229037 63.0652043,45.6602323 60.4532563,47.2109709 C60.407719,47.3095453 60.3290467,47.3944937 60.2236068,47.4472136 C59.9985974,47.5597183 59.7150553,47.6715603 59.400095,47.7780268 C57.0372429,48.925179 54.2350539,49.5 51,49.5 C41.4835389,49.5 33.6791843,42.1116355 33.5030414,32.3379611 L33.5,32 L33.5,30.6669922 C33.6134842,27.9680599 34.980124,23.9064974 37.215384,20.7132688 C40.3889244,16.1796398 44.9965976,13.5 51,13.5 Z M45,22.5 C41.2339479,22.5 38.4727224,24.1032922 36.5303396,26.7927453 C35.8461386,27.7401005 35.3147569,28.7576399 34.9191273,29.7749731 C34.780895,30.1304278 34.6697031,30.4597809 34.583259,30.7541583 C34.5628756,30.823572 34.5456956,30.8845894 34.5315684,30.9366431 L34.5315684,30.9366431 L34.5,31.06 L34.5,32 C34.5,41.2688447 41.7440094,48.3321389 50.6801423,48.4970512 L51,48.5 C51.8011635,48.5 52.573073,48.463632 53.3158571,48.3908512 C46.034836,47.5927934 42.5,42.7412509 42.5,37 C42.5,33.6890948 43.9280487,30.9719686 46.324145,28.9897435 C47.6619668,27.883 49.2731445,27.0691761 50.6217897,26.7075919 L50.7278467,26.6752172 C51.0847948,26.5763561 51.4540983,26.5168061 51.8314916,26.5030682 C51.8894843,26.5013203 51.9453397,26.5 52,26.5 L52.01,26.5 L52.2180397,26.5010572 C53.1377021,26.51039 53.8466172,26.5847504 54.4127002,26.8509301 C52.9007615,24.2831515 49.795965,22.5 45,22.5 Z M47.1514557,29.6073545 L46.9615693,29.7602565 L46.9615693,29.7602565 C44.7839535,31.5617387 43.5,34.0046971 43.5,37 C43.5,42.8896889 47.4959997,47.6970374 55.9884102,47.5001343 C56.5407648,47.4873276 57.9783421,47.1952294 59.0160778,46.8527261 C61.3912264,45.6857685 63.2782114,43.896014 64.6847265,41.4810371 C63.2400893,42.1644958 61.3437011,42.5 59,42.5 C52.2351467,42.5 46.5,38.5036499 46.5,32 C46.5,31.1967968 46.7369582,30.3690625 47.1514557,29.6073545 Z M51,14.5 C45.341817,14.5 41.0300349,17.0075612 38.034616,21.2867312 C36.8489112,22.9805951 35.9192057,24.9353771 35.3114997,26.7667415 L35.3114997,26.7667415 L35.284,26.85 L35.4508409,26.5934425 L35.7196604,26.2072547 C37.8397776,23.2717078 40.8910521,21.5 45,21.5 C52.6933081,21.5 56.5,25.8923368 56.5,31 C56.5,32.8912818 55.9283338,34.2813032 54.779539,35.1115729 L54.779539,35.1115729 L54.708,35.159 L54.7639303,35.2219438 C55.5216358,36.0159917 57.1471631,36.4618848 59.6663414,36.497664 L59.6663414,36.497664 L60,36.5 C64.7238576,36.5 68.5,32.7238576 68.5,28 C68.5,25.3247523 67.0659151,22.0230219 64.5214466,19.4785534 C61.3709143,16.3280211 56.8163533,14.5 51,14.5 Z" id="Combined-Shape" fill="#0266CC" fill-rule="nonzero"></path>
        <path d="M13.5,7 C17.0898509,7 20,9.91014913 20,13.5 C20,17.0898509 17.0898509,20 13.5,20 C9.91014913,20 7,17.0898509 7,13.5 C7,9.91014913 9.91014913,7 13.5,7 Z M16.3070198,11 L12.1021446,15.5688499 L9.68938381,12.9756478 L9,13.661054 L12.1060614,17 L17,11.681519 L16.3070198,11 Z" id="Combined-Shape" fill="#0266CC"></path>
    </g>
</svg>