<?xml version="1.0" encoding="UTF-8"?>
<svg width="102px" height="76px" viewBox="0 0 102 76" version="1.1" xmlns="http://www.w3.org/2000/svg" xmlns:xlink="http://www.w3.org/1999/xlink">
    <!-- Generator: Sketch 63.1 (92452) - https://sketch.com -->
    <title>media/install@1x</title>
    <desc>Created with Sketch.</desc>
    <g id="media/install" stroke="none" stroke-width="1" fill="none" fill-rule="evenodd">
        <rect id="Rectangle" stroke="#B3B3B3" fill="#FFFFFF" x="0.5" y="0.5" width="101" height="75"></rect>
        <path d="M85,14 L85,16 L93,16 L93,14 L95,14 L95,18 L83,18 L83,14 L85,14 Z M90,7 L90,11 L93,11 L89,14 L85,11 L88,11 L88,7 L90,7 Z" id="img_install" fill="#999999"></path>
        <g id="Group" transform="translate(39.000000, 19.000000)" fill="#FFFFFF" stroke="#FFFFFF">
            <rect id="Rectangle" x="0" y="0" width="5" height="5"></rect>
            <rect id="Rectangle" x="10" y="0" width="5" height="5"></rect>
            <rect id="Rectangle" x="0" y="20" width="5" height="5"></rect>
            <rect id="Rectangle" x="10" y="20" width="5" height="5"></rect>
            <rect id="Rectangle" x="0" y="10" width="5" height="5"></rect>
            <rect id="Rectangle" x="10" y="10" width="5" height="5"></rect>
            <rect id="Rectangle" x="20" y="0" width="5" height="5"></rect>
            <rect id="Rectangle" x="20" y="20" width="5" height="5"></rect>
            <rect id="Rectangle" x="20" y="10" width="5" height="5"></rect>
        </g>
        <path d="M45,25 L38,25 L38,18 L45,18 L45,25 Z M39,24 L44,24 L44,19 L39,19 L39,24 Z" id="Shape" fill="#C7C7C7" fill-rule="nonzero"></path>
        <path d="M45,35 L38,35 L38,28 L45,28 L45,35 Z M39,34 L44,34 L44,29 L39,29 L39,34 Z" id="Shape" fill="#C7C7C7" fill-rule="nonzero"></path>
        <path d="M45,45 L38,45 L38,38 L45,38 L45,45 Z M39,44 L44,44 L44,39 L39,39 L39,44 Z" id="Shape" fill="#C7C7C7" fill-rule="nonzero"></path>
        <path d="M55,25 L48,25 L48,18 L55,18 L55,25 Z M49,24 L54,24 L54,19 L49,19 L49,24 Z" id="Shape" fill="#C7C7C7" fill-rule="nonzero"></path>
        <path d="M55,35 L48,35 L48,28 L55,28 L55,35 Z M49,34 L54,34 L54,29 L49,29 L49,34 Z" id="Shape" fill="#C7C7C7" fill-rule="nonzero"></path>
        <path d="M55,45 L48,45 L48,38 L55,38 L55,45 Z M49,44 L54,44 L54,39 L49,39 L49,44 Z" id="Shape" fill="#C7C7C7" fill-rule="nonzero"></path>
        <path d="M65,25 L58,25 L58,18 L65,18 L65,25 Z M59,24 L64,24 L64,19 L59,19 L59,24 Z" id="Shape" fill="#C7C7C7" fill-rule="nonzero"></path>
        <path d="M65,35 L58,35 L58,28 L65,28 L65,35 Z M59,34 L64,34 L64,29 L59,29 L59,34 Z" id="Shape" fill="#C7C7C7" fill-rule="nonzero"></path>
        <path d="M65,45 L58,45 L58,38 L65,38 L65,45 Z M59,44 L64,44 L64,39 L59,39 L59,44 Z" id="Shape" fill="#C7C7C7" fill-rule="nonzero"></path>
    </g>
</svg>