<?xml version="1.0" encoding="UTF-8"?>
<svg width="102px" height="76px" viewBox="0 0 102 76" version="1.1" xmlns="http://www.w3.org/2000/svg" xmlns:xlink="http://www.w3.org/1999/xlink">
    <!-- Generator: Sketch 63.1 (92452) - https://sketch.com -->
    <title>ex/nomal@1x</title>
    <desc>Created with Sketch.</desc>
    <g id="ex/nomal" stroke="none" stroke-width="1" fill="none" fill-rule="evenodd">
        <rect id="Rectangle" stroke="#E4E4E4" fill="#FFFFFF" x="0.5" y="0.5" width="101" height="75"></rect>
        <g id="Group" transform="translate(33.000000, 14.000000)" fill-rule="nonzero">
            <path d="M25.8797999,20.1968704 L27.3797999,20.1968704 L27.9797999,20.1968704 L34.9797999,20.1968704 C35.0797999,20.1968704 35.1797999,18.6968704 35.1797999,17.8968704 C35.1797999,15.1968704 34.4797999,12.6968704 33.2797999,10.4968704 C33.2797999,10.4968704 33.2797999,10.4968704 33.2797999,10.4968704 C31.3797999,7.09687045 28.3797999,4.59687045 24.5797999,3.29687045 C27.9797999,1.79687045 30.8797999,1.59687045 32.4797999,3.19687045 C33.8797999,4.59687045 34.0797999,7.29687045 33.1797999,10.4968704 C34.4797999,6.79687045 34.3797999,3.69687045 32.6797999,1.99687045 C30.4797999,-0.20312955 25.8797999,0.19687045 20.7797999,2.69687045 C20.3797999,2.69687045 19.9797999,2.59687045 19.5797999,2.59687045 C11.0797999,2.59687045 4.07979986,9.49687045 4.07979986,18.0968704 C4.07979986,18.0968704 4.07979986,18.0968704 4.07979986,18.0968704 C0.279799864,24.2968704 -0.720200136,30.1968704 1.87979986,32.7968704 C4.07979986,34.9968704 8.27979986,34.4968704 13.1797999,32.0968704 C15.1797999,32.9968704 17.2797999,32.9968704 19.5797999,32.9968704 C26.3797999,32.9968704 32.0797999,29.1968704 34.1797999,22.1968704 L25.5797999,22.1968704 L25.1797999,22.1968704 C24.9797999,23.1968704 24.7797999,23.3968704 24.4797999,23.7968704 C24.0797999,24.3968704 23.4797999,25.0968704 22.8797999,25.4968704 C22.4797999,25.7968704 21.9797999,26.0968704 21.4797999,26.2968704 C20.8797999,26.4968704 20.1797999,26.5968704 19.4797999,26.5968704 C15.9797999,26.5968704 13.1797999,23.1968704 13.1797999,20.1968704 L24.8797999,20.1968704 L25.8797999,20.1968704 Z M3.97979986,32.9968704 C1.37979986,31.8968704 2.17979986,27.3968704 4.77979986,22.3968704 C6.07979986,26.5968704 9.07979986,30.0968704 12.9797999,31.9968704 C9.27979986,33.4968704 5.97979986,33.8968704 3.97979986,32.9968704 Z M12.9797999,16.1968704 C12.9797999,13.1968704 15.7797999,9.89687045 19.2797999,9.89687045 C22.7797999,9.89687045 25.5797999,13.1968704 25.5797999,16.1968704 L12.9797999,16.1968704 Z" id="Shape" fill="#FFFFFF"></path>
            <path d="M33.0797999,1.59687045 C34.8797999,3.39687045 35.0797999,6.49687045 33.7797999,10.4968704 C34.9797999,12.7968704 35.6797999,15.2968704 35.6797999,17.8968704 C35.6797999,20.5271735 35.4150616,20.6865858 35.0513807,20.6962471 L13.7797999,20.6968704 C14.0797999,23.1968704 16.5797999,26.0968704 19.5797999,26.0968704 C20.2797999,26.0968704 20.8797999,25.9968704 21.3797999,25.7968704 C21.7797999,25.6968704 22.0797999,25.3968704 22.4797999,25.1968704 L22.6797999,25.0968704 C23.1797999,24.7968704 23.5797999,24.1968704 23.9797999,23.6968704 L24.1797999,23.3968704 C24.3797999,23.0968704 24.5797999,22.8968704 24.6797999,22.0968704 L24.7797999,21.6968704 L34.8797999,21.6968704 L34.6797999,22.2968704 C32.5797999,29.1968704 26.7797999,33.4968704 19.5797999,33.4968704 C17.1797999,33.4968704 15.0797999,33.3968704 13.1797999,32.5968704 C10.4797999,33.9968704 7.97979986,34.6968704 5.87979986,34.6968704 C4.07979986,34.6968704 2.57979986,34.1968704 1.57979986,33.1968704 C-1.12020014,30.4968704 -0.320200136,24.4968704 3.67979986,17.9968704 C3.77979986,9.19687045 10.8797999,2.09687045 19.6797999,2.09687045 L20.7797999,2.09687045 L20.7797999,2.09687045 C26.1797999,-0.50312955 30.7797999,-0.70312955 33.0797999,1.59687045 Z M4.67979986,23.6968704 C3.07979986,26.9968704 2.47979986,29.7968704 3.07979986,31.2968704 C3.25979986,31.8368704 3.60179986,32.2148704 4.03289986,32.4308704 L4.17979986,32.4968704 C5.87979986,33.1968704 8.67979986,32.9968704 11.7797999,31.8968704 C8.57979986,30.0968704 6.07979986,27.1968704 4.67979986,23.6968704 Z M21.0797999,3.09687045 L20.9797999,3.19687045 L20.8797999,3.19687045 C20.3797999,3.09687045 19.9797999,2.99687045 19.6797999,2.99687045 C12.0405927,2.99687045 5.7567633,8.6725151 4.80462663,16.0474895 C6.44647461,14.2311532 8.27169793,12.4268529 10.2797999,10.8968704 C10.3797999,10.7968704 10.4797999,10.7968704 10.5797999,10.6968704 C8.07979986,13.1968704 6.07979986,15.7968704 4.47979986,18.3968704 L4.679,18.077 L4.67979986,18.0968704 L4.57979986,18.2968704 C0.879799864,24.3968704 -0.0202001365,29.9968704 2.27979986,32.3968704 C2.47979986,32.5968704 2.67979986,32.7968704 2.97979986,32.8968704 C2.57979986,32.5968704 2.37979986,32.1968704 2.17979986,31.6968704 C1.47979986,29.6968704 2.27979986,26.2968704 4.37979986,22.1968704 L4.97979986,21.0968704 L5.37979986,22.2968704 C6.57979986,26.3968704 9.47979986,29.6968704 13.3797999,31.5968704 L13.5797999,31.6968704 C15.3797999,32.4968704 17.3797999,32.5968704 19.7797999,32.5968704 C26.3797999,32.5968704 31.5797999,28.8968704 33.6797999,22.7968704 L25.7797999,22.7968704 C25.5797999,23.4968704 25.3797999,23.7968704 25.1797999,24.0968704 L24.9797999,24.2968704 C24.5797999,24.8968704 23.9797999,25.5968704 23.3797999,25.9968704 L23.1797999,26.0968704 C22.7797999,26.3968704 22.3797999,26.5968704 21.8797999,26.7968704 C21.2797999,26.9968704 20.5797999,27.0968704 19.7797999,27.0968704 C15.9797999,27.0968704 12.9797999,23.3968704 12.9797999,20.1968704 L12.9797999,19.6968704 L34.4797999,19.6968704 C34.4797999,19.2968704 34.5797999,18.4968704 34.5797999,17.8968704 C34.5797999,15.7406204 34.1403467,13.5843704 33.179043,11.5929154 L32.9797999,11.1968704 L32.6797999,10.6968704 C30.8797999,7.39687045 27.8797999,4.89687045 24.2797999,3.79687045 L23.0797999,3.39687045 L24.2797999,2.89687045 C28.065094,1.24687045 30.9083466,1.19834104 32.6266908,2.65984877 L32.778,2.795 L32.7093999,2.67767045 C32.6037999,2.52087045 32.4597999,2.37687045 32.3797999,2.29687045 C30.3797999,0.29687045 26.1797999,0.59687045 21.0797999,3.09687045 Z M19.2797999,9.39687045 C23.0797999,9.39687045 26.0797999,13.0968704 26.0797999,16.1968704 L26.0797999,16.6968704 L12.4797999,16.6968704 L12.4797999,16.1968704 C12.4797999,12.9968704 15.4797999,9.39687045 19.2797999,9.39687045 Z M19.3797999,10.3968704 C16.2797999,10.3968704 13.8797999,13.0968704 13.5797999,15.6968704 L25.1797999,15.6968704 C24.8797999,13.0968704 22.4797999,10.3968704 19.3797999,10.3968704 Z M25.8797999,3.39687045 C28.6797999,4.59687045 31.0797999,6.49687045 32.7797999,8.99687045 L32.7797999,8.79687045 L32.9797999,9.19687045 C33.4797999,6.69687045 33.1797999,4.69687045 32.0797999,3.59687045 C30.8797999,2.39687045 28.6797999,2.29687045 25.8797999,3.39687045 Z" id="Combined-Shape" fill="#9F9F9F"></path>
        </g>
    </g>
</svg>