<?xml version="1.0" encoding="UTF-8"?>
<svg width="28px" height="22px" viewBox="0 0 28 22" version="1.1" xmlns="http://www.w3.org/2000/svg" xmlns:xlink="http://www.w3.org/1999/xlink">
    <!-- Generator: sketchtool 61.2 (101010) - https://sketch.com -->
    <title>A379E62B-E1D2-40E4-A1F4-3ABF065B6D76@1.5x</title>
    <desc>Created with sketchtool.</desc>
    <g id="최종정리" stroke="none" stroke-width="1" fill="none" fill-rule="evenodd">
        <g id="정리_인증서선택_리스트3-1" transform="translate(-64.000000, -476.000000)">
            <g id="Group-3" transform="translate(64.000000, 476.000000)">
                <g id="menu/키보드">
                    <g id="img_keyboard">
                        <g>
                            <path d="M1,7 L1,21 L27,21 L27,7 L1,7 Z" id="Rectangle" stroke="#0B80C7" stroke-width="2"></path>
                            <g id="전선" transform="translate(4.000000, 0.000000)" fill="#0B80C7">
                                <rect id="Rectangle" x="0" y="3" width="2" height="4"></rect>
                                <rect id="Rectangle" x="15" y="0" width="2" height="4"></rect>
                                <rect id="Rectangle" x="0" y="2" width="16" height="2"></rect>
                            </g>
                            <rect id="Rectangle" fill="#0B80C7" x="4" y="10" width="2" height="2"></rect>
                            <rect id="Rectangle" fill="#0B80C7" x="7" y="10" width="2" height="2"></rect>
                            <rect id="Rectangle" fill="#0B80C7" x="10" y="10" width="2" height="2"></rect>
                            <rect id="Rectangle" fill="#0B80C7" x="13" y="10" width="2" height="2"></rect>
                            <rect id="Rectangle" fill="#0B80C7" x="4" y="13" width="2" height="2"></rect>
                            <rect id="Rectangle" fill="#0B80C7" x="7" y="13" width="2" height="2"></rect>
                            <rect id="Rectangle" fill="#0B80C7" x="10" y="13" width="2" height="2"></rect>
                            <rect id="Rectangle" fill="#0B80C7" x="13" y="13" width="2" height="2"></rect>
                            <rect id="Rectangle" fill="#0B80C7" x="4" y="16" width="2" height="2"></rect>
                            <rect id="Rectangle" fill="#0B80C7" x="7" y="16" width="2" height="2"></rect>
                            <rect id="Rectangle" fill="#0B80C7" x="10" y="16" width="8" height="2"></rect>
                            <rect id="Rectangle" fill="#0B80C7" x="16" y="10" width="2" height="2"></rect>
                            <rect id="Rectangle" fill="#0B80C7" x="19" y="10" width="2" height="2"></rect>
                            <rect id="Rectangle" fill="#0B80C7" x="22" y="10" width="2" height="2"></rect>
                            <rect id="Rectangle" fill="#0B80C7" x="16" y="13" width="2" height="2"></rect>
                            <rect id="Rectangle" fill="#0B80C7" x="19" y="13" width="2" height="2"></rect>
                            <rect id="Rectangle" fill="#0B80C7" x="22" y="13" width="2" height="2"></rect>
                            <rect id="Rectangle" fill="#0B80C7" x="19" y="16" width="2" height="2"></rect>
                            <rect id="Rectangle" fill="#0B80C7" x="22" y="16" width="2" height="2"></rect>
                        </g>
                    </g>
                </g>
            </g>
        </g>
    </g>
</svg>