<?xml version="1.0" encoding="UTF-8"?>
<svg width="102px" height="76px" viewBox="0 0 102 76" version="1.1" xmlns="http://www.w3.org/2000/svg" xmlns:xlink="http://www.w3.org/1999/xlink">
    <!-- Generator: Sketch 63.1 (92452) - https://sketch.com -->
    <title>opera/hover@1x</title>
    <desc>Created with Sketch.</desc>
    <g id="opera/hover" stroke="none" stroke-width="1" fill="none" fill-rule="evenodd">
        <rect id="Rectangle" stroke="#E4E4E4" fill="#FFFFFF" x="0.5" y="0.5" width="101" height="75"></rect>
        <g id="Group" transform="translate(34.000000, 14.000000)">
            <path d="M17.5,0 C26.6126984,0 34,7.83501688 34,17.5 C34,27.1649831 26.6126984,35 17.5,35 C8.38730163,35 1,27.1649831 1,17.5 C1,7.83501688 8.38730163,0 17.5,0 Z M17.5,4 C12.2532949,4 8,10.2680135 8,18 C8,25.7319865 12.2532949,32 17.5,32 C22.7467051,32 27,25.7319865 27,18 C27,10.2680135 22.7467051,4 17.5,4 Z" id="bg" fill="#FFFFFF"></path>
            <path d="M17.5,5.68434189e-14 C27.1649831,5.68434189e-14 35,7.83501688 35,17.5 C35,27.1649831 27.1649831,35 17.5,35 C7.83501688,35 0,27.1649831 0,17.5 C0,7.83501688 7.83501688,5.68434189e-14 17.5,5.68434189e-14 Z M17.5,0.972222222 C8.37196039,0.972222222 0.972222222,8.37196039 0.972222222,17.5 C0.972222222,26.6280396 8.37196039,34.0277778 17.5,34.0277778 C18.9997727,34.0277778 20.4528885,33.8280161 21.8341918,33.4536484 C13.1787108,32.7756519 7.5,26.1902954 7.5,17.5369281 C7.5,8.66848784 13.4885957,2.43367998 22.0116814,1.59620603 C20.5774762,1.18949056 19.064111,0.972222222 17.5,0.972222222 Z M24.4475184,2.4989791 L24,2.5 C21.8078095,2.5 19.7662532,2.85744484 17.9314509,3.52727356 C23.2943528,3.9815618 27.2738903,10.2053365 27.2738903,17.5291115 C27.2738903,25.4194942 23.3216188,31.338674 17.3111776,31.4588273 L17.429296,31.4541242 C19.278096,32.1730054 21.365456,32.5469397 23.6443818,32.5085645 L23.9827784,32.499876 L24.4824818,32.4826544 C30.1207071,29.8529959 34.0277778,24.1327706 34.0277778,17.5 C34.0277778,10.8535213 30.1045407,5.12336374 24.4475184,2.4989791 Z M17.3011842,4.5 C16.5440602,4.5 15.8459635,4.61450742 15.2040989,4.84339122 C11.0595516,7.40094786 8.5,11.8926608 8.5,17.5369281 C8.5,22.625628 10.5657761,26.9334129 14.0997919,29.6037593 L14.1630411,29.5118717 L14.3979362,29.664032 C15.2669427,30.1990318 16.2217886,30.4804053 17.2911908,30.4590271 C22.6586322,30.3517278 26.2738903,24.9372813 26.2738903,17.5291115 C26.2738903,10.4083376 22.3222757,4.5 17.3011842,4.5 Z" id="Combined-Shape" fill="#0266CC" fill-rule="nonzero"></path>
        </g>
    </g>
</svg>