<?xml version="1.0" encoding="UTF-8"?>
<svg width="102px" height="76px" viewBox="0 0 102 76" version="1.1" xmlns="http://www.w3.org/2000/svg" xmlns:xlink="http://www.w3.org/1999/xlink">
    <!-- Generator: Sketch 63.1 (92452) - https://sketch.com -->
    <title>safari/hover@1x</title>
    <desc>Created with Sketch.</desc>
    <g id="safari/hover" stroke="none" stroke-width="1" fill="none" fill-rule="evenodd">
        <rect id="Rectangle" stroke="#E4E4E4" fill="#FFFFFF" x="0.5" y="0.5" width="101" height="75"></rect>
        <g id="Group" transform="translate(34.000000, 14.000000)">
            <circle id="Oval" fill="#FFFFFF" cx="17" cy="17" r="17"></circle>
            <path d="M17.5,0 C7.83501688,0 0,7.83501688 0,17.5 C0,27.1649831 7.83501688,35 17.5,35 C27.1649831,35 35,27.1649831 35,17.5 C35,7.83501688 27.1649831,0 17.5,0 Z M17.5,0.972222222 C26.6280396,0.972222222 34.0277778,8.37196039 34.0277778,17.5 C34.0277778,26.6280396 26.6280396,34.0277778 17.5,34.0277778 C8.37196039,34.0277778 0.972222222,26.6280396 0.972222222,17.5 C0.972222222,8.37196039 8.37196039,0.972222222 17.5,0.972222222 Z" id="Oval" fill="#0266CC" fill-rule="nonzero"></path>
            <path d="M17.5,2 C8.93958638,2 2,8.93958638 2,17.5 C2,26.0604136 8.93958638,33 17.5,33 C26.0604136,33 33,26.0604136 33,17.5 C33,8.93958638 26.0604136,2 17.5,2 Z M17.5,2.96875 C25.5253878,2.96875 32.03125,9.47461223 32.03125,17.5 C32.03125,25.5253878 25.5253878,32.03125 17.5,32.03125 C9.47461223,32.03125 2.96875,25.5253878 2.96875,17.5 C2.96875,9.47461223 9.47461223,2.96875 17.5,2.96875 Z" id="Oval" fill="#0266CC" fill-rule="nonzero"></path>
            <path d="M26.7605739,8.56105221 L15.7605739,14.5610522 C15.4675291,14.7208948 15.4104117,15.1175185 15.6464466,15.3535534 L19.6464466,19.3535534 C19.8662861,19.5733929 20.2313265,19.5414304 20.409616,19.2867312 L27.409616,9.28673117 C27.7126365,8.85384474 27.2244586,8.30802424 26.7605739,8.56105221 Z" id="Path-2" fill="#0266CC" fill-rule="nonzero"></path>
            <path d="M15.595632,14.7059142 L7.59563196,25.7059142 C7.27729912,26.1436218 7.78443735,26.7045967 8.25193551,26.4318895 L20.2519355,19.4318895 C20.535114,19.266702 20.585369,18.8782622 20.3535534,18.6464466 L16.3535534,14.6464466 C16.1363012,14.4291944 15.7763424,14.4574373 15.595632,14.7059142 Z M16.06,15.767 L19.188,18.895 L9.804,24.368 L16.06,15.767 Z" id="Path-2" fill="#0266CC" fill-rule="nonzero"></path>
        </g>
    </g>
</svg>