<?xml version="1.0" encoding="UTF-8"?>
<svg width="102px" height="76px" viewBox="0 0 102 76" version="1.1" xmlns="http://www.w3.org/2000/svg" xmlns:xlink="http://www.w3.org/1999/xlink">
    <!-- Generator: Sketch 63.1 (92452) - https://sketch.com -->
    <title>token/disable@1x</title>
    <desc>Created with Sketch.</desc>
    <g id="token/disable" stroke="none" stroke-width="1" fill="none" fill-rule="evenodd">
        <rect id="Rectangle" stroke="#E4E4E4" fill="#F6F6F6" x="0.5" y="0.5" width="101" height="75"></rect>
        <g id="Group-3" transform="translate(39.000000, 14.000000)" fill-rule="nonzero">
            <g id="Combined-Shape-2" fill="#FFFFFF">
                <path d="M20,1.42108547e-14 C20.6,1.42108547e-14 21,0.4 21,1 L21,1 L21,8 C21,8.6 20.6,9 20,9 L20.018,8.999 L21,9 C22.7,9 24,10.3 24,12 L24,31 C24,32.7 22.7,34 21,34 L3,34 C1.3,34 0,32.7 0,31 L0,12 C0,10.3 1.3,9 3,9 L3.98169534,8.99987526 C3.39187838,8.99181591 3,8.59387755 3,8 L3,8 L3,1 C3,0.4 3.4,1.42108547e-14 4,1.42108547e-14 L4,1.42108547e-14 Z" id="Combined-Shape"></path>
            </g>
            <path d="M20.5,1.42108547e-14 C21.3,1.42108547e-14 22,0.7 22,1.5 L22,8.5 C22,8.68208145 21.9637382,8.85898264 21.8982888,9.02362935 C23.6181002,9.22758448 25,10.7342391 25,12.5 L25,31.5 C25,33.4 23.4,35 21.5,35 L3.5,35 C1.6,35 0,33.4 0,31.5 L0,12.5 C0,10.7342391 1.38189981,9.22758448 3.10223364,9.02350182 C3.03626181,8.85898264 3,8.68208145 3,8.5 L3,1.5 C3,0.7 3.7,1.42108547e-14 4.5,1.42108547e-14 L20.5,1.42108547e-14 Z M21.5,10 L3.5,10 C2.1,10 1,11.1 1,12.5 L1,31.5 C1,32.9 2.1,34 3.5,34 L21.5,34 C22.9,34 24,32.9 24,31.5 L24,12.5 C24,11.1 22.9,10 21.5,10 Z M12.4,12.9 C15,12.9 16.9,14.6 16.9,16.9 L16.9,19 L17.6,19 C19,19 19.9,19.9 19.9,21.3 L19.9,28.5 C20,29.9 19,31 17.7,31 L7.4,31 C6,31 4.9,29.9 4.9,28.5 L4.9,21.3 C4.9,20 5.9,19 7.4,19 L7.9,19 L7.9,16.9 C7.9,14.6 9.8,12.9 12.4,12.9 Z M12.5,13.9 C10.4,13.9 9,15.1 9,16.9 L9,20 L7.5,20 C6.8,20 6,20.4 6,21.3 L6,28.5 C6,29.4 6.7,30 7.5,30 L17.7,30 C18.6,30 19,29.2 19,28.5 L19,21.3 C19,20.5 18.5,20 17.7,20 L16,20 L16,16.9 C16,15.1 14.6,13.9 12.5,13.9 Z M12.5,15.5 C14.1,15.5 15,16.6 15,17.2 L15,20 L10,20 L10,17.2 C10,16.6 10.7,15.5 12.5,15.5 Z M12.5,16.5 C11.4,16.5 11,17.1 11,17.2 L11,19 L14,19 L14,17.2 C14,17.2 13.5,16.5 12.5,16.5 Z M20.5,1 L4.5,1 C4.2,1 4,1.2 4,1.5 L4,8.5 C4,8.79587629 4.19453951,8.99448282 4.48768581,8.99988689 L20.512,8.999 L20.5961591,8.99272977 C20.8419753,8.95432099 21,8.76666667 21,8.5 L21,1.5 C21,1.2 20.8,1 20.5,1 Z" id="token" fill="#9F9F9F"></path>
        </g>
    </g>
</svg>