<?xml version="1.0" encoding="UTF-8"?>
<svg width="102px" height="76px" viewBox="0 0 102 76" version="1.1" xmlns="http://www.w3.org/2000/svg" xmlns:xlink="http://www.w3.org/1999/xlink">
    <!-- Generator: Sketch 63.1 (92452) - https://sketch.com -->
    <title>token/nomal@1x</title>
    <desc>Created with Sketch.</desc>
    <g id="token/nomal" stroke="none" stroke-width="1" fill="none" fill-rule="evenodd">
        <rect id="Rectangle" stroke="#E4E4E4" fill="#FFFFFF" x="0.5" y="0.5" width="101" height="75"></rect>
        <path d="M59.5,14 C60.3,14 61,14.7 61,15.5 L61,22.5 C61,22.6820814 60.9637382,22.8589826 60.8982888,23.0236294 C62.6181002,23.2275845 64,24.7342391 64,26.5 L64,45.5 C64,47.4 62.4,49 60.5,49 L42.5,49 C40.6,49 39,47.4 39,45.5 L39,26.5 C39,24.7342391 40.3818998,23.2275845 42.1022336,23.0235018 C42.0362618,22.8589826 42,22.6820814 42,22.5 L42,15.5 C42,14.7 42.7,14 43.5,14 L59.5,14 Z M60.5,24 L42.5,24 C41.1,24 40,25.1 40,26.5 L40,45.5 C40,46.9 41.1,48 42.5,48 L60.5,48 C61.9,48 63,46.9 63,45.5 L63,26.5 C63,25.1 61.9,24 60.5,24 Z M51.4,26.9 C54,26.9 55.9,28.6 55.9,30.9 L55.9,33 L56.6,33 C58,33 58.9,33.9 58.9,35.3 L58.9,42.5 C59,43.9 58,45 56.7,45 L46.4,45 C45,45 43.9,43.9 43.9,42.5 L43.9,35.3 C43.9,34 44.9,33 46.4,33 L46.9,33 L46.9,30.9 C46.9,28.6 48.8,26.9 51.4,26.9 Z M51.5,27.9 C49.4,27.9 48,29.1 48,30.9 L48,34 L46.5,34 C45.8,34 45,34.4 45,35.3 L45,42.5 C45,43.4 45.7,44 46.5,44 L56.7,44 C57.6,44 58,43.2 58,42.5 L58,35.3 C58,34.5 57.5,34 56.7,34 L55,34 L55,30.9 C55,29.1 53.6,27.9 51.5,27.9 Z M51.5,29.5 C53.1,29.5 54,30.6 54,31.2 L54,34 L49,34 L49,31.2 C49,30.6 49.7,29.5 51.5,29.5 Z M51.5,30.5 C50.4,30.5 50,31.1 50,31.2 L50,33 L53,33 L53,31.2 C53,31.2 52.5,30.5 51.5,30.5 Z M59.5,15 L43.5,15 C43.2,15 43,15.2 43,15.5 L43,22.5 C43,22.7958763 43.1945395,22.9944828 43.4876858,22.9998869 L59.512,22.999 L59.5961591,22.9927298 C59.8419753,22.954321 60,22.7666667 60,22.5 L60,15.5 C60,15.2 59.8,15 59.5,15 Z" id="token" fill="#9F9F9F" fill-rule="nonzero"></path>
    </g>
</svg>